<svg xmlns="http://www.w3.org/2000/svg" xmlns:xlink="http://www.w3.org/1999/xlink" width="592.208" height="507.036" viewBox="0 0 592.208 507.036">
  <defs>
    <linearGradient id="linear-gradient" x1="0.489" y1="0.994" x2="0.489" y2="-0.009" gradientUnits="objectBoundingBox">
      <stop offset="0" stop-color="gray" stop-opacity="0.251"/>
      <stop offset="0.54" stop-color="gray" stop-opacity="0.122"/>
      <stop offset="1" stop-color="gray" stop-opacity="0.102"/>
    </linearGradient>
  </defs>
  <g id="Gruppe_164" data-name="Gruppe 164" transform="translate(-0.003)">
    <ellipse id="Ellipse_135" data-name="Ellipse 135" cx="284.063" cy="253.518" rx="284.063" ry="253.518" transform="translate(24.085 0)" fill="#00a5a5" opacity="0.1"/>
    <path id="Pfad_636" data-name="Pfad 636" d="M848.175,329a72.465,72.465,0,0,0-72.465,72.465c0,40.026,72.465,139.45,72.465,139.45s72.465-99.454,72.465-139.45A72.465,72.465,0,0,0,848.175,329Zm0,109.769a58.732,58.732,0,1,0,.008-.024Z" transform="translate(-372.608 -149.165)" fill="#00a5a5" opacity="0.1"/>
    <path id="Pfad_637" data-name="Pfad 637" d="M189.16,516.988s-12.9-43.814,2.436-76.064a69.219,69.219,0,0,0,5.6-43.418,116.055,116.055,0,0,0-6.144-20.376" transform="translate(-141.253 -167.986)" fill="none" stroke="#535461" stroke-miterlimit="10" stroke-width="2"/>
    <path id="Pfad_638" data-name="Pfad 638" d="M198.623,336.99c0,5.371-9.743,20.942-9.743,20.942s-9.743-15.571-9.743-20.942a9.743,9.743,0,1,1,19.444,0Z" transform="translate(-139.31 -148.227)" fill="#00a5a5"/>
    <path id="Pfad_639" data-name="Pfad 639" d="M224.991,382.494c-2.917,4.512-19.541,12.295-19.541,12.295s.3-18.354,3.221-22.86a9.743,9.743,0,1,1,16.32,10.565Z" transform="translate(-149.608 -163.99)" fill="#00a5a5"/>
    <path id="Pfad_640" data-name="Pfad 640" d="M221.569,463.984c-4.8,2.436-23.079.749-23.079.749s9.53-15.693,14.323-18.11a9.743,9.743,0,1,1,8.757,17.361Z" transform="translate(-146.887 -194.633)" fill="#00a5a5"/>
    <path id="Pfad_641" data-name="Pfad 641" d="M206.766,527.42c-4.317,3.191-22.616,4.634-22.616,4.634S190.891,515,195.2,511.788a9.743,9.743,0,1,1,11.57,15.632Z" transform="translate(-141.279 -219.748)" fill="#00a5a5"/>
    <path id="Pfad_642" data-name="Pfad 642" d="M170.312,403.956c3.855,3.745,21.794,7.618,21.794,7.618s-4.391-17.824-8.245-21.563a9.743,9.743,0,0,0-13.549,13.945Z" transform="translate(-134.888 -172.116)" fill="#00a5a5"/>
    <path id="Pfad_643" data-name="Pfad 643" d="M152.14,476.608c4.792,2.436,23.073.749,23.073.749s-9.524-15.693-14.323-18.11a9.743,9.743,0,0,0-8.751,17.361Z" transform="translate(-126.892 -199.798)" fill="#00a5a5"/>
    <path id="Pfad_644" data-name="Pfad 644" d="M145.965,550.773c4.317,3.191,22.616,4.634,22.616,4.634s-6.741-17.051-11.059-20.272a9.743,9.743,0,1,0-11.57,15.638Z" transform="translate(-124.614 -228.888)" fill="#00a5a5"/>
    <ellipse id="Ellipse_136" data-name="Ellipse 136" cx="172.936" cy="27.884" rx="172.936" ry="27.884" transform="translate(141.107 374.437)" fill="#00a5a5" opacity="0.1"/>
    <path id="Pfad_645" data-name="Pfad 645" d="M358.07,773.743s17.051-3.41,21.606-7.959,25.016-12.5,27.287-6.82,30.7,25.016,11.369,28.426-45.476,4.549-51.152,2.277S358.07,773.743,358.07,773.743Z" transform="translate(-209.29 -316.531)" fill="#a8a8a8"/>
    <path id="Pfad_646" data-name="Pfad 646" d="M418.31,795.959c-19.328,3.41-45.476,4.549-51.152,2.278-4.33-1.735-7.338-10.054-8.525-13.927-.359.079-.572.116-.572.116s3.416,13.647,9.1,15.924,31.836,1.133,51.152-2.278c5.584-.986,7.18-3.294,6.577-6.223C424.43,793.761,422.481,795.228,418.31,795.959Z" transform="translate(-209.286 -327.214)" opacity="0.2"/>
    <path id="Pfad_647" data-name="Pfad 647" d="M839.73,678.877s17.051-3.41,21.606-7.959,25.01-12.526,27.275-6.82,30.7,25.016,11.369,28.426-45.483,4.549-51.152,2.271S839.73,678.877,839.73,678.877Z" transform="translate(-397.643 -279.43)" fill="#a8a8a8"/>
    <path id="Pfad_648" data-name="Pfad 648" d="M900,701.1c-19.328,3.41-45.482,4.549-51.152,2.271-4.33-1.729-7.307-10.048-8.525-13.921l-.566.116s3.41,13.647,9.1,15.918,31.836,1.139,51.152-2.271c5.578-.986,7.173-3.3,6.577-6.223C906.1,698.919,904.157,700.368,900,701.1Z" transform="translate(-397.655 -290.119)" opacity="0.2"/>
    <path id="Pfad_649" data-name="Pfad 649" d="M787.082,791.89s3.343,4.372-1.547,10.961-8.921,12.179-7.307,16.3c0,0,7.374-12.264,13.4-12.441S793.7,799.264,787.082,791.89Z" transform="translate(-373.452 -330.178)" fill="#00a5a5"/>
    <path id="Pfad_650" data-name="Pfad 650" d="M787.209,791.89a5.48,5.48,0,0,1,.682,1.37c5.858,6.881,8.976,13.306,3.349,13.464-5.249.152-11.54,9.53-13.05,11.9a5.656,5.656,0,0,0,.183.542s7.374-12.264,13.4-12.441S793.828,799.264,787.209,791.89Z" transform="translate(-373.578 -330.178)" opacity="0.1"/>
    <path id="Pfad_651" data-name="Pfad 651" d="M802.743,800.36c0,1.541-.177,2.789-.39,2.789s-.384-1.218-.384-2.789.213-.816.426-.816S802.743,798.843,802.743,800.36Z" transform="translate(-382.877 -333.1)" fill="#ffd037"/>
    <path id="Pfad_652" data-name="Pfad 652" d="M805.046,803.384c-1.352.737-2.527,1.181-2.631.993s.913-.932,2.265-1.669.816-.2.92,0S806.422,802.647,805.046,803.384Z" transform="translate(-383.048 -334.261)" fill="#ffd037"/>
    <path id="Pfad_653" data-name="Pfad 653" d="M759.175,791.89s-3.343,4.372,1.541,10.961,8.921,12.179,7.307,16.3c0,0-7.38-12.264-13.4-12.441S752.574,799.264,759.175,791.89Z" transform="translate(-363.204 -330.178)" fill="#00a5a5"/>
    <path id="Pfad_654" data-name="Pfad 654" d="M759.169,791.89a5.258,5.258,0,0,0-.682,1.37c-5.858,6.881-8.982,13.305-3.349,13.464,5.243.152,11.57,9.53,13.044,11.9a5.66,5.66,0,0,1-.177.542s-7.38-12.264-13.4-12.441S752.568,799.264,759.169,791.89Z" transform="translate(-363.198 -330.178)" opacity="0.1"/>
    <path id="Pfad_655" data-name="Pfad 655" d="M753.8,800.36c0,1.541.171,2.789.384,2.789s.384-1.218.384-2.789-.213-.816-.426-.816S753.8,798.843,753.8,800.36Z" transform="translate(-364.04 -333.1)" fill="#ffd037"/>
    <path id="Pfad_656" data-name="Pfad 656" d="M749.764,803.384c1.352.737,2.533,1.181,2.637.993s-.913-.932-2.265-1.669-.822-.2-.92,0S748.412,802.647,749.764,803.384Z" transform="translate(-362.142 -334.261)" fill="#ffd037"/>
    <path id="Pfad_657" data-name="Pfad 657" d="M755.55,832.488s9.353-.286,12.179-2.3,14.389-4.4,15.09-1.218,14.055,16.015,3.5,16.1-24.535-1.65-27.348-3.361S755.55,832.488,755.55,832.488Z" transform="translate(-364.725 -344.074)" fill="#a8a8a8"/>
    <path id="Pfad_658" data-name="Pfad 658" d="M786.491,847.229c-10.559.079-24.535-1.65-27.348-3.361-2.144-1.3-3-5.986-3.282-8.148h-.311s.609,7.545,3.4,9.256,16.789,3.447,27.348,3.361c3.045-.03,4.1-1.114,4.043-2.716C789.925,846.6,788.762,847.211,786.491,847.229Z" transform="translate(-364.725 -347.318)" opacity="0.2"/>
    <path id="Pfad_659" data-name="Pfad 659" d="M127.749,571.427a38.461,38.461,0,0,0,2,38.607c1.218,1.827,2.338,3.136,3.234,3.489,4.263,1.687,12.891,5.834,12.891,5.834l20.7-8.136s3.361-17.781,6.54-33.048h0c2.168-10.413,4.263-19.651,5.121-21.271,2.143-3.989,0-47.413,0-47.413s-20.7-1.388-26.4,14.572l-2.491,4.872Z" transform="translate(-117.56 -219.734)" fill="#a8a8a8"/>
    <path id="Pfad_660" data-name="Pfad 660" d="M171.061,576.235c12.587,14.426,17.9,1.949,17.9,1.949h0c2.168-10.413,4.263-19.651,5.121-21.271,2.144-3.989,0-47.413,0-47.413s-20.7-1.388-26.4,14.572l-2.491,4.872C163.595,541.714,162.018,565.871,171.061,576.235Z" transform="translate(-133.384 -219.738)" fill="#fff" opacity="0.1"/>
    <path id="Pfad_661" data-name="Pfad 661" d="M180.16,584.819l73.074-8.44,13.044-85.795-9.865-22.275a90.228,90.228,0,0,0-17.051-25.728c-4.963-5.225-10.961-10.261-17.27-12.788a25.43,25.43,0,0,0-2.637-.9,6.833,6.833,0,0,0-6.09,1.078c-9.012,6.388-12.234,33.547-13.275,46.621a145.912,145.912,0,0,1-2.174,16.009Z" transform="translate(-139.719 -188.112)" fill="#a8a8a8"/>
    <path id="Pfad_662" data-name="Pfad 662" d="M250.129,489.664l-15.224,37.45c7.983-5.834,19.8-37.6,19.8-37.6l10.62,36.22-8.44-38.175a119.438,119.438,0,0,0,1.072-25.058c-.664-9.579-9.664-24.967-14.548-32.707a25.415,25.415,0,0,0-2.637-.9,6.833,6.833,0,0,0-6.09,1.078c3.836,7.7,13.4,26.958,16.35,32.688C254.733,469.867,250.129,489.664,250.129,489.664Z" transform="translate(-161.039 -188.112)" fill="#fff" opacity="0.1"/>
    <path id="Pfad_663" data-name="Pfad 663" d="M280.46,625.6h52.181s-1.218-51.261-8.9-79.164c-2.856-10.352-6.175-15.833-9.22-18.518a8.958,8.958,0,0,0-5.243-2.466,6.881,6.881,0,0,0-4.263,1.035c-7.368,7.058-15.961,44.2-15.961,44.2Z" transform="translate(-178.941 -225.978)" fill="#a8a8a8"/>
    <path id="Pfad_664" data-name="Pfad 664" d="M321.382,625.912c1.632,4.524,2.277,9.743,0,14.828l-8.836,4.366s-23.749-10.072-20.863-30.7c0,0,.779-4.263,8.958-3.94A23.2,23.2,0,0,1,321.382,625.912Z" transform="translate(-183.235 -259.226)" fill="#fff" opacity="0.1"/>
    <path id="Pfad_665" data-name="Pfad 665" d="M317.879,538.427c-.268-7.234,3.654-9.713,6.9-10.541a8.958,8.958,0,0,0-5.243-2.466,13.884,13.884,0,0,0-4.567,7.307l-8.288,40.361S318.341,550.551,317.879,538.427Z" transform="translate(-189.194 -225.975)" fill="#fff" opacity="0.1"/>
    <path id="Pfad_666" data-name="Pfad 666" d="M109.271,565.51l19.645,26.861,3.4,22.16-12.611,6.229-20.875,4.6L46.5,620.76l6.753-15.65,23.329-32.743Z" transform="translate(-18.183 -221.143)" fill="#a8a8a8"/>
    <path id="Pfad_667" data-name="Pfad 667" d="M219.758,584.072s13.4.919,8.367,23.938-56.785,24.863-56.785,24.863,11-19.523,27.914-33.45c1.9-1.565,3.733-3.2,5.481-4.939C208.644,590.582,216.067,583.737,219.758,584.072Z" transform="translate(-136.27 -248.906)" fill="#fff" opacity="0.1"/>
    <path id="Pfad_668" data-name="Pfad 668" d="M270.64,612.56S288.8,629.075,287.082,654.5" transform="translate(-175.101 -260.051)" opacity="0.1"/>
    <path id="Pfad_669" data-name="Pfad 669" d="M307.185,527.12S288.137,552.452,286,591.425" transform="translate(-181.107 -226.64)" opacity="0.1"/>
    <path id="Pfad_670" data-name="Pfad 670" d="M204.569,509.49s9.244,41.865-13.8,73.415" transform="translate(-143.868 -219.745)" opacity="0.1"/>
    <path id="Pfad_671" data-name="Pfad 671" d="M339.444,680.046A8.907,8.907,0,0,1,336.5,675.6c-.384-1.766.371-3.885,2.058-4.531,1.888-.719,3.909.609,5.438,1.912s3.288,2.832,5.292,2.552a8.056,8.056,0,0,1-2.491-7.539,3.112,3.112,0,0,1,.694-1.528c1.047-1.12,2.953-.609,4.208.244,3.995,2.807,5.109,8.239,5.133,13.123.4-1.76.061-3.6.073-5.407s.505-3.812,2.028-4.78a6.132,6.132,0,0,1,3.1-.731c1.8-.061,3.794.116,5.018,1.431,1.528,1.632,1.133,4.372-.195,6.169s-3.343,2.923-5.2,4.159a11.613,11.613,0,0,0-3.715,3.544,3.745,3.745,0,0,0-.274.609H346.4a31.161,31.161,0,0,1-6.96-4.78Z" transform="translate(-200.816 -280.879)" fill="#00a5a5"/>
    <path id="Pfad_672" data-name="Pfad 672" d="M225.046,685.751a8.868,8.868,0,0,1-2.947-4.445c-.378-1.766.371-3.879,2.058-4.525,1.888-.725,3.909.609,5.438,1.912s3.288,2.832,5.292,2.552a8.057,8.057,0,0,1-2.491-7.539,3.111,3.111,0,0,1,.694-1.528c1.047-1.127,2.953-.646,4.208.244,3.995,2.807,5.109,8.233,5.133,13.117.4-1.76.061-3.593.073-5.4s.505-3.812,2.028-4.78a6.133,6.133,0,0,1,3.1-.731c1.79-.067,3.794.116,5.018,1.425,1.528,1.632,1.133,4.372-.195,6.169s-3.343,2.923-5.2,4.165a11.57,11.57,0,0,0-3.715,3.544,3.547,3.547,0,0,0-.274.609H231.994A31.39,31.39,0,0,1,225.046,685.751Z" transform="translate(-156.081 -283.107)" fill="#00a5a5"/>
    <path id="Pfad_673" data-name="Pfad 673" d="M116.79,670.136a8.9,8.9,0,0,1-2.941-4.445c-.378-1.766.371-3.885,2.058-4.531,1.888-.719,3.909.609,5.438,1.912s3.288,2.832,5.292,2.552a8.044,8.044,0,0,1-2.491-7.533,3.112,3.112,0,0,1,.719-1.51c1.047-1.12,2.947-.639,4.208.244,3.995,2.813,5.109,8.239,5.133,13.123.4-1.76.061-3.6.073-5.407s.505-3.806,2.028-4.78a6.09,6.09,0,0,1,3.093-.725c1.8-.067,3.8.11,5.024,1.425,1.528,1.632,1.133,4.372-.195,6.169s-3.343,2.923-5.2,4.165a11.479,11.479,0,0,0-3.715,3.544,3.544,3.544,0,0,0-.274.609H123.756A31.428,31.428,0,0,1,116.79,670.136Z" transform="translate(-113.75 -277.01)" fill="#00a5a5"/>
    <path id="Pfad_674" data-name="Pfad 674" d="M650.435,487.495c-.737-3.142-2.753-4.263-7.18-3.727-4.8.609-9.615,1.175-15.5-2.966-3.118-2.192-5.541-4.129-7.143-5.481l.262-.067s-11.917-14.925-11.125-23.5-5.541-30.764-5.541-30.764-.341-14.487-3.654-22.89a37.241,37.241,0,0,1-2.01-6.832c-2-10.614-7.9-38.626-17.477-51.006l-.579-24.723v-.95l.244.25a11.248,11.248,0,0,0,2.131-3.264c2.807,1.443,8.86,4.433,12.136,5.073,4.36.846,9.743,4.524,9.743,4.524s12.392,14.444,21.886,8.038-17.751-16.691-17.751-16.691-9.28-5.012-13.166-6.345c-2.753-.944-8.471-4.677-11.57-6.778-.055-.341-.11-.682-.177-1.029-1.827-9.268-4.415-12.818-3.331-18.506a21.237,21.237,0,0,1,1.346-4.263c3.654-8.641-11.57-20.637-11.57-20.637s-10.352-8.787-6.589-13.628c0,0,5.773-.609.84-5.249-.846-.8-1.723-1.541-2.588-2.217.036-.128.073-.25.116-.378a26.666,26.666,0,0,1,4.738-8.708c.329-.408.682-.81,1.047-1.218a18.585,18.585,0,0,0,13.762-18.287,18.269,18.269,0,0,0-4.975-12.13,4.872,4.872,0,0,0,1.577-4.159c.505-6.029-11.6-12.112-16.655-11.223-2.88.505-5.481,2.058-8.367,2.582-2.99.548-6.09-.049-9.134,0a22.245,22.245,0,0,0-11.5,3.361,5.834,5.834,0,0,0-2.137,2,7.667,7.667,0,0,0-.609,3.13c-.853,11.089-8.879,20.321-17.4,27.6a8.413,8.413,0,0,0-3.751,8.537c-.134,18.378-6.65,37.676-21.429,48.887q.34.224.7.414l-.682.536a11.612,11.612,0,0,0,15.224-3.045,45.06,45.06,0,0,1-6.089,14.3,3.928,3.928,0,0,0,.609-.03c-.2.329-.4.658-.609.98,6.68-.189,11.552-5.931,15.449-11.168.043.512.067,1.017.085,1.528a30.685,30.685,0,0,1-4.512,16.095l.609-.055c-.189.341-.384.676-.609,1,.968-.079,1.943-.183,2.911-.292-3.885,7.916-9.981,22.349-9.981,22.349l-2.3,5.657a25.763,25.763,0,0,1-5.255,8.105c-2.466,2.582-5.578,5.706-6.912,6.54-2.375,1.48-8.2,20.631,2.338,17.532s14.53-17.927,14.53-17.927a14.328,14.328,0,0,1,2.734-6.7,18.149,18.149,0,0,0,2-3.587,190.406,190.406,0,0,1,9.81-18.786,65.7,65.7,0,0,0,5.273-10.839,31.96,31.96,0,0,1,3.1-6.089,34.1,34.1,0,0,0,6.7-3.733,17.818,17.818,0,0,0,4.524-4.567,86.27,86.27,0,0,0,2.728,8.848c2.558,6.918,7.228,22.933.463,33.645-6.205,9.828-6.339,14.584-5.876,16.545a1.633,1.633,0,0,1-.085.317,17.769,17.769,0,0,0,1.571,13.025,16.74,16.74,0,0,1,1.906,7.253v.725a16.254,16.254,0,0,1-.658,4.957c-1.321,4.488-4.074,14.359-4.993,21.514-1.218,9.536-9.2,18.756-9.2,18.756s-21.161,22.83-29.23,49.636c0,0-4.549,11.515-7.868,13.969,0,0-6.315,3.757-7.368,10.961-.03.195-.055.39-.073.609L477,486.234s11.722,6.382,14.134,6.327l1.376-2.886,12.27,9.22,18.311-.432a5.635,5.635,0,0,0,1.321-1.218c.877-1.145,1.4-2.935-1.382-4.8a6.656,6.656,0,0,0-4.665-.974c-2.357.341-6.863-.438-11.083-9.256l-2.326-4.33.3.1s-4.013-6.558,3.983-15.3,19.486-31.824,19.486-31.824,15.613-12.727,18.311-20.869c0,0,10.413-17.58,16.442-28.012,1.011,2.18,1.827,3.83,1.827,3.83s12.447,16.819,14.195,29.613,13.573,44.356,18.6,52.8,5.1,11.759,5.1,11.759-3.185,7.959-1.206,14.548a.811.811,0,0,0,.061.207l.091,3.8,14.006.152-.043-1.9,17.854.53s17.233-5.158,16.667-8.945C650.551,488.049,650.5,487.763,650.435,487.495Z" transform="translate(-255.798 -89.99)" fill="url(#linear-gradient)"/>
    <path id="Pfad_675" data-name="Pfad 675" d="M613.182,249.726a28.26,28.26,0,0,0-5.821,5.426,26.33,26.33,0,0,0-4.579,8.525,23.475,23.475,0,0,0-1.218,7.758l-9.012-7.7-11.6,2.6a36.267,36.267,0,0,0,6.217-7.819,39.252,39.252,0,0,0,3.654-8.2,30.452,30.452,0,0,0,1.279-5.688S625.574,241.042,613.182,249.726Z" transform="translate(-296.447 -115.884)" fill="#efb4b6"/>
    <path id="Pfad_676" data-name="Pfad 676" d="M527.47,684.341a5.68,5.68,0,0,1-1.279,1.218l-17.708.414-11.875-9.049-1.334,2.832c-2.326.049-13.665-6.211-13.665-6.211l1.321-3.294a5.82,5.82,0,0,1,.067-.609c1.017-7.1,7.125-10.784,7.125-10.784l2.308-.987,14.073,3.4,4.391,8.288c4.086,8.647,8.446,9.42,10.724,9.079a6.383,6.383,0,0,1,4.512.962C528.822,681.461,528.317,683.221,527.47,684.341Z" transform="translate(-257.601 -277.769)" fill="#565388"/>
    <path id="Pfad_677" data-name="Pfad 677" d="M726.8,677.676c.554,3.721-16.119,8.775-16.119,8.775l-17.27-.53.049,1.863-13.531-.146-.085-3.733a.847.847,0,0,0-.061-.2c-1.894-6.443,1.12-14.28,1.12-14.28l1.34-2.363L695.672,663a90,90,0,0,0,9.031,7.247c5.688,4.068,10.352,3.489,14.992,2.917,4.263-.53,6.23.578,6.936,3.654C726.7,677.109,726.747,677.383,726.8,677.676Z" transform="translate(-334.85 -279.775)" fill="#565388"/>
    <path id="Pfad_678" data-name="Pfad 678" d="M574.53,476.382c-.445.95-1.912,3.593-3.849,7.015-5.8,10.243-15.833,27.494-15.833,27.494-2.612,7.989-17.708,20.467-17.708,20.467s-11.132,22.647-18.877,31.221-3.843,15.011-3.843,15.011l-18.81-6.552c3.209-2.405,7.612-13.7,7.612-13.7,7.776-26.3,28.237-48.716,28.237-48.716s7.715-9.043,8.9-18.4c.883-7.021,3.544-16.71,4.823-21.106a16.016,16.016,0,0,0,.609-4.872v-.712a16.7,16.7,0,0,0-1.827-7.113,17.659,17.659,0,0,1-1.51-12.788,14.613,14.613,0,0,1,1.827-4.324l4.6-1.34,16.247-4.75s1,3.544,2.363,8.6C570.657,453.644,575.772,473.746,574.53,476.382Z" transform="translate(-263.075 -189.92)" fill="#7679b4"/>
    <path id="Pfad_679" data-name="Pfad 679" d="M574.016,475.506c-.445.95-1.906,3.593-3.849,7.015-5.8,10.243-15.863,27.494-15.863,27.494-2.625,8-17.708,20.467-17.708,20.467S525.47,553.129,517.718,561.7s-3.794,15.011-3.794,15.011l-18.8-6.552c3.2-2.405,7.606-13.7,7.606-13.7,7.776-26.3,28.237-48.716,28.237-48.716s7.685-9.025,8.866-18.354c.883-7.021,3.544-16.71,4.823-21.106a16.215,16.215,0,0,0,.609-4.872V462.7a16.636,16.636,0,0,0-1.827-7.119,17.659,17.659,0,0,1-1.51-12.788,14.912,14.912,0,0,1,1.827-4.33l4.6-1.334,16.247-4.75s1.011,3.538,2.363,8.6C570.149,452.768,575.258,472.869,574.016,475.506Z" transform="translate(-262.884 -189.592)" opacity="0.1"/>
    <path id="Pfad_680" data-name="Pfad 680" d="M658.033,559.263l-17.16,4.6s-.079-3.258-4.933-11.54-16.314-39.259-18.007-51.809S604.2,471.452,604.2,471.452s-.792-1.62-1.766-3.763c-.9-1.979-1.949-4.4-2.667-6.394-1.5-4.159-8.166-10.066-8.166-10.066-12.209-6.771-14.615-14.883-14.755-19.949a14.229,14.229,0,0,1,.652-4.908l3.13-4.1,5.919-7.77,20.016-21.453,12.179,2.509.737,31.233c9.262,12.124,14.98,39.643,16.886,50.056a36.187,36.187,0,0,0,1.943,6.7c3.209,8.251,3.544,22.464,3.544,22.464s6.09,21.776,5.371,30.186S658.033,559.263,658.033,559.263Z" transform="translate(-294.836 -174.211)" fill="#7679b4"/>
    <path id="Pfad_681" data-name="Pfad 681" d="M647.933,380.26s9.487,6.778,13.251,8.087,12.727,6.23,12.727,6.23,26.355,10.109,17.172,16.387-21.167-7.916-21.167-7.916-5.219-3.611-9.433-4.445S647.3,392.89,647.3,392.89Z" transform="translate(-322.394 -169.21)" fill="#efb4b6"/>
    <path id="Pfad_682" data-name="Pfad 682" d="M620.33,249.726a28.262,28.262,0,0,0-5.821,5.426,19,19,0,0,1-3.368.39c-5.127.122-7.782-5.481-11.168-8.836,1.066-3.386-.743-2.077-.743-2.077S632.722,241.042,620.33,249.726Z" transform="translate(-303.596 -115.884)" opacity="0.1"/>
    <circle id="Ellipse_137" data-name="Ellipse 137" cx="18.183" cy="18.183" r="18.183" transform="translate(288.918 102.358)" fill="#efb4b6"/>
    <path id="Pfad_683" data-name="Pfad 683" d="M601.569,280.668l-9.019-7.715-11.6,2.6a36.267,36.267,0,0,0,6.217-7.819h.079a15.571,15.571,0,0,1,11.26,2.156,45.062,45.062,0,0,1,4.3,3.045A23.476,23.476,0,0,0,601.569,280.668Z" transform="translate(-296.447 -125.1)" opacity="0.1"/>
    <path id="Pfad_684" data-name="Pfad 684" d="M617.045,395.559l.164,6.973c-1.4-1.407-8.4-8.044-6.491,1.571,2.119,10.681-10.291,18.433-10.291,18.433q-1.461,2-2.886,3.587c-9.841,10.906-18.561,7.581-22.391,5.158a13.344,13.344,0,0,1-2.07-1.577,3.294,3.294,0,0,1-.609-1.766,14.616,14.616,0,0,1,1.827-4.324l4.6-1.34,5.919-7.77L604.83,393.05Z" transform="translate(-293.131 -174.212)" opacity="0.1"/>
    <path id="Pfad_685" data-name="Pfad 685" d="M616.689,353.021s-8.848-9.353-6.7,1.321-10.3,18.433-10.3,18.433c-14.456,19.925-27.348,7.167-27.348,7.167s-3.349-3.654,5.188-17.379c6.54-10.5,2.022-26.221-.457-33.011a86.67,86.67,0,0,1-2.71-8.958l-.609-2.436-1.394-5.7a61.234,61.234,0,0,1-1.522-20.357,58.379,58.379,0,0,1,2.838-13.4,23.294,23.294,0,0,1,3.124-6.589,10.578,10.578,0,0,1,6.394-3.654,15.547,15.547,0,0,1,11.26,2.15,42.59,42.59,0,0,1,6.7,5.121c4.774,4.549-.81,5.146-.81,5.146-3.617,4.75,6.376,13.4,6.376,13.4s14.731,11.777,11.2,20.254-.2,11.2,1.924,22.342S616.689,353.021,616.689,353.021Z" transform="translate(-292.391 -125.383)" fill="#565388"/>
    <path id="Pfad_686" data-name="Pfad 686" d="M569.932,188.066c-2.789.5-5.31,2.022-8.093,2.539-2.9.53-5.87-.049-8.811,0A21.24,21.24,0,0,0,541.9,193.9a5.736,5.736,0,0,0-2.07,1.967,7.561,7.561,0,0,0-.609,3.045c-.822,10.882-8.58,19.931-16.825,27.08a11.187,11.187,0,0,0-2.8,3.045,11.431,11.431,0,0,0-.828,5.3c-.128,18.031-6.418,36.969-20.7,47.961a11.093,11.093,0,0,0,15.084-3.538,44.49,44.49,0,0,1-6.181,15.5c6.37-.134,11.065-5.767,14.84-10.9a30.368,30.368,0,0,1-4.263,18.22c8.525-.737,17.233-2.576,24.127-7.618,3.16-2.308,6.023-5.669,5.956-9.579-.036-2.235-1.035-4.33-1.748-6.455-1.857-5.529-1.413-12.5,3.191-16.089a17.35,17.35,0,0,0,2.436-1.918,8.076,8.076,0,0,0,1.638-4.378,31.158,31.158,0,0,0-.566-11.46,8.435,8.435,0,0,1-.371-2.436,5.446,5.446,0,0,1,2.874-4.056,50.6,50.6,0,0,1,4.719-2.113,16.2,16.2,0,0,0,9.061-14.31c0-1.748-.225-3.7.877-5.042,1.638-2,5.048-1.315,7.009-3,1.857-1.589,1.65-4.549,2.947-6.625,1.066-1.705,3.045-2.612,4.488-3.983C591.422,195.805,575.784,187.024,569.932,188.066Z" transform="translate(-264.037 -94.019)" opacity="0.1"/>
    <path id="Pfad_687" data-name="Pfad 687" d="M596.74,294.7v.116l-11.485,15.571-7.046,9.554s-1.912,1.827-4.482,4.573l-1.394-5.7a61.234,61.234,0,0,1-1.522-20.357,37,37,0,0,1,8.2-11.259,10.663,10.663,0,0,1,17.727,7.5Z" transform="translate(-292.379 -131.767)" opacity="0.1"/>
    <path id="Pfad_688" data-name="Pfad 688" d="M569.864,186.536c-2.789.5-5.31,2.022-8.093,2.533-2.893.536-5.864-.049-8.812,0a21.252,21.252,0,0,0-11.107,3.276,5.737,5.737,0,0,0-2.07,1.967,7.563,7.563,0,0,0-.609,3.045c-.816,10.882-8.58,19.931-16.825,27.08a11.283,11.283,0,0,0-2.8,3.045,11.5,11.5,0,0,0-.828,5.3c-.122,18.031-6.418,36.969-20.7,47.961A11.091,11.091,0,0,0,513.1,277.2a44.452,44.452,0,0,1-6.169,15.54c6.37-.134,11.065-5.773,14.84-10.906a30.381,30.381,0,0,1-4.275,18.214c8.525-.737,17.233-2.576,24.133-7.618,3.154-2.308,6.023-5.669,5.956-9.579-.043-2.235-1.035-4.33-1.748-6.455-1.863-5.529-1.419-12.5,3.185-16.088a17.368,17.368,0,0,0,2.436-1.924,8.04,8.04,0,0,0,1.638-4.372,31.331,31.331,0,0,0-.572-11.467,8.353,8.353,0,0,1-.365-2.436,5.438,5.438,0,0,1,2.868-4.056,51.324,51.324,0,0,1,4.719-2.113,16.2,16.2,0,0,0,9.085-14.274c0-1.748-.231-3.7.877-5.048,1.638-1.991,5.042-1.309,7-2.99,1.863-1.589,1.65-4.549,2.947-6.625,1.066-1.705,3.045-2.612,4.494-3.983C591.378,194.269,575.74,185.494,569.864,186.536Z" transform="translate(-264.018 -93.421)" fill="#a66477"/>
    <path id="Pfad_689" data-name="Pfad 689" d="M564.26,293.229v.116l-11.491,15.589-7.039,9.561S532.5,330.929,529,340.807a65.175,65.175,0,0,1-5.079,10.62,187.208,187.208,0,0,0-9.481,18.427,17.842,17.842,0,0,1-1.93,3.514,14.232,14.232,0,0,0-2.643,6.595S506,394.51,495.814,397.542s-4.567-15.747-2.265-17.2c1.291-.816,4.293-3.879,6.7-6.412a25.272,25.272,0,0,0,5.085-7.953l2.223-5.548s10.6-25.43,12.429-26.873a6.254,6.254,0,0,0,1.34-1.62c1.468-2.387,2.96-4.768,4.494-7.113,2.016-3.081,5.207-9.226,9.78-21.478.323-.865.646-1.687.98-2.484,3.13-7.5,6.7-12.179,9.975-15.114a10.663,10.663,0,0,1,17.708,7.484Z" transform="translate(-260.849 -131.206)" fill="#efb4b6"/>
    <path id="Pfad_690" data-name="Pfad 690" d="M594.3,293.012v.122l-11.7,15.875-16.509-8.221c3.185-7.642,6.814-12.417,10.157-15.394a10.858,10.858,0,0,1,18.049,7.618Z" transform="translate(-290.636 -131.044)" fill="#565388"/>
    <path id="Pfad_691" data-name="Pfad 691" d="M588.63,279.4s12.4,5.322,18.494,5.645" transform="translate(-299.451 -129.769)" opacity="0.1"/>
    <path id="Pfad_692" data-name="Pfad 692" d="M727.2,686.564c.554,3.721-16.119,8.775-16.119,8.775l-17.27-.53.049,1.863-13.531-.146-.085-3.733a.844.844,0,0,0-.061-.2l31.056.645,15.772-7.508A5.2,5.2,0,0,1,727.2,686.564Z" transform="translate(-335.251 -288.664)" opacity="0.1"/>
    <path id="Pfad_693" data-name="Pfad 693" d="M527.47,691.9a5.681,5.681,0,0,1-1.279,1.218l-17.708.414-11.875-9.049-1.334,2.832c-2.326.049-13.665-6.211-13.665-6.211l1.321-3.294A5.819,5.819,0,0,1,483,677.2l13.817,6.089,11.862,8.58Z" transform="translate(-257.601 -285.328)" opacity="0.1"/>
    <path id="Pfad_694" data-name="Pfad 694" d="M576.78,435.524s6.662-14.146,13.531-18.524" transform="translate(-294.817 -183.577)" opacity="0.1"/>
    <path id="Pfad_695" data-name="Pfad 695" d="M620.3,343.78s3.9,7.271,15.729,4.482" transform="translate(-311.835 -154.944)" opacity="0.1"/>
    <path id="Pfad_696" data-name="Pfad 696" d="M466.048,135.821h-3.824a2.679,2.679,0,0,0,0-5.353H431.216a2.679,2.679,0,1,0,0,5.353h3.824a2.679,2.679,0,1,0,0,5.359h-5.353a2.679,2.679,0,1,0,0,5.353h31a2.679,2.679,0,1,0,0-5.353h5.359a2.679,2.679,0,1,0,0-5.359Z" transform="translate(-236.198 -71.528)" fill="#00a5a5" opacity="0.1"/>
    <path id="Pfad_697" data-name="Pfad 697" d="M933.643,288.379h-3.824a2.679,2.679,0,1,0,0-5.359H898.836a2.679,2.679,0,1,0,0,5.359h3.824a2.679,2.679,0,1,0,0,5.353h-5.353a2.679,2.679,0,1,0,0,5.353H928.3a2.679,2.679,0,1,0,0-5.353h5.359a2.679,2.679,0,0,0,0-5.353Z" transform="translate(-419.061 -131.184)" fill="#00a5a5" opacity="0.1"/>
    <path id="Pfad_698" data-name="Pfad 698" d="M370.86,262h-3.824a2.679,2.679,0,1,0,0-5.359H336.046a2.679,2.679,0,1,0,0,5.359h3.824a2.679,2.679,0,0,0,0,5.353h-5.353a2.679,2.679,0,1,0,0,5.353H365.5a2.679,2.679,0,0,0,0-5.353h5.359a2.679,2.679,0,1,0,0-5.353Z" transform="translate(-198.982 -120.868)" fill="#00a5a5" opacity="0.1"/>
  </g>
</svg>
