<svg xmlns="http://www.w3.org/2000/svg" width="681.136" height="410.172" viewBox="0 0 681.136 410.172">
  <g id="Gruppe_165" data-name="Gruppe 165" transform="translate(0 -0.018)">
    <path id="Pfad_699" data-name="Pfad 699" d="M742.475,379.02l5.841-1.01c.56-.1,1.117-.218,1.676-.319a47.945,47.945,0,0,1,30.613-88.383l-7.655,18.216,18.137-15.837a.821.821,0,0,1,.124.041,47.947,47.947,0,0,1,29.3,61.155c-.3.864-.664,1.688-1.011,2.523a57.322,57.322,0,0,0,14.038-9.4c8.109-7.771,12.552-18.494,17.518-31.7,9.837-26.18,19.308-52.739,28.4-79.355A47.926,47.926,0,0,1,857.044,176.9c.487-1.384,1.052-2.717,1.65-4.026.15-.328.3-.653.457-.976.608-1.255,1.25-2.484,1.954-3.665.115-.193.244-.374.362-.566q.92-1.492,1.94-2.9c.253-.351.506-.7.768-1.045.771-1.008,1.569-1.989,2.411-2.925.281-.313.58-.606.868-.911q.97-1.023,1.993-1.985c.36-.338.715-.677,1.085-1,.095-.084.183-.175.278-.258l.013.019a47.914,47.914,0,0,1,61.3-1.377L922.165,179,940.1,163.347a47.682,47.682,0,0,1,1.772,56.47l.05.016c-.2.288-.418.551-.62.834q-.567.8-1.161,1.563c-.51.656-1.039,1.29-1.579,1.915-.408.472-.81.948-1.234,1.4-.621.664-1.271,1.293-1.926,1.918-.382.365-.748.748-1.141,1.1q-1.546,1.381-3.2,2.621c-.386.289-.794.545-1.189.822-.774.544-1.551,1.08-2.355,1.577-.5.308-1.01.59-1.519.879-.737.42-1.478.826-2.236,1.206-.537.269-1.078.525-1.624.774-.778.354-1.565.683-2.36,1-.534.21-1.065.422-1.606.613-.893.315-1.8.588-2.711.849-.46.132-.913.284-1.377.4-1.367.349-2.75.646-4.149.873-.263.043-.531.059-.795.1-1.159.169-2.325.3-3.5.388-.505.036-1.013.041-1.52.06-.95.037-1.9.056-2.856.035-.557-.012-1.115-.041-1.673-.072q-1.4-.079-2.794-.243c-.551-.064-1.1-.127-1.653-.211-1-.152-2-.35-2.995-.567-.065-.014-.131-.023-.2-.037q-5.757,16.844-11.727,33.616A47.914,47.914,0,0,1,949.7,278.97L933.124,297.3l22.444-8.96a47.783,47.783,0,0,1,1.918,36.5,47.035,47.035,0,0,1-6.09,11.783,47.928,47.928,0,0,1-86.6-21.028c-.422,1.127-.829,2.267-1.252,3.393-4.382,11.655-9.833,26.16-20.78,36.646-7.42,7.108-16.55,11.617-25.31,15.43q-8.556,3.724-17.339,6.885a48.052,48.052,0,0,1-21.458,6.839c-9.239,2.567-18.6,4.709-28.039,6.363l-5.888,1.015c-5.292.907-10.718,1.84-16.1,2.915.775.23,1.552.45,2.323.721a47.963,47.963,0,0,1,32.018,46.663L726.052,453.8l33.4,5.3a47.97,47.97,0,0,1-79.93,14.185q.508,1.7,1.021,3.4c.678,2.251,1.351,4.488,2,6.7,8.79,30.2,5.007,53.961-10.654,66.9l-8.5-10.286c15.242-12.591,10.513-38.535,6.34-52.882-.634-2.177-1.3-4.375-1.963-6.585-5.725-19.019-12.215-40.577-3.809-60.386C676.629,390.295,713.14,384.043,742.475,379.02Z" transform="translate(-279.085 -144.859)" fill="#f2f2f2"/>
    <path id="Pfad_700" data-name="Pfad 700" d="M624.856,608.618H366.21a31.98,31.98,0,0,1-31.98-31.98v-118.5a12.669,12.669,0,0,1,3.954-9.2L475.24,319.025a29.5,29.5,0,0,1,40.586,0L646.5,442.9a33.117,33.117,0,0,1,10.334,24.035V576.638a31.98,31.98,0,0,1-31.981,31.98Z" transform="translate(-172.285 -199.31)" fill="#3f3d56"/>
    <path id="Pfad_701" data-name="Pfad 701" d="M240.954,387.992H560.873V517.214a19.311,19.311,0,0,1-19.311,19.311h-281.3a19.311,19.311,0,0,1-19.311-19.311V387.992Z" transform="translate(-79.009 -127.218)" opacity="0.1"/>
    <path id="Pfad_702" data-name="Pfad 702" d="M333.73,521.351" transform="translate(-172.121 -268.306)" fill="none" stroke="#3f3d56" stroke-miterlimit="10" stroke-width="1"/>
    <rect id="Rechteck_298" data-name="Rechteck 298" width="237.923" height="237.923" rx="26.181" transform="translate(203.951 158.952)" fill="#00a5a5"/>
    <path id="Pfad_703" data-name="Pfad 703" d="M541.377,395.942V526.7H303.454V395.942l118.961,57.5Z" transform="translate(-99.503 -129.824)" opacity="0.1"/>
    <path id="Pfad_704" data-name="Pfad 704" d="M495.033,601.107,342.606,527.433A6.185,6.185,0,0,0,333.73,533V659.759a19.311,19.311,0,0,0,19.311,19.311H637.026a19.311,19.311,0,0,0,19.311-19.311V535.173a7.547,7.547,0,0,0-10.831-6.795Z" transform="translate(-172.121 -270.098)" fill="#3f3d56"/>
    <rect id="Rechteck_299" data-name="Rechteck 299" width="66.538" height="9.409" transform="translate(224.45 180.795)" fill="#f2f2f2"/>
    <rect id="Rechteck_300" data-name="Rechteck 300" width="197.597" height="5.377" transform="translate(219.073 215.072)" fill="#f2f2f2"/>
    <rect id="Rechteck_301" data-name="Rechteck 301" width="197.597" height="5.377" transform="translate(219.073 233.218)" fill="#f2f2f2"/>
    <rect id="Rechteck_302" data-name="Rechteck 302" width="197.597" height="5.377" transform="translate(219.073 251.365)" fill="#f2f2f2"/>
    <line id="Linie_5" data-name="Linie 5" x2="553.809" transform="translate(40.967 408.972)" fill="none" stroke="#3f3d56" stroke-miterlimit="10" stroke-width="1"/>
    <path id="Pfad_705" data-name="Pfad 705" d="M93.275,630.212c0,39.627,24.86,71.693,55.582,71.693" transform="translate(-93.275 -304.002)" fill="#46455b"/>
    <path id="Pfad_706" data-name="Pfad 706" d="M175.975,701.513c0-40.072,27.742-72.5,62.026-72.5" transform="translate(-120.393 -303.609)" fill="#00a5a5"/>
    <path id="Pfad_707" data-name="Pfad 707" d="M123.239,635.557c0,37.641,15.853,68.1,35.444,68.1" transform="translate(-103.1 -305.754)" fill="#00a5a5"/>
    <path id="Pfad_708" data-name="Pfad 708" d="M175.975,691.688c0-51.2,32.066-92.637,71.693-92.637" transform="translate(-120.393 -293.784)" fill="#46455b"/>
    <path id="Pfad_709" data-name="Pfad 709" d="M158.577,735.557s7.882-.243,10.258-1.934,12.125-3.711,12.715-1,11.846,13.493,2.947,13.565-20.678-1.386-23.049-2.83S158.577,735.557,158.577,735.557Z" transform="translate(-114.688 -337.148)" fill="#a8a8a8"/>
    <path id="Pfad_710" data-name="Pfad 710" d="M184.655,747.318c-8.9.072-20.678-1.386-23.049-2.83-1.806-1.1-2.525-5.047-2.766-6.867l-.263.01s.5,6.357,2.87,7.8,14.15,2.9,23.049,2.83c2.569-.021,3.456-.935,3.407-2.288C187.547,746.791,186.567,747.3,184.655,747.318Z" transform="translate(-114.688 -339.221)" opacity="0.2"/>
    <path id="Pfad_711" data-name="Pfad 711" d="M810.74,302.137c-.4,3.6-3.149,6.5-4.166,9.973-1.531,5.231,1.116,10.845,4.737,14.919a33.04,33.04,0,0,0,23.008,10.925,9.813,9.813,0,0,0,3.8-.415,8.143,8.143,0,0,0,2.894-1.978,18.5,18.5,0,0,0,4.774-10.352,55.112,55.112,0,0,0,.129-11.569,6.533,6.533,0,0,0-.427-2.333,5.978,5.978,0,0,0-1.5-1.846,35,35,0,0,0-6.445-4.682,7.4,7.4,0,0,1-2.7-2.067,6.677,6.677,0,0,1-.835-2.474l-.712-3.629a7.132,7.132,0,0,0-1.046-2.941c-1.258-1.7-3.664-1.928-5.775-2.011l-7.732-.3c-2.405-.094-5.575-.784-7.923-.312-2.193.441-1.464,2.462-1.066,4.3A31.1,31.1,0,0,1,810.74,302.137Z" transform="translate(-327.022 -192.734)" fill="#a0616a"/>
    <path id="Pfad_712" data-name="Pfad 712" d="M810.74,302.137c-.4,3.6-3.149,6.5-4.166,9.973-1.531,5.231,1.116,10.845,4.737,14.919a33.04,33.04,0,0,0,23.008,10.925,9.813,9.813,0,0,0,3.8-.415,8.143,8.143,0,0,0,2.894-1.978,18.5,18.5,0,0,0,4.774-10.352,55.112,55.112,0,0,0,.129-11.569,6.533,6.533,0,0,0-.427-2.333,5.978,5.978,0,0,0-1.5-1.846,35,35,0,0,0-6.445-4.682,7.4,7.4,0,0,1-2.7-2.067,6.677,6.677,0,0,1-.835-2.474l-.712-3.629a7.132,7.132,0,0,0-1.046-2.941c-1.258-1.7-3.664-1.928-5.775-2.011l-7.732-.3c-2.405-.094-5.575-.784-7.923-.312-2.193.441-1.464,2.462-1.066,4.3A31.1,31.1,0,0,1,810.74,302.137Z" transform="translate(-327.022 -192.734)" opacity="0.1"/>
    <path id="Pfad_713" data-name="Pfad 713" d="M866.55,539.949q-1.643,18.018-3.287,36.03c-.858,9.45-1.732,18.939-3.414,28.267-.581,3.215-1.262,6.413-2.069,9.583-2.246,8.8-5.505,17.406-6.556,26.43-.033.26-.061.526-.089.791a22.981,22.981,0,0,1-1.123,5.865c-.526,1.378-1.333,2.634-1.9,3.995-1.134,2.722-1.284,5.732-1.422,8.681a37.424,37.424,0,0,0-12.886-4.4c-2.185-.326-4.62-.559-6.108-2.191-1.649-1.8-1.466-4.565-1.19-6.988q1.3-11.287,2.6-22.563a58.8,58.8,0,0,1,1.643-9.583c.3-1.046.658-2.075,1.024-3.1.5-1.416,1.012-2.833,1.394-4.288a51.652,51.652,0,0,0,1.151-7.143c.891-7.569,1.964-15.121,2.9-22.685l.05-.4c1.411-11.464,2.484-22.984,2.174-34.531-.044-1.71-.116-3.419-.227-5.135-.155-2.484-.382-3.8,1.676-5.356a38.7,38.7,0,0,1,7.868-4.039c1.4-.609,16.814-6.081,17.174-4.88a30.034,30.034,0,0,1,1.129,7.868A87.54,87.54,0,0,1,866.55,539.949Z" transform="translate(-333.643 -268.562)" fill="#605d82"/>
    <path id="Pfad_714" data-name="Pfad 714" d="M862.508,630.646c-.581,3.215-1.262,6.413-2.069,9.583-2.246,8.8-5.505,17.406-6.556,26.431-.033.26-.061.526-.089.791-6.872-9.815-12.659-20.372-19.365-30.292.5-1.416,1.013-2.833,1.394-4.288a51.642,51.642,0,0,0,1.151-7.143c.891-7.569,1.964-15.121,2.9-22.685l.05-.4A23.5,23.5,0,0,0,841.6,607.3c4.5,9.151,15.2,13.777,20.438,22.535Q862.284,630.24,862.508,630.646Z" transform="translate(-336.301 -294.962)" opacity="0.1"/>
    <path id="Pfad_715" data-name="Pfad 715" d="M793.229,502.85a170.263,170.263,0,0,0,2.574,21.863l2.419,14.957c1.324,8.186,2.7,16.538,6.576,23.87,2.9,5.484,7.073,10.165,10.85,15.085,9.285,12.1,16.261,25.8,25.065,38.251,2.559,3.619,6.217,7.533,10.585,6.777,2.866-.5,4.948-2.883,7.2-4.723,2.656-2.169,5.858-3.757,7.948-6.476s2.5-7.239-.332-9.174a14.938,14.938,0,0,0-3.241-1.326c-4.39-1.669-7.231-5.956-9.039-10.291s-2.9-9-5.312-13.027c-5.234-8.758-15.936-13.384-20.44-22.538-2.523-5.127-2.764-11.037-2.956-16.748l-.492-14.559a10.631,10.631,0,0,1,.551-4.7c1.723-3.875,6.926-4.236,11.139-4.728a38.1,38.1,0,0,0,13.65-4.307c2.426-1.31,4.8-2.981,6.095-5.414,1.184-2.22,1.348-4.823,1.487-7.335l1.459-26.385a16.522,16.522,0,0,0-.56-6.745c-2.009-5.343-8.756-7.09-14.459-6.835-10.612.474-20.409,5.04-30.415,8.122a77.336,77.336,0,0,1-7.539,1.966c-2.246.451-4.964.264-7.105.986-3.809,1.284-3.712,9.614-4.252,13.069a110.013,110.013,0,0,0-1.455,20.368Z" transform="translate(-322.783 -247.636)" fill="#605d82"/>
    <path id="Pfad_716" data-name="Pfad 716" d="M876.468,697.641a6.747,6.747,0,0,1,1.485,3.633,124.064,124.064,0,0,1,2.1,21.973,3.588,3.588,0,0,0,.4,1.991,2.5,2.5,0,0,0,1.034.831c2.7,1.289,5.844-.507,8.1-2.482,4.178-3.66,7.713-8.572,7.95-14.121a32.811,32.811,0,0,1,.15-4.283c.367-2.089,1.587-3.909,2.662-5.738a48.424,48.424,0,0,0,4.4-9.861c.411-1.293.684-2.92-.329-3.822a3.683,3.683,0,0,0-1.2-.626L890.992,680.6c-1.059-.393-3.693,6.374-4.111,7.114a5.591,5.591,0,0,1-4.092,3.255c-2.095.426-4.588-.185-6.543.86C872.939,693.595,874.6,695.753,876.468,697.641Z" transform="translate(-349.393 -320.518)" fill="#535070"/>
    <path id="Pfad_717" data-name="Pfad 717" d="M842.663,711.15a3.746,3.746,0,0,0-.93-1.179,4.206,4.206,0,0,0-1.876-.637c-2.326-.395-5.083-.655-6.688,1.074-1.505,1.621-1.246,4.261-2.5,6.081-.4.576-.938,1.05-1.283,1.66a6.258,6.258,0,0,0-.563,2.977c-.065,2.82-.13,5.644.065,8.458.163,2.358.561,4.828,2.035,6.675,2.367,2.965,6.635,3.391,10.423,3.583l3.068.156a5.99,5.99,0,0,0,2.515-.231,4.139,4.139,0,0,0,2.169-2.386c1.6-3.97-.932-8.247-2.49-12.232C844.811,720.567,845.133,715.481,842.663,711.15Z" transform="translate(-334.44 -329.851)" fill="#535070"/>
    <path id="Pfad_718" data-name="Pfad 718" d="M806.519,266.833a2.535,2.535,0,0,1,.172-1.183c.449-.795,1.623-.578,2.508-.355,3.56.9,7.311.085,10.976.295s7.794,2.042,8.531,5.639a26.766,26.766,0,0,0,6.767-6.953,8.348,8.348,0,0,0,1.765-5.092c-.2-2.633-2.409-4.6-4.455-6.273l-6.1-4.978a9.19,9.19,0,0,0-2.73-1.736,13.608,13.608,0,0,0-4.432-.251c-4.439,0-9.172-2.017-13.12.012a14.161,14.161,0,0,0-4.087,3.717l-5.443,6.443a3.441,3.441,0,0,0-.87,1.475,6.55,6.55,0,0,0,.39,2.352c.257,1.439-.363,2.975.114,4.358.791,2.295,3.577,2.619,5.281,3.935.635.49,1.63,2.152,2.386,2.132C805.54,270.332,806.484,267.894,806.519,266.833Z" transform="translate(-323.69 -177.707)" fill="#3f3d56"/>
    <circle id="Ellipse_138" data-name="Ellipse 138" cx="17.429" cy="17.429" r="17.429" transform="translate(474.635 73.26)" fill="#a0616a"/>
    <path id="Pfad_719" data-name="Pfad 719" d="M811.02,327.356A8.443,8.443,0,0,0,802.8,321.7a2.506,2.506,0,0,1-1.516-.192,2.089,2.089,0,0,1-.623-.779,30.447,30.447,0,0,1-2.541-6.008c-.278-.922-.658-2.01-1.591-2.25a2.15,2.15,0,0,0-2.029.882,17.875,17.875,0,0,1-1.45,1.822c-2.192,1.96-6.078.174-8.4,1.972-.38.294-.694.67-1.093.937a5.1,5.1,0,0,1-1.28.549,122.733,122.733,0,0,0-13.191,5.166c1.548,9.32,3.133,18.8,6.761,27.526,1.726,4.151,3.683,8.217,5.065,12.5,3.063,9.479,3.2,19.621,3.233,29.583.023,6.818-.01,13.781-2.216,20.232a19.092,19.092,0,0,0-1.246,4.444,4.605,4.605,0,0,0,1.56,4.143,5.336,5.336,0,0,0,2.407.845c3.822.561,7.675-.456,11.439-1.328,10.087-2.336,20.375-3.673,30.642-5.006l17.206-2.234a9.988,9.988,0,0,0,3.56-.92c3.148-1.724,3.447-6.46,1.492-9.47-.937-1.443-2.26-2.627-3.047-4.157s-.855-3.67.5-4.729c2.758-2.156,1.935-6.155,2.067-9.653q.552-14.671-.149-29.354a58.463,58.463,0,0,1-.1-6.088,53.915,53.915,0,0,1,1.9-10.159l5.228-20.585a10.726,10.726,0,0,0-6.458-4.149c-2.477-.622-5.057-.8-7.5-1.561-5-1.549-9.448-5.479-14.667-5.113a2.662,2.662,0,0,0-1.137.278c-1.177.667-.991,2.363-1.066,3.714-.166,2.989-2.365,5.487-4.792,7.238s-5.2,3.028-7.43,5.026a3.316,3.316,0,0,0-1.319,2.537Z" transform="translate(-314.874 -198.525)" fill="#3f3d56"/>
    <path id="Pfad_720" data-name="Pfad 720" d="M724.21,362.44a20.576,20.576,0,0,1-3.666,1.886,12.049,12.049,0,0,0-3.512,1.7,5.5,5.5,0,0,0-1.221,1.509,6.71,6.71,0,0,0,6.187,10,13.468,13.468,0,0,0,4.575-1.364l12.293-5.327c2.081-.9,4.328-1.958,5.311-4a.93.93,0,0,0,.12-.635,1.05,1.05,0,0,0-.5-.531,27.466,27.466,0,0,1-7.158-6.749c-.5-.685-1.122-2.3-1.834-2.712C732.2,354.718,726.293,361.089,724.21,362.44Z" transform="translate(-297.122 -214.084)" fill="#a0616a"/>
    <path id="Pfad_721" data-name="Pfad 721" d="M909.942,359.084l4.532,5.177c.973,1.111,1.947,2.224,2.834,3.405a39.748,39.748,0,0,1,5.191,9.779,17.076,17.076,0,0,1,1.458,8.083,19.778,19.778,0,0,1-1.134,4.111,51.166,51.166,0,0,1-3.079,7.417,42.235,42.235,0,0,1-3.465,5.193,121.269,121.269,0,0,1-11.489,13.141c-1.549,1.534-2.2,4.014-2.874,6.087-1.244,3.824-4.2,6.8-7.067,9.627a19.647,19.647,0,0,1-3.034,2.611,9.883,9.883,0,0,1-5.522,1.573,6.06,6.06,0,0,1-2.487-.515c-1.959-.93-2.955-3.2-3.159-5.354a11.389,11.389,0,0,1,.953-5.727c2.6-5.761,9.279-8.257,14-12.461a45.472,45.472,0,0,0,6.973-8.623,29.806,29.806,0,0,0,3.526-6.181c1.054-2.813.644-6.143,1.565-9,.389-1.209,1.081-2.3,1.5-3.5a4.082,4.082,0,0,0-.208-3.659,5.318,5.318,0,0,0-2.052-1.5c-3.016-1.531-6.393-3.5-6.97-6.832a7.32,7.32,0,0,1,1.35-5.218,21.742,21.742,0,0,1,3.8-3.985C906.4,361.562,908.623,360.25,909.942,359.084Z" transform="translate(-351.44 -215.098)" fill="#a0616a"/>
    <path id="Pfad_722" data-name="Pfad 722" d="M714.2,374.1a8.421,8.421,0,0,0-3.415-4.07,6.294,6.294,0,0,0-4.965-.021,18.667,18.667,0,0,0-4.357,2.635l-3.906,2.88a9.617,9.617,0,0,0-2.319,2.141,9.038,9.038,0,0,0-1.208,3.314,23.692,23.692,0,0,0-.614,8.2c.62,4.405,3.276,8.251,6.2,11.6,1.827,2.1,4.082,4.21,6.86,4.3a3.146,3.146,0,0,0,3.032-1.526,3.8,3.8,0,0,0,.271-1.359c.3-4.914-1.458-9.713-3.507-14.189a9.1,9.1,0,0,1-1.131-3.813,1.045,1.045,0,0,1,.167-.638,1.079,1.079,0,0,1,.667-.326c2.805-.555,7.638,1.625,9.606-1.491C716.858,379.719,715.11,375.932,714.2,374.1Z" transform="translate(-290.025 -218.517)" fill="#a0616a"/>
    <path id="Pfad_723" data-name="Pfad 723" d="M805.159,258.674a2.535,2.535,0,0,1,.173-1.183c.449-.795,1.623-.578,2.508-.355,3.56.9,7.311.085,10.976.295s7.794,2.042,8.531,5.639a26.766,26.766,0,0,0,6.767-6.953,8.349,8.349,0,0,0,1.766-5.092c-.2-2.633-2.409-4.6-4.455-6.273l-6.1-4.978a9.188,9.188,0,0,0-2.73-1.736,13.608,13.608,0,0,0-4.432-.251c-4.439,0-9.172-2.017-13.12.012a14.161,14.161,0,0,0-4.087,3.717l-5.443,6.443a3.44,3.44,0,0,0-.87,1.475,6.553,6.553,0,0,0,.39,2.352c.257,1.439-.363,2.975.114,4.358.791,2.295,3.577,2.619,5.281,3.935.635.49,1.63,2.152,2.386,2.132C804.18,262.172,805.124,259.734,805.159,258.674Z" transform="translate(-323.245 -175.032)" fill="#3f3d56"/>
    <path id="Pfad_724" data-name="Pfad 724" d="M750.682,337.537a7.083,7.083,0,0,0-1.824,1.7c-.639.966-.769,2.186-1.318,3.206-1.175,2.183-3.922,2.959-5.636,4.75a1.775,1.775,0,0,0-.542.929,2.07,2.07,0,0,0,.46,1.337l8.265,12.993c2.752.242,5.392-1.482,8.144-1.253a8.182,8.182,0,0,0,3.065.137,8.79,8.79,0,0,0,1.967-1.2c1.642-1.038,3.83-1.159,5.208-2.53,1.322-1.315,1.491-3.372,1.475-5.237a21.052,21.052,0,0,0-.491-4.817c-1.217-4.987-5.031-8.814-7.422-13.232-1.164-2.151-1.8-3.41-4.261-1.933S753.013,335.832,750.682,337.537Z" transform="translate(-305.784 -206.133)" fill="#3f3d56"/>
    <path id="Pfad_725" data-name="Pfad 725" d="M897.643,328.449a19.337,19.337,0,0,1,4.158,3.642c1.259,1.623,1.972,3.61,3.182,5.271a58.82,58.82,0,0,0,4.1,4.339,33.505,33.505,0,0,1,4.724,7.7,114.964,114.964,0,0,1-10.691,12.082,3.448,3.448,0,0,1-1.623,1.067,2.619,2.619,0,0,1-2.295-.936c-.6-.624-1.017-1.394-1.586-2.043a8.174,8.174,0,0,0-5.053-2.444,34.7,34.7,0,0,0-5.725-.079,2.263,2.263,0,0,1-1.223-.206,2.054,2.054,0,0,1-.667-.765c-2.238-3.808-1.518-8.588-.728-12.933l1.812-9.971a22.376,22.376,0,0,1,1.508-5.542c.686-1.466,2.22-3.953,4.107-3.514C893.541,324.557,896.043,327.3,897.643,328.449Z" transform="translate(-352.373 -203.615)" fill="#3f3d56"/>
    <ellipse id="Ellipse_139" data-name="Ellipse 139" cx="27.556" cy="27.606" rx="27.556" ry="27.606" transform="translate(186.14 135.092)" fill="#fff"/>
    <path id="Pfad_726" data-name="Pfad 726" d="M395.163,338.851A32.933,32.933,0,1,0,428.1,371.784,32.933,32.933,0,0,0,395.163,338.851ZM388.4,389.343l-16.878-16.878,4.734-4.734,12.16,12.159,25.665-25.665,4.734,4.734L388.4,389.342Z" transform="translate(-181.466 -208.464)" fill="#57b894"/>
  </g>
</svg>
