<svg xmlns="http://www.w3.org/2000/svg" width="441.475" height="457.885" viewBox="0 0 441.475 457.885">
  <g id="Gruppe_163" data-name="Gruppe 163" transform="translate(0 0.106)">
    <rect id="Rechteck_296" data-name="Rechteck 296" width="20.012" height="317.765" transform="matrix(0.836, -0.548, 0.548, 0.836, 83.494, 171.034)" fill="#e6e6e6"/>
    <path id="Pfad_614" data-name="Pfad 614" d="M300.951,169.46l38.717,59.031a5.155,5.155,0,0,1-8.62,5.654l-44.51-67.863a36.766,36.766,0,0,0-17.677,2.9l48.495,73.94a5.155,5.155,0,0,1-8.62,5.654l-48.495-73.94a36.766,36.766,0,0,0-9.706,15.057l44.51,67.863a5.155,5.155,0,0,1-8.62,5.654l-38.717-59.031c-.994,16.459,4.372,35.968,16.133,53.9,21.858,33.327,57.513,48.58,79.637,34.069s22.34-53.291.482-86.617C332.2,187.8,316.443,175.106,300.951,169.46Z" transform="translate(-240.562 -109.395)" fill="#e6e6e6"/>
    <rect id="Rechteck_297" data-name="Rechteck 297" width="20" height="318" transform="translate(155 123.894)" fill="#e6e6e6"/>
    <ellipse id="Ellipse_115" data-name="Ellipse 115" cx="48" cy="72" rx="48" ry="72" transform="translate(117 -0.106)" fill="#e6e6e6"/>
    <ellipse id="Ellipse_116" data-name="Ellipse 116" cx="39.417" cy="59.376" rx="39.417" ry="59.376" transform="translate(125.529 12.789)" fill="#ccc"/>
    <ellipse id="Ellipse_117" data-name="Ellipse 117" cx="220.738" cy="12.665" rx="220.738" ry="12.665" transform="translate(0 432.448)" fill="#e6e6e6"/>
    <path id="Pfad_615" data-name="Pfad 615" d="M645.924,726.868a705.148,705.148,0,0,0-250.171,0A9.126,9.126,0,0,1,385,717.9V604.557H656.677V717.9a9.126,9.126,0,0,1-10.753,8.97Z" transform="translate(-294.643 -281.941)" fill="#bde2e2"/>
    <path id="Pfad_616" data-name="Pfad 616" d="M605.851,427.593a56.311,56.311,0,0,0-18.432,3.084,108.583,108.583,0,0,0-196.75-.994,56.4,56.4,0,1,0,7.38,105.972,108.565,108.565,0,0,0,182.38-1.312,56.4,56.4,0,1,0,25.422-106.75Z" transform="translate(-268.681 -188.663)" fill="#bde2e2"/>
    <path id="Pfad_617" data-name="Pfad 617" d="M420.213,516.257H419a108.188,108.188,0,0,1,10.459-46.685l1.1.519a106.978,106.978,0,0,0-10.342,46.166Z" transform="translate(-308.025 -228.814)" fill="#3f3d56"/>
    <path id="Pfad_618" data-name="Pfad 618" d="M771.8,516.905h-1.213a107.049,107.049,0,0,0-9.881-45.179l1.1-.508a108.253,108.253,0,0,1,9.992,45.687Z" transform="translate(-442.513 -229.462)" fill="#3f3d56"/>
    <path id="Pfad_619" data-name="Pfad 619" d="M385.051,680.981l-.293-1.177c.342-.085,34.811-8.55,85.324-12.751,46.622-3.877,116.85-4.812,186.648,12.751l-.3,1.176c-69.627-17.52-139.7-16.588-186.225-12.72C419.786,672.451,385.393,680.9,385.051,680.981Z" transform="translate(-294.548 -305.623)" fill="#3f3d56"/>
    <path id="Pfad_620" data-name="Pfad 620" d="M385.051,707.981l-.293-1.177c.342-.085,34.811-8.55,85.324-12.751,46.622-3.877,116.85-4.812,186.648,12.751l-.3,1.176c-69.627-17.519-139.7-16.587-186.225-12.72C419.786,699.451,385.393,707.9,385.051,707.981Z" transform="translate(-294.548 -316.25)" fill="#3f3d56"/>
    <path id="Pfad_621" data-name="Pfad 621" d="M385.051,734.981l-.293-1.177c.342-.085,34.811-8.55,85.324-12.751,46.622-3.877,116.85-4.812,186.648,12.751l-.3,1.176c-69.627-17.519-139.7-16.587-186.225-12.72C419.786,726.451,385.393,734.9,385.051,734.981Z" transform="translate(-294.548 -326.877)" fill="#3f3d56"/>
    <path id="Pfad_622" data-name="Pfad 622" d="M700.816,530.432l-14.694-5,14.106-72-9.7-.882c-9.457,7.255-22.049,10.1-38.2,7.935l25.861,39.086L665,508.883l-42.066-50.457a12.654,12.654,0,0,1-2.935-8.1h0a12.654,12.654,0,0,1,9.151-12.159l44.922-12.939,52.6,5.878c7.953,12.125,8.264,20.557-3.843,22.99Z" transform="translate(-387.134 -211.359)" fill="#2f2e41"/>
    <path id="Pfad_623" data-name="Pfad 623" d="M722.583,620.954h0a9.678,9.678,0,0,1-8.408-13.166L721.479,589c3.71-7.029,8.8-6.149,14.816,0l2.939,8.62a5.564,5.564,0,0,1-.324,4.352l-7.12,13.766A9.678,9.678,0,0,1,722.583,620.954Z" transform="translate(-423.94 -273.872)" fill="#2f2e41"/>
    <path id="Pfad_624" data-name="Pfad 624" d="M691.268,580.391h0a9.678,9.678,0,0,1-8.408-13.166l7.3-18.784c3.71-7.029,8.8-6.149,14.816,0l2.939,8.62a5.565,5.565,0,0,1-.324,4.352l-7.12,13.766A9.678,9.678,0,0,1,691.268,580.391Z" transform="translate(-411.615 -257.908)" fill="#2f2e41"/>
    <circle id="Ellipse_118" data-name="Ellipse 118" cx="16.457" cy="16.457" r="16.457" transform="translate(272.539 112.184)" fill="#ffb9b9"/>
    <path id="Pfad_625" data-name="Pfad 625" d="M500.983,238.017l-22.629,11.755-4.7-21.159,15.575-9.7Z" transform="translate(-186.419 -86.16)" fill="#ffb9b9"/>
    <path id="Pfad_626" data-name="Pfad 626" d="M752.678,387.481c-22.579-6.82-43.067-10.354-57.894-5,5.111-14.377-4.322-36.332-14.694-58.775,4.475-5.85,11.61-8.116,19.69-9.11,8.84,6.419,15,2.3,19.69-7.641,10.22-.41,20.07,3.209,29.682,9.4C741.639,340.43,742.991,364.129,752.678,387.481Z" transform="translate(-410.785 -164.8)" fill="#3f3d56"/>
    <path id="Pfad_627" data-name="Pfad 627" d="M684.9,395.378c-3.565,2.1-6.856,5.642-9.992,9.992a54.825,54.825,0,0,1-13.636-11.33,24.264,24.264,0,0,1-4.445-22.7L666.867,338.7a14.317,14.317,0,0,1,4.656-6.9l1.326-1.077,13.224,24.979-13.224,24.686C674.526,384.887,679.468,390.081,684.9,395.378Z" transform="translate(-401.191 -174.167)" fill="#3f3d56"/>
    <path id="Pfad_628" data-name="Pfad 628" d="M702.184,461.775h0a8.493,8.493,0,0,1-11.926-6.5l-2.186-14.963,7.641-4.114,9.7,12.695a8.493,8.493,0,0,1-3.226,12.883Z" transform="translate(-413.926 -215.678)" fill="#ffb9b9"/>
    <path id="Pfad_629" data-name="Pfad 629" d="M716.186,268l-2.81.083-7.794-11.041c-9.987,1.032-18.171,5.372-25.1,12.018l-.7-4.681a17.648,17.648,0,0,1,13.889-19.9h0a17.648,17.648,0,0,1,20.965,14.346Z" transform="translate(-410.585 -140.077)" fill="#2f2e41"/>
    <path id="Pfad_630" data-name="Pfad 630" d="M687.331,444.667h0a8.493,8.493,0,0,1,6.5-11.926l14.963-2.186,4.114,7.641-12.695,9.7a8.493,8.493,0,0,1-12.883-3.226Z" transform="translate(-413.333 -213.458)" fill="#ffb9b9"/>
    <path id="Pfad_631" data-name="Pfad 631" d="M771.36,387.951c-14.236,1.105-29.779,5.545-46.051,11.842a22.511,22.511,0,0,0-5-13.224c14.779-3.892,28.189-8.46,36.441-15.575l-5-37.616,10.873-12.343,1.875.979a12.524,12.524,0,0,1,6.349,7.97c4.591,17.859,6.63,34.969,5.229,51.072A6.35,6.35,0,0,1,771.36,387.951Z" transform="translate(-426.615 -170.352)" fill="#3f3d56"/>
    <path id="Pfad_632" data-name="Pfad 632" d="M305.276,764.194q-19.859,12.421-39.719-.01a2.693,2.693,0,0,1-1.274-2.484l4.131-53.706h33.414l4.72,53.687a2.692,2.692,0,0,1-1.272,2.513Z" transform="translate(-247.129 -322.651)" fill="#3f3d56"/>
    <ellipse id="Ellipse_119" data-name="Ellipse 119" cx="16.861" cy="6.075" rx="16.861" ry="6.075" transform="translate(20.977 379.875)" fill="#3f3d56"/>
    <path id="Pfad_633" data-name="Pfad 633" d="M303.629,699.305q-13.179,9.271-25.516,0v-9.72h25.516Z" transform="translate(-252.574 -315.406)" fill="#00a5a5"/>
    <ellipse id="Ellipse_120" data-name="Ellipse 120" cx="12.758" cy="4.86" rx="12.758" ry="4.86" transform="translate(25.538 369.319)" fill="#00a5a5"/>
    <ellipse id="Ellipse_121" data-name="Ellipse 121" cx="1.215" cy="0.608" rx="1.215" ry="0.608" transform="translate(37.689 372.964)" fill="#e6e6e6"/>
    <ellipse id="Ellipse_122" data-name="Ellipse 122" cx="1.215" cy="0.608" rx="1.215" ry="0.608" transform="translate(43.426 372.964)" fill="#e6e6e6"/>
    <ellipse id="Ellipse_123" data-name="Ellipse 123" cx="1.215" cy="0.608" rx="1.215" ry="0.608" transform="translate(40.557 374.398)" fill="#e6e6e6"/>
    <ellipse id="Ellipse_124" data-name="Ellipse 124" cx="1.215" cy="0.608" rx="1.215" ry="0.608" transform="translate(29.083 374.398)" fill="#e6e6e6"/>
    <ellipse id="Ellipse_125" data-name="Ellipse 125" cx="1.215" cy="0.608" rx="1.215" ry="0.608" transform="translate(31.951 372.964)" fill="#e6e6e6"/>
    <ellipse id="Ellipse_126" data-name="Ellipse 126" cx="1.215" cy="0.608" rx="1.215" ry="0.608" transform="translate(34.82 375.116)" fill="#e6e6e6"/>
    <path id="Pfad_634" data-name="Pfad 634" d="M910.276,764.194q-19.859,12.421-39.719-.01a2.693,2.693,0,0,1-1.274-2.484l4.131-53.706h33.414l4.72,53.687A2.693,2.693,0,0,1,910.276,764.194Z" transform="translate(-485.244 -322.651)" fill="#3f3d56"/>
    <ellipse id="Ellipse_127" data-name="Ellipse 127" cx="16.861" cy="6.075" rx="16.861" ry="6.075" transform="translate(387.862 379.875)" fill="#3f3d56"/>
    <path id="Pfad_635" data-name="Pfad 635" d="M908.629,699.305q-13.179,9.271-25.516,0v-9.72h25.516Z" transform="translate(-490.689 -315.406)" fill="#00a5a5"/>
    <ellipse id="Ellipse_128" data-name="Ellipse 128" cx="12.758" cy="4.86" rx="12.758" ry="4.86" transform="translate(392.423 369.319)" fill="#00a5a5"/>
    <ellipse id="Ellipse_129" data-name="Ellipse 129" cx="1.215" cy="0.608" rx="1.215" ry="0.608" transform="translate(404.574 372.964)" fill="#e6e6e6"/>
    <ellipse id="Ellipse_130" data-name="Ellipse 130" cx="1.215" cy="0.608" rx="1.215" ry="0.608" transform="translate(410.311 372.964)" fill="#e6e6e6"/>
    <ellipse id="Ellipse_131" data-name="Ellipse 131" cx="1.215" cy="0.608" rx="1.215" ry="0.608" transform="translate(407.442 374.398)" fill="#e6e6e6"/>
    <ellipse id="Ellipse_132" data-name="Ellipse 132" cx="1.215" cy="0.608" rx="1.215" ry="0.608" transform="translate(395.967 374.398)" fill="#e6e6e6"/>
    <ellipse id="Ellipse_133" data-name="Ellipse 133" cx="1.215" cy="0.608" rx="1.215" ry="0.608" transform="translate(398.836 372.964)" fill="#e6e6e6"/>
    <ellipse id="Ellipse_134" data-name="Ellipse 134" cx="1.215" cy="0.608" rx="1.215" ry="0.608" transform="translate(401.705 375.116)" fill="#e6e6e6"/>
  </g>
</svg>
