<svg xmlns="http://www.w3.org/2000/svg" width="190.177" height="158.118" viewBox="0 0 190.177 158.118">
  <g id="Gruppe_158" data-name="Gruppe 158" transform="translate(0 0)">
    <path id="Pfad_540" data-name="Pfad 540" d="M187.513,748.907c2.627,4.872,8.2,6.963,8.2,6.963s1.316-5.807-1.311-10.679-8.2-6.963-8.2-6.963S184.886,744.035,187.513,748.907Z" transform="translate(-178.713 -598.259)" fill="#2f2e41"/>
    <path id="Pfad_541" data-name="Pfad 541" d="M162.606,773.717c4.743,2.853,6.569,8.521,6.569,8.521s-5.863,1.041-10.606-1.812S152,771.9,152,771.9,157.863,770.863,162.606,773.717Z" transform="translate(-152 -624.672)" fill="#00a5a5"/>
    <rect id="Rechteck_176" data-name="Rechteck 176" width="29.591" height="0.423" transform="translate(87.346 7.59)" fill="#f2f2f2"/>
    <rect id="Rechteck_177" data-name="Rechteck 177" width="0.423" height="3.91" transform="translate(108.483 7.907)" fill="#f2f2f2"/>
    <rect id="Rechteck_178" data-name="Rechteck 178" width="0.423" height="3.91" transform="translate(95.59 7.907)" fill="#f2f2f2"/>
    <rect id="Rechteck_179" data-name="Rechteck 179" width="29.591" height="0.423" transform="translate(102.353 27.881)" fill="#f2f2f2"/>
    <rect id="Rechteck_180" data-name="Rechteck 180" width="0.423" height="3.91" transform="translate(110.385 24.076)" fill="#f2f2f2"/>
    <rect id="Rechteck_181" data-name="Rechteck 181" width="0.423" height="3.91" transform="translate(123.278 24.076)" fill="#f2f2f2"/>
    <rect id="Rechteck_182" data-name="Rechteck 182" width="29.591" height="0.423" transform="translate(141.667 37.392)" fill="#f2f2f2"/>
    <rect id="Rechteck_183" data-name="Rechteck 183" width="0.423" height="3.91" transform="translate(149.699 33.588)" fill="#f2f2f2"/>
    <rect id="Rechteck_184" data-name="Rechteck 184" width="0.423" height="3.91" transform="translate(162.592 33.588)" fill="#f2f2f2"/>
    <rect id="Rechteck_185" data-name="Rechteck 185" width="29.591" height="0.423" transform="translate(138.708 135.465)" fill="#f2f2f2"/>
    <rect id="Rechteck_186" data-name="Rechteck 186" width="0.423" height="3.91" transform="translate(146.74 131.661)" fill="#f2f2f2"/>
    <rect id="Rechteck_187" data-name="Rechteck 187" width="0.423" height="3.91" transform="translate(159.633 131.661)" fill="#f2f2f2"/>
    <rect id="Rechteck_188" data-name="Rechteck 188" width="29.591" height="0.423" transform="translate(88.192 67.617)" fill="#f2f2f2"/>
    <rect id="Rechteck_189" data-name="Rechteck 189" width="0.423" height="3.91" transform="translate(96.224 63.813)" fill="#f2f2f2"/>
    <rect id="Rechteck_190" data-name="Rechteck 190" width="0.423" height="3.91" transform="translate(109.117 63.813)" fill="#f2f2f2"/>
    <rect id="Rechteck_191" data-name="Rechteck 191" width="29.591" height="0.423" transform="translate(97.492 118.556)" fill="#f2f2f2"/>
    <rect id="Rechteck_192" data-name="Rechteck 192" width="0.423" height="3.91" transform="translate(105.524 114.752)" fill="#f2f2f2"/>
    <rect id="Rechteck_193" data-name="Rechteck 193" width="0.423" height="3.91" transform="translate(118.417 114.752)" fill="#f2f2f2"/>
    <rect id="Rechteck_194" data-name="Rechteck 194" width="29.591" height="0.423" transform="translate(144.837 103.127)" fill="#f2f2f2"/>
    <rect id="Rechteck_195" data-name="Rechteck 195" width="0.423" height="3.91" transform="translate(152.869 99.322)" fill="#f2f2f2"/>
    <rect id="Rechteck_196" data-name="Rechteck 196" width="0.423" height="3.91" transform="translate(165.762 99.322)" fill="#f2f2f2"/>
    <path id="Pfad_542" data-name="Pfad 542" d="M175.322,617.928H125.274v-.36h49.688V600.106H129.481l-2.209-4.6.325-.156,2.111,4.4h45.614Z" transform="translate(-98.795 -469.512)" fill="#2f2e41"/>
    <circle id="Ellipse_88" data-name="Ellipse 88" cx="3.781" cy="3.781" r="3.781" transform="translate(29.359 149.677)" fill="#3f3d56"/>
    <circle id="Ellipse_89" data-name="Ellipse 89" cx="3.781" cy="3.781" r="3.781" transform="translate(66.625 149.677)" fill="#3f3d56"/>
    <circle id="Ellipse_90" data-name="Ellipse 90" cx="2.34" cy="2.34" r="2.34" transform="translate(111.993 70.824)" fill="#3f3d56"/>
    <path id="Pfad_543" data-name="Pfad 543" d="M284.075,517.317H227.82l-12.172-39.786H296.61l-.074.234Zm-55.988-.36h55.724l12.309-39.067H216.135Z" transform="translate(-202.195 -392.664)" fill="#2f2e41"/>
    <path id="Pfad_544" data-name="Pfad 544" d="M142.362,448.3H92.951L82.26,413.015h71.112l-.065.208Z" transform="translate(-64.873 -325.718)" fill="#f2f2f2"/>
    <path id="Pfad_545" data-name="Pfad 545" d="M450.166,350.942l-.348-.092,2.376-8.955h13.821v.36H452.471Z" transform="translate(-354.742 -269.63)" fill="#2f2e41"/>
    <rect id="Rechteck_197" data-name="Rechteck 197" width="72.983" height="0.36" transform="translate(17.387 96.929)" fill="#2f2e41"/>
    <rect id="Rechteck_198" data-name="Rechteck 198" width="64.745" height="0.36" transform="translate(21.445 110.194)" fill="#2f2e41"/>
    <rect id="Rechteck_199" data-name="Rechteck 199" width="0.36" height="39.427" transform="translate(53.753 85.046)" fill="#2f2e41"/>
    <rect id="Rechteck_200" data-name="Rechteck 200" width="39.51" height="0.36" transform="matrix(0.065, -0.998, 0.998, 0.065, 67.649, 124.461)" fill="#2f2e41"/>
    <rect id="Rechteck_201" data-name="Rechteck 201" width="0.36" height="39.51" transform="translate(37.281 85.058) rotate(-3.729)" fill="#2f2e41"/>
    <rect id="Rechteck_202" data-name="Rechteck 202" width="190.177" height="1.057" transform="translate(0 157.062)" fill="#2f2e41"/>
    <path id="Pfad_546" data-name="Pfad 546" d="M747.411,135.647s3.09,8.794,1.188,10.147,6.417,12.4,6.417,12.4L765,155.49l-5.467-9.245s-.713-9.245-.713-10.6S747.411,135.647,747.411,135.647Z" transform="translate(-621.562 -122.568)" fill="#a0616a"/>
    <path id="Pfad_547" data-name="Pfad 547" d="M747.411,135.647s3.09,8.794,1.188,10.147,6.417,12.4,6.417,12.4L765,155.49l-5.467-9.245s-.713-9.245-.713-10.6S747.411,135.647,747.411,135.647Z" transform="translate(-621.562 -122.568)" opacity="0.1"/>
    <path id="Pfad_548" data-name="Pfad 548" d="M721.378,409.651s-.9,11.274,0,17.137,2.255,22.1,2.255,22.1,0,30.667,4.961,31.117,8.569.9,9.02-.9-2.255-2.706-.9-3.608,1.8-4.059,0-7.667,0-40.137,0-40.137l8.569,23s.9,18.941,1.8,21.647-.9,7.667,2.255,8.118,6.765-2.255,8.569-3.157-2.706-.9-1.8-1.353,3.608-1.8,2.706-2.255-1.8-22.1-1.8-22.1-2.48-46.225-5.637-48.029-5.186,1.3-5.186,1.3Z" transform="translate(-600.716 -333.886)" fill="#2f2e41"/>
    <path id="Pfad_549" data-name="Pfad 549" d="M754.548,758.784v3.608s-4.059,9.807,0,9.807,7.216,1.016,7.216-.337V759.686Z" transform="translate(-625.768 -614.471)" fill="#2f2e41"/>
    <path id="Pfad_550" data-name="Pfad 550" d="M860.242,758.754v3.608s4.059,9.807,0,9.807-7.216,1.016-7.216-.337V759.656Z" transform="translate(-704.854 -614.447)" fill="#2f2e41"/>
    <circle id="Ellipse_91" data-name="Ellipse 91" cx="8.118" cy="8.118" r="8.118" transform="translate(124.045 3.382)" fill="#a0616a"/>
    <path id="Pfad_551" data-name="Pfad 551" d="M762.182,201.9s2.255,6.765,5.863,5.412l3.608-1.353,6.314,43.294s-4.961,7.216-12.176,2.706S762.182,201.9,762.182,201.9Z" transform="translate(-632.499 -175.292)" fill="#00a5a5"/>
    <path id="Pfad_552" data-name="Pfad 552" d="M795.418,179.514l2.029-4.284s11.951,5.637,13.755,7.441a7.043,7.043,0,0,1,1.8,4.51l-3.157,11.275s.9,24.8.9,25.706,3.157,5.863.9,4.059-2.706-3.608-4.51-.9a33.081,33.081,0,0,1-5.863,5.863Z" transform="translate(-659.422 -154.259)" fill="#3f3d56"/>
    <path id="Pfad_553" data-name="Pfad 553" d="M840.514,349.122l-1.353,12.627s-8.118,7.216-6.314,7.667a2.5,2.5,0,0,0,2.706-1.353s3.157,3.157,4.961,1.353,6.314-18.941,6.314-18.941Z" transform="translate(-688.734 -291.397)" fill="#a0616a"/>
    <path id="Pfad_554" data-name="Pfad 554" d="M742.961,76.042c-1.8-.064-3.725-.1-5.243.874a7.675,7.675,0,0,0-1.812,1.774c-1.478,1.868-2.755,4.219-2.206,6.537l.637-.249a4.175,4.175,0,0,1-.4,1.789c.09-.261.39.161.31.425l-.7,2.3a2.169,2.169,0,0,1,2.766,1.651c.08-2.676.358-5.745,2.529-7.312a8.746,8.746,0,0,1,3.813-1.246,7.671,7.671,0,0,1,3.7.019,2.66,2.66,0,0,1,1.914,2.826,1.259,1.259,0,0,1,1.419.7,3.673,3.673,0,0,1,.291,1.681c.579.409,1.238-.4,1.474-1.072a9.676,9.676,0,0,0,.748-4.877,3.719,3.719,0,0,0-3.3-3.207,1.155,1.155,0,0,0,.3-.813l-1.372-.116a1.516,1.516,0,0,0,.906-.478C748.181,77.857,743.851,76.074,742.961,76.042Z" transform="translate(-610.625 -76.014)" fill="#2f2e41"/>
    <path id="Pfad_555" data-name="Pfad 555" d="M707.174,176.461s-3.671-3.6-4.993-3.377-3.125,3.377-3.125,3.377-10.823,3.608-10.373,7.216,5.412,21.2,5.412,21.2,4.059,21.2.451,23.451,17.137,8.118,17.588,5.412,1.353-29.765,0-33.823S707.174,176.461,707.174,176.461Z" transform="translate(-575.237 -152.559)" fill="#3f3d56"/>
    <path id="Pfad_556" data-name="Pfad 556" d="M850.893,223.236h5.576s3.894,17.137,4.345,18.941,1.353,10.373.9,10.373-9.47-1.8-9.47-.451Z" transform="translate(-703.172 -192.118)" fill="#3f3d56"/>
    <path id="Pfad_557" data-name="Pfad 557" d="M764.272,320.7H742.924c-2.083-9.583-2.257-18.842,0-27.689h21.348C760.827,301.7,760.612,310.9,764.272,320.7Z" transform="translate(-616.74 -247.148)" fill="#f2f2f2"/>
    <path id="Pfad_558" data-name="Pfad 558" d="M707.938,353.387l6.314,2.706s12.177,1.8,12.177-3.157-12.177-2.255-12.177-2.255l-4.059-1.3Z" transform="translate(-590.432 -291.602)" fill="#a0616a"/>
    <path id="Pfad_559" data-name="Pfad 559" d="M677.5,210.435l-5.412,1.353-4.059,23.9s-1.353,6.314.9,6.765,8.569,4.059,8.569,4.059.9-6.765,2.706-6.765l-4.51-3.608,2.706-15.784Z" transform="translate(-558.642 -182.023)" fill="#3f3d56"/>
    <rect id="Rechteck_203" data-name="Rechteck 203" width="29.591" height="0.423" transform="translate(12.734 74.592)" fill="#f2f2f2"/>
    <rect id="Rechteck_204" data-name="Rechteck 204" width="0.423" height="3.91" transform="translate(20.766 70.788)" fill="#f2f2f2"/>
    <rect id="Rechteck_205" data-name="Rechteck 205" width="0.423" height="3.91" transform="translate(33.66 70.788)" fill="#f2f2f2"/>
    <rect id="Rechteck_206" data-name="Rechteck 206" width="29.591" height="0.423" transform="translate(23.091 12.028)" fill="#f2f2f2"/>
    <rect id="Rechteck_207" data-name="Rechteck 207" width="0.423" height="3.91" transform="translate(44.228 12.345)" fill="#f2f2f2"/>
    <rect id="Rechteck_208" data-name="Rechteck 208" width="0.423" height="3.91" transform="translate(31.335 12.345)" fill="#f2f2f2"/>
    <rect id="Rechteck_209" data-name="Rechteck 209" width="29.591" height="0.423" transform="translate(52.894 53.667)" fill="#f2f2f2"/>
    <rect id="Rechteck_210" data-name="Rechteck 210" width="0.423" height="3.91" transform="translate(74.03 53.984)" fill="#f2f2f2"/>
    <rect id="Rechteck_211" data-name="Rechteck 211" width="0.423" height="3.91" transform="translate(61.137 53.984)" fill="#f2f2f2"/>
    <rect id="Rechteck_212" data-name="Rechteck 212" width="29.591" height="0.423" transform="translate(2.589 53.456)" fill="#f2f2f2"/>
    <rect id="Rechteck_213" data-name="Rechteck 213" width="0.423" height="3.91" transform="translate(23.725 53.773)" fill="#f2f2f2"/>
    <rect id="Rechteck_214" data-name="Rechteck 214" width="0.423" height="3.91" transform="translate(10.832 53.773)" fill="#f2f2f2"/>
    <rect id="Rechteck_215" data-name="Rechteck 215" width="29.591" height="0.423" transform="translate(38.098 32.319)" fill="#f2f2f2"/>
    <rect id="Rechteck_216" data-name="Rechteck 216" width="0.423" height="3.91" transform="translate(46.13 28.515)" fill="#f2f2f2"/>
    <rect id="Rechteck_217" data-name="Rechteck 217" width="0.423" height="3.91" transform="translate(59.023 28.515)" fill="#f2f2f2"/>
  </g>
</svg>
