<svg xmlns="http://www.w3.org/2000/svg" width="222.11" height="136.616" viewBox="0 0 222.11 136.616">
  <g id="Gruppe_170" data-name="Gruppe 170" transform="translate(0.02 0)">
    <path id="Pfad_727" data-name="Pfad 727" d="M233.18,175.505a45.515,45.515,0,0,1-1.333,10.983q-.449,1.816-1.043,3.556a41.994,41.994,0,0,1-1.682,4.209q-.481,1.041-1.016,2.04a27.449,27.449,0,0,1-2.295,11.03,28.435,28.435,0,0,1-13.8,14.218,29.027,29.027,0,0,1-12.32,2.829H53.237a36.9,36.9,0,0,1-18.559-4.961l-.087-.049q-1.2-.705-2.35-1.493a36.848,36.848,0,0,1-4.822-3.975,35.882,35.882,0,0,1-5.3-6.568,35.048,35.048,0,0,1-5.391-18.712,44.128,44.128,0,0,1-5.657-21.852,43.3,43.3,0,0,1,8.752-26.5,37.261,37.261,0,0,1,3.717-4.135,34.586,34.586,0,0,1,4.25-3.479,33.071,33.071,0,0,1,3.771-2.263c.545-.277,1.092-.539,1.648-.783.488-.217.982-.419,1.482-.609q.9-.341,1.822-.628t1.82-.5q1.32-.322,2.685-.524c.754-.111,1.509-.189,2.263-.247.6-.045,1.2-.07,1.814-.077h.33c.671,0,1.339.026,2,.072.07-.14.145-.281.215-.419.264-.5.537-1.005.813-1.5a.047.047,0,0,1,0-.013c.047-.087.094-.172.143-.255.223-.4.454-.8.692-1.194.109-.189.217-.366.328-.543a1.443,1.443,0,0,1,.077-.128q.17-.283.345-.566.873-1.4,1.816-2.742l.16-.23c.1-.14.189-.275.3-.415.26-.364.528-.73.8-1.088.189-.256.377-.511.581-.754q.735-.943,1.509-1.886t1.607-1.861c.075-.085.151-.168.23-.251l.805-.879h0c.04-.041.074-.079.111-.117h0c.1-.1.189-.207.292-.307.432-.458.875-.907,1.32-1.354a71.884,71.884,0,0,1,7.222-6.293c.1-.079.2-.155.3-.23.479-.36.965-.717,1.452-1.067a76.43,76.43,0,0,1,8.375-5.224c.2-.115.4-.222.609-.328a79.956,79.956,0,0,1,8.013-3.689c1.492-.59,3.017-1.145,4.552-1.652,1.022-.336,2.048-.654,3.087-.954q2.436-.7,4.907-1.258a87.375,87.375,0,0,1,14.754-2.01q2.263-.115,4.577-.119a87.688,87.688,0,0,1,22.063,2.791.8.8,0,0,0,.685.356h.634c.275.075.549.151.824.23q2.306.664,4.547,1.45l.377.136a81.168,81.168,0,0,1,10.732,4.714,77.442,77.442,0,0,1,8.986,5.552q.662.475,1.3.958.781-.5,1.588-.958a31.232,31.232,0,0,1,6.577-2.8,30,30,0,0,1,14.754-.577,32.647,32.647,0,0,1,16.53,9.323,38.574,38.574,0,0,1,4.958,6.295c.1.162.207.326.307.492a41.488,41.488,0,0,1,3.157,6.293c.032.081.064.157.092.236a43.575,43.575,0,0,1,1.942,6.289c.023.109.049.217.072.326a45.284,45.284,0,0,1,.928,6.293,1.219,1.219,0,0,0,.015.232q.119,1.642.121,3.319c0,1-.034,1.991-.1,2.976,0,.107-.015.219-.025.33-.017.285-.041.566-.066.852a35.786,35.786,0,0,1,4.032,3.8q.824.9,1.6,1.867a39.718,39.718,0,0,1,4.111,6.293A44.161,44.161,0,0,1,233.18,175.505Z" transform="translate(-11.09 -87.76)" fill="#00a5a5" opacity="0.1"/>
    <path id="Pfad_728" data-name="Pfad 728" d="M313.08,763.38c0,1.288-4.437,2.495-12.18,3.532H154.446a36.9,36.9,0,0,1-18.559-4.961l-.087-.049a61.855,61.855,0,0,1,11.709-2.25h0l.245-.03c2.451-.3,5.191-.585,8.186-.854a1.872,1.872,0,0,0,.228-.021h0q3.564-.317,7.583-.594c.085,0,.168-.015.253-.019q1.55-.111,3.164-.211h0l.415-.026c7.835-.487,16.742-.875,26.4-1.131h.011q2.029-.057,4.1-.1,2.3-.055,4.665-.1c1.2-.026,2.418-.045,3.638-.064h.028c5.5-.083,11.192-.125,17.008-.125,14.381,0,27.973.262,40.017.734h.034c1.852.072,3.67.151,5.442.232l1.509.072q3,.143,5.846.307h0C298.59,758.994,313.08,761.055,313.08,763.38Z" transform="translate(-112.299 -630.296)" fill="#00a5a5" opacity="0.1"/>
    <g id="Gruppe_167" data-name="Gruppe 167" transform="translate(117.154 74.484)" opacity="0.2">
      <path id="Pfad_729" data-name="Pfad 729" d="M674.03,740.167a3.577,3.577,0,0,1-.07.605q-1.969-.313-3.96-.566v-.162a3.182,3.182,0,0,1,.471-1.6,1.754,1.754,0,0,1,3.193.1A3.182,3.182,0,0,1,674.03,740.167Z" transform="translate(-662.917 -689.432)" fill="#3f3d56"/>
      <ellipse id="Ellipse_140" data-name="Ellipse 140" cx="2.642" cy="2.018" rx="2.642" ry="2.018" transform="translate(7.104 50.026) rotate(-88.19)" fill="#3f3d56"/>
      <ellipse id="Ellipse_141" data-name="Ellipse 141" cx="2.642" cy="2.018" rx="2.642" ry="2.018" transform="translate(7.207 46.798) rotate(-88.19)" fill="#3f3d56"/>
      <ellipse id="Ellipse_142" data-name="Ellipse 142" cx="2.642" cy="2.018" rx="2.642" ry="2.018" transform="translate(7.308 43.569) rotate(-88.19)" fill="#3f3d56"/>
      <ellipse id="Ellipse_143" data-name="Ellipse 143" cx="2.642" cy="2.018" rx="2.642" ry="2.018" transform="translate(7.409 40.341) rotate(-88.19)" fill="#3f3d56"/>
      <path id="Pfad_730" data-name="Pfad 730" d="M635.086,498.173a9.362,9.362,0,0,1-.717-1.131l5.329-.7-5.736-.138a9.689,9.689,0,0,1,.058-7.664l7.566,4.233-6.93-5.438a9.67,9.67,0,1,1,15.621,11.314,9.582,9.582,0,0,1,1.047,1.8L644.33,503.8l7.417-2.231a9.681,9.681,0,0,1-1.852,9.035,9.67,9.67,0,1,1-15.192-.479,9.67,9.67,0,0,1,.377-11.952Z" transform="translate(-632.44 -482.747)" fill="#00a5a5"/>
      <path id="Pfad_731" data-name="Pfad 731" d="M652.158,598.455a9.617,9.617,0,0,1-2.263,5.91,9.67,9.67,0,1,1-15.192-.479C633.464,602.2,652.192,597.371,652.158,598.455Z" transform="translate(-632.44 -576.508)" opacity="0.1"/>
    </g>
    <g id="Gruppe_168" data-name="Gruppe 168" transform="translate(88.491 74.484)" opacity="0.2">
      <path id="Pfad_732" data-name="Pfad 732" d="M522.03,740.167a3.577,3.577,0,0,1-.07.605q-1.969-.313-3.96-.566v-.162a3.183,3.183,0,0,1,.471-1.6,1.754,1.754,0,0,1,3.193.1A3.181,3.181,0,0,1,522.03,740.167Z" transform="translate(-510.917 -689.432)" fill="#3f3d56"/>
      <ellipse id="Ellipse_144" data-name="Ellipse 144" cx="2.642" cy="2.018" rx="2.642" ry="2.018" transform="translate(7.102 50.027) rotate(-88.19)" fill="#3f3d56"/>
      <ellipse id="Ellipse_145" data-name="Ellipse 145" cx="2.642" cy="2.018" rx="2.642" ry="2.018" transform="translate(7.205 46.798) rotate(-88.19)" fill="#3f3d56"/>
      <ellipse id="Ellipse_146" data-name="Ellipse 146" cx="2.642" cy="2.018" rx="2.642" ry="2.018" transform="translate(7.306 43.57) rotate(-88.19)" fill="#3f3d56"/>
      <ellipse id="Ellipse_147" data-name="Ellipse 147" cx="2.642" cy="2.018" rx="2.642" ry="2.018" transform="translate(7.407 40.341) rotate(-88.19)" fill="#3f3d56"/>
      <path id="Pfad_733" data-name="Pfad 733" d="M483.086,498.173a9.362,9.362,0,0,1-.717-1.131l5.329-.7-5.736-.138a9.689,9.689,0,0,1,.058-7.664l7.566,4.233-6.93-5.438a9.67,9.67,0,1,1,15.621,11.314,9.572,9.572,0,0,1,1.047,1.8L492.33,503.8l7.417-2.231a9.681,9.681,0,0,1-1.852,9.035,9.67,9.67,0,1,1-15.192-.479,9.67,9.67,0,0,1,.377-11.952Z" transform="translate(-480.44 -482.747)" fill="#00a5a5"/>
      <path id="Pfad_734" data-name="Pfad 734" d="M500.158,598.455a9.617,9.617,0,0,1-2.263,5.91,9.67,9.67,0,1,1-15.192-.479C481.464,602.2,500.192,597.371,500.158,598.455Z" transform="translate(-480.44 -576.508)" opacity="0.1"/>
    </g>
    <g id="Gruppe_169" data-name="Gruppe 169" transform="translate(156.518 29.644)" opacity="0.2">
      <path id="Pfad_735" data-name="Pfad 735" d="M921.123,740.3a7.025,7.025,0,0,1-.138,1.146q-3.79-.605-7.635-1.082v-.311a6.13,6.13,0,0,1,.909-3.079,3.382,3.382,0,0,1,6.153.189,6.135,6.135,0,0,1,.711,3.138Z" transform="translate(-899.742 -642.659)" fill="#3f3d56"/>
      <ellipse id="Ellipse_148" data-name="Ellipse 148" cx="5.088" cy="3.887" rx="5.088" ry="3.887" transform="translate(13.657 96.269) rotate(-88.19)" fill="#3f3d56"/>
      <ellipse id="Ellipse_149" data-name="Ellipse 149" cx="5.088" cy="3.887" rx="5.088" ry="3.887" transform="translate(13.853 90.053) rotate(-88.19)" fill="#3f3d56"/>
      <ellipse id="Ellipse_150" data-name="Ellipse 150" cx="5.088" cy="3.887" rx="5.088" ry="3.887" transform="translate(14.051 83.838) rotate(-88.19)" fill="#3f3d56"/>
      <ellipse id="Ellipse_151" data-name="Ellipse 151" cx="5.088" cy="3.887" rx="5.088" ry="3.887" transform="translate(14.03 77.354) rotate(-88.282)" fill="#3f3d56"/>
      <path id="Pfad_736" data-name="Pfad 736" d="M846.265,274.629a18.72,18.72,0,0,1-1.378-2.174l10.258-1.354-11.041-.266a18.65,18.65,0,0,1,.109-14.754l14.567,8.148-13.34-10.47a18.616,18.616,0,1,1,30.072,21.792,18.615,18.615,0,0,1,2.016,3.46l-13.466,6.466,14.277-4.3a18.622,18.622,0,0,1-3.551,17.377,18.616,18.616,0,1,1-29.248-.922,18.622,18.622,0,0,1,.724-23.006Z" transform="translate(-841.186 -244.965)" fill="#00a5a5"/>
      <path id="Pfad_737" data-name="Pfad 737" d="M879.166,467.53a18.544,18.544,0,0,1-4.337,11.379,18.616,18.616,0,1,1-29.248-.922C843.178,474.741,879.232,465.442,879.166,467.53Z" transform="translate(-841.218 -425.315)" opacity="0.1"/>
    </g>
    <path id="Pfad_738" data-name="Pfad 738" d="M157.82,154.691l1.978-.006h2.789L166.113,97.4l34.922-58.275L199.518,37.5V33.37L161.75,96.05Z" transform="translate(-128.075 -27.078)" fill="#f1c0c0"/>
    <path id="Pfad_739" data-name="Pfad 739" d="M169.43,172.439h2.578l3.526-57.285,34.922-58.275-1.518-1.629-36.021,59.031Z" transform="translate(-137.496 -44.832)" opacity="0.1"/>
    <path id="Pfad_740" data-name="Pfad 740" d="M126.91,662.025,217.4,668.95l.077.006,87.572-5.386.066,0v-3.7L208.619,658.1l-80.5-.077h-.588l-.064.415Z" transform="translate(-102.994 -533.935)" fill="#f1c0c0"/>
    <path id="Pfad_741" data-name="Pfad 741" d="M126.91,662.025,217.4,668.95l.077.006,87.572-5.386.066-.072v-3.553h-.077L217.4,662.872l-89.282-4.852H128.1l-.158.1-.481.311Z" transform="translate(-102.994 -533.935)" opacity="0.1"/>
    <path id="Pfad_742" data-name="Pfad 742" d="M126.91,662.472,217.4,669.4v-6.078l-89.454-4.748-.481.311Z" transform="translate(-102.994 -534.381)" opacity="0.1"/>
    <path id="Pfad_743" data-name="Pfad 743" d="M378.88,37.605l39.893,42.818-1.233,75.316,3.389.409.057.008h3.389l.405-72.5,74.7,24.952,1.26,44.428,2.727.305.924.1-2.138-47.919L424.162,78.113,381.345,33.6H378.88Z" transform="translate(-307.449 -27.264)" fill="#f1c0c0"/>
    <path id="Pfad_744" data-name="Pfad 744" d="M620.65,291.7l.307,1.386,74.7,24.952,1.26,44.428,2.727.305-2.138-45.658Z" transform="translate(-503.628 -236.693)" opacity="0.1"/>
    <path id="Pfad_745" data-name="Pfad 745" d="M378.88,37.605l39.893,42.818-1.233,75.316,3.389.409.924-78.19L378.88,33.6Z" transform="translate(-307.449 -27.264)" opacity="0.1"/>
    <path id="Pfad_746" data-name="Pfad 746" d="M621.42,430.942l27.4,5.4.009,0,47.986,9.453,2.2-.881-.008-.155-.143-3.064L621.448,426.05Z" transform="translate(-504.253 -345.708)" fill="#f1c0c0"/>
    <path id="Pfad_747" data-name="Pfad 747" d="M766.76,480.61l47.986,9.453,2.2-.881-.008-.155Z" transform="translate(-622.185 -389.98)" opacity="0.1"/>
    <path id="Pfad_748" data-name="Pfad 748" d="M776.49,350.56l.741,40.8.383,20.93,3.374-.113,2.123-.072-.66-60.951-1.463-.487-.321-.1Z" transform="translate(-630.08 -284.454)" fill="#f1c0c0"/>
    <path id="Pfad_749" data-name="Pfad 749" d="M776.65,350.51v.009l.711,40.8.383,20.93,3.374-.113V350.51Z" transform="translate(-630.21 -284.413)" opacity="0.1"/>
    <path id="Pfad_750" data-name="Pfad 750" d="M483.421,482.395a4.3,4.3,0,0,1,.566.368,3.743,3.743,0,0,1,.566.62,5.582,5.582,0,0,1,1.477,3.583,1.458,1.458,0,0,1-.42,1.037,1.885,1.885,0,0,1-1.25.3,2.662,2.662,0,0,1-1.386-.245c-.411-.245-.754-.722-1.241-.711a.634.634,0,0,1-.207,0c-.168-.055-.2-.275-.311-.415-.189-.251-.586-.189-.883-.079a1.279,1.279,0,0,1-.917.147.952.952,0,0,1-.4-.4,8.759,8.759,0,0,1-.981-3.805c-.081-.8-.7-3.526,1.007-2.906a14.156,14.156,0,0,1,2.146,1.213Z" transform="translate(-389.856 -405.87)" fill="#3f3d56"/>
    <path id="Pfad_751" data-name="Pfad 751" d="M496.917,490.581a.841.841,0,0,0,1.035-.042,1.56,1.56,0,0,0,.5-.977c.189-.058.285.189.405.339.211.256.641.253.834.526.134.189.1.451.2.664.123.275.426.419.634.641a2.183,2.183,0,0,1,.415.828l.309.928a4.582,4.582,0,0,1,.283,1.2,1.555,1.555,0,0,1-.358,1.148,3.045,3.045,0,0,1-2.293.411A1.691,1.691,0,0,1,497.865,495a15.71,15.71,0,0,1-.209-1.663,6.516,6.516,0,0,0-.471-1.58c-.166-.392-.622-.977-.615-1.394C496.705,490.367,496.8,490.492,496.917,490.581Z" transform="translate(-405.037 -413.786)" fill="#3f3d56"/>
    <path id="Pfad_752" data-name="Pfad 752" d="M490.931,474.411a3.114,3.114,0,0,1-.153-.828,3.6,3.6,0,0,1,.519-1.6l-2.155.292a.954.954,0,0,0-.7.305.754.754,0,0,0,0,.7,3.556,3.556,0,0,1,.257.673,3.358,3.358,0,0,0,.07.605,1.281,1.281,0,0,0,.277.39,13.075,13.075,0,0,1,1.539,2.286c-.013-.023,1.3-1.039,1.246-1.371-.03-.189-.409-.415-.53-.6A3.034,3.034,0,0,1,490.931,474.411Z" transform="translate(-398.375 -399.526)" fill="#be6f72"/>
    <path id="Pfad_753" data-name="Pfad 753" d="M420.45,358.04V359.9l-31.807,6.2-1.65,1H381.3v-1.047l31.25-7.551Z" transform="translate(-309.413 -290.523)" fill="#f1c0c0"/>
    <path id="Pfad_754" data-name="Pfad 754" d="M420.45,367.89l-31.807,6.2-1.65,1H381.3l31.482-6.738Z" transform="translate(-309.413 -298.516)" opacity="0.1"/>
    <path id="Pfad_755" data-name="Pfad 755" d="M441.786,721.567a2.465,2.465,0,0,0-3-.637.789.789,0,0,0-.275.215c-.189.264-.068.628-.051.954a2.857,2.857,0,0,1-1.16,2,2.742,2.742,0,0,0-.754,1.022.958.958,0,0,0,.334,1.131,1.389,1.389,0,0,0,.517.143,5.572,5.572,0,0,0,1.829.051,1.982,1.982,0,0,0,1.452-1.011,1.064,1.064,0,0,1,.243-.4c.332-.262.841.045,1.218-.141.311-.155.324-.4.328-.718A4.16,4.16,0,0,0,441.786,721.567Z" transform="translate(-356.286 -601.321)" fill="#00a5a5"/>
    <path id="Pfad_756" data-name="Pfad 756" d="M471.014,715.547a6.208,6.208,0,0,1,.294,1.929,1.862,1.862,0,0,1-.175,1.1,1.5,1.5,0,0,1-.982.566,2.253,2.253,0,0,1-2.2-.615,2.326,2.326,0,0,1-.4-1.75c.06-.507.189-1.1-.175-1.461-.094-.1-.217-.164-.3-.268a.9.9,0,0,1-.057-.86,3.734,3.734,0,0,0,.3-.85,10.985,10.985,0,0,1,2.787.213c.319.156.27.419.366.736C470.6,714.726,470.852,715.124,471.014,715.547Z" transform="translate(-380.988 -595.335)" fill="#00a5a5"/>
    <path id="Pfad_757" data-name="Pfad 757" d="M438.384,579.072a2.1,2.1,0,0,1,.768,1.544,32.938,32.938,0,0,1-.189,4.869c-.026,2.28.634,4.6.07,6.809-.338,1.32-.051,2.829-.368,4.162-.094.4-.268.769-.358,1.165a5.085,5.085,0,0,0,.275,2.595,2.682,2.682,0,0,1,.16.7,2.531,2.531,0,0,1-.275,1.063l-1.131,2.676c-.126.3-.624.349-.943.388a2.359,2.359,0,0,1-1.746-.249,2.234,2.234,0,0,1-.666-1.575,24.129,24.129,0,0,1-.189-3.362,2.771,2.771,0,0,0-.077-.873,7.649,7.649,0,0,1-.394-.943,3.788,3.788,0,0,1,.228-1.32,3.977,3.977,0,0,0-.019-1.224c-.074-.6-.158-1.207-.255-1.807a8.005,8.005,0,0,1,.189-2.508,6.916,6.916,0,0,0-.189-2.38,6.561,6.561,0,0,1-.236,1.886c-.1.3-.243.586-.33.892-.387,1.371.437,2.81.321,4.23a10.477,10.477,0,0,0-.241,1.974,6.662,6.662,0,0,0,.426,1.375,1.782,1.782,0,0,1,0,1.4c-.613,1.158-.155,2.732.394,3.921a5.292,5.292,0,0,1,.29.652,7.8,7.8,0,0,1,.07,1.669,1.052,1.052,0,0,1-.884-.266c-.083-.087-.151-.189-.232-.279a2.3,2.3,0,0,0-.788-.492,1.036,1.036,0,0,0-.566-.13,1.132,1.132,0,0,0-.537.334,5.275,5.275,0,0,1-.592.451.7.7,0,0,1-.3.134.266.266,0,0,1-.277-.141.335.335,0,0,1-.021-.1,14.926,14.926,0,0,1-.111-1.716c0-.986-1.181-1.665-1.329-2.64-.119-.786.1-1.588.028-2.38a11.576,11.576,0,0,1-.141-1.214c0-.264.06-.522.081-.784a5.872,5.872,0,0,0-.013-.873l-.058-.911a7.871,7.871,0,0,0-.473-2.64,8.969,8.969,0,0,1-.735-3.032c-.038-.66-.013-1.32-.089-1.982a9.76,9.76,0,0,1-.175-1.791c.036-.464.189-.913.224-1.377a7.035,7.035,0,0,0-.532-2.614,3.869,3.869,0,0,1-.113-2.625.862.862,0,0,1,.241-.351,1.053,1.053,0,0,1,.445-.166,34.531,34.531,0,0,1,9.847-.628A3.27,3.27,0,0,1,438.384,579.072Z" transform="translate(-347.892 -485.951)" fill="#3f3d56"/>
    <circle id="Ellipse_152" data-name="Ellipse 152" cx="3.021" cy="3.021" r="3.021" transform="translate(76.765 67.051)" fill="#be6f72"/>
    <path id="Pfad_758" data-name="Pfad 758" d="M426.165,466.621a1.079,1.079,0,0,1,0,.526,1.192,1.192,0,0,1-.2.332,8.524,8.524,0,0,1-.967,1.052,1.752,1.752,0,0,0,.9.892,5.242,5.242,0,0,0,1.246.356,1.306,1.306,0,0,0,1.222-.211l1.678-1.005a3.355,3.355,0,0,0,.7-.5,1.718,1.718,0,0,0,.486-1.18.324.324,0,0,0-.06-.223.4.4,0,0,0-.23-.1,2.045,2.045,0,0,1-1.32-1.152,6.1,6.1,0,0,1-.458-1.748l-1.79.943c-.266.141-.53.283-.805.405-.175.079-.53.145-.654.306C425.679,465.61,426.1,466.264,426.165,466.621Z" transform="translate(-346.963 -392.775)" fill="#be6f72"/>
    <path id="Pfad_759" data-name="Pfad 759" d="M422.359,478.3a1.989,1.989,0,0,0-.579.783,2.039,2.039,0,0,0,.106,1.148,34.261,34.261,0,0,1,1.131,4.863c.158,1.131.217,2.28.294,3.424.158,2.335.388,6.057.7,8.376a22.229,22.229,0,0,0,3.357-.4c2.1-.222,4.256.287,6.31-.189-.5-1.967-1-5.325-1.493-7.29a13.909,13.909,0,0,1-.456-2.367c-.043-.575-.017-1.152-.009-1.731.017-1.131-.045-2.263-.107-3.394a21.533,21.533,0,0,0-.456-3.932.732.732,0,0,0-.219-.432.886.886,0,0,0-.658-.058,2.862,2.862,0,0,1-1.957-.464c-.249-.17-.583-.377-.815-.189a.81.81,0,0,0-.189.4,2.008,2.008,0,0,1-1.18,1.164,5.906,5.906,0,0,1-1.671.343.821.821,0,0,1-.519-.058c-.268-.164-.287-.754-.624-.794C423.023,477.47,422.559,478.108,422.359,478.3Z" transform="translate(-344.312 -403.091)" fill="#3f3d56"/>
    <path id="Pfad_760" data-name="Pfad 760" d="M412.42,483.441a11.477,11.477,0,0,1-1.509-2.451,5.457,5.457,0,0,0-1.3-1.433,3.886,3.886,0,0,1-.709-.6c-.179-.221-.315-.515-.587-.6a.709.709,0,0,0-.635.175,6.247,6.247,0,0,0-.471.5c-.8.828-2.2.943-2.838,1.9a1.557,1.557,0,0,0-.338.707,5.48,5.48,0,0,0,1.007,3.941,1.339,1.339,0,0,0,.7.566,2.183,2.183,0,0,0,.136,1.037,27.728,27.728,0,0,0,1.284,3.5,8.457,8.457,0,0,0-.253,1.356c-.132,1.152-.009,2.321-.134,3.475-.1.943-.377,1.861-.387,2.806,0,.151.013.33.143.407a.433.433,0,0,0,.224.047l2.319.07a18.827,18.827,0,0,0,4.032-.17,1.68,1.68,0,0,0,.507-.16,1.7,1.7,0,0,0,.669-1.32,11.5,11.5,0,0,0,.111-1.973,3.218,3.218,0,0,0,1.463,2.191,3.284,3.284,0,0,0,1.454.175,27.378,27.378,0,0,0,3.166-.326.417.417,0,0,0,.462-.485l.011-1.03a57.445,57.445,0,0,0-.7-6.172,13.417,13.417,0,0,0-.219-1.963c-.066-.27-.162-.534-.221-.805a5.753,5.753,0,0,1-.094-.805l-.147-2.074c-.07-.96-.17-1.886-.243-2.844a13.766,13.766,0,0,0-.4-2.764c-.164-.566-.505-1.207-1.1-1.277a2.259,2.259,0,0,0-.92.2,3.719,3.719,0,0,1-2.263-.009,3.191,3.191,0,0,0-.705-.189.692.692,0,0,0-.645.268.967.967,0,0,0-.1.475A25.155,25.155,0,0,1,412.42,483.441Z" transform="translate(-329.911 -403.629)" fill="#00a5a5"/>
    <path id="Pfad_761" data-name="Pfad 761" d="M410.109,499.372a11.449,11.449,0,0,0-2.881-2.433,2.3,2.3,0,0,0-1.431-.317,1.072,1.072,0,0,0-.92,1.007,6.515,6.515,0,0,0,.26.881,9.254,9.254,0,0,0,.075,1.03,1.743,1.743,0,0,0,.377.579l1.335,1.582a8.591,8.591,0,0,0,1.859,1.786,2.8,2.8,0,0,0,2.47.345,3.036,3.036,0,0,0,1.354-1.243c.332-.528.566-1.105.877-1.65a8.194,8.194,0,0,1,1.886-2.287,2.1,2.1,0,0,1-1.131-.566,1.872,1.872,0,0,1-.179-.324l-.305-.66a.754.754,0,0,0-.566.213,4.738,4.738,0,0,1-.421.428c-.266.2-.626.255-.867.483a2.3,2.3,0,0,0-.253.317A2.116,2.116,0,0,1,410.109,499.372Z" transform="translate(-330.634 -419.503)" fill="#3f3d56"/>
    <path id="Pfad_762" data-name="Pfad 762" d="M452.264,467.323a11.3,11.3,0,0,0,.811-3.973,1.814,1.814,0,0,1,.36-.986,1.879,1.879,0,0,1,1.612-.377c.168.019.377.1.368.266a.34.34,0,0,1-.085.16,4.486,4.486,0,0,0-.932,2.474c.3.206.754-.217,1.039,0,.189.158.1.471-.011.7q-.394.786-.813,1.561a5.015,5.015,0,0,1-.862,1.243c-.239.23-.52.411-.764.637-.566.53-.907,1.279-1.492,1.8a.305.305,0,0,1-.189.1.317.317,0,0,1-.2-.089,2.859,2.859,0,0,1-.713-.862c-.223-.411-.189-.532.162-.822A6.233,6.233,0,0,0,452.264,467.323Z" transform="translate(-367.457 -391.398)" fill="#be6f72"/>
    <path id="Pfad_763" data-name="Pfad 763" d="M411.613,496.148c.113.07.253.149.377.091a.392.392,0,0,0,.126-.123,4.436,4.436,0,0,0,.536-.932.359.359,0,0,0,.04-.151c0-.121-.107-.209-.207-.279a7.687,7.687,0,0,0-1.714-.815,3.538,3.538,0,0,0-1.546-.305,1.475,1.475,0,0,0-1.031.524c-.377.485.255.632.651.807A25.166,25.166,0,0,1,411.613,496.148Z" transform="translate(-333.231 -417.091)" fill="#00a5a5"/>
    <path id="Pfad_764" data-name="Pfad 764" d="M423.667,516.638a.277.277,0,0,0,.079.238c.055-.268-.017-.551.04-.82.083-.405.477-.711.511-1.118C423.575,514.8,423.673,516.2,423.667,516.638Z" transform="translate(-345.88 -434.375)" opacity="0.1"/>
    <path id="Pfad_765" data-name="Pfad 765" d="M554.919,358.04V359.9l-7.667.466-.232-1.859Z" transform="translate(-443.882 -290.523)" opacity="0.2"/>
    <path id="Pfad_766" data-name="Pfad 766" d="M415.9,442.532c.479-.39.2-1.209.526-1.733a1.684,1.684,0,0,1,.82-.566,3.733,3.733,0,0,1,1.2-.332,1.39,1.39,0,0,1,1.131.417c.123.14.206.309.321.455a1.226,1.226,0,0,0,1.188.411c.251-.057.511-.247.494-.5a.711.711,0,0,0-.226-.4l-.539-.6a4.28,4.28,0,0,0-2.193-1.569,3.762,3.762,0,0,0-1.871.251c-.243.081-.517.2-.585.449-.045.17.023.354-.017.526-.077.341-.515.456-.718.743s-.141.626-.2.943a8.239,8.239,0,0,0-.249.954c-.013.2.087.566.309.637S415.758,442.3,415.9,442.532Z" transform="translate(-338.828 -372.011)" fill="#3f3d56"/>
    <path id="Pfad_767" data-name="Pfad 767" d="M420.7,433.746a5.657,5.657,0,0,0-1-2.293,4.018,4.018,0,0,0-1.786-1.418,2.557,2.557,0,0,0-2.223.175,3.228,3.228,0,0,0-1.111,1.4,3.746,3.746,0,0,0-.1,3.349c.226-.275.615-.151.958-.251a9.989,9.989,0,0,0,1.2-.588C417.871,433.577,419.38,434.018,420.7,433.746Z" transform="translate(-338.138 -365.349)" fill="#fed253"/>
    <path id="Pfad_768" data-name="Pfad 768" d="M417.293,445.77a1.152,1.152,0,0,1,.17-.975.122.122,0,0,1,.1-.045.13.13,0,0,1,.077.068,4.216,4.216,0,0,1,.355.694.72.72,0,0,0-.754.292" transform="translate(-340.667 -377.431)" opacity="0.1"/>
    <path id="Pfad_769" data-name="Pfad 769" d="M440.509,441.046l-.068-.673a.307.307,0,0,1,.013-.166.213.213,0,0,1,.275-.075.565.565,0,0,1,.221.221,3.961,3.961,0,0,1,.388.767,2.28,2.28,0,0,0-.918.011" transform="translate(-359.476 -373.665)" opacity="0.1"/>
    <path id="Pfad_770" data-name="Pfad 770" d="M403.753,502.21v1.539l-1.3.087H395.62V502.21Z" transform="translate(-321.033 -407.507)" opacity="0.1"/>
    <path id="Pfad_771" data-name="Pfad 771" d="M310.78,387.239v1.626h-8.133L281.04,361.8V360.52h4.53Z" transform="translate(-228.059 -292.536)" fill="#f1c0c0"/>
    <path id="Pfad_772" data-name="Pfad 772" d="M310.78,387.239v1.626h-8.133L281.04,361.8V360.52h4.53Z" transform="translate(-228.059 -292.536)" opacity="0.1"/>
    <path id="Pfad_773" data-name="Pfad 773" d="M310.78,387.239v1.626h-8.133L281.04,361.8V360.52l21.724,26.719Z" transform="translate(-228.059 -292.536)" opacity="0.1"/>
    <path id="Pfad_774" data-name="Pfad 774" d="M297.456,728.339a.566.566,0,0,1-.494.666,3.36,3.36,0,0,0-1.452.754,1.038,1.038,0,0,0,0,1.473,1.431,1.431,0,0,0,.754.206,5.111,5.111,0,0,0,2.519-.315,3.74,3.74,0,0,1,1.686-.654c.315.019.651.166.932.023s.36-.543.362-.877a6.492,6.492,0,0,0-.311-2.054,8.234,8.234,0,0,0-1.371-.189l-1.454-.189c-.275-.036-.869-.243-1.086-.013S297.456,728.066,297.456,728.339Z" transform="translate(-241.643 -606.508)" fill="#00a5a5"/>
    <path id="Pfad_775" data-name="Pfad 775" d="M352.943,696.82a4.556,4.556,0,0,0,.3.988,2.3,2.3,0,0,0,.954,1.307,1.7,1.7,0,0,0,1.456-.07,1.2,1.2,0,0,0,.485-.368,1.459,1.459,0,0,0,.189-.847,4.625,4.625,0,0,0-.377-2.133c-.287-.566-.786-1.052-.794-1.678l-1.718.332a.491.491,0,0,0-.253.1.435.435,0,0,0-.109.206A5.613,5.613,0,0,0,352.943,696.82Z" transform="translate(-288.454 -579.695)" fill="#00a5a5"/>
    <path id="Pfad_776" data-name="Pfad 776" d="M244.232,600.469a2.807,2.807,0,0,0,.275,1.782,1.379,1.379,0,0,0,1.561.662.228.228,0,0,0,.141-.107.266.266,0,0,0-.025-.189,2.783,2.783,0,0,1,.058-2.1c.038-.087.119-.189.207-.155a.189.189,0,0,1,.085.087.986.986,0,0,1,.132.52,1.936,1.936,0,0,0-.015.5c.036.162.209.315.36.245a.377.377,0,0,0,.172-.243,8.039,8.039,0,0,0,.038-3.819.2.2,0,0,0-.224-.209c-.89-.089-1.377-.3-1.886.526A5.169,5.169,0,0,0,244.232,600.469Z" transform="translate(-200.257 -501.259)" fill="#00a5a5"/>
    <path id="Pfad_777" data-name="Pfad 777" d="M297.2,595.13a11.564,11.564,0,0,0-.388,5.435l.2,1.633c.068.551.134,1.1.23,1.644a4.364,4.364,0,0,1,.1.854,4.575,4.575,0,0,1-.134.839,9.807,9.807,0,0,0-.2,1.754c-.021.943.1,1.886.17,2.829a31.5,31.5,0,0,1-.066,5.642,2.116,2.116,0,0,0,.309,1.454,1.873,1.873,0,0,1,.273.449c.141.432-.189.864-.273,1.307a1.32,1.32,0,0,0,1.1,1.509c1.509.179,3.059.1,4.418.788.143-.419-.17-.894-.026-1.32.091-.264.339-.436.509-.658a1.916,1.916,0,0,0,.324-1.15,4.2,4.2,0,0,0-.279-1.56,3.373,3.373,0,0,1-.377-1.269,1.6,1.6,0,0,0-.011-.651,1.016,1.016,0,0,0-.243-.3,3.834,3.834,0,0,1-.986-2.235,10.293,10.293,0,0,1,.079-2.478,4.209,4.209,0,0,1,.713-2.214,14.206,14.206,0,0,1,.4-5.516c.049-.166.126-.358.3-.4a.422.422,0,0,1,.362.143,2.472,2.472,0,0,1,.566,1.063,2.319,2.319,0,0,1,.177,1.288c-.045.189-.136.355-.189.536a1.588,1.588,0,0,0,.057,1.107,1.064,1.064,0,0,1,.136.417,1.154,1.154,0,0,1-.113.362,1.667,1.667,0,0,0,.157,1.348,4.881,4.881,0,0,0,.881,1.081,3.96,3.96,0,0,0,.123,2.18.275.275,0,0,1,.025.209c-.034.072-.121.1-.189.149-.189.155-.072.447.055.649a14.874,14.874,0,0,0,1.145,1.588c.377.451.343,1.32.905,1.482a1.7,1.7,0,0,0,.717,0,1.879,1.879,0,0,0,1.444-.735,1.98,1.98,0,0,1,.33-.6c.174-.151.4-.177.494-.358s-.011-.419.021-.628.215-.377.273-.6c.14-.509-.454-.928-.536-1.448-.117-.754.833-1.32.794-2.074-.083-1.639-.136-3.285-.221-4.924a35.5,35.5,0,0,1-.045-4.411,6.2,6.2,0,0,0-.147-2.723,3.648,3.648,0,0,0-3.1-2A15.276,15.276,0,0,0,303.6,595,24.326,24.326,0,0,1,297.2,595.13Z" transform="translate(-242.817 -499.014)" fill="#3f3d56"/>
    <circle id="Ellipse_153" data-name="Ellipse 153" cx="3.021" cy="3.021" r="3.021" transform="translate(55.187 72.05)" fill="#fbbebe"/>
    <path id="Pfad_778" data-name="Pfad 778" d="M307.922,496.691a1.288,1.288,0,0,1-1.231.779,1.519,1.519,0,0,0,.453,1.265,5.371,5.371,0,0,0,5.141,1.763,2.537,2.537,0,0,0,1.013-.422,2.246,2.246,0,0,0,.773-1.339,6.655,6.655,0,0,0,.074-1.575.407.407,0,0,0-.083-.29.414.414,0,0,0-.264-.087,4.579,4.579,0,0,1-1.863-.394,1.328,1.328,0,0,1-.688-1.6,6.76,6.76,0,0,1-1.29.153c-.454.064-.909.136-1.362.219a2.474,2.474,0,0,0-.639.121c-.273.141-.172.072-.107.328A1.56,1.56,0,0,1,307.922,496.691Z" transform="translate(-250.944 -418.035)" fill="#fbbebe"/>
    <path id="Pfad_779" data-name="Pfad 779" d="M262.935,505.149a5,5,0,0,1-1.209-.134,1.7,1.7,0,0,1-.992-.662c-.14-.211-.23-.477-.453-.6-.364-.189-.779.13-1.069.422a3.883,3.883,0,0,1-.909.732c-.4.213-.875.289-1.256.539a3.155,3.155,0,0,0-.754.815l-2.672,3.639c-1.073,1.463-2.006,3.034-2.962,4.579a32.375,32.375,0,0,0-1.886,4.318.483.483,0,0,0-.059.29c.023.1.141.177.224.121-.281.279-.034.754-.1,1.146a1.406,1.406,0,0,1-.449.7,3.547,3.547,0,0,1,1.245.059,3.814,3.814,0,0,1,1.177.566c.228-.036.207-.441.377-.592.1-.089.253-.077.387-.1.5-.1.7-.7,1.09-1.045.322-.285.779-.377,1.12-.645.554-.436.673-1.211.964-1.854.247-.545.635-1.02.852-1.578a6.8,6.8,0,0,1,.411-1.088,3.116,3.116,0,0,1,1.509-1.084,2.5,2.5,0,0,1,1.148-.307,10.666,10.666,0,0,0,.058,2.6c.066.3.158.6.238.9a16.868,16.868,0,0,1,.462,4.149,12.625,12.625,0,0,1,2.64-.317c.7-.021,1.4.07,2.1.057.83-.015,1.65-.175,2.48-.232a4.632,4.632,0,0,1,2.431.377,23.1,23.1,0,0,1,.1-3.583l.2-1.874a11.515,11.515,0,0,1,.251-1.618c.109-.43.268-.845.388-1.273a14.571,14.571,0,0,0,.266-4.69,5.911,5.911,0,0,0-.718-2.319,6.284,6.284,0,0,0-.453-.769,4.456,4.456,0,0,0-3.9-1.829.787.787,0,0,0-.279.06.93.93,0,0,0-.356.424,4.619,4.619,0,0,1-1.642,1.7Z" transform="translate(-203.658 -424.656)" fill="#3f3d56"/>
    <path id="Pfad_780" data-name="Pfad 780" d="M301.781,471.176c.085-.189.313-.258.453-.409.268-.287.147-.745.189-1.131a1.625,1.625,0,0,1,1.075-1.241,3.473,3.473,0,0,1,1.7-.107,1.642,1.642,0,0,1,.766.255c.1.072.189.164.281.23a.754.754,0,0,0,1.026-.24,3.713,3.713,0,0,0-3.479-2,3.436,3.436,0,0,0-1.388.162,2.314,2.314,0,0,0-1.218,1.407,6.838,6.838,0,0,0-.3,1.886,7.1,7.1,0,0,0,0,1.282,3.545,3.545,0,0,0,.63,1.616.488.488,0,0,0,.189.175C302.564,473.438,301.711,471.332,301.781,471.176Z" transform="translate(-246.23 -395.103)" fill="#3f3d56"/>
    <path id="Pfad_781" data-name="Pfad 781" d="M304.465,459.73a3.7,3.7,0,0,0-1.411-2.212,5.2,5.2,0,0,0-1.9-1.141,2.532,2.532,0,0,0-2.138.26,3.286,3.286,0,0,0-1.041,1.431,4.505,4.505,0,0,0-.454,2.074,2.236,2.236,0,0,0,1.013,1.8,1.9,1.9,0,0,1,.981-.632,48.013,48.013,0,0,1,4.946-1.576Z" transform="translate(-243.526 -386.767)" fill="#fed253"/>
    <path id="Pfad_782" data-name="Pfad 782" d="M303.117,472.72c.06,0,.1.062.13.113a4.78,4.78,0,0,1,.394.754c-.221.047-.6.1-.709-.094C302.874,473.395,302.944,472.71,303.117,472.72Z" transform="translate(-247.898 -400.126)" opacity="0.1"/>
    <path id="Pfad_783" data-name="Pfad 783" d="M326.367,466.453c-.045.043-.1-.045-.1-.109v-.732a.108.108,0,0,1,.013-.058.089.089,0,0,1,.062-.03c.153-.017.279.113.377.238a3.985,3.985,0,0,1,.387.643l-.8-.025" transform="translate(-266.851 -394.286)" opacity="0.1"/>
    <path id="Pfad_784" data-name="Pfad 784" d="M353.585,513.852a4.936,4.936,0,0,1,.554-.454,8.365,8.365,0,0,1,1.741-.709,2.3,2.3,0,0,0,1.411-1.167,2.772,2.772,0,0,0,.109-1.131,1.131,1.131,0,0,0-.083-.466.926.926,0,0,0-.3-.324,4.311,4.311,0,0,0-2.851-.575,17.873,17.873,0,0,0-6.3,1.573.548.548,0,0,0-.264.189.54.54,0,0,0-.051.262,4.337,4.337,0,0,0,.213,1.643c.26.671.8,1.213,1.02,1.9.1.307.136.634.224.943a1.32,1.32,0,0,0,.53.788c.745.445,1.448-.153,1.965-.617Z" transform="translate(-284.114 -429.569)" fill="#3f3d56"/>
    <path id="Pfad_785" data-name="Pfad 785" d="M298.773,509.825l-.956-2.086a7.3,7.3,0,0,1-.362-.892c-.109-.364-.162-.741-.264-1.107-.336-1.218-1.182-2.233-1.6-3.426a.65.65,0,0,0-.155-.289.5.5,0,0,0-.421-.075,6.57,6.57,0,0,0-1.556.788c-.245.113-.509.189-.754.319a.943.943,0,0,0-.505.6,1.47,1.47,0,0,0,.206.847,9.563,9.563,0,0,1,.652,3.719,3.955,3.955,0,0,1-.53,2.451c-.967,1.32-.349,3.259.013,4.856.043.189.094.392.124.592a5.439,5.439,0,0,1,.043.754,5.9,5.9,0,0,1-.4,2.487,2.783,2.783,0,0,0,1.131.321q1.643.209,3.3.294a3.6,3.6,0,0,0,1.035-.053,1.886,1.886,0,0,0,1.394-1.848,2.332,2.332,0,0,0,.551,1.452,2.194,2.194,0,0,0,1.446.445,26.888,26.888,0,0,0,4.356-.123.752.752,0,0,0,.268-.062c.279-.14.294-.524.272-.833-.042-.579-.085-1.158-.155-1.733a7.089,7.089,0,0,1-.091-1.109,6.378,6.378,0,0,1,.189-1.131,12.833,12.833,0,0,0,.368-3.583,6.048,6.048,0,0,1-.036-.884,11.722,11.722,0,0,0,.334-1.961,32.109,32.109,0,0,0-.884-5.821,1.509,1.509,0,0,0-.515-.888c-.377-.253-.907-.121-1.339-.281a3.348,3.348,0,0,1-.575-.341,2.64,2.64,0,0,0-1.3-.4,1.1,1.1,0,0,0-.943.343,1.369,1.369,0,0,0-.189.515c-.273,1.15-.594,2.287-.915,3.424l-.307,1.09-.824,2.927C298.8,509.434,298.856,509.53,298.773,509.825Z" transform="translate(-239.056 -422.93)" fill="#00a5a5"/>
    <path id="Pfad_786" data-name="Pfad 786" d="M326.84,400.25l18.241,19.169v1.625h-8.133l-13.707-17.89" transform="translate(-262.302 -324.774)" fill="#f1c0c0"/>
    <path id="Pfad_787" data-name="Pfad 787" d="M326.84,400.25l18.241,19.169v1.625h-8.133l-13.707-17.89" transform="translate(-262.302 -324.774)" opacity="0.1"/>
    <path id="Pfad_788" data-name="Pfad 788" d="M323.53,414.31l.058.021,13.475,16.5h8.016v1.626h-8.133l-13.707-17.89Z" transform="translate(-262.302 -336.182)" opacity="0.1"/>
    <path id="Pfad_789" data-name="Pfad 789" d="M339.992,500.819c-.66.289-1.394.658-1.592,1.352a.677.677,0,0,0,.668.907,2.263,2.263,0,0,0,.907-.166l3.894-1.286c.106-.034.226-.085.253-.189a.324.324,0,0,0-.038-.189c-.121-.294-.24-.9-.492-1.1-.207-.166-.619-.107-.869-.1A7.05,7.05,0,0,0,339.992,500.819Z" transform="translate(-276.664 -422.288)" fill="#00a5a5"/>
    <path id="Pfad_790" data-name="Pfad 790" d="M361.832,500.086a6.264,6.264,0,0,1,1.933.3,3.443,3.443,0,0,1,1.6,1.094,1.2,1.2,0,0,1,.253.494c.038.189.652.3.517.43.413-.066.315.128.734.124a1.386,1.386,0,0,0,1.122-.445,1.458,1.458,0,0,0,.221-.922,1.571,1.571,0,0,0-.124-.652,1.926,1.926,0,0,0-1.022-.792l-3.368-1.541a2.236,2.236,0,0,0-.622-.221,2.325,2.325,0,0,0-.549.013l-1.526.175a2.287,2.287,0,0,1,1.043,2.012" transform="translate(-295.032 -420.595)" fill="#3f3d56"/>
  </g>
</svg>
