<svg xmlns="http://www.w3.org/2000/svg" width="241.904" height="174.691" viewBox="0 0 241.904 174.691">
  <g id="Gruppe_191" data-name="Gruppe 191" transform="translate(-0.001 0)">
    <path id="Pfad_973" data-name="Pfad 973" d="M330.245,491.094s.508,10.153-21.151,22.674c0,0-.026.055,158.551,0,0,0-18.106-12.86-19.29-27.243" transform="translate(-267.972 -389.156)" opacity="0.2"/>
    <path id="Pfad_974" data-name="Pfad 974" d="M445.911,226.393V141.08a4.76,4.76,0,0,0,3.567-4.608h0a4.758,4.758,0,0,0-4.758-4.758H330.52a4.758,4.758,0,0,0-4.758,4.758h0a4.758,4.758,0,0,0,4.758,4.758h0l-2.644,85.238L306.65,253.636H465.2S465.089,253.911,445.911,226.393Z" transform="translate(-266.199 -131.714)" fill="#e6e6e6"/>
    <ellipse id="Ellipse_204" data-name="Ellipse 204" cx="34.963" cy="2.689" rx="34.963" ry="2.689" transform="translate(90.751 106.959)" opacity="0.2"/>
    <path id="Pfad_975" data-name="Pfad 975" d="M234.38,34.132l115.391,3.361.05-3.568Z" transform="translate(-170.06 -24.615)" opacity="0.2"/>
    <rect id="Rechteck_398" data-name="Rechteck 398" width="6.36" height="1.291" rx="0.646" transform="translate(119.986 20.999)" fill="#e6e8ec"/>
    <circle id="Ellipse_205" data-name="Ellipse 205" cx="0.732" cy="0.732" r="0.732" transform="translate(127.308 20.912)" fill="#e6e8ec"/>
    <rect id="Rechteck_399" data-name="Rechteck 399" width="33.217" height="4.312" transform="translate(107.837 74.282)" fill="#e6e6e6"/>
    <rect id="Rechteck_400" data-name="Rechteck 400" width="33.217" height="4.312" transform="translate(107.837 81.948)" fill="#e6e6e6"/>
    <rect id="Rechteck_401" data-name="Rechteck 401" width="33.217" height="4.312" transform="translate(107.837 89.614)" fill="#e6e6e6"/>
    <path id="Pfad_978" data-name="Pfad 978" d="M300.725,177.9l-17.035.106s-28.038,14.918-8.359,45.813c0,0,8.041-1.9,16.929,4.655C292.261,228.476,297.445,179.065,300.725,177.9Z" transform="translate(-238.393 -165.226)" fill="#00a5a5"/>
    <path id="Pfad_979" data-name="Pfad 979" d="M306.684,178.38c-3.052,12.748-6.5,45.628-6.5,45.628-7.94-5.861-15.2-4.966-16.658-4.708a56.413,56.413,0,0,0,2.834,4.969s8.041-1.9,16.929,4.655c0,0,5.184-49.411,8.464-50.575Z" transform="translate(-249.419 -165.551)" opacity="0.2"/>
    <path id="Pfad_980" data-name="Pfad 980" d="M79.945,92.1l-1.481,7.195L59.848,95.908l-.006,0-.423-8.464h3.6Z" transform="translate(-43.112 -63.445)" fill="#3f3d56"/>
    <path id="Pfad_981" data-name="Pfad 981" d="M62.716,87.441l-2.867,8.467-.006,0-.423-8.464Z" transform="translate(-43.112 -63.445)" opacity="0.2"/>
    <ellipse id="Ellipse_206" data-name="Ellipse 206" cx="2.116" cy="4.867" rx="2.116" ry="4.867" transform="translate(34.082 26.959)" fill="#3f3d56"/>
    <path id="Pfad_982" data-name="Pfad 982" d="M249.345,348.83a.647.647,0,0,1-.647-.647V245.976a.647.647,0,0,1,1.294,0V348.183a.647.647,0,0,1-.647.647Z" transform="translate(-224.151 -214.15)" fill="#3f3d56"/>
    <path id="Pfad_983" data-name="Pfad 983" d="M258.232,564.144a.647.647,0,0,1-.634-.523l-8.888-45.562a.647.647,0,0,1,1.176-.478l23.489,35.828a.647.647,0,0,1-1.082.709l-21.682-33.072,8.257,42.328a.647.647,0,0,1-.636.771Z" transform="translate(-224.151 -411.477)" fill="#3f3d56"/>
    <path id="Pfad_984" data-name="Pfad 984" d="M159.9,556.277a.647.647,0,0,1-.54-1L183.9,517.82a.647.647,0,1,1,1.082.709l-24.547,37.455A.646.646,0,0,1,159.9,556.277Z" transform="translate(-159.25 -411.651)" fill="#3f3d56"/>
    <path id="Pfad_985" data-name="Pfad 985" d="M813.616,177.9l17.035.106s28.038,14.918,8.359,45.813c0,0-8.041-1.9-16.929,4.655C822.08,228.476,816.9,179.065,813.616,177.9Z" transform="translate(-634.041 -165.226)" fill="#00a5a5"/>
    <path id="Pfad_986" data-name="Pfad 986" d="M818.683,178.38c3.052,12.748,6.5,45.628,6.5,45.628,7.94-5.861,15.2-4.966,16.658-4.708a56.436,56.436,0,0,1-2.834,4.969s-8.041-1.9-16.929,4.655c0,0-5.184-49.411-8.464-50.575Z" transform="translate(-634.041 -165.551)" opacity="0.2"/>
    <path id="Pfad_987" data-name="Pfad 987" d="M747.284,92.1l1.481,7.195,18.615-3.384.006,0,.423-8.464h-3.6Z" transform="translate(-542.21 -63.445)" fill="#3f3d56"/>
    <path id="Pfad_988" data-name="Pfad 988" d="M810.067,87.441l2.867,8.467.006,0,.423-8.464Z" transform="translate(-587.764 -63.445)" opacity="0.2"/>
    <g id="Gruppe_190" data-name="Gruppe 190" transform="translate(-443.176 29.891)">
      <path id="Pfad_1010" data-name="Pfad 1010" d="M753.979,446.5c0,.65-1.458,1.133-1.6,1.76s.724,1.568.45,2.162a11.767,11.767,0,0,1-1,1.74c-.359.514-1.468.439-1.923.921a15.289,15.289,0,0,1-1.413,1.228c-.483.4-1.136.486-1.685.855-.522.351-.459,1.64-1.036,1.96-.552.306-1.4.06-1.994.335-.574.264-.877,1.218-1.491,1.451-.592.225-1.325.128-1.951.323-.606.189-1.284.158-1.919.317-.616.154-1.087,1.078-1.729,1.2-.625.121-1.357-.2-2-.11-.631.09-1.365-.709-2.014-.648s-1.234.429-1.885.459-1.269.31-1.919.31-1.322.61-1.96.581-1.24-.955-1.875-1.014-1.423.906-2.054.816-1.158-1.038-1.783-1.159c-.641-.125-1.47.552-2.087.4-.635-.159-1.012-1.259-1.618-1.448-.626-.195-1.4.069-1.994-.156-.614-.233-1.362-.2-1.936-.46-.6-.275-1.028-.925-1.579-1.231-.577-.32-.843-1.113-1.365-1.465-.549-.37-1.385-.322-1.868-.724-.51-.424-1.464-.446-1.894-.9a14.312,14.312,0,0,1-1-1.806c-.378-.542.364-1.687.1-2.259-.274-.594-1.419-.835-1.562-1.457a9.153,9.153,0,0,1-.224-1.979c0-.65.98-1.147,1.123-1.774s-.579-1.516-.3-2.11c.264-.572.23-1.452.609-1.994.359-.514,1.255-.716,1.71-1.2.43-.456,1.2-.583,1.709-1.007.483-.4.421-1.612.97-1.981.522-.351,1.25-.512,1.828-.832.552-.306,1.332-.254,1.93-.529.574-.264,1.474.256,2.088.023.592-.225,1.072-.717,1.7-.912.606-.189.891-1.627,1.525-1.786.617-.154,1.375.1,2.016-.023.625-.121,1.466,1.013,2.112.921.631-.09,1.1-1.6,1.752-1.665s1.352.725,2,.7,1.279.43,1.929.43,1.3-.631,1.937-.6,1.224.864,1.86.923,1.446-1.208,2.077-1.118c.646.092,1.145,1.072,1.77,1.194.641.125,1.445-.484,2.062-.33.635.159,1.017,1.2,1.623,1.389.626.195,1.012.93,1.6,1.155.614.233,1.755-.858,2.329-.595.6.275,1.115.75,1.667,1.056.577.32,1.495.159,2.017.51.549.37.684,1.361,1.166,1.763.51.424,1.35.551,1.78,1.007.455.482.518,1.346.877,1.861a10.954,10.954,0,0,1,.63,1.864c.274.594,1.005,1.043,1.148,1.665A9.906,9.906,0,0,1,753.979,446.5Z" transform="translate(-157 -381.105)" fill="#3f3d56"/>
      <path id="Pfad_1013" data-name="Pfad 1013" d="M781.013,236.779a4.384,4.384,0,0,0-3.779,2.642c-.945,2.284.272,4.967,2.1,6.633s4.173,2.618,6.3,3.869a16.9,16.9,0,0,1,6.869,7.009,10.37,10.37,0,0,1-.1,9.567c-1.563,2.656-4.405,4.245-7.116,5.711" transform="translate(-217.944 -217.848)" fill="none" stroke="#3f3d56" stroke-miterlimit="10" stroke-width="1"/>
      <path id="Pfad_1014" data-name="Pfad 1014" d="M828.078,150.885a4.384,4.384,0,0,0-3.779,2.642c-.945,2.284.272,4.967,2.1,6.633s4.173,2.618,6.3,3.869a16.9,16.9,0,0,1,6.869,7.009,10.37,10.37,0,0,1-.1,9.567c-1.563,2.656-4.405,4.245-7.116,5.711" transform="translate(-257.379 -145.88)" fill="none" stroke="#3f3d56" stroke-miterlimit="10" stroke-width="1"/>
      <path id="Pfad_1015" data-name="Pfad 1015" d="M909.434,166.652a4.384,4.384,0,0,0-4.606-.224c-2.146,1.228-2.826,4.094-2.4,6.529s1.7,4.624,2.617,6.919a16.9,16.9,0,0,1,1.14,9.748,10.37,10.37,0,0,1-5.935,7.5c-2.862,1.143-6.082.66-9.123.16" transform="translate(-313.646 -158.444)" fill="none" stroke="#3f3d56" stroke-miterlimit="10" stroke-width="1"/>
      <ellipse id="Ellipse_212" data-name="Ellipse 212" cx="4.578" cy="2.224" rx="4.578" ry="2.224" transform="translate(569.1 32.549)" fill="#57b894"/>
      <ellipse id="Ellipse_213" data-name="Ellipse 213" cx="4.578" cy="2.224" rx="4.578" ry="2.224" transform="translate(568.528 32.167)" fill="none" stroke="#3f3d56" stroke-miterlimit="10" stroke-width="1"/>
      <ellipse id="Ellipse_214" data-name="Ellipse 214" cx="4.578" cy="2.224" rx="4.578" ry="2.224" transform="translate(579.02 30.641)" fill="#57b894"/>
      <ellipse id="Ellipse_215" data-name="Ellipse 215" cx="4.578" cy="2.224" rx="4.578" ry="2.224" transform="translate(578.448 30.259)" fill="none" stroke="#3f3d56" stroke-miterlimit="10" stroke-width="1"/>
      <ellipse id="Ellipse_216" data-name="Ellipse 216" cx="4.578" cy="2.224" rx="4.578" ry="2.224" transform="translate(580.546 39.035)" fill="#57b894"/>
      <ellipse id="Ellipse_217" data-name="Ellipse 217" cx="4.578" cy="2.224" rx="4.578" ry="2.224" transform="translate(579.974 38.653)" fill="none" stroke="#3f3d56" stroke-miterlimit="10" stroke-width="1"/>
      <ellipse id="Ellipse_218" data-name="Ellipse 218" cx="4.578" cy="2.224" rx="4.578" ry="2.224" transform="translate(579.592 18.05)" fill="#57b894"/>
      <ellipse id="Ellipse_219" data-name="Ellipse 219" cx="4.578" cy="2.224" rx="4.578" ry="2.224" transform="translate(579.02 17.669)" fill="none" stroke="#3f3d56" stroke-miterlimit="10" stroke-width="1"/>
      <ellipse id="Ellipse_220" data-name="Ellipse 220" cx="4.578" cy="2.224" rx="4.578" ry="2.224" transform="translate(568.146 16.715)" fill="#57b894"/>
      <ellipse id="Ellipse_221" data-name="Ellipse 221" cx="4.578" cy="2.224" rx="4.578" ry="2.224" transform="translate(567.574 16.334)" fill="none" stroke="#3f3d56" stroke-miterlimit="10" stroke-width="1"/>
      <ellipse id="Ellipse_222" data-name="Ellipse 222" cx="4.578" cy="2.224" rx="4.578" ry="2.224" transform="translate(573.297 11.946)" fill="#57b894"/>
      <ellipse id="Ellipse_223" data-name="Ellipse 223" cx="4.578" cy="2.224" rx="4.578" ry="2.224" transform="translate(572.725 11.564)" fill="none" stroke="#3f3d56" stroke-miterlimit="10" stroke-width="1"/>
      <ellipse id="Ellipse_224" data-name="Ellipse 224" cx="4.578" cy="2.224" rx="4.578" ry="2.224" transform="translate(584.552 12.9)" fill="#57b894"/>
      <ellipse id="Ellipse_225" data-name="Ellipse 225" cx="4.578" cy="2.224" rx="4.578" ry="2.224" transform="translate(583.98 12.518)" fill="none" stroke="#3f3d56" stroke-miterlimit="10" stroke-width="1"/>
      <ellipse id="Ellipse_226" data-name="Ellipse 226" cx="4.578" cy="2.224" rx="4.578" ry="2.224" transform="translate(592.946 19.195)" fill="#57b894"/>
      <ellipse id="Ellipse_227" data-name="Ellipse 227" cx="4.578" cy="2.224" rx="4.578" ry="2.224" transform="translate(592.373 18.813)" fill="none" stroke="#3f3d56" stroke-miterlimit="10" stroke-width="1"/>
      <ellipse id="Ellipse_228" data-name="Ellipse 228" cx="4.578" cy="2.224" rx="4.578" ry="2.224" transform="translate(563.377 8.131)" fill="#57b894"/>
      <ellipse id="Ellipse_229" data-name="Ellipse 229" cx="4.578" cy="2.224" rx="4.578" ry="2.224" transform="translate(562.805 7.749)" fill="none" stroke="#3f3d56" stroke-miterlimit="10" stroke-width="1"/>
      <ellipse id="Ellipse_230" data-name="Ellipse 230" cx="4.578" cy="2.224" rx="4.578" ry="2.224" transform="translate(566.239 0.882)" fill="#57b894"/>
      <ellipse id="Ellipse_231" data-name="Ellipse 231" cx="4.578" cy="2.224" rx="4.578" ry="2.224" transform="translate(565.666 0.5)" fill="none" stroke="#3f3d56" stroke-miterlimit="10" stroke-width="1"/>
      <ellipse id="Ellipse_232" data-name="Ellipse 232" cx="4.578" cy="2.224" rx="4.578" ry="2.224" transform="translate(592.755 6.223)" fill="#57b894"/>
      <ellipse id="Ellipse_233" data-name="Ellipse 233" cx="4.578" cy="2.224" rx="4.578" ry="2.224" transform="translate(592.183 5.841)" fill="none" stroke="#3f3d56" stroke-miterlimit="10" stroke-width="1"/>
      <ellipse id="Ellipse_234" data-name="Ellipse 234" cx="4.578" cy="2.224" rx="4.578" ry="2.224" transform="translate(550.596 23.773)" fill="#57b894"/>
      <ellipse id="Ellipse_235" data-name="Ellipse 235" cx="4.578" cy="2.224" rx="4.578" ry="2.224" transform="translate(550.023 23.392)" fill="none" stroke="#3f3d56" stroke-miterlimit="10" stroke-width="1"/>
      <ellipse id="Ellipse_236" data-name="Ellipse 236" cx="4.578" cy="2.224" rx="4.578" ry="2.224" transform="translate(566.429 22.629)" fill="#57b894"/>
      <ellipse id="Ellipse_237" data-name="Ellipse 237" cx="4.578" cy="2.224" rx="4.578" ry="2.224" transform="translate(565.857 22.247)" fill="none" stroke="#3f3d56" stroke-miterlimit="10" stroke-width="1"/>
      <ellipse id="Ellipse_238" data-name="Ellipse 238" cx="4.578" cy="2.224" rx="4.578" ry="2.224" transform="translate(587.223 24.346)" fill="#57b894"/>
      <ellipse id="Ellipse_239" data-name="Ellipse 239" cx="4.578" cy="2.224" rx="4.578" ry="2.224" transform="translate(586.651 23.964)" fill="none" stroke="#3f3d56" stroke-miterlimit="10" stroke-width="1"/>
      <ellipse id="Ellipse_240" data-name="Ellipse 240" cx="4.578" cy="2.224" rx="4.578" ry="2.224" transform="translate(576.158 25.109)" fill="#57b894"/>
      <ellipse id="Ellipse_241" data-name="Ellipse 241" cx="4.578" cy="2.224" rx="4.578" ry="2.224" transform="translate(575.586 24.727)" fill="none" stroke="#3f3d56" stroke-miterlimit="10" stroke-width="1"/>
      <ellipse id="Ellipse_242" data-name="Ellipse 242" cx="4.578" cy="2.224" rx="4.578" ry="2.224" transform="translate(576.921 6.032)" fill="#57b894"/>
      <ellipse id="Ellipse_243" data-name="Ellipse 243" cx="4.578" cy="2.224" rx="4.578" ry="2.224" transform="translate(576.349 5.651)" fill="none" stroke="#3f3d56" stroke-miterlimit="10" stroke-width="1"/>
      <ellipse id="Ellipse_244" data-name="Ellipse 244" cx="4.578" cy="2.224" rx="4.578" ry="2.224" transform="translate(557.273 17.86)" fill="#57b894"/>
      <ellipse id="Ellipse_245" data-name="Ellipse 245" cx="4.578" cy="2.224" rx="4.578" ry="2.224" transform="translate(556.7 17.478)" fill="none" stroke="#3f3d56" stroke-miterlimit="10" stroke-width="1"/>
      <ellipse id="Ellipse_246" data-name="Ellipse 246" cx="4.578" cy="2.224" rx="4.578" ry="2.224" transform="translate(559.943 26.444)" fill="#57b894"/>
      <ellipse id="Ellipse_247" data-name="Ellipse 247" cx="4.578" cy="2.224" rx="4.578" ry="2.224" transform="translate(559.371 26.063)" fill="none" stroke="#3f3d56" stroke-miterlimit="10" stroke-width="1"/>
      <g id="Gruppe_187" data-name="Gruppe 187" transform="translate(561.343 40.744)" opacity="0.3">
        <ellipse id="Ellipse_248" data-name="Ellipse 248" cx="2.399" cy="1.039" rx="2.399" ry="1.039" transform="translate(0.302 4.188) rotate(-60.799)" fill="#57b894"/>
        <ellipse id="Ellipse_249" data-name="Ellipse 249" cx="2.399" cy="1.039" rx="2.399" ry="1.039" transform="translate(0 4.362) rotate(-60.799)" fill="none" stroke="#3f3d56" stroke-miterlimit="10" stroke-width="1"/>
      </g>
      <g id="Gruppe_188" data-name="Gruppe 188" transform="translate(584.12 45.09)" opacity="0.3">
        <ellipse id="Ellipse_250" data-name="Ellipse 250" cx="1.039" cy="2.399" rx="1.039" ry="2.399" transform="matrix(0.667, -0.745, 0.745, 0.667, 0.105, 1.881)" fill="#57b894"/>
        <ellipse id="Ellipse_251" data-name="Ellipse 251" cx="1.039" cy="2.399" rx="1.039" ry="2.399" transform="matrix(0.667, -0.745, 0.745, 0.667, 0, 1.548)" fill="none" stroke="#3f3d56" stroke-miterlimit="10" stroke-width="1"/>
      </g>
      <g id="Gruppe_189" data-name="Gruppe 189" transform="translate(562.754 33.071)" opacity="0.3">
        <ellipse id="Ellipse_252" data-name="Ellipse 252" cx="1.039" cy="2.399" rx="1.039" ry="2.399" transform="matrix(0.667, -0.745, 0.745, 0.667, 0.105, 1.881)" fill="#57b894"/>
        <ellipse id="Ellipse_253" data-name="Ellipse 253" cx="1.039" cy="2.399" rx="1.039" ry="2.399" transform="matrix(0.667, -0.745, 0.745, 0.667, 0, 1.548)" fill="none" stroke="#3f3d56" stroke-miterlimit="10" stroke-width="1"/>
      </g>
    </g>
    <ellipse id="Ellipse_207" data-name="Ellipse 207" cx="2.116" cy="4.867" rx="2.116" ry="4.867" transform="translate(203.593 26.959)" fill="#3f3d56"/>
    <path id="Pfad_989" data-name="Pfad 989" d="M947.235,348.83a.647.647,0,0,1-.647-.647V245.976a.647.647,0,1,1,1.294,0V348.183a.647.647,0,0,1-.647.647Z" transform="translate(-730.523 -214.15)" fill="#3f3d56"/>
    <path id="Pfad_990" data-name="Pfad 990" d="M876.244,564.144a.647.647,0,0,1-.636-.771l8.257-42.328-21.682,33.073a.647.647,0,0,1-1.082-.709L884.59,517.58a.647.647,0,0,1,1.176.479l-8.888,45.562A.647.647,0,0,1,876.244,564.144Z" transform="translate(-668.419 -411.477)" fill="#3f3d56"/>
    <path id="Pfad_991" data-name="Pfad 991" d="M971.777,556.277a.646.646,0,0,1-.541-.292l-24.547-37.455a.647.647,0,1,1,1.082-.709l24.547,37.455a.647.647,0,0,1-.54,1Z" transform="translate(-730.519 -411.651)" fill="#3f3d56"/>
    <path id="Pfad_992" data-name="Pfad 992" d="M536.487,438.171l4.634-1.29s1.815-.362.706-3.908-3.309-2.553-3.309-2.553l-4.111,1.194-1.623.5,2.284,3.2.191,2.135Z" transform="translate(-430.277 -348.355)" fill="#3f3d56"/>
    <path id="Pfad_993" data-name="Pfad 993" d="M350.552,291.267l-1.454,5.808,7.45,7.22.64.161,1.709-.48,1.454-5.808-1.473-1.549,1.505-.394-3.213-3.119-1.676.352-1.345-1.335.908-.363.086-.342-1.1-.865Z" transform="translate(-253.296 -210.818)" fill="#3f3d56"/>
    <path id="Pfad_994" data-name="Pfad 994" d="M365.547,311.766l-.962,3.843-4.44-4.2,1.112-3.9Z" transform="translate(-261.311 -223.125)" fill="#00a5a5"/>
    <path id="Pfad_995" data-name="Pfad 995" d="M353.857,291.267l-.2.814,7.408,7.207.64.16,1.655-.448.091,0,.208-.831-1.473-1.549,1.505-.394-3.213-3.119-1.676.352-1.345-1.335.908-.363.086-.342-1.1-.865Z" transform="translate(-256.601 -210.818)" fill="none" stroke="#3f3d56" stroke-miterlimit="10" stroke-width="1"/>
    <ellipse id="Ellipse_208" data-name="Ellipse 208" cx="0.418" cy="0.616" rx="0.418" ry="0.616" transform="translate(99.979 80.631) rotate(-75.943)" fill="#00a5a5"/>
    <ellipse id="Ellipse_209" data-name="Ellipse 209" cx="0.418" cy="0.616" rx="0.418" ry="0.616" transform="translate(104.685 86.847) rotate(-75.943)" fill="#00a5a5"/>
    <path id="Pfad_996" data-name="Pfad 996" d="M545.205,458l-1.011-3.436s2.628-6.266-.4-6.872-3.234,5.862-3.234,5.862l1.213,3.84Z" transform="translate(-435.916 -360.954)" fill="#ffb6b6"/>
    <circle id="Ellipse_210" data-name="Ellipse 210" cx="8.029" cy="8.029" r="8.029" transform="translate(82.497 74.312)" fill="#ffb6b6"/>
    <path id="Pfad_997" data-name="Pfad 997" d="M469.243,448.669s.472,5.9,1.653,6.376-12.752,3.778-12.752,3.778l3.542-4.014s.708-6.14-.945-7.557Z" transform="translate(-376.12 -360.66)" fill="#ffb6b6"/>
    <path id="Pfad_998" data-name="Pfad 998" d="M539.82,477.668l3.234-.4s3.84,2.021,3.84,4.649,2.223,6.872,2.223,6.872,1.617,5.66-2.021,6.064-6.872-6.064-6.872-6.064Z" transform="translate(-435.382 -382.436)" fill="#00a5a5"/>
    <path id="Pfad_999" data-name="Pfad 999" d="M473.65,579.233s7.074-6.67,9.1-6.266,6.064,1.011,6.064,4.042-6.67,10.106-6.67,10.106-5.053,11.117-9.9,11.521a83.72,83.72,0,0,0-9.5,1.415s2.223,8.085,1.011,10.308-5.862,4.851-6.266,4.649a31,31,0,0,1-8.489-12.936c-2.425-7.479-4.042-13.138-1.819-13.542S473.65,579.233,473.65,579.233Z" transform="translate(-367.392 -451.864)" fill="#2f2e41"/>
    <path id="Pfad_1000" data-name="Pfad 1000" d="M571.879,585.53s1.415-.2,1.213,3.234-.808,15.766-1.819,18.191-1.213,5.255-.808,6.266,1.213,2.628-.2,2.83a43.052,43.052,0,0,1-7.883-.809c-.606-.2-1.213-3.638-.809-3.638s1.415-.2,1.011-1.617-.606-1.415,0-1.819,2.223-1.011,1.819-1.415-.808-9.9-.808-9.9Z" transform="translate(-451.068 -460.99)" fill="#2f2e41"/>
    <path id="Pfad_1001" data-name="Pfad 1001" d="M572.271,691.872s3.436-1.011,3.84,1.213c0,0,.606,3.436-2.021,4.649a32.478,32.478,0,0,0-4.851,2.83s-4.245,1.617-4.447-.4.808-9.3.808-9.3Z" transform="translate(-453.482 -537.417)" fill="#2f2e41"/>
    <path id="Pfad_1002" data-name="Pfad 1002" d="M488.762,689.487l-6.468-5.255s1.213,6.468-.4,7.681l-.739,2.159,2.068,1.692S489.571,694.742,488.762,689.487Z" transform="translate(-392.813 -532.607)" fill="#2f2e41"/>
    <path id="Pfad_1003" data-name="Pfad 1003" d="M456,670.857s4.245,1.213,3.638,5.457-1.384,8.856-1.384,8.856-.233,11.356-3.265,12.165-3.84-.808-3.84-.808-3.446-8.874-2.425-11.521c1.236-3.2,3.016-6.8,2.425-7.883C450.57,676.059,451.555,670.251,456,670.857Z" transform="translate(-369.149 -522.871)" fill="#2f2e41"/>
    <path id="Pfad_1004" data-name="Pfad 1004" d="M439.648,465.944s1.617.2,4.245.606,4.447-1.617,5.862-1.213,13.138,3.234,13.138,3.234l-1.819,13.947s2.223,16.17,1.819,19,4.851,2.426,1.819,5.862-8.287,6.468-19,5.457-12.128-.808-12.128-2.425,2.426-15.362,1.617-16.574-2.426-2.628-1.617-4.042,1.617-2.223.4-3.436a5.541,5.541,0,0,1-1.819-3.032c0-.606-2.83-10.511-2.83-10.511s1.213-4.851,2.628-5.053,2.628-1.213,3.638-1.213a8.04,8.04,0,0,0,2.223,0Z" transform="translate(-355.219 -373.744)" fill="#00a5a5"/>
    <path id="Pfad_1005" data-name="Pfad 1005" d="M479.909,397.491c-.1-.467-.613-2.029-1.648-2.41-.757-.279-2.166.31-2.868.213l-.09-.257a5.83,5.83,0,0,0-.375-1.475,7.55,7.55,0,0,0-4.142-4.223c-2.311-.966-5.967-1.765-9.138.767-4.356,3.477-3.589,8.681-3.272,10.124q.079.361.136.727c.2,1.272.758,1.423.758,1.423s-.012-.037-.032-.1l3.935.383,2.127-.363c.036.208.049.331.049.331a19.727,19.727,0,0,0,10.407-4.786,6.281,6.281,0,0,0,2.408,1.023A1.382,1.382,0,0,0,479.909,397.491Zm-16,3.126-5-.182c-.071-1.365.282-2.96,2.291-3.042,1.937-.078,2.995,1.5,3.555,2.939Z" transform="translate(-376.097 -317.966)" fill="#2f2e41"/>
    <ellipse id="Ellipse_211" data-name="Ellipse 211" cx="0.884" cy="0.335" rx="0.884" ry="0.335" transform="translate(88.138 70.473) rotate(-9.685)" fill="#2f2e41"/>
  </g>
</svg>
