<svg id="Gruppe_176" data-name="Gruppe 176" xmlns="http://www.w3.org/2000/svg" width="230.557" height="132.813" viewBox="0 0 230.557 132.813">
  <path id="Pfad_830" data-name="Pfad 830" d="M375.92,388l-14.7,6.958,13.012-9.729a73.427,73.427,0,0,0-7.1-9.349l-63.76,15.848,57.593-21.97a73.409,73.409,0,0,0-8.363-6.375L255.44,379.03a72.812,72.812,0,0,0-15.946,45.439H385.739A72.774,72.774,0,0,0,375.92,388Z" transform="translate(-213.878 -318.518)" fill="#f2f2f2"/>
  <path id="Pfad_831" data-name="Pfad 831" d="M395.777,322.942a73.173,73.173,0,0,0-88.223,18.964C330.523,336.873,370.513,328.161,395.777,322.942Z" transform="translate(-265.011 -282.596)" fill="#f2f2f2"/>
  <path id="Pfad_832" data-name="Pfad 832" d="M523.316,308.115c-2.5,7.41-6.341,14.162-14.162,14.162s-13.721-6.353-14.162-14.162c-.563-9.978,6.16-14.2,14.162-14.162C518.607,294,526.286,299.321,523.316,308.115Z" transform="translate(-405.805 -266.357)" fill="#2f2e41"/>
  <rect id="Rechteck_306" data-name="Rechteck 306" width="23.164" height="33.759" transform="translate(91.664 39.874)" fill="#2f2e41"/>
  <path id="Pfad_833" data-name="Pfad 833" d="M534.374,407.352s.741,10.62-.988,12.349,15.313,3.211,15.065,1.235-3.458-14.818-2.47-17.535S534.374,407.352,534.374,407.352Z" transform="translate(-434.583 -348.095)" fill="#ffb8b8"/>
  <path id="Pfad_834" data-name="Pfad 834" d="M534.374,407.352s.741,10.62-.988,12.349,15.313,3.211,15.065,1.235-3.458-14.818-2.47-17.535S534.374,407.352,534.374,407.352Z" transform="translate(-434.583 -348.095)" opacity="0.1"/>
  <path id="Pfad_835" data-name="Pfad 835" d="M399.212,485.728l-8.874,30.007-.356,1.209H375.05c5.942-18.392,20.631-45.514,20.631-45.514l2.293-.52Z" transform="translate(-315.72 -399.303)" fill="#00a5a5"/>
  <path id="Pfad_836" data-name="Pfad 836" d="M399.212,485.728l-8.874,30.007-.356,1.209H375.05c5.942-18.392,20.631-45.514,20.631-45.514l2.293-.52Z" transform="translate(-315.72 -399.303)" opacity="0.1"/>
  <circle id="Ellipse_183" data-name="Ellipse 183" cx="11.114" cy="11.114" r="11.114" transform="translate(91.641 40.734)" fill="#ffb8b8"/>
  <path id="Pfad_837" data-name="Pfad 837" d="M539.524,453.345s-3.952,3.7-8.4,2.964-6.312-6.147-6.312-6.147l-4.308,3.183s-1.235,8.891,4.445,9.879,13.831,1.235,15.559,0S539.524,453.345,539.524,453.345Z" transform="translate(-424.914 -383.715)" fill="#3f3d56"/>
  <path id="Pfad_838" data-name="Pfad 838" d="M489.487,470.082l-.709,2.3-10.006,32.621H435.71a10.085,10.085,0,0,0,.2-1.209c.557-4.643.229-16.358.229-17.164,0-.99,4.2-25.438,5.188-27.169a1.606,1.606,0,0,1,.589-.492,30.229,30.229,0,0,1,6.444-2.057s0,0,0,0c1.535-.373,3.136-.716,4.589-1.007h0c1.425-.286,2.7-.52,3.639-.674a14.9,14.9,0,0,1,1.525-.211c.229,0,.4.271.507.686a18.929,18.929,0,0,1,.231,4.25,7.5,7.5,0,0,0,1.109,1.04,14.091,14.091,0,0,0,3.1,1.848,18.381,18.381,0,0,0,2.94,1h0a21.489,21.489,0,0,0,3.221.56,9.941,9.941,0,0,0,2.661-.052h.005A4.749,4.749,0,0,0,475.924,461c.08-.236.142-.463.2-.669,0,0,0-.007,0-.01.164-.634.234-1.079.408-1.072h0c.45.042,6.128,4.91,9.817,8.106,1.751,1.515,3.052,2.659,3.131,2.728Z" transform="translate(-361.293 -387.365)" fill="#00a5a5"/>
  <path id="Pfad_839" data-name="Pfad 839" d="M606.6,515.284,596.6,547.9H592.54a2.669,2.669,0,0,0,.445-1.826c-.129-.91,2.689-10.185,5.4-18.815,2.467-7.842,4.847-15.144,4.847-15.144l2.345,1.109S606,514.023,606.6,515.284Z" transform="translate(-479.117 -430.264)" opacity="0.1"/>
  <path id="Pfad_840" data-name="Pfad 840" d="M618.458,539.995c-.488.122-.435,1.569-.463,3.064H598.83a2.825,2.825,0,0,0,.612-2.074c-.127-.873,1.763-9.874,3.671-18.566,1.5-6.874,3.012-13.557,3.537-15.883l.2-.866.226.107,0,0,4.952,2.353.005,0s7.655,14.575,5.188,18.032-2.472,3.457-1.485,5.188S619.443,539.749,618.458,539.995Z" transform="translate(-483.843 -425.418)" fill="#00a5a5"/>
  <circle id="Ellipse_184" data-name="Ellipse 184" cx="5.59" cy="5.59" r="5.59" transform="translate(97.758 19.397)" fill="#2f2e41"/>
  <path id="Pfad_841" data-name="Pfad 841" d="M521.683,254.59a5.59,5.59,0,0,1,5.031-5.562c-.184-.018-.37-.028-.559-.028a5.59,5.59,0,0,0,0,11.181c.189,0,.375-.01.559-.028a5.59,5.59,0,0,1-5.031-5.562Z" transform="translate(-425.043 -232.585)" fill="#2f2e41"/>
  <path id="Pfad_842" data-name="Pfad 842" d="M495.347,332.1s-.117-.65-4.682,1.062-7.3,14.346-5.019,21.764a6.8,6.8,0,0,1-1.05,6.653,10.991,10.991,0,0,0,3.9,17.071q.283.123.577.244l2.853,1.712a13.05,13.05,0,0,1-1.817-10.908,31.389,31.389,0,0,0,.566-16.069c-.209-.9-.446-1.821-.716-2.764-2.283-7.989-1.172-7.067,6.817-15.056a50.781,50.781,0,0,0,8.56,5.136c3.995,1.712,7.419,3.424,4.565,9.131s-9.7,10.843-5.136,18.261,5.136,4.565,4.565,7.419h0l-.571,2.853,3.424-3.424-2.283,4.565s7.419,0,9.7-5.707l1.141,1.141s4.565-7.989-3.995-15.408c0,0-2.853-1.712,1.141-7.419s.927-17.976-4.209-20.258S495.347,332.1,495.347,332.1Z" transform="translate(-396.111 -294.254)" fill="#2f2e41"/>
  <path id="Pfad_843" data-name="Pfad 843" d="M384.425,296.659l-9.509,16.469h2.223v2.223l10.807-18.692Z" transform="translate(-281.67 -222.876)" fill="#3f3d56"/>
  <rect id="Rechteck_307" data-name="Rechteck 307" width="40" height="15" transform="translate(187.557 107)" fill="#f2f2f2"/>
  <rect id="Rechteck_308" data-name="Rechteck 308" width="28.851" height="2.487" transform="translate(193.125 126.097)" fill="#f2f2f2"/>
  <rect id="Rechteck_309" data-name="Rechteck 309" width="28.851" height="1.99" transform="translate(193.125 130.574)" fill="#f2f2f2"/>
  <circle id="Ellipse_185" data-name="Ellipse 185" cx="1" cy="1" r="1" transform="translate(3.557 2)" fill="#00a5a5"/>
  <circle id="Ellipse_186" data-name="Ellipse 186" cx="1" cy="1" r="1" transform="translate(5.557 2)" fill="#00a5a5"/>
  <circle id="Ellipse_187" data-name="Ellipse 187" cx="1" cy="1" r="1" transform="translate(8.557 2)" fill="#00a5a5"/>
  <path id="Pfad_844" data-name="Pfad 844" d="M367.057,315.813H136.5V183H367.057ZM137,315.315H366.559V183.5H137Z" transform="translate(-136.5 -183)" fill="#2f2e41"/>
  <rect id="Rechteck_310" data-name="Rechteck 310" width="230.059" height="0.497" transform="translate(0.249 4.996)" fill="#2f2e41"/>
  <rect id="Rechteck_311" data-name="Rechteck 311" width="7" height="1" transform="translate(3.557 9)" fill="#2f2e41"/>
  <rect id="Rechteck_312" data-name="Rechteck 312" width="7" height="1" transform="translate(3.557 11)" fill="#2f2e41"/>
  <rect id="Rechteck_313" data-name="Rechteck 313" width="7" height="1" transform="translate(3.557 13)" fill="#2f2e41"/>
  <path id="Pfad_845" data-name="Pfad 845" d="M496.021,224.477H403.5V220h92.521Zm-92.024-.5h91.526V220.5H404Z" transform="translate(-337.094 -210.798)" fill="#2f2e41"/>
  <path id="Pfad_846" data-name="Pfad 846" d="M757.495,225.49a.995.995,0,1,1,.995-.995A.995.995,0,0,1,757.495,225.49Zm0-1.492a.5.5,0,1,0,.5.5A.5.5,0,0,0,757.495,224Z" transform="translate(-602.298 -213.427)" fill="#2f2e41"/>
  <rect id="Rechteck_314" data-name="Rechteck 314" width="0.497" height="1.365" transform="translate(155.536 11.788) rotate(-45.868)" fill="#2f2e41"/>
  <path id="Pfad_847" data-name="Pfad 847" d="M984.474,224.477H979.5V220h4.974Zm-4.477-.5h3.979V220.5H980Z" transform="translate(-769.835 -210.798)" fill="#2f2e41"/>
  <path id="Pfad_848" data-name="Pfad 848" d="M1009.474,224.477H1004.5V220h4.974Zm-4.477-.5h3.979V220.5H1005Z" transform="translate(-788.617 -210.798)" fill="#2f2e41"/>
  <path id="Pfad_849" data-name="Pfad 849" d="M1034.474,224.477H1029.5V220h4.974Zm-4.477-.5h3.979V220.5H1030Z" transform="translate(-807.4 -210.798)" fill="#2f2e41"/>
  <rect id="Rechteck_315" data-name="Rechteck 315" width="5" height="5" transform="translate(164.557 120)" fill="#ff6584"/>
  <rect id="Rechteck_316" data-name="Rechteck 316" width="4" height="5" transform="translate(171.557 120)" fill="#f2f2f2"/>
  <rect id="Rechteck_317" data-name="Rechteck 317" width="4" height="5" transform="translate(178.557 120)" fill="#f2f2f2"/>
  <path id="Pfad_850" data-name="Pfad 850" d="M356.122,365.5H186.5V269H356.122ZM187,365H355.625V269.5H187Z" transform="translate(-174.064 -247.611)" fill="#2f2e41"/>
  <path id="Pfad_851" data-name="Pfad 851" d="M277.769,621.171v2.337l-3.882-2.369a.136.136,0,0,0-.205.117v5.121a.136.136,0,0,0,.205.117l3.882-2.369v2.337a.068.068,0,0,0,.068.068h1.2a.068.068,0,0,0,.068-.068v-5.291a.068.068,0,0,0-.068-.068h-1.2A.068.068,0,0,0,277.769,621.171Z" transform="translate(-239.563 -512.141)" fill="#3f3d56"/>
  <path id="Pfad_852" data-name="Pfad 852" d="M244.81,626.53h-1.082a.136.136,0,0,1-.137-.136v-5.155a.136.136,0,0,1,.137-.136h1.082a.136.136,0,0,1,.137.136v5.155A.136.136,0,0,1,244.81,626.53Zm2.985,0h-1.082a.136.136,0,0,1-.137-.136v-5.155a.136.136,0,0,1,.137-.136h1.082a.136.136,0,0,1,.137.136v5.155a.136.136,0,0,1-.137.135Z" transform="translate(-216.956 -512.142)" fill="#3f3d56"/>
  <path id="Pfad_853" data-name="Pfad 853" d="M215.5,621.249v5.145a.132.132,0,0,0,.2.122l4.078-2.573a.146.146,0,0,0,0-.242l-4.078-2.573a.131.131,0,0,0-.2.12Z" transform="translate(-195.851 -512.146)" fill="#00a5a5"/>
  <rect id="Rechteck_318" data-name="Rechteck 318" width="153.456" height="0.995" transform="translate(20.519 105.454)" fill="#2f2e41"/>
  <rect id="Rechteck_319" data-name="Rechteck 319" width="26.737" height="0.995" transform="translate(20.519 105.454)" fill="#00a5a5"/>
  <rect id="Rechteck_320" data-name="Rechteck 320" width="69" height="2" transform="translate(13.557 121)" fill="#f2f2f2"/>
  <rect id="Rechteck_321" data-name="Rechteck 321" width="15" height="2" transform="translate(13.557 128)" fill="#f2f2f2"/>
  <rect id="Rechteck_322" data-name="Rechteck 322" width="40" height="16" transform="translate(187.557 26)" fill="#f2f2f2"/>
  <rect id="Rechteck_323" data-name="Rechteck 323" width="28.851" height="2.487" transform="translate(193.125 46.012)" fill="#f2f2f2"/>
  <rect id="Rechteck_324" data-name="Rechteck 324" width="28.851" height="2.487" transform="translate(193.125 50.489)" fill="#f2f2f2"/>
  <rect id="Rechteck_325" data-name="Rechteck 325" width="28.851" height="2.487" transform="translate(193.125 54.965)" fill="#f2f2f2"/>
  <rect id="Rechteck_326" data-name="Rechteck 326" width="40" height="15" transform="translate(187.557 67)" fill="#f2f2f2"/>
  <rect id="Rechteck_327" data-name="Rechteck 327" width="28.851" height="2.487" transform="translate(193.125 86.055)" fill="#f2f2f2"/>
  <rect id="Rechteck_328" data-name="Rechteck 328" width="28.851" height="2.487" transform="translate(193.125 90.531)" fill="#f2f2f2"/>
  <rect id="Rechteck_329" data-name="Rechteck 329" width="28.851" height="2.487" transform="translate(193.125 95.008)" fill="#f2f2f2"/>
  <path id="Pfad_854" data-name="Pfad 854" d="M787.3,590.115l-.513-.388c-1.826-1.4-3.029-2.313-3.139-3.567a1.791,1.791,0,0,1,1.646-1.974,1.927,1.927,0,0,0,2.953-.258,1.791,1.791,0,0,1,1.964,1.658c.11,1.254-.918,2.359-2.472,4.058Z" transform="translate(-622.687 -484.206)" fill="#ff6584"/>
  <path id="Pfad_855" data-name="Pfad 855" d="M817.915,564l-.281-.578c-.989-2.079-1.649-3.436-1.177-4.6a1.791,1.791,0,0,1,2.362-1.011,1.926,1.926,0,0,0,2.748,1.111,1.791,1.791,0,0,1,1,2.369c-.472,1.167-1.889,1.685-4.045,2.493Z" transform="translate(-647.226 -464.481)" fill="#ff6584"/>
  <path id="Pfad_856" data-name="Pfad 856" d="M807.915,631l-.281-.578c-.989-2.079-1.649-3.436-1.177-4.6a1.791,1.791,0,0,1,2.362-1.011,1.926,1.926,0,0,0,2.748,1.111,1.791,1.791,0,0,1,1,2.369c-.472,1.167-1.889,1.685-4.045,2.493Z" transform="translate(-639.713 -514.817)" fill="#ff6584"/>
</svg>
