<svg xmlns="http://www.w3.org/2000/svg" width="203.683" height="162.798" viewBox="0 0 203.683 162.798">
  <g id="Gruppe_177" data-name="Gruppe 177" transform="translate(0)">
    <rect id="Rechteck_330" data-name="Rechteck 330" width="18.471" height="5.584" rx="2.792" transform="translate(41.638 27.921)" fill="#00a5a5" opacity="0.1"/>
    <rect id="Rechteck_331" data-name="Rechteck 331" width="18.471" height="5.584" rx="2.792" transform="translate(60.968 33.505)" fill="#00a5a5" opacity="0.1"/>
    <rect id="Rechteck_332" data-name="Rechteck 332" width="18.471" height="5.584" rx="2.792" transform="translate(80.297 39.089)" fill="#00a5a5" opacity="0.1"/>
    <rect id="Rechteck_333" data-name="Rechteck 333" width="18.471" height="5.584" rx="2.792" transform="translate(41.638 19.544)" fill="#00a5a5" opacity="0.1"/>
    <rect id="Rechteck_334" data-name="Rechteck 334" width="18.471" height="5.584" rx="2.792" transform="translate(60.968 25.128)" fill="#00a5a5" opacity="0.1"/>
    <rect id="Rechteck_335" data-name="Rechteck 335" width="18.471" height="5.584" rx="2.792" transform="translate(80.297 30.713)" fill="#00a5a5" opacity="0.1"/>
    <rect id="Rechteck_336" data-name="Rechteck 336" width="18.471" height="5.584" rx="2.792" transform="translate(101.775 27.921)" fill="#00a5a5" opacity="0.1"/>
    <rect id="Rechteck_337" data-name="Rechteck 337" width="18.471" height="5.584" rx="2.792" transform="translate(121.104 33.505)" fill="#00a5a5" opacity="0.1"/>
    <rect id="Rechteck_338" data-name="Rechteck 338" width="18.471" height="5.584" rx="2.792" transform="translate(140.434 39.089)" fill="#00a5a5" opacity="0.1"/>
    <rect id="Rechteck_339" data-name="Rechteck 339" width="18.471" height="5.584" rx="2.792" transform="translate(101.775 19.544)" fill="#00a5a5" opacity="0.1"/>
    <rect id="Rechteck_340" data-name="Rechteck 340" width="18.471" height="5.584" rx="2.792" transform="translate(121.104 25.128)" fill="#00a5a5" opacity="0.1"/>
    <rect id="Rechteck_341" data-name="Rechteck 341" width="18.471" height="5.584" rx="2.792" transform="translate(140.434 30.713)" fill="#00a5a5" opacity="0.1"/>
    <rect id="Rechteck_342" data-name="Rechteck 342" width="18.471" height="5.584" rx="2.792" transform="translate(41.638 8.376)" fill="#00a5a5" opacity="0.1"/>
    <rect id="Rechteck_343" data-name="Rechteck 343" width="18.471" height="5.584" rx="2.792" transform="translate(60.968 13.96)" fill="#00a5a5" opacity="0.1"/>
    <rect id="Rechteck_344" data-name="Rechteck 344" width="18.471" height="5.584" rx="2.792" transform="translate(80.297 19.544)" fill="#00a5a5" opacity="0.1"/>
    <rect id="Rechteck_345" data-name="Rechteck 345" width="18.471" height="5.584" rx="2.792" transform="translate(41.638)" fill="#00a5a5" opacity="0.1"/>
    <rect id="Rechteck_346" data-name="Rechteck 346" width="18.471" height="5.584" rx="2.792" transform="translate(60.968 5.584)" fill="#00a5a5" opacity="0.1"/>
    <rect id="Rechteck_347" data-name="Rechteck 347" width="18.471" height="5.584" rx="2.792" transform="translate(80.297 11.168)" fill="#00a5a5" opacity="0.1"/>
    <rect id="Rechteck_348" data-name="Rechteck 348" width="18.471" height="5.584" rx="2.792" transform="translate(101.775 8.376)" fill="#00a5a5" opacity="0.1"/>
    <rect id="Rechteck_349" data-name="Rechteck 349" width="18.471" height="5.584" rx="2.792" transform="translate(121.104 13.96)" fill="#00a5a5" opacity="0.1"/>
    <rect id="Rechteck_350" data-name="Rechteck 350" width="18.471" height="5.584" rx="2.792" transform="translate(140.434 19.544)" fill="#00a5a5" opacity="0.1"/>
    <rect id="Rechteck_351" data-name="Rechteck 351" width="18.471" height="5.584" rx="2.792" transform="translate(101.775)" fill="#00a5a5" opacity="0.1"/>
    <rect id="Rechteck_352" data-name="Rechteck 352" width="18.471" height="5.584" rx="2.792" transform="translate(121.104 5.584)" fill="#00a5a5" opacity="0.1"/>
    <rect id="Rechteck_353" data-name="Rechteck 353" width="18.471" height="5.584" rx="2.792" transform="translate(140.434 11.168)" fill="#00a5a5" opacity="0.1"/>
    <rect id="Rechteck_354" data-name="Rechteck 354" width="18.471" height="5.584" rx="2.792" transform="translate(41.638 127.361)" fill="#00a5a5" opacity="0.1"/>
    <rect id="Rechteck_355" data-name="Rechteck 355" width="18.471" height="5.584" rx="2.792" transform="translate(60.968 132.945)" fill="#00a5a5" opacity="0.1"/>
    <rect id="Rechteck_356" data-name="Rechteck 356" width="18.471" height="5.584" rx="2.792" transform="translate(80.297 138.529)" fill="#00a5a5" opacity="0.1"/>
    <rect id="Rechteck_357" data-name="Rechteck 357" width="18.471" height="5.584" rx="2.792" transform="translate(41.638 118.984)" fill="#00a5a5" opacity="0.1"/>
    <rect id="Rechteck_358" data-name="Rechteck 358" width="18.471" height="5.584" rx="2.792" transform="translate(60.968 124.569)" fill="#00a5a5" opacity="0.1"/>
    <rect id="Rechteck_359" data-name="Rechteck 359" width="18.471" height="5.584" rx="2.792" transform="translate(80.297 130.153)" fill="#00a5a5" opacity="0.1"/>
    <rect id="Rechteck_360" data-name="Rechteck 360" width="18.471" height="5.584" rx="2.792" transform="translate(101.775 127.361)" fill="#00a5a5" opacity="0.1"/>
    <rect id="Rechteck_361" data-name="Rechteck 361" width="18.471" height="5.584" rx="2.792" transform="translate(121.104 132.945)" fill="#00a5a5" opacity="0.1"/>
    <rect id="Rechteck_362" data-name="Rechteck 362" width="18.471" height="5.584" rx="2.792" transform="translate(140.434 138.529)" fill="#00a5a5" opacity="0.1"/>
    <rect id="Rechteck_363" data-name="Rechteck 363" width="18.471" height="5.584" rx="2.792" transform="translate(101.775 118.984)" fill="#00a5a5" opacity="0.1"/>
    <rect id="Rechteck_364" data-name="Rechteck 364" width="18.471" height="5.584" rx="2.792" transform="translate(121.104 124.569)" fill="#00a5a5" opacity="0.1"/>
    <rect id="Rechteck_365" data-name="Rechteck 365" width="18.471" height="5.584" rx="2.792" transform="translate(140.434 130.153)" fill="#00a5a5" opacity="0.1"/>
    <rect id="Rechteck_366" data-name="Rechteck 366" width="18.471" height="5.584" rx="2.792" transform="translate(41.638 107.816)" fill="#00a5a5" opacity="0.1"/>
    <rect id="Rechteck_367" data-name="Rechteck 367" width="18.471" height="5.584" rx="2.792" transform="translate(60.968 113.4)" fill="#00a5a5" opacity="0.1"/>
    <rect id="Rechteck_368" data-name="Rechteck 368" width="18.471" height="5.584" rx="2.792" transform="translate(80.297 118.984)" fill="#00a5a5" opacity="0.1"/>
    <rect id="Rechteck_369" data-name="Rechteck 369" width="18.471" height="5.584" rx="2.792" transform="translate(41.638 99.44)" fill="#00a5a5" opacity="0.1"/>
    <rect id="Rechteck_370" data-name="Rechteck 370" width="18.471" height="5.584" rx="2.792" transform="translate(60.968 105.024)" fill="#00a5a5" opacity="0.1"/>
    <rect id="Rechteck_371" data-name="Rechteck 371" width="18.471" height="5.584" rx="2.792" transform="translate(80.297 110.608)" fill="#00a5a5" opacity="0.1"/>
    <rect id="Rechteck_372" data-name="Rechteck 372" width="18.471" height="5.584" rx="2.792" transform="translate(101.775 107.816)" fill="#00a5a5" opacity="0.1"/>
    <rect id="Rechteck_373" data-name="Rechteck 373" width="18.471" height="5.584" rx="2.792" transform="translate(121.104 113.4)" fill="#00a5a5" opacity="0.1"/>
    <rect id="Rechteck_374" data-name="Rechteck 374" width="18.471" height="5.584" rx="2.792" transform="translate(140.434 118.984)" fill="#00a5a5" opacity="0.1"/>
    <rect id="Rechteck_375" data-name="Rechteck 375" width="18.471" height="5.584" rx="2.792" transform="translate(101.775 99.44)" fill="#00a5a5" opacity="0.1"/>
    <rect id="Rechteck_376" data-name="Rechteck 376" width="18.471" height="5.584" rx="2.792" transform="translate(121.104 105.024)" fill="#00a5a5" opacity="0.1"/>
    <rect id="Rechteck_377" data-name="Rechteck 377" width="18.471" height="5.584" rx="2.792" transform="translate(140.434 110.608)" fill="#00a5a5" opacity="0.1"/>
    <ellipse id="Ellipse_188" data-name="Ellipse 188" cx="94.178" cy="7.732" rx="94.178" ry="7.732" transform="translate(9.422 147.335)" fill="#00a5a5" opacity="0.1"/>
    <path id="Pfad_857" data-name="Pfad 857" d="M144,248.617a34.949,34.949,0,0,1,13.984,11.813A34.982,34.982,0,0,1,139.8,258.3a34.912,34.912,0,0,1-13.984-11.813A34.955,34.955,0,0,1,144,248.617Z" transform="translate(-125.82 -208.497)" fill="#00a5a5"/>
    <path id="Pfad_858" data-name="Pfad 858" d="M328.12,164.658A18.989,18.989,0,0,1,335.544,158a19.133,19.133,0,0,1-2.524,9.639,18.942,18.942,0,0,1-7.427,6.643A18.954,18.954,0,0,1,328.12,164.658Z" transform="translate(-282.684 -139.315)" fill="#00a5a5"/>
    <path id="Pfad_859" data-name="Pfad 859" d="M240.386,161.106a26.315,26.315,0,0,0,7.382,11.632,23.894,23.894,0,0,0-7.118-25.408A26.292,26.292,0,0,0,240.386,161.106Z" transform="translate(-215.143 -130.936)" fill="#46455b"/>
    <rect id="Rechteck_378" data-name="Rechteck 378" width="156.57" height="78.392" rx="7.21" transform="translate(25.53 29.854)" fill="#3f3d56"/>
    <path id="Pfad_860" data-name="Pfad 860" d="M118.87,482H275.44v3.177a1.549,1.549,0,0,1-1.549,1.548H120.419a1.549,1.549,0,0,1-1.549-1.548Z" transform="translate(-93.34 -378.479)" opacity="0.1"/>
    <rect id="Rechteck_379" data-name="Rechteck 379" width="11.598" height="5.799" rx="2.5" transform="translate(40.779 97.722)" fill="#00a5a5"/>
    <rect id="Rechteck_380" data-name="Rechteck 380" width="7.947" height="0.859" rx="0.43" transform="translate(55.598 102.662)" fill="#00a5a5"/>
    <path id="Pfad_861" data-name="Pfad 861" d="M305.292,267.9c5.668,1.046,11.45,0,17.094-.709l17.154-2.148c.694-.088,1.7-.5,2.111.346a6.54,6.54,0,0,1,.092,2.049c.045,1.5.041,3.007,0,4.51-.077,2.874-.288,5.741-.556,8.6-.522,5.6-1.261,11.168-1.63,16.789-.189,2.861-.284,5.73-.2,8.591.019.683.047,1.366.088,2.047.045.762.387,1.894-.445,2.4a6.144,6.144,0,0,1-1.952.363c-.859.135-1.718.243-2.594.331a165.4,165.4,0,0,1-17.422.3l-17.5-.09-4.27-.024c-.387,0-1.78.232-2.019-.228a4.546,4.546,0,0,1,.215-1.355q.1-.606.215-1.209c.5-2.824,1.087-5.631,1.68-8.436a149.543,149.543,0,0,0,3.1-18.2c.26-3.082.088-6.192.406-9.268.148-1.428.324-4.615,2.225-4.742,1.611-.107,3.269,0,4.884,0a.322.322,0,1,0,0-.644c-1.525,0-3.052-.041-4.577-.011a2.177,2.177,0,0,0-2.2,1.192c-1.235,2.393-1.108,5.584-1.147,8.2a99.442,99.442,0,0,1-2.3,18.486c-.629,3.078-1.308,6.145-1.933,9.225-.294,1.471-.576,2.947-.833,4.427-.12.7-.728,2.257-.193,2.9s2.18.3,2.917.3l5.125.03,9.819.056c6.344.036,12.71.215,19.053.028a44.563,44.563,0,0,0,9.177-.938,1.47,1.47,0,0,0,1.336-1.555c.052-1.452-.185-2.949-.215-4.407-.215-12.478,2.717-24.783,2.416-37.265-.019-.848.3-2.987-.627-3.5a2.343,2.343,0,0,0-1.4-.054c-.838.1-1.673.215-2.511.314l-10.878,1.357c-3.477.43-6.952.893-10.436,1.289a36.965,36.965,0,0,1-11.087,0c-.406-.075-.58.546-.172.621Z" transform="translate(-256.749 -222.716)" fill="#00a5a5"/>
    <path id="Pfad_862" data-name="Pfad 862" d="M318.866,306.677l42.916-2.1c.414-.021.417-.666,0-.644l-42.916,2.1C318.454,306.052,318.452,306.7,318.866,306.677Z" transform="translate(-277.162 -253.901)" fill="#00a5a5"/>
    <path id="Pfad_863" data-name="Pfad 863" d="M380.489,284.409a1.074,1.074,0,0,0,.38,1.733,2.822,2.822,0,0,0,1.83-.1c.859-.215,1.718-.406,2.6-.563a35.478,35.478,0,0,1,5.818-.541c.889-.011,1.772.03,2.661.069a2.874,2.874,0,0,0,1.884-.322,1.216,1.216,0,0,0,.215-1.9c-.859-.784-2.71-.329-3.7-.247a83.039,83.039,0,0,0-10.709,1.6c-.4.086-.234.709.172.621q3.494-.754,7.042-1.211,1.744-.215,3.494-.363c.55-.045,1.1-.086,1.649-.118.215-.013.442-.037.661-.03.681.015.76-.107.352.715-.363.728-.247.644-.876.621-.266,0-.533-.03-.8-.043q-.818-.034-1.637-.037-1.742,0-3.475.168c-.979.094-1.957.228-2.925.4-.606.107-1.207.232-1.806.369-.264.062-.53.127-.795.193-.127.034-.256.064-.382.1q-.7.245-1.2-.644c.288-.3-.165-.756-.455-.455Z" transform="translate(-325.563 -236.944)" fill="#00a5a5"/>
    <path id="Pfad_864" data-name="Pfad 864" d="M380.346,332.866c-3.108-.12-6.465.719-8.511,3.222-1.6,1.957-2.515,5.314-.818,7.517,1.823,2.363,5.823,1.946,8.234.939,2.552-1.074,5.344-3.288,6.11-6.059.956-3.46-2.148-6.076-5.38-6.115a.322.322,0,0,0,0,.644,4.916,4.916,0,0,1,4.51,2.528c.9,1.808.125,3.707-1.074,5.155a10.644,10.644,0,0,1-7.981,3.993c-1.836-.028-3.866-.657-4.435-2.594a6,6,0,0,1,.7-4.678c1.765-3.007,5.359-4.025,8.653-3.9.414.015.414-.629,0-.644Z" transform="translate(-317.64 -276.235)" fill="#00a5a5"/>
    <path id="Pfad_865" data-name="Pfad 865" d="M399.284,349.033a.838.838,0,0,0-1.125.859c.064.838.988,1.074,1.682,1.024.6-.052,1.3-.273,1.089-1.022a.962.962,0,0,0-.524-.606,1.214,1.214,0,0,0-.606-.075c-.079,0-.808.266-.5-.054l-.507-.067a.528.528,0,0,1,.155.43.324.324,0,0,0,.483.277.43.43,0,0,1,.582.5.324.324,0,0,0,.588.249c.215-.387.475-1.156.152-1.559a.687.687,0,0,0-.887-.032,3.112,3.112,0,0,0-.442.38c-.26.23-.43.337-.333-.1a2.785,2.785,0,0,1,1.624-1.759l-.472-.363a6.792,6.792,0,0,1-1.3,2.545l.55.228a1.435,1.435,0,0,1,.876-1.4h-.316l.167.275c-.062.406.558.58.621.17.082-.53-.253-1.22-.874-.96a2.023,2.023,0,0,0-1.11,1.914c0,.258.365.457.552.23a7.574,7.574,0,0,0,1.463-2.833.326.326,0,0,0-.475-.363,3.6,3.6,0,0,0-1.564,1.362c-.262.43-.591,1.1-.324,1.594a.683.683,0,0,0,.934.264,2.512,2.512,0,0,0,.539-.43c.079-.071.167-.193.273-.215.094-.064.09-.028-.015.114a1.171,1.171,0,0,1-.187.627l.588.247a1.074,1.074,0,0,0-1.527-1.231l.485.279a1.171,1.171,0,0,0-.243-.758.327.327,0,0,0-.5-.067.843.843,0,0,0,.021,1.248c.307.234.457,0,.795-.054,1.145-.148.477.367.073.384a1.522,1.522,0,0,1-.539-.039q-.672-.228-.084-.586c.384.157.55-.466.172-.621Z" transform="translate(-339.664 -287.63)" fill="#00a5a5"/>
    <path id="Pfad_866" data-name="Pfad 866" d="M389.289,360.93c.264.859-.827,1.143-1.344,1.439a3,3,0,0,0-.93.814,6.219,6.219,0,0,0-.921,2.519c-.082.406.539.578.623.172a7.3,7.3,0,0,1,.543-1.853,3.273,3.273,0,0,1,1.662-1.422,1.561,1.561,0,0,0,.988-1.841C389.789,360.363,389.166,360.533,389.289,360.93Z" transform="translate(-330.187 -298.35)" fill="#00a5a5"/>
    <path id="Pfad_867" data-name="Pfad 867" d="M393.442,360.37a.623.623,0,0,0-.537.644c0,.256.17.419.286.623a4.917,4.917,0,0,1,.623,1.355,2.925,2.925,0,0,1-.037,1.718c-.445.8-1.248.644-1.933.644-.644,0-1.143.215-1.121-.683a2.856,2.856,0,0,1,.644-1.413l-.589-.077a11.223,11.223,0,0,1,.2,1.989c0,.3.457.464.6.161a12.444,12.444,0,0,0,.818-2.264l-.634-.086.112,1.632a.324.324,0,0,0,.6.163.731.731,0,0,0,.161-.29c.021-.1-.176-.782-.256-.539l.631.086.045-1.551-.644.086a3.209,3.209,0,0,1,.12,1.353c-.041.359.563.44.644.086l.4-2.083-.588.075a1.424,1.424,0,0,1,.11.928c-.047.412.6.408.644,0a2.264,2.264,0,0,0-.2-1.252.324.324,0,0,0-.589.077l-.406,2.083.634.086a3.513,3.513,0,0,0-.144-1.523.322.322,0,0,0-.631.084l-.045,1.551a.324.324,0,0,0,.634.086l.034-.105a.326.326,0,0,0-.082-.314c-.668-.726-.8.43-1.035.75l.6.163-.112-1.632a.324.324,0,0,0-.634-.086,11.548,11.548,0,0,1-.752,2.111l.6.163a12.141,12.141,0,0,0-.215-2.161c-.056-.3-.445-.284-.588-.077-.43.619-1.173,1.969-.6,2.71.5.644,2.075.4,2.747.354,1.061-.06,1.445-.732,1.561-1.733a4.246,4.246,0,0,0-.079-1.435c-.058-.253-.644-1.86-.82-1.828.408-.075.234-.7-.172-.623Z" transform="translate(-333.267 -298.221)" fill="#00a5a5"/>
    <path id="Pfad_868" data-name="Pfad 868" d="M393.27,363.867l-1.759,2.322.556.324,1.289-1.864-.588-.249-.642,2.451a.324.324,0,0,0,.588.249,11.321,11.321,0,0,1,.982-1.381l-.537-.314a3.508,3.508,0,0,1-.81,1.488l.539.314a2.877,2.877,0,0,1,.234-.859c.165-.372-.359-.7-.556-.326a7.563,7.563,0,0,1-.621.975l.588.077.131-.612-.588-.077.095.537a.324.324,0,0,0,.539.142A6.414,6.414,0,0,0,394,365.119h-.554a2.892,2.892,0,0,1,.3.859c.077.387.591.243.631-.086a17.466,17.466,0,0,0,.142-2.169h-.644v1.351c0,.35.573.453.634.086a2.462,2.462,0,0,1,.316-.923h-.565a1.433,1.433,0,0,1,.215.73.322.322,0,1,0,.644,0l.082-.43h-.621c.062.38.3,2.521-.541,2.27-.142-.034-.183-.026-.122.024l.191-.408.449-.951-.6-.163a2.356,2.356,0,0,1-.187,1.452,1.113,1.113,0,0,1-1.213.249,2.148,2.148,0,0,1-.561-.588l-.44.43c.357.26.934.9,1.394.934.35.028.644-.262.874-.494a3.744,3.744,0,0,0,1.05-2.756.322.322,0,1,0-.644,0v.734a.322.322,0,0,0,.644,0v-1.8a.322.322,0,0,0-.644,0,7.738,7.738,0,0,1-.112,1.289l.634.086a14.834,14.834,0,0,1-.071-1.544.322.322,0,0,0-.631-.086c-.1.41-.215.814-.329,1.216l.589-.077-.045-.172c-.03-.41-.674-.412-.644,0a1.179,1.179,0,0,0,.133.5.326.326,0,0,0,.588-.077c.122-.4.232-.808.329-1.216l-.634-.086a14.826,14.826,0,0,0,.071,1.544c.032.331.565.473.631.086a8.874,8.874,0,0,0,.135-1.469h-.644v1.8h.644v-.735h-.644a3.1,3.1,0,0,1-.784,2.208,2.641,2.641,0,0,1-.271.266c-.153.146-.292.125-.415-.067a5.368,5.368,0,0,1-.887-.644c-.266-.191-.631.187-.442.44.494.657,1.231,1.39,2.148,1.074.964-.341,1.1-1.647,1.022-2.506-.024-.286-.451-.479-.6-.161-.215.453-.43.9-.644,1.359a1.2,1.2,0,0,0-.193.567c.071.483.657.4,1.018.376,1.4-.105,1.177-2.088,1.016-3.084-.054-.331-.535-.279-.621,0a1.9,1.9,0,0,0-.105.61h.644a2.553,2.553,0,0,0-.3-1.054.324.324,0,0,0-.556,0,3.13,3.13,0,0,0-.382,1.074l.644.086v-1.351a.322.322,0,0,0-.644,0,17.465,17.465,0,0,1-.142,2.169l.634-.086A3.688,3.688,0,0,0,394,364.8a.324.324,0,0,0-.556,0,5.876,5.876,0,0,1-1.188,1.813l.539.142-.094-.537c-.049-.286-.453-.294-.588-.077a1.413,1.413,0,0,0-.2,1.108c.054.3.44.273.588.077a7.539,7.539,0,0,0,.621-.973l-.556-.326a3.665,3.665,0,0,0-.3,1.012c-.039.284.3.58.539.314a4.3,4.3,0,0,0,.975-1.774c.079-.292-.324-.569-.539-.314a12.3,12.3,0,0,0-1.074,1.5l.588.249.655-2.442a.324.324,0,0,0-.588-.249l-1.289,1.866c-.241.346.311.644.556.324l1.753-2.32c.249-.331-.309-.644-.556-.326Z" transform="translate(-334.342 -300.27)" fill="#00a5a5"/>
    <path id="Pfad_869" data-name="Pfad 869" d="M525.993,320.329c2.577-1.576,4.626-3.928,6.9-5.9,2.47-2.133,5.062-4.119,7.732-6,5.185-3.651,10.629-6.918,16.069-10.176a.322.322,0,0,0-.324-.556c-5.44,3.258-10.887,6.518-16.071,10.176-2.446,1.718-4.835,3.539-7.124,5.472-2.491,2.1-4.71,4.725-7.517,6.424-.354.215-.03.773.324.556Z" transform="translate(-439.664 -248.981)" fill="#00a5a5"/>
    <path id="Pfad_870" data-name="Pfad 870" d="M677.925,253.843c-2.792.283-5.8.994-7.517,3.436a7.806,7.806,0,0,0-.058,7.921c1.583,2.451,4.817,2.539,7.33,1.746s5.114-2.182,5.09-5.185a12.531,12.531,0,0,0-1.237-4.749c-.554-1.261-1.536-2.363-3.022-2.223-.41.039-.414.683,0,.644,1.991-.185,2.631,2.18,3.1,3.673.43,1.394.827,3.043.152,4.429s-2.3,2.092-3.69,2.6a7.717,7.717,0,0,1-4.725.43c-3.11-.87-3.969-4.811-3.073-7.607,1.031-3.222,4.682-4.169,7.657-4.469.408-.041.412-.685,0-.644Z" transform="translate(-552.575 -214.572)" fill="#00a5a5"/>
    <path id="Pfad_871" data-name="Pfad 871" d="M697.925,369.843c-2.792.284-5.8.994-7.517,3.436a7.806,7.806,0,0,0-.058,7.921c1.583,2.451,4.817,2.539,7.33,1.746s5.114-2.182,5.09-5.185a12.531,12.531,0,0,0-1.237-4.749c-.554-1.261-1.536-2.363-3.022-2.223-.41.039-.415.683,0,.644,1.991-.185,2.631,2.18,3.1,3.673.43,1.394.827,3.043.153,4.429s-2.3,2.092-3.69,2.6a7.718,7.718,0,0,1-4.725.43c-3.11-.87-3.969-4.811-3.073-7.607,1.031-3.222,4.682-4.169,7.657-4.469.408-.041.412-.685,0-.644Z" transform="translate(-568.279 -305.658)" fill="#00a5a5"/>
    <path id="Pfad_872" data-name="Pfad 872" d="M689.565,242.9l2.034,2.32a.324.324,0,0,0,.537-.144,12.432,12.432,0,0,0,.449-3.488,11.483,11.483,0,0,1,.913-3.559,12.012,12.012,0,0,1,4.807-5.509c.354-.215.03-.773-.324-.556a12.613,12.613,0,0,0-4.86,5.339,12.343,12.343,0,0,0-1.074,3.408c-.215,1.394-.019,2.854-.535,4.192l.539-.144-2.023-2.315c-.275-.311-.728.146-.455.455Z" transform="translate(-568.427 -197.352)" fill="#00a5a5"/>
    <path id="Pfad_873" data-name="Pfad 873" d="M531.46,411.351q16.617-.507,33.243-.215a.322.322,0,0,0,0-.644q-16.621-.3-33.243.215C531.046,410.72,531.044,411.364,531.46,411.351Z" transform="translate(-444.095 -337.493)" fill="#00a5a5"/>
    <path id="Pfad_874" data-name="Pfad 874" d="M697.409,382.953a66.566,66.566,0,0,1,10.883,5.468c.352.215.677-.337.324-.556a67.272,67.272,0,0,0-11.026-5.533c-.384-.152-.552.47-.17.621Z" transform="translate(-574.485 -315.448)" fill="#00a5a5"/>
    <path id="Pfad_875" data-name="Pfad 875" d="M707.085,371.331a26.31,26.31,0,0,0-6.317,16.007c-.017.415.627.415.644,0a25.588,25.588,0,0,1,6.128-15.552C707.809,371.473,707.356,371.015,707.085,371.331Z" transform="translate(-577.285 -306.744)" fill="#00a5a5"/>
    <path id="Pfad_876" data-name="Pfad 876" d="M329.062,400.22l24.005-.314,2.76-.036c.5,0,.992-.017,1.488-.019a1.184,1.184,0,0,1,1.155,1.289c-.032,1.5-.977,1.45-2.214,1.5l-2.983.135-12.148.535c-2.176.1-4.353.215-6.529.29-1.963.06-5.7-.58-4.824-3.436.12-.4-.5-.567-.623-.172a3.166,3.166,0,0,0,1.555,3.567c1.738,1.044,4.027.689,5.945.6l14.914-.677,3.621-.161a8.121,8.121,0,0,0,3.071-.286c1-.5,1.177-2.509.546-3.353a1.493,1.493,0,0,0-1.289-.488c-1.336-.052-2.7.036-4.033.054l-7.435.1-16.991.215a.322.322,0,0,0,0,.644Z" transform="translate(-285.16 -328.7)" fill="#00a5a5"/>
    <g id="Michel" transform="translate(137.872 48.243)">
      <path id="Pfad_877" data-name="Pfad 877" d="M770.779,754.867c-.541.339-1.16.53-1.718.829a2.352,2.352,0,0,0-1.261,1.366.859.859,0,0,0,.028.584,1.134,1.134,0,0,0,.6.477,9.126,9.126,0,0,0,7.219.082,9.513,9.513,0,0,1,1.246-.494,8.089,8.089,0,0,1,1.6-.163,12.273,12.273,0,0,0,1.677-.215,1.475,1.475,0,0,0,.76-.316,1.411,1.411,0,0,0,.342-.82,6.754,6.754,0,0,0-1.074-4.785,1.618,1.618,0,0,0-.468-.5,1.807,1.807,0,0,0-.745-.2c-1.074-.131-2.2-.371-3.284-.4a2.206,2.206,0,0,0-1.718.887C772.843,752.341,772.179,753.993,770.779,754.867Z" transform="translate(-767.762 -652.661)" fill="#323444"/>
      <path id="Pfad_878" data-name="Pfad 878" d="M855.037,754.333a4.91,4.91,0,0,0,.765,3.007,3.973,3.973,0,0,0,1.044.913,4.7,4.7,0,0,0,4.557.447,1.352,1.352,0,0,0,.567-.477,1.624,1.624,0,0,0-.019-1.252l-2.057-7.13a14.319,14.319,0,0,0-4.465,1.022C854.571,751.35,855.037,753.392,855.037,754.333Z" transform="translate(-836.194 -652.286)" fill="#323444"/>
      <path id="Pfad_879" data-name="Pfad 879" d="M772.344,559.244c-.125.393-.576.576-.823.906a1.721,1.721,0,0,0-.155,1.4,3.7,3.7,0,0,0,.943,1.858,2.227,2.227,0,0,0,1.933.657,1.611,1.611,0,0,0,1.312-1.445,2.734,2.734,0,0,0-.2-.93l-1.465-4.235a.16.16,0,0,0-.264-.116c-.346.163-1.04.335-1.241.694S772.49,558.855,772.344,559.244Z" transform="translate(-770.534 -501.103)" fill="#fbb3b2"/>
      <path id="Pfad_880" data-name="Pfad 880" d="M773,552.515a6.946,6.946,0,0,0,1.5-.6,1.552,1.552,0,0,1,1.549.058c.12.1.236.234.393.232a15.363,15.363,0,0,0-.962-3.058.238.238,0,0,0-.084-.118.243.243,0,0,0-.183,0l-1.445.378c-.535.14-.6.1-.556.623C773.225,550.26,773.346,552.515,773,552.515Z" transform="translate(-771.875 -494.587)" fill="#323444"/>
      <path id="Pfad_881" data-name="Pfad 881" d="M769.1,422.629a2.036,2.036,0,0,0-.215,1.132,38.47,38.47,0,0,0,.3,5.694c.067.451.15.9.193,1.357a15.672,15.672,0,0,1,.03,1.905l-.215,8.269a4.781,4.781,0,0,1-.7,2.893,1.383,1.383,0,0,0-.251.917c.163,2.075.507,4.132.848,6.183a3.821,3.821,0,0,1,3.466.165,38.156,38.156,0,0,0,1.78-10.524,41.781,41.781,0,0,1,.245-5.266,33.5,33.5,0,0,0-.065-8.868,4.9,4.9,0,0,0-.926-2.614,3.962,3.962,0,0,0-2.148-1.237A9.392,9.392,0,0,0,769.1,422.629Z" transform="translate(-768.135 -395.285)" fill="#5b5583"/>
      <path id="Pfad_882" data-name="Pfad 882" d="M769.1,422.629a2.036,2.036,0,0,0-.215,1.132,38.47,38.47,0,0,0,.3,5.694c.067.451.15.9.193,1.357a15.672,15.672,0,0,1,.03,1.905l-.215,8.269a4.781,4.781,0,0,1-.7,2.893,1.383,1.383,0,0,0-.251.917c.163,2.075.507,4.132.848,6.183a3.821,3.821,0,0,1,3.466.165,38.156,38.156,0,0,0,1.78-10.524,41.781,41.781,0,0,1,.245-5.266,33.5,33.5,0,0,0-.065-8.868,4.9,4.9,0,0,0-.926-2.614,3.962,3.962,0,0,0-2.148-1.237A9.392,9.392,0,0,0,769.1,422.629Z" transform="translate(-768.135 -395.285)" opacity="0.1"/>
      <path id="Pfad_883" data-name="Pfad 883" d="M781.913,524.014a37.932,37.932,0,0,0,2.259,21.958,5.952,5.952,0,0,1,.524,1.624,8.461,8.461,0,0,1-.644,3.082,16.347,16.347,0,0,0,.14,7.15q.258,1.482.53,2.962a4.527,4.527,0,0,1-.1,2.88c.384,1.6.612,3.189,1,4.792a.912.912,0,0,1,.036.393,1.158,1.158,0,0,1-.393.526,2.35,2.35,0,0,0-.6,2.249,3.671,3.671,0,0,1,3.471,0,9.407,9.407,0,0,0,3.436,1.074,8.7,8.7,0,0,1,.178-4.248,6.436,6.436,0,0,0,.827-2.33A17.444,17.444,0,0,0,792,563.99a5.406,5.406,0,0,1,.052-1.366,34.141,34.141,0,0,0-.365-7.908,4.725,4.725,0,0,0-.361-1.5,2.22,2.22,0,0,1-.376-.951c0-.4.324-.728.445-1.11.215-.7-.18-1.662.415-2.1,1.568-1.151.966-3.9.932-5.844q-.041-2.515-.215-5.026a21.407,21.407,0,0,1,1.185,8.664,6.2,6.2,0,0,0,.18,2.863,11.956,11.956,0,0,1,1.014,1.969,8.241,8.241,0,0,1,.049,1.364,1.405,1.405,0,0,0,.569,1.181c.03,2.07.215,4.285.247,6.355a15.68,15.68,0,0,0,.258,3.157,4.021,4.021,0,0,1,.159,1.018,4.252,4.252,0,0,1-.339,1.252,7.18,7.18,0,0,0,1.074,6.626,3.2,3.2,0,0,1,2.594-1.452,9.415,9.415,0,0,1,3.048.447,5.969,5.969,0,0,1,.713-3.63,2.968,2.968,0,0,0,.376-.807,3.578,3.578,0,0,0-.3-1.628,8.183,8.183,0,0,1-.1-2.682,42.447,42.447,0,0,0-.4-9,7.619,7.619,0,0,0-.41-1.718c-.077-.2-.172-.387-.236-.586a4.622,4.622,0,0,1-.172-1.1l-.247-3.436c-.174-2.408.616-4.785,1.168-7.135.247-1.052.515-2.1.681-3.172.225-1.456.262-2.944.593-4.381a28.258,28.258,0,0,0,.943-3.866c.172-2.047-.679-4.025-1.5-5.9-.344-.773-1.643-.7-2.478-.833-5.926-.973-12.167-.979-17.755,1.213A4.417,4.417,0,0,0,781.913,524.014Z" transform="translate(-778.322 -472.69)" fill="#3c354c"/>
      <path id="Pfad_884" data-name="Pfad 884" d="M801.174,350.622l.657,2.556a6.835,6.835,0,0,1,.294,1.806,1.333,1.333,0,0,1-.144.644,1.537,1.537,0,0,1-.408.417c-.449.341-.76,1.138-1.274,1.375.264.46.629.161,1.106.391a12.01,12.01,0,0,0,2.519,1.2,5.62,5.62,0,0,0,2.614-.215,9.027,9.027,0,0,0,3.385-1.574,3.249,3.249,0,0,0,1.523-2.745c-1.074.127-2.03-.958-2.5-1.933a5.254,5.254,0,0,1-.361-1.158l-.576-2.532a12.417,12.417,0,0,0-1.737.82,6.309,6.309,0,0,1-1.974.286,21.264,21.264,0,0,0-3.514.455c-.159.032-.359.133-.32.288" transform="translate(-793.312 -337.418)" fill="#fbb3b2"/>
      <path id="Pfad_885" data-name="Pfad 885" d="M801.174,350.622l.657,2.556a6.835,6.835,0,0,1,.294,1.806,1.333,1.333,0,0,1-.144.644,1.537,1.537,0,0,1-.408.417c-.449.341-.76,1.138-1.274,1.375.264.46.629.161,1.106.391a12.01,12.01,0,0,0,2.519,1.2,5.62,5.62,0,0,0,2.614-.215,9.027,9.027,0,0,0,3.385-1.574,3.249,3.249,0,0,0,1.523-2.745c-1.074.127-2.03-.958-2.5-1.933a5.254,5.254,0,0,1-.361-1.158l-.576-2.532a12.417,12.417,0,0,0-1.737.82,6.309,6.309,0,0,1-1.974.286,21.264,21.264,0,0,0-3.514.455c-.159.032-.359.133-.32.288" transform="translate(-793.312 -337.418)" opacity="0.1"/>
      <circle id="Ellipse_189" data-name="Ellipse 189" cx="5.687" cy="5.687" r="5.687" transform="translate(4.997 3.239)" fill="#fbb3b2"/>
      <path id="Pfad_886" data-name="Pfad 886" d="M800.654,366.068a5.156,5.156,0,0,1,1.289-1.718c.8-.7,1.9-1.271,2.085-2.32l1.735,2.021a.935.935,0,0,1,.215.331.833.833,0,0,1-.163.668,6.954,6.954,0,0,1-1.746,1.671,53.032,53.032,0,0,0-4.207,3.711.43.43,0,0,1-.226.137.407.407,0,0,1-.234-.067,9.77,9.77,0,0,1-3-2.44c-.062-.075-.14-.161-.24-.155a.309.309,0,0,0-.161.084,2.913,2.913,0,0,1-1.95.964,4.62,4.62,0,0,0,1.705-3.007,5.677,5.677,0,0,1,.245-1.175,1.226,1.226,0,0,1,.838-.795,1.884,1.884,0,0,0,.481,2.307,4.742,4.742,0,0,0,2.131,1.033C800.18,367.457,800.394,366.63,800.654,366.068Z" transform="translate(-788.404 -347.767)" fill="#323444"/>
      <path id="Pfad_887" data-name="Pfad 887" d="M780.575,522.147c.81.2,1.576.539,2.363.79a11.292,11.292,0,0,0,4.435.466,2.4,2.4,0,0,0,1.289-.41c.1-.082.193-.178.3-.253a2.1,2.1,0,0,1,.578-.238,16.357,16.357,0,0,0,5.219-3.247c.052-.043.11-.1.105-.165a.214.214,0,0,0-.064-.122l-.842-.966a34.814,34.814,0,0,1-6.71.178,9.755,9.755,0,0,0-1.379.036c-.443.052-.878.163-1.315.258-1.656.361-3.348.5-5.026.734a.775.775,0,0,0-.333.1.75.75,0,0,0-.178.2l-.588.827a2.6,2.6,0,0,0-.494.947c-.138.644.15.859.7.775A5.1,5.1,0,0,1,780.575,522.147Z" transform="translate(-775.724 -470.239)" fill="#323444"/>
      <path id="Pfad_888" data-name="Pfad 888" d="M781.588,376.905a10.459,10.459,0,0,0-2.214-1.729,3.137,3.137,0,0,0-1.074-.43,1.34,1.34,0,0,0-1.1.271c-.191.17-.311.406-.5.584a2.468,2.468,0,0,1-.786.445,13.943,13.943,0,0,0-2.762,1.574,6.336,6.336,0,0,0-1.252,1.155,7.067,7.067,0,0,0-1.093,4.521c.019,1.1,1.074,1.916,1.8,2.738a20.192,20.192,0,0,1,1.843,2.577,3.509,3.509,0,0,1,.75,2.025,11.484,11.484,0,0,0-.337,1.772c.019.215.088.412.107.621a6.99,6.99,0,0,1-.174,1.289,16.388,16.388,0,0,0,.15,1.823,5.8,5.8,0,0,1-.159,1.244,23.229,23.229,0,0,0-.825,5.941l-1.19.215a1.005,1.005,0,0,1-.23,1.6c1.858.621,3.866.307,5.835.3,1.63,0,3.254.215,4.882.185a8.438,8.438,0,0,0,4.65-1.246c.365-.249.7-.541,1.085-.758a5.35,5.35,0,0,1,1.643-.537,16.3,16.3,0,0,1,3.222-.288,2.481,2.481,0,0,0,1.525-.3,2.18,2.18,0,0,0,.644-1.568c.062-.61.1-1.222.112-1.834a7.91,7.91,0,0,0-.075-1.426,9.328,9.328,0,0,0-.251-1.022l-.81-2.852c-.335-1.177.131-2.468.23-3.688a.925.925,0,0,0-.193-.807c-.079-.067-.189-.112-.215-.215a.367.367,0,0,1,.052-.288,15.9,15.9,0,0,1,1.662-2.393,48.838,48.838,0,0,0,2.749-4.225,13.593,13.593,0,0,0-3.638-8.136,3.937,3.937,0,0,0-1.523-1.123,4.508,4.508,0,0,0-1.211-.2,11.156,11.156,0,0,1-4.9-1.061.934.934,0,0,0-.35-.148c-.324-.036-.561.284-.771.537a9.244,9.244,0,0,1-2.038,1.488A14.454,14.454,0,0,0,781.588,376.905Z" transform="translate(-770.153 -355.224)" fill="#5b5583"/>
      <path id="Pfad_889" data-name="Pfad 889" d="M873.486,416.328a16.126,16.126,0,0,1,.412,3.3,12.845,12.845,0,0,0,.35,1.978,3.154,3.154,0,0,0,.408,1.007,4.428,4.428,0,0,1,.593.833,2.015,2.015,0,0,1,.088.67l.026,1.482a5.329,5.329,0,0,1-.35,2.307l-.926,2.816a17.255,17.255,0,0,1-1.916,4.4,1.269,1.269,0,0,1-.552.518,2.681,2.681,0,0,1-.556.086,1.43,1.43,0,0,0-1.179,1.39,3.263,3.263,0,0,0-.792-.81l-1.884-1.5a8.051,8.051,0,0,0-2.1-1.36,5.689,5.689,0,0,0,3.956-4.781,2.146,2.146,0,0,1,.215-.941c.157-.253.447-.447.468-.745.026-.376-.4-.659-.4-1.035,0-.249.185-.455.266-.689a1.732,1.732,0,0,0,0-.883l-.26-1.443a1.1,1.1,0,0,0-.129-.412,2.661,2.661,0,0,0-.322-.339c-.447-.5-.249-1.289,0-1.905a18.21,18.21,0,0,1,2.2-3.851,13.145,13.145,0,0,0,.874-1.25c.228-.4.279-.943.52-1.289C872.8,414.692,873.222,415.493,873.486,416.328Z" transform="translate(-844.202 -388.481)" fill="#5b5583"/>
      <path id="Pfad_890" data-name="Pfad 890" d="M860.348,504.66a1.036,1.036,0,0,0-.245.258,2.171,2.171,0,0,1-.973.694c.215.155.41.307.612.464a26.824,26.824,0,0,1,4.081,3.9c.135-.483.945-.449,1.143-.911a.89.89,0,0,0,.043-.412,12.585,12.585,0,0,0-.309-2.148,2.431,2.431,0,0,0-.43-1.005,2.577,2.577,0,0,0-1.216-.687A3.888,3.888,0,0,0,860.348,504.66Z" transform="translate(-839.506 -459.61)" fill="#323444"/>
      <path id="Pfad_891" data-name="Pfad 891" d="M839.6,510.729a11.309,11.309,0,0,1-1.933,1.4,7.28,7.28,0,0,0-1.54.679,1.53,1.53,0,0,0,1.46.79,3.47,3.47,0,0,0,1.634-.6c.384-.236.835-.511,1.254-.346.064.326-.215.633-.215.964a.972.972,0,0,0,.545.745c1.289.831,2.947.762,4.482.666a.4.4,0,0,0,.247-.073.389.389,0,0,0,.092-.284c.019-.339.028-.677.03-1.016a1.456,1.456,0,0,0-.623-1.435,17.531,17.531,0,0,0-2.685-1.9A2.4,2.4,0,0,0,839.6,510.729Z" transform="translate(-821.446 -463.99)" fill="#fbb3b2"/>
      <path id="Pfad_892" data-name="Pfad 892" d="M821.108,326.056a1.491,1.491,0,1,0,1.9,1.254A1.62,1.62,0,0,0,821.108,326.056Zm.324,2.7a1.263,1.263,0,1,1,1.312-1.411A1.375,1.375,0,0,1,821.432,328.754Z" transform="translate(-808.426 -319.508)" fill="#3c354c"/>
      <path id="Pfad_893" data-name="Pfad 893" d="M799.468,328.656a1.491,1.491,0,1,0,1.9,1.252A1.62,1.62,0,0,0,799.468,328.656Zm.324,2.7a1.262,1.262,0,1,1,1.312-1.411A1.372,1.372,0,0,1,799.792,331.351Z" transform="translate(-791.434 -321.549)" fill="#3c354c"/>
      <path id="Pfad_894" data-name="Pfad 894" d="M662.966,259.64l2.073.442-.2.546-1.954-.573Z" transform="translate(-658.383 -252.119)" fill="#3c354c"/>
      <path id="Pfad_895" data-name="Pfad 895" d="M710.081,253.18l-1.911.921.329.481,1.763-1.02Z" transform="translate(-693.946 -247.046)" fill="#3c354c"/>
      <path id="Pfad_896" data-name="Pfad 896" d="M687.31,260.424l1.454-.174-.075.361-1.248.084Z" transform="translate(-677.566 -252.598)" fill="#3c354c"/>
      <path id="Pfad_897" data-name="Pfad 897" d="M787.091,302.96a2.31,2.31,0,0,0,.215-.939,2.005,2.005,0,0,1,.1-.571,1.6,1.6,0,0,1,.468-.6,4.332,4.332,0,0,1,2.577-.9,5.959,5.959,0,0,1,2.981.644,2.321,2.321,0,0,1,.741.55c.3.367.365.842.668,1.2a1.755,1.755,0,0,0,1.645.515,8.563,8.563,0,0,0,.021-1.151,5.569,5.569,0,0,1,.341-.954,2.344,2.344,0,0,0-1.153-2.706,4.448,4.448,0,0,1-1.027-.644,4.861,4.861,0,0,1-.5-.881,2.346,2.346,0,0,0-2.661-.771c-.3.112-.558.281-.859.4a7.078,7.078,0,0,1-1.808.348,5.54,5.54,0,0,0-1.753.46,1.963,1.963,0,0,0-1.1,1.186c-.058.232-.045.473-.1.7-.3,1.166-2.21,1.733-2.317,2.923a1.706,1.706,0,0,0,.487,1.192c.2.238.685.876,1.027.969s.6-.232.928-.344C786.522,303.434,786.834,303.4,787.091,302.96Z" transform="translate(-780.167 -295.621)" fill="#cbceda"/>
    </g>
    <path id="Pfad_898" data-name="Pfad 898" d="M912.81,682c0,10.79,6.77,19.523,15.135,19.523" transform="translate(-743.785 -550.773)" fill="#46455b"/>
    <path id="Pfad_899" data-name="Pfad 899" d="M983.28,700.732c0-10.913,7.556-19.742,16.892-19.742" transform="translate(-799.12 -549.98)" fill="#00a5a5"/>
    <path id="Pfad_900" data-name="Pfad 900" d="M938.35,686.56c0,10.251,4.317,18.546,9.65,18.546" transform="translate(-763.84 -554.354)" fill="#00a5a5"/>
    <path id="Pfad_901" data-name="Pfad 901" d="M983.28,680.677c0-13.943,8.733-25.227,19.523-25.227" transform="translate(-799.12 -529.926)" fill="#46455b"/>
    <ellipse id="Ellipse_190" data-name="Ellipse 190" cx="3.763" cy="0.636" rx="3.763" ry="0.636" transform="translate(179.742 153.209)" fill="#00a5a5" opacity="0.1"/>
    <path id="Pfad_902" data-name="Pfad 902" d="M968.46,769.31a7.872,7.872,0,0,0,2.792-.526c.644-.46,3.3-1.012,3.462-.273s3.222,3.675.8,3.694-5.632-.378-6.276-.771S968.46,769.31,968.46,769.31Z" transform="translate(-787.483 -618.421)" fill="#a8a8a8"/>
    <path id="Pfad_903" data-name="Pfad 903" d="M975.56,776.18c-2.423.019-5.629-.378-6.276-.771-.492-.3-.687-1.375-.754-1.869h-.071s.135,1.731.782,2.124,3.853.79,6.276.771c.7,0,.941-.256.928-.623C976.349,776.036,976.093,776.175,975.56,776.18Z" transform="translate(-787.483 -622.653)" opacity="0.2"/>
    <path id="Pfad_904" data-name="Pfad 904" d="M148.31,711.36c0,8.591,5.384,15.532,12.04,15.532" transform="translate(-143.48 -573.828)" fill="#46455b"/>
    <path id="Pfad_905" data-name="Pfad 905" d="M204.37,726.256c0-8.681,6.014-15.706,13.438-15.706" transform="translate(-187.5 -573.192)" fill="#00a5a5"/>
    <path id="Pfad_906" data-name="Pfad 906" d="M168.62,715c0,8.161,3.436,14.755,7.678,14.755" transform="translate(-159.428 -576.686)" fill="#00a5a5"/>
    <path id="Pfad_907" data-name="Pfad 907" d="M204.37,710.3c0-11.093,6.948-20.071,15.532-20.071" transform="translate(-187.5 -557.236)" fill="#46455b"/>
    <ellipse id="Ellipse_191" data-name="Ellipse 191" cx="2.994" cy="0.507" rx="2.994" ry="0.507" transform="translate(13.355 155.019)" fill="#00a5a5" opacity="0.1"/>
    <path id="Pfad_908" data-name="Pfad 908" d="M192.58,780.769a6.105,6.105,0,0,0,2.221-.43c.513-.376,2.629-.805,2.756-.215s2.567,2.923.644,2.938a16.425,16.425,0,0,1-4.993-.612C192.694,782.139,192.58,780.769,192.58,780.769Z" transform="translate(-178.242 -627.595)" fill="#a8a8a8"/>
    <path id="Pfad_909" data-name="Pfad 909" d="M198.229,786.32a16.292,16.292,0,0,1-4.993-.614c-.391-.236-.546-1.093-.6-1.486h-.056s.107,1.377.621,1.69a16.337,16.337,0,0,0,4.993.612c.556,0,.75-.2.739-.5C198.856,786.2,198.643,786.308,198.229,786.32Z" transform="translate(-178.242 -631.039)" opacity="0.2"/>
  </g>
</svg>
