<svg xmlns="http://www.w3.org/2000/svg" width="197.483" height="161.328" viewBox="0 0 197.483 161.328">
  <g id="Gruppe_180" data-name="Gruppe 180" transform="translate(-0.001 -0.022)">
    <path id="Pfad_910" data-name="Pfad 910" d="M301.231,142.038v.366q-.032,3.171-.376,6.325a.228.228,0,0,1,0,.038c-.018.175-.038.348-.058.522-.034.3-.07.589-.111.884a63.587,63.587,0,0,1-2.317,10.607h0a57.2,57.2,0,0,1-6.048,13.317q-1.189,1.909-2.534,3.695h0c-.478.631-.966,1.248-1.471,1.854q-.53.637-1.081,1.254l-.229.253a59.616,59.616,0,0,1-6.229,5.919,97.752,97.752,0,0,1-11.466,8.025c-.225.139-.452.275-.679.4a.332.332,0,0,1-.05.03,120.922,120.922,0,0,1-16.7,8.533,75.732,75.732,0,0,1-19.445,5.272c-9.287,1.141-18.686.213-27.916-1.382a181.412,181.412,0,0,1-22.7-5.425l-1.226-.384q-.952-.3-1.9-.619-5.74-1.9-11.352-4.219a149.219,149.219,0,0,1-26.789-14.384q-1.607-1.081-3.168-2.21-2.182-1.571-4.312-3.235l-.876-.679a90.065,90.065,0,0,1-10.412-9.562,53.089,53.089,0,0,1-10.448-16.074q-.575-1.429-1.053-2.911l-.03-.1c-.161-.5-.309-1-.446-1.527q-.3-1.121-.528-2.27c-.032-.147-.06-.293-.086-.442a38.016,38.016,0,0,1-.633-7.822,36.165,36.165,0,0,1,.8-6.831h0a30.817,30.817,0,0,1,2.276-6.745h0a24.31,24.31,0,0,1,3.482-5.371h0a20.539,20.539,0,0,1,3.281-3.066,26.8,26.8,0,0,1,7.1-3.649h0c1.177-.422,2.371-.792,3.57-1.135.85-.245,1.7-.478,2.554-.707l2.507-.677c1.607-.438,3.215-.888,4.8-1.374a54.043,54.043,0,0,0,12.457-5.292c.619-.376,1.25-.788,1.881-1.23q1.206-.838,2.379-1.82h0c.792-.663,1.567-1.372,2.307-2.124.115-.117.227-.233.34-.352.6-.635,1.187-1.3,1.73-1.991.265-.338.522-.681.768-1.031.34-.484.661-.976.958-1.483h0a15.179,15.179,0,0,0,2.3-8.268,12.725,12.725,0,0,0-.131-1.449c-.261-1.774-.512-3.506-.7-5.2-.776-7.006-.448-13.359,4.81-19.328,6.538-7.42,16.8-8.933,26.14-8.34,27.006,1.708,51.59,17.126,73.2,35.482q2.8,2.379,5.537,4.822.689.615,1.38,1.238c3.416,3.076,6.779,6.267,9.911,9.684.253.277.506.555.755.834.153.173.307.344.458.518q1.465,1.658,2.843,3.4a64.329,64.329,0,0,1,6.494,9.845,55.89,55.89,0,0,1,5.7,17.414h0a62.043,62.043,0,0,1,.689,6.665c.034.657.056,1.316.068,1.973v.631C301.233,141.435,301.233,141.732,301.231,142.038Z" transform="translate(-108.55 -48.49)" fill="#00a5a5" opacity="0.1"/>
    <path id="Pfad_911" data-name="Pfad 911" d="M381.195,445.544l-3.215,57.22,3.215.042,2.612-58.066Z" transform="translate(-302.035 -355.365)" fill="#3f3d56"/>
    <rect id="Rechteck_381" data-name="Rechteck 381" width="39.782" height="8.64" transform="translate(27.523 119.169)" fill="#00a5a5"/>
    <path id="Pfad_912" data-name="Pfad 912" d="M275.946,679.51v5.425H234.852q-2.182-1.571-4.312-3.235v-2.19Z" transform="translate(-206.029 -552.708)" fill="#3f3d56"/>
    <path id="Pfad_913" data-name="Pfad 913" d="M239.307,525.857c-.113.52-.259,1.035-.414,1.547a20.17,20.17,0,0,0-1.111,4.48c-.143,2.033.4,4.4-1,5.875-.362.382-.834.667-1.157,1.075a1.873,1.873,0,0,0-.137.2,3.114,3.114,0,0,0-.328,1.607,28.133,28.133,0,0,0,.227,3.486c.476,3.978,1.416,7.964.181,11.72a18.065,18.065,0,0,1-.782,1.911,14.935,14.935,0,0,0-1.457,4.071,25.644,25.644,0,0,0-.108,3.245q-.952-.3-1.9-.619-5.74-1.9-11.352-4.219c.01-.054.02-.11.028-.165a12.8,12.8,0,0,0-.585-5.361c-1-3.695-2.427-7.354-3.269-11.075a28.026,28.026,0,0,1-.665-4.42c-.024-.334-.038-.669-.04-1-.01-.438,0-.876.018-1.318.042-.882.08-1.929-.625-2.465a5.4,5.4,0,0,0-1.352-.518,7.665,7.665,0,0,1-2.16-1.758,2.831,2.831,0,0,0-2.53-.743c-4.517,1.035-7.836,4.866-12.039,6.8-.163.076-.325.149-.49.217a7.142,7.142,0,0,0-1.541.788,1.755,1.755,0,0,0-.691.974,3.647,3.647,0,0,0,.038,1.31,6.69,6.69,0,0,1-.09,2.136,6.524,6.524,0,0,1-.215.8c-.161.476-.376.942-.581,1.406q-1.607-1.081-3.169-2.21-2.182-1.571-4.312-3.235l-.862-.693a90.061,90.061,0,0,1-10.412-9.562,36.4,36.4,0,0,0,1.344-3.562c.169-.709.231-1.447.464-2.136a7.679,7.679,0,0,1,1.109-1.989,26.922,26.922,0,0,1,6.176-6.18c2.489-1.784,5.365-3.215,7.6-5.24a12,12,0,0,0,2.325-2.755,1.727,1.727,0,0,0,.106-.2,4.168,4.168,0,0,0,.36-1.149c.161-.9.137-1.889.217-2.753a29.363,29.363,0,0,0,8.264.249c3.2-.36,6.339-1.25,9.544-1.6.241-.028.484-.05.727-.07,1.027-.082,2.055-.1,3.086-.088.862,0,1.724.038,2.586.066l9.489.321a9.315,9.315,0,0,1,3.1.46,6.781,6.781,0,0,1,2.837,2.363c.094.129.189.257.277.39a12.256,12.256,0,0,1,1.463,2.891c.038.1.074.2.109.315.09.279.169.561.239.846.054.223.1.446.147.671a28.825,28.825,0,0,0,.7,3.325c.024.078.05.157.078.233.42,1.177,1.117,2.232,1.644,3.363a12.5,12.5,0,0,1,.864,2.558A12.639,12.639,0,0,1,239.307,525.857Z" transform="translate(-161.184 -411.401)" fill="#35323e"/>
    <path id="Pfad_914" data-name="Pfad 914" d="M251.054,258.87c-.848-.675-2.078-.181-3.07.255a19.716,19.716,0,0,1-2.564.926,1.084,1.084,0,0,1-.563.058c-.4-.1-.571-.573-.87-.862a1.936,1.936,0,0,0-2.043-.111,4.664,4.664,0,0,1-2.053.6c-.768-.06-1.435-.627-2.21-.645-1.366-.032-2.513,1.652-3.805,1.206-.788-.271-1.406-1.3-2.182-1-.6.229-.657,1.063-1.021,1.607A3.879,3.879,0,0,1,228.7,262a5.674,5.674,0,0,0-3.444,5.793,19.968,19.968,0,0,0,1.228,3.8c1.258,3.675.826,7.82,2.411,11.364.2-.189.313-.259.508-.446a4.649,4.649,0,0,0-.271,3.335c.167.557.438,1.075.643,1.619a14.51,14.51,0,0,1,.514,1.869l1.748,7.711a50.07,50.07,0,0,1,1.487,9.114,26.6,26.6,0,0,1-.458,5.987c3.167-.524,6.064-1.929,9.272-1.911a25.852,25.852,0,0,1,3.512.362,72.3,72.3,0,0,0,10.273.7,4.078,4.078,0,0,0,1.575-.221,11.82,11.82,0,0,0,1.222-.767,5.4,5.4,0,0,1,2.751-.6c4.3-.078,8.439,1.495,12.708,2.049a15.3,15.3,0,0,0,.492-11.476,17.134,17.134,0,0,1-1.053-3.325,16.83,16.83,0,0,1-.048-2.136,15.493,15.493,0,0,0-.97-5.34,5.491,5.491,0,0,1-.522-2.063A4.689,4.689,0,0,1,273,285.4a13.943,13.943,0,0,1,5.937-6.482l3.1-2.082a30.588,30.588,0,0,0-2.106-7.962,14.159,14.159,0,0,0-5.129-6.168,16.941,16.941,0,0,0-2.423-1.206,11.259,11.259,0,0,0-3.667-1,19.435,19.435,0,0,0-4.3.546C259.914,261.8,254.622,261.709,251.054,258.87Z" transform="translate(-201.775 -216.318)" fill="#00a5a5"/>
    <path id="Pfad_915" data-name="Pfad 915" d="M194.316,487.93l-1.475,1.863-2.781,3.51-3.215,4.057-.9,1.133h-1.742l-43.135.05-27.014.03h-1.206c-.161-.5-.309-1-.446-1.527q-.3-1.121-.528-2.27c-.032-.147-.06-.293-.086-.442l9.8-6.407,3.685-.02h0l11.272-.064h0l6.295-.036h1.871l4.2-.022h0l31.974-.183h0l1.635-.01h.709l1.879-.01,6.99-.04,1.342-.51.1.1Z" transform="translate(-111.138 -398.901)" fill="#3f3d56"/>
    <path id="Pfad_916" data-name="Pfad 916" d="M191.125,452.173l-.167.2-1.1,1.292-2.258,2.666-4.736,5.584-41.952-1.071-31.635-.8c-.032-.147-.06-.293-.086-.442a38.016,38.016,0,0,1-.633-7.822l3.508-1.8.8-.414,6.255-3.215,5.489-2.813,14.318,1.861,3.171.412,1.435.185,2.1.273.177.024,32.925,4.27,3.639.472,2.136.277,6.582.856Z" transform="translate(-108.55 -364.149)" fill="#504f60"/>
    <path id="Pfad_917" data-name="Pfad 917" d="M463.2,534.51l-.034.79-.2,4.458L461.88,564.27l-.229,5.3-.6,13.63-.34,7.7-1.226-.384q-.952-.3-1.9-.619l2.939-53.445.062-1.121,1.294-.4Z" transform="translate(-387.452 -436.842)" fill="#3f3d56"/>
    <path id="Pfad_918" data-name="Pfad 918" d="M116.562,534.22l-.09,2.063-.133,3.014q-.575-1.429-1.053-2.911l-.03-.1c-.161-.5-.309-1-.446-1.527Z" transform="translate(-113.551 -436.61)" fill="#3f3d56"/>
    <ellipse id="Ellipse_192" data-name="Ellipse 192" cx="9.242" cy="12.457" rx="9.242" ry="12.457" transform="translate(46.309 42.317)" fill="#a1616a"/>
    <ellipse id="Ellipse_193" data-name="Ellipse 193" cx="9.242" cy="12.457" rx="9.242" ry="12.457" transform="translate(46.309 42.317)" opacity="0.1"/>
    <circle id="Ellipse_194" data-name="Ellipse 194" cx="12.859" cy="12.859" r="12.859" transform="translate(43.999 34.381)" fill="#a1616a"/>
    <path id="Pfad_919" data-name="Pfad 919" d="M336.269,183.742a16.458,16.458,0,0,0-2.333.356,18.887,18.887,0,0,0-5.5,2.668,6.549,6.549,0,0,0-2.033,1.7c-.856,1.276-.524,2.9-1,4.316a12.434,12.434,0,0,1-1.1,2.057,24.494,24.494,0,0,0-2.174,5.915c-.113.418-.145.985.311,1.145a1.256,1.256,0,0,0,.78-.088c1.441-.476,3.271-.613,4.34.354s.978,2.68,2.25,3.416c1.457.85,3.731-.177,5.053.826.567.43.772,1.119,1.236,1.637,1.081,1.206,3.16,1.147,4.89.9.993-.141,2.21-.235,2.813.462.289.33.372.782.707,1.079a1.845,1.845,0,0,0,2.294-.287,15.425,15.425,0,0,0,1.36-1.921c.954-1.206,2.632-1.863,3.617-3.054a7.357,7.357,0,0,0,1.3-3.476l.838-4.5c.34-1.824.649-3.817-.378-5.425-.366-.579-.89-1.077-1.206-1.676-.211-.4-.329-.826-.575-1.206a5,5,0,0,0-1.031-1.041l-1.983-1.642a16.675,16.675,0,0,0-2.168-1.607C343.744,183.007,339.5,183.441,336.269,183.742Z" transform="translate(-279.157 -156.321)" fill="#464353"/>
    <path id="Pfad_920" data-name="Pfad 920" d="M126.537,340.172c-.476.506-.916,1.053-1.427,1.527a17.264,17.264,0,0,1-1.406,1.125q-1.181.884-2.311,1.83a12.942,12.942,0,0,0-2.118,2.116c-1.073,1.441-1.581,3.233-2.586,4.722-.888,1.32-2.14,2.363-3.042,3.673a5.682,5.682,0,0,0-.868,1.822,8.466,8.466,0,0,0-.179,1.927,14.31,14.31,0,0,0,.183,3.173,4.812,4.812,0,0,0,1.509,2.741,6.62,6.62,0,0,0,2.694,1.165,2.425,2.425,0,0,0,1.5.042,2.471,2.471,0,0,0,.872-.735l2.445-2.813a18.819,18.819,0,0,1,5.58-4.923c.7-.344,1.445-.6,2.15-.936a11.578,11.578,0,0,0,5.923-7.6c.2-.786.33-1.587.46-2.389l.354-2.2a.7.7,0,0,0,0-.336.724.724,0,0,0-.257-.305,42.617,42.617,0,0,1-4.77-4.5,11.01,11.01,0,0,0-1.081-1.238c-.506-.4-.468-.372-1.077,0A12.913,12.913,0,0,0,126.537,340.172Z" transform="translate(-111.779 -279.627)" fill="#a1616a"/>
    <path id="Pfad_921" data-name="Pfad 921" d="M261.75,421.638a.378.378,0,1,0-.679.33l-.2.1,5.991,12.28,1.083-.528-5.991-12.288Z" transform="translate(-230.265 -346.466)" fill="#3f3d56"/>
    <path id="Pfad_922" data-name="Pfad 922" d="M126.537,340.172c-.476.506-.916,1.053-1.427,1.527a17.264,17.264,0,0,1-1.406,1.125q-1.181.884-2.311,1.83a12.942,12.942,0,0,0-2.118,2.116c-1.073,1.441-1.581,3.233-2.586,4.722-.888,1.32-2.14,2.363-3.042,3.673a5.682,5.682,0,0,0-.868,1.822,8.466,8.466,0,0,0-.179,1.927,14.31,14.31,0,0,0,.183,3.173,4.812,4.812,0,0,0,1.509,2.741,6.62,6.62,0,0,0,2.694,1.165,2.425,2.425,0,0,0,1.5.042,2.471,2.471,0,0,0,.872-.735l2.445-2.813a18.819,18.819,0,0,1,5.58-4.923c.7-.344,1.445-.6,2.15-.936a11.578,11.578,0,0,0,5.923-7.6c.2-.786.33-1.587.46-2.389l.354-2.2a.7.7,0,0,0,0-.336.724.724,0,0,0-.257-.305,42.617,42.617,0,0,1-4.77-4.5,11.01,11.01,0,0,0-1.081-1.238c-.506-.4-.468-.372-1.077,0A12.913,12.913,0,0,0,126.537,340.172Z" transform="translate(-111.779 -279.627)" opacity="0.04"/>
    <path id="Pfad_923" data-name="Pfad 923" d="M467.4,389.619a9.381,9.381,0,0,1-.6,3.771,2.009,2.009,0,0,1-1.117,1.171,2.6,2.6,0,0,1-.983.036,35.5,35.5,0,0,0-11.752.932c1.025-2.049.436-4.507.719-6.781.078-.621.221-1.232.275-1.854.2-2.21-.745-4.356-1.179-6.538a14.625,14.625,0,0,1,0-5.722,3.818,3.818,0,0,1,.492-1.376,3.231,3.231,0,0,1,1.129-.982,9.477,9.477,0,0,1,5.375-.91c1.232.082,3.7-.034,4.728.723,1.123.83,1.479,3.617,1.782,4.9a41.474,41.474,0,0,1,.924,6A64.471,64.471,0,0,1,467.4,389.619Z" transform="translate(-383.371 -306.442)" fill="#a1616a"/>
    <path id="Pfad_924" data-name="Pfad 924" d="M59.98,436.03l7.233,4.822,32.549-1.205-21.5-3.617Z" transform="translate(-47.928 -348.405)" fill="#fff"/>
    <path id="Pfad_925" data-name="Pfad 925" d="M182.742,285.9c-1.187,1.047-2.194,2.28-3.319,3.4a45.665,45.665,0,0,1-5.043,4.129,3.753,3.753,0,0,1,2.612,2.632c.076.3.115.6.2.892a4.874,4.874,0,0,0,1.117,1.808c2.037,2.3,4.888,4,6.09,6.831a.631.631,0,0,0,.241.342.528.528,0,0,0,.311.036,4.259,4.259,0,0,0,2.612-1.842,19.259,19.259,0,0,0,3.416-6.012,10.715,10.715,0,0,0,.05-6.831,17.485,17.485,0,0,0-1.581-3.08l-1.559-2.6c-.271-.456-.617-1.382-1.149-1.607C185.591,283.506,183.48,285.166,182.742,285.9Z" transform="translate(-161.152 -236.592)" fill="#00a5a5"/>
    <path id="Pfad_926" data-name="Pfad 926" d="M457.048,342.286l1.71,4.018a12.423,12.423,0,0,0-11.231,1.557,6.309,6.309,0,0,0-2.309,2.686,1.173,1.173,0,0,1-1.163-.456,2.332,2.332,0,0,1-.43-1.23,9.689,9.689,0,0,1,1-4.5,6.481,6.481,0,0,1,1.025-1.913A5.986,5.986,0,0,1,447.4,341.2a38.928,38.928,0,0,1,6.339-2.8,1.9,1.9,0,0,1,2.411.571C456.753,340,456.578,341.189,457.048,342.286Z" transform="translate(-376.28 -279.99)" fill="#00a5a5"/>
    <path id="Pfad_927" data-name="Pfad 927" d="M130.231,413.005c.428.342.8.745,1.244,1.071a8.889,8.889,0,0,0,1.479.83l1.981.952a11.1,11.1,0,0,0,1.919.78c.848.227,1.738.249,2.59.46,1.075.265,2.057.818,3.116,1.137a3.6,3.6,0,0,0,3.183-.293c.553-.416.97-1.1,1.656-1.205a2.19,2.19,0,0,1,1.262.362l5.156,2.71a3.929,3.929,0,0,1,1.794,1.469,1.356,1.356,0,0,1-.647,1.937,7.065,7.065,0,0,1-.8.046.63.63,0,0,0-.591.456.916.916,0,0,0,.127.472,1.975,1.975,0,0,1,.03,1.68,1.2,1.2,0,0,1-1.459.6c.09.778-.755,1.322-1.509,1.529a13.646,13.646,0,0,1-5.859-.129,8.03,8.03,0,0,1-2.234-.6c-.334-.163-.643-.372-.98-.522a7,7,0,0,0-2.992-.34,69.309,69.309,0,0,1-13.932-1.65,6.738,6.738,0,0,1-2.461-.8,4.563,4.563,0,0,1-1.7-4.46,13.392,13.392,0,0,1,1.9-4.633l1.075-1.895a2.439,2.439,0,0,1,.579-.763C125.74,410.994,128.876,411.916,130.231,413.005Z" transform="translate(-118.136 -338.652)" fill="#a1616a"/>
    <path id="Pfad_928" data-name="Pfad 928" d="M130.231,413.005c.428.342.8.745,1.244,1.071a8.889,8.889,0,0,0,1.479.83l1.981.952a11.1,11.1,0,0,0,1.919.78c.848.227,1.738.249,2.59.46,1.075.265,2.057.818,3.116,1.137a3.6,3.6,0,0,0,3.183-.293c.553-.416.97-1.1,1.656-1.205a2.19,2.19,0,0,1,1.262.362l5.156,2.71a3.929,3.929,0,0,1,1.794,1.469,1.356,1.356,0,0,1-.647,1.937,7.065,7.065,0,0,1-.8.046.63.63,0,0,0-.591.456.916.916,0,0,0,.127.472,1.975,1.975,0,0,1,.03,1.68,1.2,1.2,0,0,1-1.459.6c.09.778-.755,1.322-1.509,1.529a13.646,13.646,0,0,1-5.859-.129,8.03,8.03,0,0,1-2.234-.6c-.334-.163-.643-.372-.98-.522a7,7,0,0,0-2.992-.34,69.309,69.309,0,0,1-13.932-1.65,6.738,6.738,0,0,1-2.461-.8,4.563,4.563,0,0,1-1.7-4.46,13.392,13.392,0,0,1,1.9-4.633l1.075-1.895a2.439,2.439,0,0,1,.579-.763C125.74,410.994,128.876,411.916,130.231,413.005Z" transform="translate(-118.136 -338.652)" opacity="0.04"/>
    <path id="Pfad_929" data-name="Pfad 929" d="M312.45,433a32.658,32.658,0,0,1-3.341.922,19.788,19.788,0,0,0-3.024,1.619,27.045,27.045,0,0,1-8.585,2.534,25.048,25.048,0,0,1-5.425.567,34.885,34.885,0,0,1-7.169-1.535,13.71,13.71,0,0,0-7.249-.338,8.159,8.159,0,0,0-5.324,5.109,11.768,11.768,0,0,0-.466,4.525c.494.364,1.185-.141,1.455-.693s.416-1.23.938-1.551c.906.307,1.127,1.515,1.875,2.112a3.385,3.385,0,0,0,1.682.557l3.054.434a2.5,2.5,0,0,0,2.122-.344c.259-.251.4-.6.639-.872a2.37,2.37,0,0,1,2.021-.559c2.258.225,4.376,1.69,6.618,1.342a12.547,12.547,0,0,0,2.224-.707c4.358-1.539,9.2-.6,13.735-1.485a30.654,30.654,0,0,0,5.041-1.557,10.193,10.193,0,0,0,2.562-1.27,5.393,5.393,0,0,0,2.082-4.784,5.469,5.469,0,0,0-1.931-3.544,6.834,6.834,0,0,0-1.242-1.067C313.93,432.058,313.137,432.675,312.45,433Z" transform="translate(-239.022 -355.173)" fill="#a1616a"/>
    <g id="Gruppe_178" data-name="Gruppe 178" transform="translate(43.3 30.531)" opacity="0.1">
      <path id="Pfad_930" data-name="Pfad 930" d="M348.311,221.987c-.336-.3-.418-.749-.707-1.079-.6-.7-1.82-.6-2.813-.462-1.73.243-3.818.3-4.89-.9-.464-.518-.669-1.206-1.236-1.637-1.322-1-3.6.024-5.053-.826-1.272-.741-1.189-2.461-2.25-3.416s-2.9-.83-4.34-.354a1.256,1.256,0,0,1-.78.088c-.456-.161-.424-.727-.311-1.145a24.494,24.494,0,0,1,2.174-5.915,12.433,12.433,0,0,0,1.1-2.057c.436-1.274.213-2.714.786-3.92a5.411,5.411,0,0,0-1.585,1.406c-.856,1.276-.524,2.9-1,4.316a12.432,12.432,0,0,1-1.1,2.057,24.494,24.494,0,0,0-2.174,5.915c-.113.418-.145.984.311,1.145a1.256,1.256,0,0,0,.78-.088c1.441-.476,3.271-.613,4.34.354s.978,2.68,2.25,3.416c1.457.85,3.731-.177,5.053.826.567.43.772,1.119,1.236,1.637,1.081,1.206,3.16,1.147,4.89.9.993-.141,2.21-.235,2.813.462.289.33.372.782.707,1.079a1.845,1.845,0,0,0,2.294-.287,6.09,6.09,0,0,0,.96-1.314A1.494,1.494,0,0,1,348.311,221.987Z" transform="translate(-324.055 -200.36)"/>
      <path id="Pfad_931" data-name="Pfad 931" d="M461.57,289.744a5.7,5.7,0,0,0-.36.52,10.89,10.89,0,0,0,2.166-1.766,4.25,4.25,0,0,0,.4-.579A10.551,10.551,0,0,0,461.57,289.744Z" transform="translate(-433.653 -270.327)"/>
    </g>
    <path id="Pfad_932" data-name="Pfad 932" d="M556.48,446.53l.6,57.664,2.813-.4-.6-57.262Z" transform="translate(-444.671 -356.796)" fill="#3f3d56"/>
    <path id="Pfad_933" data-name="Pfad 933" d="M640.48,498.53l.6,57.664,2.813-.4-.6-57.262Z" transform="translate(-511.794 -398.348)" fill="#3f3d56"/>
    <path id="Pfad_934" data-name="Pfad 934" d="M998.126,576.133h0l-.012-1.107v-.659l-.107-10.142-.167-15.857L997.813,547H995l.014,1.318.088,8.493.038,3.677h0l.032,2.978.052,5.148.032,3.036h0v.321l.042,3.99.036,3.518.229-.253q.553-.617,1.081-1.254Z" transform="translate(-816.894 -446.822)" fill="#3f3d56"/>
    <path id="Pfad_935" data-name="Pfad 935" d="M618.587,545.03l-1.607,2.4,1.607,10.948,13.662,3.739h22.1l13.261.8,6.317-4.324-1.093-7.426-4.822-6.142Z" transform="translate(-493.015 -435.505)" fill="#00a5a5"/>
    <path id="Pfad_936" data-name="Pfad 936" d="M721.669,605.48l-.8,6.674s-4.219,13.086,29.736,12.284,28.129-3.472,28.129-3.472l-.2-7.743s1.183,3.665-16.073,3.169-33.353-2.1-33.353-2.1S723.075,615.359,721.669,605.48Z" transform="translate(-597.704 -493.552)" fill="#3f3d56"/>
    <path id="Pfad_937" data-name="Pfad 937" d="M833.991,304.172a9.709,9.709,0,0,0-4.386,4.483,28.94,28.94,0,0,0-2.079,6.028,53.689,53.689,0,0,0-1.449,6.582,19.935,19.935,0,0,0,1.688,11.685,13.171,13.171,0,0,0,9.122,7.115,16.788,16.788,0,0,0,4.621.054,37.577,37.577,0,0,0,8.159-1.8c2.763-.934,5.638-2.373,6.867-5.023a11.235,11.235,0,0,0,.739-4.981A52.988,52.988,0,0,0,855.2,314.7a11.6,11.6,0,0,0-1.591-3.665,11.234,11.234,0,0,0-2.964-2.612C845.948,305.255,839.772,301.544,833.991,304.172Z" transform="translate(-681.737 -252.07)" fill="#fbbebe"/>
    <path id="Pfad_938" data-name="Pfad 938" d="M833.991,304.172a9.709,9.709,0,0,0-4.386,4.483,28.94,28.94,0,0,0-2.079,6.028,53.689,53.689,0,0,0-1.449,6.582,19.935,19.935,0,0,0,1.688,11.685,13.171,13.171,0,0,0,9.122,7.115,16.788,16.788,0,0,0,4.621.054,37.577,37.577,0,0,0,8.159-1.8c2.763-.934,5.638-2.373,6.867-5.023a11.235,11.235,0,0,0,.739-4.981A52.988,52.988,0,0,0,855.2,314.7a11.6,11.6,0,0,0-1.591-3.665,11.234,11.234,0,0,0-2.964-2.612C845.948,305.255,839.772,301.544,833.991,304.172Z" transform="translate(-681.737 -252.07)" opacity="0.05"/>
    <path id="Pfad_939" data-name="Pfad 939" d="M785.149,364.77a9.119,9.119,0,0,0,2.009,2.009c1.913,1.322,4.368,1.5,6.691,1.573,1.864.056,4-.05,5.172-1.5a6.023,6.023,0,0,0,.976-2.3,102.222,102.222,0,0,0,2.793-15.224l5.32.018c2.3,9.859,2.114,20.108,1.913,30.232l-.291,14.764-3.428-.364c-8.139-.862-16.291-1.724-24.474-1.873a140.006,140.006,0,0,0-14.37.474l7.464-22.194a36.736,36.736,0,0,0,2.174-8.84c.328-4.4-.906-9.041.8-13.11a1.594,1.594,0,0,1,.621-.838,1.763,1.763,0,0,1,1.063-.082c.675.09,2.739,0,3.229.432.723.627.245.721-.01,1.732a21.141,21.141,0,0,0-.882,5.367A15.85,15.85,0,0,0,785.149,364.77Z" transform="translate(-635.071 -287.379)" fill="#00a5a5"/>
    <path id="Pfad_940" data-name="Pfad 940" d="M958.019,384.161h0q1.344-1.784,2.534-3.695c-.4-.86-.844-1.7-1.2-2.578A25.907,25.907,0,0,1,958.2,373.7q-.157-.723-.311-1.447a95.039,95.039,0,0,1-2.4-15.885q-.03-.663-.038-1.326V353.39c.024-1.205.1-2.421.239-3.631.026-.237.056-.474.089-.711a1.025,1.025,0,0,1,.02-.155l13.662-.5h0l1.149-.042a4.211,4.211,0,0,0,2.276-.52c1.1-.751,1.224-2.293,1.206-3.617a53.669,53.669,0,0,0-1.133-9.956,14.831,14.831,0,0,0-2.917-6.873c-1.362-1.555-3.335-2.686-4.044-4.621a20.841,20.841,0,0,0-.671-2.2,6.84,6.84,0,0,0-1.439-1.722,23.979,23.979,0,0,1-4.6-6.373,20.134,20.134,0,0,0-2.759-4.581c-.052-.058-.1-.112-.159-.165a2.56,2.56,0,0,0-3.164-.677,4.054,4.054,0,0,0-.627.39h0a7.634,7.634,0,0,0-1.192,1.133,27.128,27.128,0,0,0-3.241,4.621,25.675,25.675,0,0,0-1.656,3.617,24.935,24.935,0,0,0-.894,3.014c-.173.758-.309,1.523-.418,2.291a55.71,55.71,0,0,0-.346,8.748c.06,2.684.179,5.375.422,8.049q.09.97.2,1.939.221,1.915.547,3.817c.086.484.175.968.273,1.451.024.129.05.257.076.384l.012.054a32.66,32.66,0,0,1,.617,3.4q.024.215.036.428a16.526,16.526,0,0,1-.016,1.971c-.046.776-.119,1.549-.155,2.325a3.77,3.77,0,0,1-.014.4c-.01.392,0,.784,0,1.175a18.629,18.629,0,0,0,.334,2.791,18.048,18.048,0,0,0,1.738,4.91c.076.145.155.287.233.428,1.019,1.82,2.3,3.49,3.247,5.353A23.108,23.108,0,0,1,954.193,375q.2.9.382,1.808c.187.964.354,1.937.524,2.909.016.1.034.2.052.289.227,1.29.466,2.574.774,3.834.179.733.38,1.457.615,2.168Z" transform="translate(-776.786 -254.85)" fill="#464353"/>
    <path id="Pfad_941" data-name="Pfad 941" d="M849.049,574.2c0,.181-.012.362-.02.545a25.781,25.781,0,0,1-.243,2.634,17.139,17.139,0,0,1-.87,3.494A11.779,11.779,0,0,1,846.879,583a9.826,9.826,0,0,1-1.29,1.662c-1.206,1.254-2.941,1.654-4.621,2.182a11.375,11.375,0,0,0-2.228.91c-.127.07-.251.147-.372.227l-2.1,1.392a6.288,6.288,0,0,0-1.774,1.521,3.255,3.255,0,0,0-.2.34,7.7,7.7,0,0,0-.619,1.856c-1.093,4.553-2.188,9.11-2.937,13.731-.05.305-.1.613-.151.92l-.018.1a.508.508,0,0,0-.032-.066,120.9,120.9,0,0,1-16.7,8.533l-1.248-10.448a12.636,12.636,0,0,1-.129-2.568c.119-1.352.669-2.634.818-3.982a6.786,6.786,0,0,0-.717-3.832,4.189,4.189,0,0,1-.589-1.421.884.884,0,0,1,.755-1.033,1.856,1.856,0,0,0,.315-1.658,4.819,4.819,0,0,0-.281-.918,3.86,3.86,0,0,1-.48-2.612.977.977,0,0,0,.1-.5.084.084,0,0,0,0-.032c-.068-.225-.336-.324-.474-.514-.261-.356,0-.84.161-1.25a4.771,4.771,0,0,0,.269-1.368c.022-.259.038-.52.066-.778a7.851,7.851,0,0,1,.187-1.033,8.151,8.151,0,0,1,3.3-4.726c.781-.526,1.651-.91,2.449-1.406a22.444,22.444,0,0,0,2.335-1.808q2.654-2.21,5.519-4.167a69.729,69.729,0,0,1,6.373-3.87q.7-.38,1.406-.739.765-.4,1.541-.762c1.656-.79,3.534-.494,5.365.032.768.219,1.525.48,2.256.717a10.455,10.455,0,0,1,2.049.92,7.557,7.557,0,0,1,3.518,4.135.213.213,0,0,1,0,.034A10.521,10.521,0,0,1,849.049,574.2Z" transform="translate(-670.501 -460.723)" fill="#f86d70"/>
    <path id="Pfad_942" data-name="Pfad 942" d="M849.049,574.2c0,.181-.012.362-.02.545a25.781,25.781,0,0,1-.243,2.634,17.139,17.139,0,0,1-.87,3.494A11.779,11.779,0,0,1,846.879,583a9.826,9.826,0,0,1-1.29,1.662c-1.206,1.254-2.941,1.654-4.621,2.182a11.375,11.375,0,0,0-2.228.91c-.127.07-.251.147-.372.227l-2.1,1.392a6.288,6.288,0,0,0-1.774,1.521,3.255,3.255,0,0,0-.2.34,7.7,7.7,0,0,0-.619,1.856c-1.093,4.553-2.188,9.11-2.937,13.731-.05.305-.1.613-.151.92l-.018.1a.508.508,0,0,0-.032-.066,120.9,120.9,0,0,1-16.7,8.533l-1.248-10.448a12.636,12.636,0,0,1-.129-2.568c.119-1.352.669-2.634.818-3.982a6.786,6.786,0,0,0-.717-3.832,4.189,4.189,0,0,1-.589-1.421.884.884,0,0,1,.755-1.033,1.856,1.856,0,0,0,.315-1.658,4.819,4.819,0,0,0-.281-.918,3.86,3.86,0,0,1-.48-2.612.977.977,0,0,0,.1-.5.084.084,0,0,0,0-.032c-.068-.225-.336-.324-.474-.514-.261-.356,0-.84.161-1.25a4.771,4.771,0,0,0,.269-1.368c.022-.259.038-.52.066-.778a7.851,7.851,0,0,1,.187-1.033,8.151,8.151,0,0,1,3.3-4.726c.781-.526,1.651-.91,2.449-1.406a22.444,22.444,0,0,0,2.335-1.808q2.654-2.21,5.519-4.167a69.729,69.729,0,0,1,6.373-3.87q.7-.38,1.406-.739.765-.4,1.541-.762c1.656-.79,3.534-.494,5.365.032.768.219,1.525.48,2.256.717a10.455,10.455,0,0,1,2.049.92,7.557,7.557,0,0,1,3.518,4.135.213.213,0,0,1,0,.034A10.521,10.521,0,0,1,849.049,574.2Z" transform="translate(-670.501 -460.723)" opacity="0.1"/>
    <path id="Pfad_943" data-name="Pfad 943" d="M898.75,446.637a.378.378,0,1,0-.679.329l-.2.1,5.991,12.28,1.083-.528-5.991-12.288Z" transform="translate(-739.279 -366.443)" fill="#3f3d56"/>
    <circle id="Ellipse_195" data-name="Ellipse 195" cx="12.859" cy="12.859" r="12.859" transform="translate(154.103 41.614)" fill="#fbbebe"/>
    <path id="Pfad_944" data-name="Pfad 944" d="M906.551,186.465a17.08,17.08,0,0,0-.454-3.032,17.806,17.806,0,0,0-4.513-8.78,17.6,17.6,0,0,0-.524-1.686.334.334,0,0,0-.014-.04,18.872,18.872,0,0,0-3.034-5.379,4.253,4.253,0,0,0-2.932-1.9,2.377,2.377,0,0,1-1-.108,1.808,1.808,0,0,1-.56-.575,5.262,5.262,0,0,0-5.1-1.907l-.125.026c-.07.014-.141.03-.2.048s-.169.048-.253.074q.139.229.271.464.358.637.663,1.3.253.555.468,1.127c-2.057.235-3.733,1.7-5.264,3.086l-3.6,3.271-.018.018-.1.1c-.026.026-.052.052-.076.08a.168.168,0,0,0-.026.028c-.03.032-.058.066-.087.1a1.526,1.526,0,0,0-.135.2.736.736,0,0,0-.052.094.2.2,0,0,0-.014.03.773.773,0,0,0-.034.084.029.029,0,0,0,0,.012.447.447,0,0,0-.014.05.6.6,0,0,0,.034.426l2.377.026h.279c.012.317.022.637.034.954a13.515,13.515,0,0,0-1.085.9,11.778,11.778,0,0,0-1.059,1.117,15.419,15.419,0,0,0-3.375,9.3v1.23c0,.2.018.4.034.6a1.5,1.5,0,0,0,.2.745.714.714,0,0,0,.056.072,1.389,1.389,0,0,0,.426.313l.173.084h0c.086.042.169.082.249.129.758.428,1.206,1.254,1.895,1.784.04.03.08.06.12.086l.09.06.056.036.076.044a1.638,1.638,0,0,0,.155.082h0l.1.048h.016c.08.036.161.07.243.1l.115.04.034.012c.032.01.066.022.1.03q.1.03.2.054l.2.044c.078.014.159.028.239.038l.118.016.121.012q.287.026.579.03h0a14.462,14.462,0,0,0,1.822-.127l5.128-.6a11.047,11.047,0,0,1,3.5-.032,23.053,23.053,0,0,1,2.813.991c.213.074.426.143.641.2.078.022.159.046.239.066l.11.028.257.062c.092.022.185.044.277.062.13.028.259.052.39.076.089.018.179.032.269.048h.018l.257.04h.062l.191.026c.092.014.185.026.279.036q.307.038.615.066c.332.032.665.056,1,.076l.334.02.333.016,1,.044h.185a5.183,5.183,0,0,0,1.25-.064c.073-.014.143-.03.213-.05s.129-.04.2-.064a3.44,3.44,0,0,0,1.686-1.666c.08-.151.155-.3.223-.456s.131-.311.187-.468c.07-.2.131-.392.183-.593.016-.054.03-.108.042-.165s.04-.167.056-.251c.05-.231.089-.464.117-.7a2.138,2.138,0,0,1,.026-.225c.018-.2.032-.388.04-.585v-.45C906.565,186.887,906.551,186.672,906.551,186.465ZM901.4,174.47c-.163-.153-.33-.3-.5-.438a2.077,2.077,0,0,1,.5.438Z" transform="translate(-722.618 -139.952)" fill="#464353"/>
    <path id="Pfad_945" data-name="Pfad 945" d="M725.324,305.891c-1.513-.187-3.014-.85-4.507-.524a6.246,6.246,0,0,0-2.485,1.378,30.22,30.22,0,0,0-6.986,7.987,4.219,4.219,0,0,0-.645,1.511,4.006,4.006,0,0,0,.277,1.865c1.374,4.061,4.314,7.452,5.652,11.525,1.406,4.284.918,8.965-.119,13.353a55.806,55.806,0,0,1-6.2,15.411,8.787,8.787,0,0,1-1.427,1.953c-.731.7-1.714,1.206-2.148,2.126a9.527,9.527,0,0,0-.4,1.29c-.4,1.206-1.374,2.238-1.469,3.51a8.01,8.01,0,0,0,.669,2.813,7.751,7.751,0,0,1-.143,4.842c-1.019,2.793-3.683,5.332-2.909,8.2,1.726-.5,3.639-1.141,4.452-2.743a4.888,4.888,0,0,1,.914-1.656c.966-.822,2.612-.078,3.639-.834a2.3,2.3,0,0,0,.458-2.656c-.346-.9-.94-1.7-1.206-2.63-.462-1.678.277-3.452.141-5.186-.064-.8-.311-1.573-.329-2.373a5.572,5.572,0,0,1,1.969-4.069,16.363,16.363,0,0,1,3.946-2.443l5.256-2.612c1.907-.944,4-2.1,4.621-4.129a8.359,8.359,0,0,0,.251-2.369c.179-12.158,3.225-24.07,6.253-35.846a44.4,44.4,0,0,1,1.648-5.409c.7-1.752,2.067-3.158,2.765-4.786C733.22,302.919,729.526,306.417,725.324,305.891Z" transform="translate(-583.042 -252.126)" fill="#464353"/>
    <path id="Pfad_946" data-name="Pfad 946" d="M791.472,574.425c.464,2.813.747,5.686.968,8.545a97.754,97.754,0,0,1-11.466,8.025c-.225.139-.452.275-.679.4l-.018.1a.5.5,0,0,0-.032-.066,3.024,3.024,0,0,0-1.511-1.491q-2.224-4.671-4.444-9.343a24.541,24.541,0,0,1-2.009-5.194.791.791,0,0,0-.024-.117c-.305-1.406-.376-2.867-.579-4.292a12.389,12.389,0,0,0-.548-2.4c-.241-.693-.573-1.366-.866-2.043a6.807,6.807,0,0,1-.679-2.584,1.69,1.69,0,0,0-.122-.844,2.192,2.192,0,0,0-.549-.53,2.091,2.091,0,0,1-.675-1.911c-1.206.062-1.885,1.358-2.369,2.457a13.4,13.4,0,0,1-1.72,3.014,5.716,5.716,0,0,1-1.9,1.585c-.066.032-.133.064-.2.092-1.678.739-3.637.478-5.455.145a10.224,10.224,0,0,1-4.511-1.642l-.137-.108a5.9,5.9,0,0,1-1-1.073,11.676,11.676,0,0,1-1.808-5.224c-.024-.173-.048-.346-.07-.518a19.323,19.323,0,0,1-.151-3.914c.024-.321.058-.643.1-.962.028-.2.058-.418.092-.627a.06.06,0,0,1,0-.018c.052-.332.108-.665.165-1a9.236,9.236,0,0,1,1-3.289,6.231,6.231,0,0,1,1.479-1.583c.217-.171.44-.333.665-.49.366-.253.741-.494,1.123-.721a19.416,19.416,0,0,1,3.014-1.467c.249-.1.5-.187.755-.273a5.93,5.93,0,0,1,3.07-.243,16.155,16.155,0,0,0,2.749.161,69.253,69.253,0,0,0,7.076-.788c3.267-.4,6.777-.45,9.626,1.206.137.078.269.161.4.247a11.9,11.9,0,0,1,3.454,3.651c.2.3.376.615.549.93a23.689,23.689,0,0,1,1.079,2.23,2.771,2.771,0,0,1,.3,1.206,1.568,1.568,0,0,1-.032.237c-.054.285-.163.563-.2.852-.127,1.095.8,2.009,1.151,3.052a14.952,14.952,0,0,1,.327,2.122,11.035,11.035,0,0,0,1.117,2.813,35.2,35.2,0,0,1,1.788,4.495c.35,1.071.649,2.158.912,3.255q.129.529.243,1.059C791.135,572.514,791.313,573.467,791.472,574.425Z" transform="translate(-620.215 -444.388)" fill="#f86d70"/>
    <path id="Pfad_947" data-name="Pfad 947" d="M635.352,455.081v1.406l-.259,0-.289,0-3.231-.04-7.96-.1-2.234-.028-.579-.008-3.353-.042-4.726-.062-10.026-.131-17.4-.225-6.279-.08-2.52-.032-2.319-.03-1.445-.02-1.368-.018-10.144-.131-2.813-.036-.613-.008-.4-1.027L554.508,447l-.528-1.362.4-1.607,1.808,1.206,1.113.139,18.326,2.278,3.44.428,7.293.908,7.145.888,2.8.348,16.574,2.061,4.631.577,3.834.476,13.63,1.7Z" transform="translate(-442.673 -354.798)" fill="#3f3d56"/>
    <path id="Pfad_948" data-name="Pfad 948" d="M555.98,444.03l3.617,9.443,77.354,1.607V444.834Z" transform="translate(-444.272 -354.798)" fill="#504f60"/>
    <path id="Pfad_949" data-name="Pfad 949" d="M575.98,496.03l.6,57.664,2.813-.4-.6-57.262Z" transform="translate(-460.253 -396.35)" fill="#3f3d56"/>
    <path id="Pfad_950" data-name="Pfad 950" d="M1052.088,550.918h-.289a63.6,63.6,0,0,1-2.317,10.607l-.914-10.649-.038-.454,3.379-.39.113-.012Z" transform="translate(-859.668 -449.235)" fill="#3f3d56"/>
    <path id="Pfad_951" data-name="Pfad 951" d="M749.557,456.848l-29.435.6-9.142-3.014,24.512-1.406Z" transform="translate(-568.129 -361.99)" fill="#fff"/>
    <path id="Pfad_952" data-name="Pfad 952" d="M821.216,457.327a1.973,1.973,0,0,0-.8.573,2.121,2.121,0,0,0-.3.912l-.494,2.947a1.3,1.3,0,0,0,.038.818c.129.247.5.376.689.171a2.647,2.647,0,0,0,.362,1.662,1.159,1.159,0,0,0,1.513.39.98.98,0,0,0,1.477.229c-.285.1-.305.532-.1.753a1.312,1.312,0,0,0,.82.328,20.05,20.05,0,0,0,10.428-1.312c.311-.129-.508-3.968-.591-4.362-.2-.926-.3-2.057-1.083-2.68-1.869-1.491-5.188-1.784-7.464-1.607A12.86,12.86,0,0,0,821.216,457.327Z" transform="translate(-676.711 -374.187)" fill="#fbbebe"/>
    <path id="Pfad_953" data-name="Pfad 953" d="M890.3,452.931c-7.267.139-14.685.257-21.621-1.919a14.667,14.667,0,0,1-.133,7.81l33.98,2.813c1.441.118,7.414.794,8.818.454s-11.784-4.683-11.251-6.028c1.465-3.7,6.371-5.873,2.837-6.012C898.473,449.873,894.8,452.847,890.3,452.931Z" transform="translate(-715.85 -369.345)" opacity="0.1"/>
    <path id="Pfad_954" data-name="Pfad 954" d="M891.3,454.931c-7.267.139-14.685.257-21.621-1.919a14.667,14.667,0,0,1-.133,7.81l33.98,2.813c1.441.119,7.414.8,8.818.454s1.075-2.072,1.607-3.416c1.465-3.7-6.488-8.485-10.022-8.623C899.473,451.873,895.8,454.847,891.3,454.931Z" transform="translate(-716.649 -370.943)" fill="#464353"/>
    <path id="Pfad_955" data-name="Pfad 955" d="M865.844,464.327a1.967,1.967,0,0,1,.8.573,2.152,2.152,0,0,1,.3.912l.494,2.948a1.319,1.319,0,0,1-.038.818c-.129.247-.5.376-.689.171a2.659,2.659,0,0,1-.362,1.662,1.161,1.161,0,0,1-1.515.39.98.98,0,0,1-1.477.229c.285.1.307.532.1.753a1.319,1.319,0,0,1-.822.328A20.043,20.043,0,0,1,852.22,471.8c-.311-.129.506-3.968.591-4.362.2-.926.3-2.057,1.083-2.68,1.867-1.491,5.188-1.784,7.464-1.607A12.859,12.859,0,0,1,865.844,464.327Z" transform="translate(-702.745 -379.781)" fill="#fbbebe"/>
    <path id="Pfad_956" data-name="Pfad 956" d="M671.65,373.612a12.865,12.865,0,0,0-1.766,2.741,13.323,13.323,0,0,0-.565,6.156,3.591,3.591,0,0,0,.4,1.718,2.9,2.9,0,0,0,1.049.894,14.846,14.846,0,0,0,5.766,1.5q4.569.506,9.17.617c7.6.185,15.314-.436,22.716,1.286a5.69,5.69,0,0,1-.4-4.822,16.419,16.419,0,0,1,2.465-4.33c-3.387-1.073-7.02.6-10.568.436-3.643-.171-7.014-2.276-10.661-2.274a9.7,9.7,0,0,1-2.343-.09,1.951,1.951,0,0,1-1.569-1.545,2.247,2.247,0,0,0,2.3-1.525c.4-.912.474-1.943.864-2.861.971-2.284,3.593-3.343,5.224-5.224a1.28,1.28,0,0,0,.09-1.941c-1.356-1.808-3.4-2.813-5.1-4.219-.591-.49-1.782-2.339-2.445-2.509-1.23-.315-2.272,1.461-3.072,2.327Q677.15,366.529,671.65,373.612Z" transform="translate(-556.57 -295.465)" fill="#464353"/>
    <path id="Pfad_957" data-name="Pfad 957" d="M882.39,434.81a6.649,6.649,0,0,1,1.344,1.332,2.294,2.294,0,0,1,.42,1.8,2.684,2.684,0,0,1,1.674-2.779Z" transform="translate(-726.909 -357.173)" opacity="0.07"/>
    <g id="Gruppe_179" data-name="Gruppe 179" transform="translate(154.373 23.109)" opacity="0.1">
      <path id="Pfad_958" data-name="Pfad 958" d="M932.272,165.258a17.479,17.479,0,0,0-.816-1.838,4.928,4.928,0,0,0-.587.151,17.02,17.02,0,0,1,.93,1.774A3.365,3.365,0,0,1,932.272,165.258Z" transform="translate(-920.022 -163.42)"/>
      <path id="Pfad_959" data-name="Pfad 959" d="M995.87,212c.054.044.106.094.159.141a.3.3,0,0,0-.014-.038Q995.946,212.052,995.87,212Z" transform="translate(-971.962 -202.239)"/>
      <path id="Pfad_960" data-name="Pfad 960" d="M893.223,211.526c.1-.082.2-.169.313-.249l-.032-.954-2.146-.022c-.348.319-.717.778-.512,1.206Z" transform="translate(-887.993 -200.881)"/>
      <path id="Pfad_961" data-name="Pfad 961" d="M905.567,281.321a3.432,3.432,0,0,1-1.686,1.666,4.571,4.571,0,0,1-1.84.173,21.517,21.517,0,0,1-6.273-.882,22.138,22.138,0,0,0-2.813-.993,10.989,10.989,0,0,0-3.5.034l-5.128.6c-1.513.177-3.2.309-4.406-.619-.691-.53-1.137-1.356-1.895-1.782a2.408,2.408,0,0,1-.906-.6,1.5,1.5,0,0,1-.2-.745c-.016-.211-.026-.422-.034-.633a16.964,16.964,0,0,0,.034,1.838,1.505,1.505,0,0,0,.2.745,2.408,2.408,0,0,0,.906.6c.758.426,1.206,1.252,1.895,1.782,1.205.928,2.893.8,4.406.619l5.128-.6a10.992,10.992,0,0,1,3.5-.034,22.725,22.725,0,0,1,2.813.993,21.286,21.286,0,0,0,6.273.882,4.606,4.606,0,0,0,1.84-.173,3.431,3.431,0,0,0,1.686-1.666,8.528,8.528,0,0,0,.868-4.511,7.849,7.849,0,0,1-.868,3.305Z" transform="translate(-876.877 -254.611)"/>
    </g>
    <path id="Pfad_962" data-name="Pfad 962" d="M937.56,179l2.813,2.612S937.962,180.607,937.56,179Z" transform="translate(-770.994 -152.76)" opacity="0.1"/>
  </g>
</svg>
