<svg xmlns="http://www.w3.org/2000/svg" width="15.728" height="26.21" viewBox="0 0 15.728 26.21">
  <g id="Icon_ionic-md-rocket" data-name="Icon ionic-md-rocket" transform="translate(-7.882 -1.125)">
    <path id="Pfad_473" data-name="Pfad 473" d="M17.155,29.462a5.879,5.879,0,0,1-2.342-.6.425.425,0,0,0-.6.415l.191,2.785a.214.214,0,0,0,.344.153l.792-.6a.216.216,0,0,1,.311.055l1.119,1.753a.214.214,0,0,0,.36,0l1.119-1.753a.216.216,0,0,1,.311-.055l.792.6a.214.214,0,0,0,.344-.153l.191-2.785a.423.423,0,0,0-.6-.415A5.905,5.905,0,0,1,17.155,29.462Z" transform="translate(-1.415 -6.19)" fill="#fff"/>
    <path id="Pfad_474" data-name="Pfad 474" d="M23.477,16.256l-2.621-2.681c0-8.627-5.089-12.45-5.089-12.45s-5.138,3.822-5.138,12.45L8.008,16.256a.454.454,0,0,0-.12.388l1,6.1a.418.418,0,0,0,.644.295L13.2,20.564a4.168,4.168,0,0,0,2.572,1.092,3.942,3.942,0,0,0,2.517-1.092l3.664,2.479a.42.42,0,0,0,.644-.295l1.01-6.11A.485.485,0,0,0,23.477,16.256Zm-7.71-5.52a1.749,1.749,0,1,1,1.676-1.747A1.71,1.71,0,0,1,15.767,10.735Z" fill="#fff"/>
  </g>
</svg>
