<svg xmlns="http://www.w3.org/2000/svg" viewBox="0 0 24 17.83"><defs><style>.cls-1{fill:#fff;}</style></defs><g id="Ebene_2" data-name="Ebene 2"><g id="Ebene_1-2" data-name="Ebene 1"><path id="Icon_awesome-book-open" data-name="Icon awesome-book-open" class="cls-1" d="M22.59,0C20.31.13,15.77.58,13,2.22a.6.6,0,0,0-.3.52V17.21a.66.66,0,0,0,.7.62.92.92,0,0,0,.27-.08c2.88-1.38,7.05-1.76,9.11-1.87A1.27,1.27,0,0,0,24,14.66V1.23A1.29,1.29,0,0,0,22.66,0ZM11,2.22C8.23.58,3.69.13,1.41,0A1.28,1.28,0,0,0,0,1.16v13.5a1.26,1.26,0,0,0,1.25,1.22c2.06.11,6.23.49,9.12,1.87a.66.66,0,0,0,.89-.27.59.59,0,0,0,.07-.26V2.73A.57.57,0,0,0,11,2.22Z"/></g></g></svg>