<svg xmlns="http://www.w3.org/2000/svg" viewBox="0 0 24 24"><defs><style>.cls-1{fill:#004ade;}</style></defs><g id="Ebene_2" data-name="Ebene 2"><g id="Forschung"><path id="Icon_awesome-magic" data-name="Icon awesome-magic" class="cls-1" d="M10.5,4.5,11.25,3l1.5-.75-1.5-.75L10.5,0,9.75,1.5l-1.5.75L9.75,3Zm-6.75,3L5,5,7.5,3.75,5,2.5,3.75,0,2.5,2.5,0,3.75,2.5,5Zm16.5,6L19,16l-2.5,1.25L19,18.5,20.25,21l1.25-2.5L24,17.25,21.5,16Zm3.31-9.08-4-4a1.49,1.49,0,0,0-2.12,0h0l-17,17a1.51,1.51,0,0,0,0,2.12l4,4a1.51,1.51,0,0,0,2.12,0l17-17a1.49,1.49,0,0,0,0-2.12ZM16.85,9.54,14.46,7.15l4.06-4.06,2.39,2.39Z"/></g></g></svg>