<?xml version="1.0" encoding="utf-8"?>
<!-- Generator: Adobe Illustrator 15.1.0, SVG Export Plug-In . SVG Version: 6.00 Build 0)  -->
<!DOCTYPE svg PUBLIC "-//W3C//DTD SVG 1.1//EN" "http://www.w3.org/Graphics/SVG/1.1/DTD/svg11.dtd">
<svg version="1.1" id="Ebene_1" xmlns="http://www.w3.org/2000/svg" xmlns:xlink="http://www.w3.org/1999/xlink" x="0px" y="0px"
	 width="458.088px" height="141.794px" viewBox="0 0 458.088 141.794" enable-background="new 0 0 458.088 141.794"
	 xml:space="preserve">
<rect x="85.87" y="41.448" fill="#E30613" width="69.278" height="73.3"/>
<path d="M450.033,58.937V37.473c0-0.914-0.701-1.677-2.104-2.301c-1.27-0.585-2.572-0.878-3.91-0.878h-14.23
	c-0.682,0-1.352,0.064-2.002,0.196c-0.652,0.131-1.287,0.344-1.908,0.637c-1.432,0.65-2.149,1.432-2.149,2.346v21.464h-6.065V16.206
	h6.065v13.346c1.335-0.519,2.459-0.863,3.372-1.027c0.912-0.161,1.809-0.241,2.688-0.241h14.23c2.803,0,5.361,0.698,7.674,2.102
	c2.936,1.76,4.4,4.122,4.4,7.089v21.464H450.033z M402.314,34.294v24.643h-6.111V34.294h-6.014v-6.012h6.014V16.206h6.111v12.077
	h6.063v6.012H402.314z M376.6,56.736c-2.35,1.465-4.939,2.201-7.777,2.201h-14.227c-2.902,0-5.525-0.736-7.872-2.201
	c-2.835-1.792-4.254-4.139-4.254-7.04V28.283h6.063v21.464c0,0.911,0.702,1.677,2.104,2.295c1.271,0.586,2.572,0.881,3.907,0.881
	h14.278c0.652,0,1.297-0.066,1.932-0.195c0.637-0.13,1.279-0.342,1.932-0.635c1.434-0.653,2.15-1.435,2.15-2.346V28.283h6.063
	v21.413C380.898,52.597,379.463,54.944,376.6,56.736 M325.504,35.42c-1.206-0.75-2.689-1.126-4.449-1.126h-14.179
	c-1.239,0-2.542,0.276-3.91,0.833c-1.435,0.586-2.149,1.352-2.149,2.295c0,0.914,0.698,1.682,2.102,2.3
	c1.268,0.586,2.588,0.879,3.958,0.879h14.229c1.693,0,3.16-0.357,4.398-1.075c1.076-0.585,1.613-1.271,1.613-2.053
	S326.58,36.003,325.504,35.42 M328.977,44.366c-2.314,1.5-4.939,2.25-7.871,2.25h-14.229c-0.946,0-1.856-0.084-2.738-0.242
	c-0.879-0.166-1.989-0.473-3.321-0.93v4.104v0.103c0.096,0.844,0.879,1.609,2.343,2.295c0.653,0.36,1.288,0.612,1.908,0.758
	c0.62,0.147,1.223,0.22,1.809,0.22h14.229c0.586,0,1.164-0.051,1.733-0.147c0.572-0.097,1.115-0.274,1.64-0.537
	c1.367-0.618,2.297-1.776,2.786-3.473h6.015c-0.521,3.717-2.121,6.407-4.792,8.067c-2.183,1.403-4.644,2.104-7.382,2.104h-14.229
	c-2.738,0-5.297-0.718-7.675-2.152c-2.967-1.793-4.451-4.157-4.451-7.089V37.422c0-2.899,1.355-5.214,4.059-6.941
	c2.281-1.468,4.972-2.198,8.067-2.198h14.229c2.996,0,5.639,0.698,7.92,2.102c2.77,1.728,4.154,4.058,4.154,6.989
	C333.18,40.209,331.779,42.542,328.977,44.366 M279.398,37.374c0-0.911-0.701-1.677-2.102-2.297c-1.207-0.554-2.51-0.834-3.91-0.834
	h-14.23c-1.432,0-2.734,0.264-3.909,0.785c-1.435,0.653-2.153,1.435-2.153,2.346v12.373c0,0.911,0.702,1.677,2.104,2.295
	c1.271,0.586,2.575,0.881,3.913,0.881h14.275c0.65,0,1.301-0.066,1.956-0.195c0.65-0.13,1.287-0.342,1.905-0.635
	c1.436-0.653,2.15-1.451,2.15-2.396V37.374z M281.258,56.688c-2.281,1.499-4.907,2.249-7.871,2.249h-14.23
	c-2.902,0-5.521-0.736-7.871-2.201c-2.834-1.792-4.254-4.139-4.254-7.04v-33.59h6.063v13.349c1.339-0.521,2.465-0.863,3.376-1.027
	c0.911-0.163,1.809-0.244,2.687-0.244h14.23c2.803,0,5.361,0.701,7.675,2.102c2.935,1.827,4.399,4.187,4.399,7.089v12.322
	C285.461,52.531,284.061,54.86,281.258,56.688"/>
<path fill="#BEE2E5" d="M211.953,38.505c0.038-4.967-4.036-8.132-9.11-7.073L111.03,50.582c-5.074,1.06-9.174,6.7-9.164,12.602
	l0.126,64.111c0.016,5.904,4.109,9.322,9.145,7.641l91.198-30.475c5.042-1.685,9.15-7.07,9.19-12.036L211.953,38.505z"/>
<path fill="#30B7C0" d="M155.148,10.893c0.019-6.947-5.762-11.766-12.916-10.761L12.808,18.35
	C5.662,19.355-0.074,27.17,0.001,35.796l0.817,93.75c0.076,8.632,5.884,13.904,12.97,11.776l128.318-38.499
	c7.092-2.126,12.848-9.483,12.864-16.433L155.148,10.893z"/>
<path fill="#E30613" d="M155,41.448c0,0-45.378,9.242-46.921,9.643c-1.542,0.402-6.428,1.408-6.02,11.453
	c-0.107,11.252,0,52.204,0,52.204l41.799-12.429c0,0,10.938-4.018,10.938-15.469C154.796,75.4,155,41.448,155,41.448"/>
<path fill="#009BA4" d="M447.273,120.356l-22.729-18.516c-0.253-0.186-0.532-0.39-0.827-0.61c-0.296-0.223-0.538-0.333-0.721-0.333
	c-0.371,0-0.908,0.296-1.607,0.887l-22.729,18.572h-10.589l27.771-22.729c1.113-0.812,1.705-1.292,1.774-1.442
	c-0.038,0.04-0.173-0.052-0.414-0.277c-0.241-0.221-0.564-0.497-0.968-0.828l0.107,0.11c-0.074-0.075-0.129-0.118-0.166-0.14
	c-0.037-0.016-0.092-0.064-0.166-0.14l-27.938-23.004h10.255c2.107,1.698,3.896,3.142,5.375,4.324
	c1.483,1.183,2.789,2.236,3.939,3.157c1.145,0.925,2.188,1.766,3.128,2.521c0.946,0.76,1.913,1.548,2.913,2.359
	c0.994,0.812,2.107,1.712,3.327,2.688c1.22,0.98,2.677,2.154,4.38,3.52l-0.112-0.056c0.112,0.075,0.247,0.177,0.413,0.306
	c0.168,0.132,0.345,0.27,0.527,0.417c0.188,0.186,0.371,0.341,0.559,0.473c0.184,0.129,0.253,0.191,0.221,0.191
	c0.107,0,0.295-0.1,0.554-0.304c0.258-0.205,0.517-0.417,0.774-0.637l0.612-0.61l22.503-18.35h10.588l-29.211,23.894l-0.22,0.221
	c-0.075,0.074-0.124,0.131-0.14,0.164c-0.021,0.04-0.064,0.074-0.141,0.112c0.076,0.038,0.221,0.132,0.441,0.279
	c0.037,0.035,0.092,0.081,0.166,0.14c0.076,0.051,0.129,0.1,0.167,0.135l-0.054-0.11l29.051,23.616H447.273z M372.716,82.938
	c0-1.035-0.628-1.959-1.886-2.771c-1.403-0.924-3.086-1.387-5.047-1.387h-33.479c-1.999,0-3.698,0.463-5.101,1.387
	c-1.225,0.777-1.832,1.699-1.832,2.771v26.387c0,1.072,0.607,2.016,1.832,2.827c1.402,0.925,3.102,1.384,5.101,1.384h33.538
	c1.957,0,3.623-0.459,4.988-1.384c1.258-0.812,1.886-1.755,1.886-2.827V82.938z M375.377,117.252
	c-2.553,2.066-5.73,3.104-9.535,3.104h-33.538c-3.772,0-6.971-1.037-9.594-3.104c-2.773-2.143-4.159-4.786-4.159-7.928V82.938
	c0-3.066,1.369-5.692,4.105-7.871c2.66-2.11,5.875-3.161,9.647-3.161h33.538c3.692,0,6.874,1.051,9.535,3.161
	c2.768,2.179,4.154,4.805,4.154,7.871v26.387C379.531,112.466,378.145,115.11,375.377,117.252 M301.201,82.992
	c0-1.035-0.629-1.957-1.887-2.771c-1.479-0.963-3.155-1.441-5.042-1.441h-33.483c-1.662,0-6.875,0-6.875,0s0,2.79,0,4.045v9.924
	h40.412c1.962,0,3.623-0.462,4.988-1.387c1.258-0.811,1.887-1.754,1.887-2.826V82.992z M301.201,103.781
	c0-1.072-0.629-2.013-1.887-2.827c-1.479-0.959-3.155-1.443-5.042-1.443h-40.358v9.758c0,1.186,0,4.268,0,4.268s5.283,0,6.875,0
	h33.537c1.962,0,3.623-0.459,4.988-1.384c1.258-0.812,1.887-1.755,1.887-2.827V103.781z M303.861,117.252
	c-2.548,2.066-5.725,3.104-9.535,3.104h-33.537c-3.768,0-13.749,0-13.749,0s0-7.89,0-11.031V82.992c0-3.066,0-11.032,0-11.032
	s9.981,0,13.749,0h33.537c3.736,0,6.912,1.035,9.535,3.107c2.773,2.179,4.16,4.82,4.16,7.925c0,2.7-0.113,5.156-0.334,7.374
	c-0.074,1.109-0.445,2.125-1.107,3.05c-0.295,0.405-0.639,0.83-1.025,1.274c-0.388,0.44-0.86,0.924-1.414,1.442
	c1.069,0.997,1.887,1.922,2.439,2.771c0.629,1.035,0.995,2.035,1.107,2.994c0.221,2.182,0.334,4.657,0.334,7.428
	C308.021,112.466,306.635,115.11,303.861,117.252"/>
</svg>
