<svg xmlns="http://www.w3.org/2000/svg" xmlns:xlink="http://www.w3.org/1999/xlink" version="1.1" width="212" height="142" enable-background="new 0 0 458.088 141.794" xml:space="preserve"><rect id="backgroundrect" width="100%" height="100%" x="0" y="0" fill="none" stroke="none" style="" class=""/>






<g class="currentLayer" style=""><title>Layer 1</title><rect x="85.86973190307617" y="41.448548316955566" fill="#E30613" width="69.27799987792969" height="73.30000305175781" id="svg_1" class=""/><path fill="#BEE2E5" d="M211.95272915649414,38.5055464553833 c0.038000000000000006,-4.9670000000000005 -4.036,-8.132 -9.11,-7.073 L111.02972915649414,50.5825464553833 c-5.074,1.06 -9.174,6.7 -9.164,12.602 l0.126,64.111 c0.016000000000000004,5.904 4.109,9.322 9.145,7.641 l91.198,-30.475 c5.042,-1.685 9.15,-7.07 9.19,-12.036 L211.95272915649414,38.5055464553833 z" id="svg_3" class=""/><path fill="#30B7C0" d="M155.14772915649414,10.893546455383301 c0.019000000000000003,-6.947 -5.7620000000000005,-11.766 -12.916,-10.761 L12.80772915649414,18.350546455383302 C5.6617291564941405,19.3555464553833 -0.07427084350585939,27.170546455383302 0.0007291564941406252,35.7965464553833 l0.8170000000000001,93.75 c0.07600000000000001,8.632 5.884,13.904 12.97,11.776 l128.318,-38.499 c7.092,-2.126 12.848,-9.483 12.864,-16.433 L155.14772915649414,10.893546455383301 z" id="svg_4" class=""/><path fill="#E30613" d="M154.99972915649414,41.4485464553833 c0,0 -45.378,9.242 -46.921,9.643 c-1.542,0.402 -6.428,1.408 -6.02,11.453 c-0.10700000000000001,11.252 0,52.204 0,52.204 l41.799,-12.429 c0,0 10.938,-4.018 10.938,-15.469 C154.79572915649413,75.4005464553833 154.99972915649414,41.4485464553833 154.99972915649414,41.4485464553833 " id="svg_5" class=""/></g></svg>