<svg xmlns="http://www.w3.org/2000/svg" viewBox="0 0 691.69 691.69"><defs><style>.cls-1{fill:#fff;}.cls-2{fill:#bee2e5;}.cls-3{fill:#009ba4;}.cls-4{fill:#30b7c0;}</style></defs><g id="Ebene_2" data-name="Ebene 2"><g id="Ebene_2-2" data-name="Ebene 2"><circle class="cls-1" cx="345.85" cy="345.85" r="345.85"/><polyline class="cls-2" points="157.04 532.11 525.48 532.11 525.48 159.58 157.04 159.58 157.04 532.11"/><path class="cls-3" d="M506.52,361.92c6.78-.27,12.63-2.52,19.34-1.67,5,.83,11.78.83,11.78,6.72.84,8.41-3.37,16.82-2.53,26.07,0,1.68,2.53,2.52,3.37,2.52,16.82,1.69,32.79-3.37,49.61-4.2,1.68,0,2.52,2.52,2.52,3.36,0,6.73.84,14.3-1.67,21-5.89,16.82-10.09,33.62-21,47.93-47.94.84-95.86-2.53-144.63.84-22.71,1.68-45.41,1.68-68.12,4.2-48.76,4.2-95.86,11.77-145.47,18.5-20.18,2.53-39.52,5.89-58,14.3-3.36,1.68-6.73,1.68-7.57,0-7.56-14.3,0-29.43.84-44.57,0-1.68-2.52-.85-3.36-.85-9.25,4.22-19.34,6.73-29.43,8.42-4.21,1.68-10.94,2.53-10.94-1.69-1.68-18.5,5.05-36.16,8.41-54.66,0-2.52,1.69-3.35,2.53-4.2A372.11,372.11,0,0,1,187,386.32c25.22-3.37,49.61-9.25,74.84-11.77,82.41-9.26,163.13-9.26,244.69-12.63"/><rect class="cls-1" x="165.42" y="401.16" width="5.31" height="69.12" transform="translate(-28.65 12.16) rotate(-3.82)"/><rect class="cls-1" x="338.02" y="389.52" width="5.31" height="69.13" transform="translate(-28.09 24.18) rotate(-3.9)"/><rect class="cls-1" x="510.62" y="377.85" width="5.31" height="69.12" transform="translate(-26.88 35.9) rotate(-3.9)"/><rect class="cls-1" x="183.13" y="400.14" width="2.71" height="43.06" transform="translate(-28.23 13.51) rotate(-3.9)"/><rect class="cls-1" x="200.36" y="398.85" width="2.71" height="43.06" transform="matrix(1, -0.07, 0.07, 1, -28.16, 14.71)"/><rect class="cls-1" x="217.6" y="397.68" width="2.71" height="43.06" transform="translate(-27.41 15.5) rotate(-3.81)"/><rect class="cls-1" x="234.9" y="396.57" width="2.71" height="43.06" transform="translate(-27.79 16.97) rotate(-3.89)"/><rect class="cls-1" x="269.43" y="394.29" width="2.71" height="43.06" transform="matrix(1, -0.07, 0.07, 1, -27.61, 19.35)"/><rect class="cls-1" x="286.67" y="393.11" width="2.71" height="43.06" transform="translate(-27.56 20.57) rotate(-3.9)"/><rect class="cls-1" x="303.9" y="391.83" width="2.71" height="43.06" transform="translate(-27.33 21.65) rotate(-3.89)"/><rect class="cls-1" x="321.2" y="390.72" width="2.71" height="43.06" transform="translate(-27.25 22.86) rotate(-3.89)"/><rect class="cls-1" x="251.92" y="395.41" width="3.77" height="51.9" transform="translate(-27.77 18.03) rotate(-3.86)"/><rect class="cls-1" x="424.5" y="383.67" width="3.77" height="51.91" transform="translate(-26.66 29.7) rotate(-3.87)"/><rect class="cls-1" x="355.66" y="388.32" width="2.71" height="43.06" transform="translate(-26.52 24.71) rotate(-3.82)"/><polygon class="cls-1" points="377.19 430.07 374.48 430.25 371.56 387.29 374.27 387.1 377.19 430.07"/><rect class="cls-1" x="390.23" y="385.98" width="2.71" height="43.06" transform="translate(-26.75 27.51) rotate(-3.89)"/><polygon class="cls-1" points="411.66 427.79 408.95 427.98 406.04 385.01 408.75 384.83 411.66 427.79"/><polygon class="cls-1" points="446.17 425.41 443.46 425.6 440.55 382.63 443.26 382.45 446.17 425.41"/><rect class="cls-1" x="459.22" y="381.33" width="2.71" height="43.06" transform="translate(-25.81 31.58) rotate(-3.82)"/><rect class="cls-1" x="493.77" y="379" width="2.71" height="43.06" transform="translate(-25.58 33.87) rotate(-3.82)"/><rect class="cls-1" x="476.49" y="380.13" width="2.71" height="43.06" transform="translate(-25.71 32.74) rotate(-3.82)"/><path class="cls-4" d="M225,197.59c-71.35,12.83-105,91.06-106.37,94.38a24.28,24.28,0,0,0,44.73,18.89c.25-.58,25-57.35,70.23-65.48,45.39-8.16,88.78,35.88,89.22,36.32,2.29,2.6,61.42,63.27,132.61,50.47,71.35-12.83,105-91.06,106.37-94.38a24.28,24.28,0,0,0-44.74-18.88c-.24.57-25,57.34-70.23,65.47-45.38,8.17-88.78-35.88-89.21-36.33C355.35,245.46,296.22,184.79,225,197.59Z"/></g></g></svg>