<svg xmlns="http://www.w3.org/2000/svg" width="181" height="56.026" viewBox="0 0 181 56.026">
  <g id="beuthbox-logo" transform="translate(0 0.001)">
    <rect id="Rechteck_63" data-name="Rechteck 63" width="27.373" height="28.963" transform="translate(33.929 16.377)" fill="#e30613"/>
    <path id="Pfad_72" data-name="Pfad 72" d="M327.242,33.03V24.549c0-.361-.277-.663-.831-.909a3.654,3.654,0,0,0-1.545-.347h-5.623a3.973,3.973,0,0,0-.791.077,3.27,3.27,0,0,0-.754.252q-.849.385-.849.927V33.03h-2.4V16.146h2.4v5.273a7.484,7.484,0,0,1,1.332-.406,6.1,6.1,0,0,1,1.062-.1h5.623a5.73,5.73,0,0,1,3.032.831,3.155,3.155,0,0,1,1.738,2.8V33.03h-2.395Zm-18.855-9.737V33.03h-2.415V23.292H303.6V20.917h2.376V16.146h2.415v4.772h2.4v2.375h-2.4Zm-10.16,8.867a5.692,5.692,0,0,1-3.073.87h-5.621a5.754,5.754,0,0,1-3.11-.87,3.187,3.187,0,0,1-1.681-2.782V20.917h2.4V29.4q0,.54.831.907a3.65,3.65,0,0,0,1.544.348h5.642a3.827,3.827,0,0,0,.763-.077,3.644,3.644,0,0,0,.763-.251q.85-.387.849-.927V20.917h2.4v8.461a3.184,3.184,0,0,1-1.7,2.782m-20.189-8.422a3.268,3.268,0,0,0-1.758-.445h-5.6a4.1,4.1,0,0,0-1.545.329q-.851.347-.849.907c0,.361.276.665.831.909a3.688,3.688,0,0,0,1.564.347H276.3a3.4,3.4,0,0,0,1.738-.425q.638-.347.637-.811c0-.309-.212-.581-.637-.811m1.372,3.535a5.593,5.593,0,0,1-3.11.889h-5.622a6.117,6.117,0,0,1-1.082-.1,9.8,9.8,0,0,1-1.312-.367V29.36q.057.5.926.907a2.982,2.982,0,0,0,.754.3,3.093,3.093,0,0,0,.715.087H276.3a4.111,4.111,0,0,0,.685-.058,2.289,2.289,0,0,0,.648-.212,2.017,2.017,0,0,0,1.1-1.372h2.377a4.2,4.2,0,0,1-1.893,3.187,5.279,5.279,0,0,1-2.917.831h-5.622a5.771,5.771,0,0,1-3.033-.85,3.183,3.183,0,0,1-1.759-2.8v-4.85a3.124,3.124,0,0,1,1.6-2.743,5.761,5.761,0,0,1,3.187-.868H276.3a5.85,5.85,0,0,1,3.129.831,3.125,3.125,0,0,1,1.641,2.762,3.21,3.21,0,0,1-1.661,2.763m-19.59-2.763q0-.54-.831-.908a3.659,3.659,0,0,0-1.545-.33h-5.623a3.768,3.768,0,0,0-1.545.31q-.85.387-.851.927V29.4q0,.54.831.907a3.656,3.656,0,0,0,1.546.348h5.64a3.989,3.989,0,0,0,.773-.077,3.235,3.235,0,0,0,.753-.251c.567-.258.85-.573.85-.947V24.509Zm.735,7.631a5.536,5.536,0,0,1-3.11.889h-5.623a5.756,5.756,0,0,1-3.11-.87,3.188,3.188,0,0,1-1.681-2.782V16.106h2.4V21.38a7.485,7.485,0,0,1,1.334-.406,6.028,6.028,0,0,1,1.062-.1h5.623a5.743,5.743,0,0,1,3.033.831,3.214,3.214,0,0,1,1.738,2.8v4.869a3.211,3.211,0,0,1-1.661,2.762" transform="translate(-149.424 -9.742)"/>
    <path id="Pfad_73" data-name="Pfad 73" d="M145.364,34.1a2.8,2.8,0,0,0-3.6-2.795l-36.277,7.567a5.1,5.1,0,0,0-3.621,4.979l.05,25.332c.006,2.333,1.624,3.683,3.613,3.019l36.034-12.041a5.5,5.5,0,0,0,3.631-4.756Z" transform="translate(-61.616 -18.889)" fill="#bee2e5"/>
    <path id="Pfad_74" data-name="Pfad 74" d="M61.3,4.3A4.271,4.271,0,0,0,56.2.052L5.061,7.25c-2.824.4-5.09,3.485-5.06,6.893L.323,51.186c.03,3.411,2.325,5.494,5.125,4.653l50.7-15.212a7.343,7.343,0,0,0,5.083-6.493Z" transform="translate(0 0)" fill="#30b7c0"/>
    <path id="Pfad_75" data-name="Pfad 75" d="M122.948,41.448s-17.93,3.652-18.54,3.81-2.54.556-2.379,4.525c-.042,4.446,0,20.627,0,20.627L118.546,65.5s4.322-1.588,4.322-6.112.081-17.939.081-17.939" transform="translate(-61.704 -25.071)" fill="#e30613"/>
    <path id="Pfad_76" data-name="Pfad 76" d="M326.157,91.049l-8.981-7.316-.327-.241a.53.53,0,0,0-.285-.132,1.2,1.2,0,0,0-.635.35l-8.981,7.338h-4.184l10.973-8.981a4,4,0,0,0,.7-.57c-.015.016-.068-.021-.164-.109s-.223-.2-.383-.327l.042.043a.359.359,0,0,0-.066-.055.269.269,0,0,1-.066-.055l-11.039-9.089h4.052q1.249,1.006,2.124,1.709c.586.467,1.1.883,1.556,1.247s.865.7,1.236,1,.756.612,1.151.932.833.676,1.315,1.062,1.058.851,1.731,1.391l-.044-.022c.044.03.1.07.163.121s.136.107.208.165a1.714,1.714,0,0,0,.221.187c.073.051.1.075.087.075a.469.469,0,0,0,.219-.12c.1-.081.2-.165.306-.252l.242-.241,8.892-7.25h4.184l-11.542,9.441-.087.087a.319.319,0,0,0-.055.065.116.116,0,0,1-.056.044c.03.015.087.052.174.11.015.014.036.032.066.055a.521.521,0,0,1,.066.053l-.021-.043,11.479,9.331h-4.272ZM296.7,76.264a1.341,1.341,0,0,0-.745-1.095,3.545,3.545,0,0,0-1.994-.548H280.73a3.582,3.582,0,0,0-2.016.548,1.3,1.3,0,0,0-.724,1.095V86.69a1.353,1.353,0,0,0,.724,1.117,3.577,3.577,0,0,0,2.016.547h13.252a3.433,3.433,0,0,0,1.971-.547,1.353,1.353,0,0,0,.745-1.117Zm1.051,13.558a5.8,5.8,0,0,1-3.767,1.226H280.73a5.937,5.937,0,0,1-3.791-1.226A3.828,3.828,0,0,1,275.3,86.69V76.264a3.864,3.864,0,0,1,1.622-3.11,5.942,5.942,0,0,1,3.812-1.249h13.252a5.88,5.88,0,0,1,3.768,1.249,3.851,3.851,0,0,1,1.641,3.11V86.69a3.829,3.829,0,0,1-1.641,3.132M268.44,76.286a1.342,1.342,0,0,0-.746-1.095,3.565,3.565,0,0,0-1.992-.569H249.756v5.519h15.968a3.429,3.429,0,0,0,1.971-.548,1.353,1.353,0,0,0,.746-1.117Zm0,8.214a1.355,1.355,0,0,0-.746-1.117,3.578,3.578,0,0,0-1.992-.57H249.756v5.542h15.968a3.429,3.429,0,0,0,1.971-.547,1.354,1.354,0,0,0,.746-1.117Zm1.051,5.323a5.789,5.789,0,0,1-3.768,1.226H247.04V71.927h18.684a5.888,5.888,0,0,1,3.768,1.228,3.865,3.865,0,0,1,1.644,3.131q0,1.6-.132,2.914a2.3,2.3,0,0,1-.437,1.205c-.117.16-.253.328-.4.5s-.34.365-.559.57a6.152,6.152,0,0,1,.964,1.095A2.951,2.951,0,0,1,271,83.756a29.365,29.365,0,0,1,.132,2.935,3.827,3.827,0,0,1-1.644,3.132" transform="translate(-149.429 -43.494)" fill="#009ba4"/>
  </g>
</svg>
