<?xml version="1.0" encoding="UTF-8"?><svg id="Ebene_2" xmlns="http://www.w3.org/2000/svg" viewBox="0 0 143.56 74.05"><g id="Ebene_1-2"><g id="Logo--b"><g><path d="M49.13,44.75c0,5.81-4.8,9.22-13.83,9.22H17.16V20.36h17.19c8.83,0,13.15,3.6,13.15,8.79,0,3.22-1.63,5.81-4.51,7.3,3.79,1.34,6.14,4.22,6.14,8.3ZM26.57,27.23v6.48h6.53c3.17,0,4.8-1.1,4.8-3.26s-1.63-3.22-4.8-3.22h-6.53Zm12.96,16.46c0-2.3-1.73-3.41-4.99-3.41h-7.97v6.82h7.97c3.26,0,4.99-1.1,4.99-3.41Z"/><path d="M119.4,54.05l-6.96-10.42-6.87,10.42h-10.85l12.24-16.99-11.71-16.61h10.7l6.72,9.7,6.62-9.7h10.27l-11.71,16.23,12.48,17.38h-10.95Z"/><circle cx="71.78" cy="37.02" r="9.75"/></g><g><polygon points="20.69 0 3.27 0 0 0 0 0 0 20.69 3.27 20.69 3.27 3.27 20.69 3.27 20.69 0"/><polygon points="3.27 70.78 3.27 53.36 0 53.36 0 70.78 0 74.05 0 74.05 20.69 74.05 20.69 70.78 3.27 70.78"/><polygon points="140.3 53.36 140.3 70.78 122.88 70.78 122.88 74.05 140.3 74.05 143.56 74.05 143.56 74.05 143.56 53.36 140.3 53.36"/><polygon points="122.88 0 122.88 3.27 140.3 3.27 140.3 20.69 143.56 20.69 143.56 3.27 143.56 0 143.56 0 122.88 0"/></g></g></g></svg>