<svg id="Gruppe_28" data-name="Gruppe 28" xmlns="http://www.w3.org/2000/svg" width="472.342" height="367.428" viewBox="0 0 472.342 367.428">
  <defs>
    <style>
      .cls-1, .cls-2 {
        fill: #00a5a5;
      }

      .cls-1, .cls-17, .cls-4 {
        opacity: 0.1;
      }

      .cls-3 {
        fill: #3f3d56;
      }

      .cls-5 {
        fill: #46455b;
      }

      .cls-6, .cls-7 {
        opacity: 0.05;
      }

      .cls-16, .cls-7 {
        fill: #fff;
      }

      .cls-8 {
        fill: #2f2e41;
      }

      .cls-9 {
        fill: #fbbebe;
      }

      .cls-10 {
        fill: #f86d70;
      }

      .cls-11 {
        fill: #bbbdc8;
      }

      .cls-12 {
        fill: #a0616a;
      }

      .cls-13 {
        fill: #f98a8d;
      }

      .cls-14 {
        fill: #ffe9b3;
      }

      .cls-15 {
        opacity: 0.15;
      }
    </style>
  </defs>
  <path id="Pfad_79" data-name="Pfad 79" class="cls-1" d="M575.942,101.2V297.743a48.685,48.685,0,0,1-48.7,48.7H330.7a48.528,48.528,0,0,1-30.3-10.565A48.678,48.678,0,0,1,282,297.743V101.2q0-1.955.153-3.868a48.068,48.068,0,0,1,1.16-7.395A48.713,48.713,0,0,1,330.7,52.5H527.243a48.712,48.712,0,0,1,47.386,37.433,48.074,48.074,0,0,1,1.161,7.4Q575.943,99.244,575.942,101.2Z" transform="translate(-192.8 -52.5)"/>
  <path id="Pfad_80" data-name="Pfad 80" class="cls-1" d="M432.669,207.328H575.942v7.395H432.669v51.3H575.942v7.395H432.669v73.023h-7.395V273.419H282v-7.395H425.274v-51.3H282v-7.395H425.274v-51.3H282v-7.395H425.274v-51.3H282.153a48.068,48.068,0,0,1,1.16-7.395H425.274V52.5h7.395V89.936H574.63a48.086,48.086,0,0,1,1.16,7.395H432.669v51.3H575.942v7.395H432.669Z" transform="translate(-192.8 -52.5)"/>
  <ellipse id="Ellipse_8" data-name="Ellipse 8" class="cls-1" cx="236.171" cy="37.052" rx="236.171" ry="37.052" transform="translate(0 293.323)"/>
  <ellipse id="Ellipse_9" data-name="Ellipse 9" class="cls-2" cx="11.693" cy="2.251" rx="11.693" ry="2.251" transform="translate(405.511 312.554)"/>
  <ellipse id="Ellipse_10" data-name="Ellipse 10" class="cls-3" cx="1.363" cy="1.784" rx="1.363" ry="1.784" transform="translate(415.647 312.069)"/>
  <ellipse id="Ellipse_11" data-name="Ellipse 11" class="cls-3" cx="1.363" cy="1.784" rx="1.363" ry="1.784" transform="translate(415.647 309.888)"/>
  <ellipse id="Ellipse_12" data-name="Ellipse 12" class="cls-3" cx="1.363" cy="1.784" rx="1.363" ry="1.784" transform="translate(415.647 307.711)"/>
  <ellipse id="Ellipse_13" data-name="Ellipse 13" class="cls-3" cx="1.363" cy="1.784" rx="1.363" ry="1.784" transform="translate(415.647 305.534)"/>
  <ellipse id="Ellipse_14" data-name="Ellipse 14" class="cls-3" cx="1.363" cy="1.784" rx="1.363" ry="1.784" transform="translate(415.647 303.352)"/>
  <ellipse id="Ellipse_15" data-name="Ellipse 15" class="cls-3" cx="1.363" cy="1.784" rx="1.363" ry="1.784" transform="translate(415.647 301.176)"/>
  <ellipse id="Ellipse_16" data-name="Ellipse 16" class="cls-3" cx="1.363" cy="1.784" rx="1.363" ry="1.784" transform="translate(415.647 298.999)"/>
  <path id="Pfad_81" data-name="Pfad 81" class="cls-2" d="M988.72,658.735a6.272,6.272,0,0,0,.508-.749l-3.577-.587,3.868.028a6.544,6.544,0,0,0,.125-5.167l-5.19,2.694,4.788-3.522a6.526,6.526,0,1,0-10.773,7.3,6.675,6.675,0,0,0-.744,1.188l4.622,2.413-4.95-1.664a6.512,6.512,0,0,0,1.049,6.124,6.521,6.521,0,1,0,10.251,0,6.517,6.517,0,0,0,0-8.06Z" transform="translate(-566.616 -372.857)"/>
  <path id="Pfad_82" data-name="Pfad 82" class="cls-4" d="M977.089,679.659a6.494,6.494,0,0,0,1.386,4.03,6.521,6.521,0,1,0,10.251,0C989.609,682.58,977.089,678.928,977.089,679.659Z" transform="translate(-566.633 -389.751)"/>
  <rect id="Rechteck_75" data-name="Rechteck 75" class="cls-5" width="278.691" height="64.011" transform="translate(95.439 257.431)"/>
  <path id="Pfad_83" data-name="Pfad 83" class="cls-5" d="M179.844,413.5,153.5,433.374l20.336,18.487,11.554-18.487L201.1,413.5Z" transform="translate(-82.556 -222.391)"/>
  <path id="Pfad_84" data-name="Pfad 84" class="cls-5" d="M767.768,444.525l-3.7-4.16-23.571-13.4,21.722-.462,33.739,13.865L782.1,449.147Z" transform="translate(-398.26 -229.383)"/>
  <path id="Pfad_85" data-name="Pfad 85" class="cls-5" d="M203.811,438.457,226.92,413.5v57.31L211.206,483.75l-9.706-13.4Z" transform="translate(-108.372 -222.391)"/>
  <path id="Pfad_86" data-name="Pfad 86" class="cls-5" d="M768.23,456.155l-4.16-15.252-7.857-10.168L740.5,427.5v63.78h31.89Z" transform="translate(-398.26 -229.921)"/>
  <path id="Pfad_87" data-name="Pfad 87" class="cls-5" d="M259.187,376.5H474.976a7.187,7.187,0,0,1,7.187,7.187v65.837H252V383.687A7.187,7.187,0,0,1,259.187,376.5Z" transform="translate(-135.532 -202.492)"/>
  <path id="Pfad_88" data-name="Pfad 88" class="cls-5" d="M222.5,542.911,238.214,523.5H461.906l23.571,19.411Z" transform="translate(-119.666 -281.552)"/>
  <path id="Pfad_89" data-name="Pfad 89" class="cls-6" d="M222.5,542.911,238.214,523.5H461.906l23.571,19.411Z" transform="translate(-119.666 -281.552)"/>
  <rect id="Rechteck_76" data-name="Rechteck 76" class="cls-5" width="31.89" height="110.46" transform="translate(70.944 210.982)"/>
  <rect id="Rechteck_77" data-name="Rechteck 77" class="cls-7" width="31.89" height="110.46" transform="translate(70.944 210.982)"/>
  <rect id="Rechteck_78" data-name="Rechteck 78" class="cls-5" width="31.89" height="110.46" transform="translate(365.811 210.982)"/>
  <rect id="Rechteck_79" data-name="Rechteck 79" class="cls-7" width="31.89" height="110.46" transform="translate(365.811 210.982)"/>
  <ellipse id="Ellipse_17" data-name="Ellipse 17" class="cls-8" cx="36.873" cy="48.573" rx="36.873" ry="48.573" transform="translate(166.639 93.006)"/>
  <rect id="Rechteck_80" data-name="Rechteck 80" class="cls-8" width="41.128" height="57.437" transform="translate(178.693 120.661)"/>
  <rect id="Rechteck_81" data-name="Rechteck 81" class="cls-4" width="41.128" height="57.437" transform="translate(178.693 120.661)"/>
  <path id="Pfad_90" data-name="Pfad 90" class="cls-9" d="M468.914,367.143a12.054,12.054,0,0,1-10.769,4.317c-.185,2.875,1.766,5.4,3.61,7.612l14.434,17.318a.809.809,0,0,0,1.433.12L499.668,375.6c-2.2.924-4.8-.541-6.008-2.6s-1.326-4.539-1.437-6.933q-.24-5.361-.462-10.713a3.084,3.084,0,0,0-.7-2.209,3.014,3.014,0,0,0-1.571-.6c-3.48-.6-14.327-3.7-16.338-.037-.924,1.668-.508,4.922-.924,6.808A18.772,18.772,0,0,1,468.914,367.143Z" transform="translate(-287.53 -212.906)"/>
  <path id="Pfad_91" data-name="Pfad 91" class="cls-4" d="M468.914,367.143a12.054,12.054,0,0,1-10.769,4.317c-.185,2.875,1.766,5.4,3.61,7.612l14.434,17.318a.809.809,0,0,0,1.433.12L499.668,375.6c-2.2.924-4.8-.541-6.008-2.6s-1.326-4.539-1.437-6.933q-.24-5.361-.462-10.713a3.084,3.084,0,0,0-.7-2.209,3.014,3.014,0,0,0-1.571-.6c-3.48-.6-14.327-3.7-16.338-.037-.924,1.668-.508,4.922-.924,6.808A18.772,18.772,0,0,1,468.914,367.143Z" transform="translate(-287.53 -212.906)"/>
  <circle id="Ellipse_18" data-name="Ellipse 18" class="cls-9" cx="21.628" cy="21.628" r="21.628" transform="translate(175.857 107.188)"/>
  <path id="Pfad_92" data-name="Pfad 92" class="cls-10" d="M433.761,396.406l-3.485-10.986c-1.387-4.4-3.355-9.387-7.746-10.806-2.773-.887-5.763-.074-8.652-.319-5.62-.485-11.092-4.955-16.347-2.907-6.47,2.514-6.415,12.451-12.16,16.352,0,9.285,3,17.909,4.622,27.046s2.089,19-2.144,27.268c-1.793,3.5-4.358,6.554-6.272,9.992a31.036,31.036,0,0,0-3.67,18.616q36.8.462,73.606.222c-.226-3.18-1.645-6.313-1.876-9.493a6.568,6.568,0,0,1,.222-2.865c.541-1.386,1.918-2.214,3.1-3.115a15.968,15.968,0,0,0,3.942-4.428,31.81,31.81,0,0,0,3.171-8.948l9.188-37.436c1.1-4.46,2.158-9.327.254-13.5-2.089-4.589-7.1-6.974-11.725-8.985-2.773-1.216-5.962-2.445-8.781-1.326-2.311.924-3.762,3.138-5.223,5.144A51.146,51.146,0,0,1,433.761,396.406Z" transform="translate(-244.269 -223.72)"/>
  <path id="Pfad_93" data-name="Pfad 93" class="cls-4" d="M381.261,412.628c-.721,2.7-.319,5.583-.85,8.319-.892,4.58-4.233,8.222-6.47,12.308a27.994,27.994,0,0,0-2.45,20.761c.564,2.038,1.567,4.22,3.545,4.968,1.414.541,2.995.2,4.506.337,2,.176,4.072,1.165,5.916.379,2.278-.97,2.731-3.933,2.981-6.4a74.936,74.936,0,0,1,3.665-16.772c1.849-5.435,4.386-10.829,4.349-16.574-.028-4.049-5.213-.324-8.6-2.722C384.039,414.546,382.514,407.965,381.261,412.628Z" transform="translate(-240.405 -245.312)"/>
  <path id="Pfad_94" data-name="Pfad 94" class="cls-10" d="M379.261,407.827c-.721,2.7-.319,5.583-.85,8.319-.892,4.58-4.234,8.222-6.47,12.308a27.994,27.994,0,0,0-2.45,20.761c.564,2.038,1.567,4.22,3.545,4.968,1.414.541,2.995.2,4.506.337,2,.176,4.072,1.165,5.916.379,2.279-.971,2.731-3.933,2.981-6.4a74.939,74.939,0,0,1,3.665-16.772c1.849-5.435,4.386-10.829,4.349-16.574-.028-4.049-1.807-8.522-5.19-10.921A6.294,6.294,0,0,0,379.261,407.827Z" transform="translate(-239.329 -240.973)"/>
  <path id="Pfad_95" data-name="Pfad 95" class="cls-11" d="M420.69,344.011c2.773-1.553,5.5-3.235,8.361-4.677,4.465-2.232,9.484-3.975,13-7.395a1.465,1.465,0,0,1,2.413.633,136.561,136.561,0,0,0,5.357,14.475,124.648,124.648,0,0,1,5.084,12.294c.924,2.944,1.5,6.008,2.653,8.841a48.357,48.357,0,0,0,6.281,10.214,13,13,0,0,0,3,3.235c1.719,1.169,4.284,1.918,4.465,3.989-2.232,1.613-5.269,1.081-8.019,1.058a33.8,33.8,0,0,0-8.264,1.215,49.783,49.783,0,0,0-9.244,3.087,65.406,65.406,0,0,0-8.227,4.941l-24.574,16.486c-1.807-2.066-1.738-5.084-2.126-7.82a40.667,40.667,0,0,0-1.423-5.81l-2.45-8.25c-1.165-3.919-2.311-7.834-3.623-11.711a29.532,29.532,0,0,0-4.4-9.174c-2.551-3.235-6.221-5.333-9.405-7.936a7.424,7.424,0,0,1-2.662-3.374,3.3,3.3,0,0,1,.37-2.736c.675-.975,1.641-.832,2.713-1q3.924-.624,7.783-1.576a94.286,94.286,0,0,0,14.914-5.056Q416.77,346.188,420.69,344.011Z" transform="translate(-249.131 -202.572)"/>
  <path id="Pfad_96" data-name="Pfad 96" class="cls-4" d="M427.925,353.278c2.436-1.35,4.8-2.828,7.293-4.076,3.9-1.95,8.273-3.466,11.337-6.438a1.276,1.276,0,0,1,2.108.55,118.762,118.762,0,0,0,4.673,12.627,106.37,106.37,0,0,1,4.423,10.727c.795,2.565,1.308,5.222,2.311,7.714a42.082,42.082,0,0,0,5.477,8.911,11.45,11.45,0,0,0,2.616,2.819c1.507,1.021,3.744,1.673,3.9,3.485-1.946,1.386-4.594.924-6.993.924a28.9,28.9,0,0,0-7.205,1.063,43.073,43.073,0,0,0-8.056,2.694,55.175,55.175,0,0,0-7.177,4.326l-21.44,14.36c-1.576-1.8-1.511-4.451-1.849-6.826a35.5,35.5,0,0,0-1.239-5.084l-2.14-7.2c-1.017-3.42-2.034-6.836-3.161-10.219a25.322,25.322,0,0,0-3.836-8c-2.228-2.815-5.426-4.649-8.208-6.933a6.373,6.373,0,0,1-2.311-2.939,2.87,2.87,0,0,1,.323-2.385c.587-.855,1.433-.73,2.366-.878q3.425-.541,6.789-1.387a81.651,81.651,0,0,0,13.01-4.409Q424.514,355.159,427.925,353.278Z" transform="translate(-255.359 -208.419)"/>
  <circle id="Ellipse_19" data-name="Ellipse 19" class="cls-11" cx="1.849" cy="1.849" r="1.849" transform="translate(161.747 159.977)"/>
  <circle id="Ellipse_20" data-name="Ellipse 20" class="cls-11" cx="1.849" cy="1.849" r="1.849" transform="translate(181.459 150.849)"/>
  <circle id="Ellipse_21" data-name="Ellipse 21" class="cls-11" cx="1.849" cy="1.849" r="1.849" transform="translate(171.069 180.109)"/>
  <circle id="Ellipse_22" data-name="Ellipse 22" class="cls-11" cx="1.849" cy="1.849" r="1.849" transform="translate(190.781 170.981)"/>
  <path id="Pfad_97" data-name="Pfad 97" class="cls-9" d="M389.014,457.534a11.507,11.507,0,0,0,5.153-2.477,17.049,17.049,0,0,0,2.38-3.794c1.474-2.6,3.808-4.908,6.743-5.481s6.383,1.123,7.011,4.049c.407,1.9-.388,3.841-1.179,5.625-1.183,2.671-2.519,5.472-4.959,7.085-2.135,1.41-4.857,1.719-6.956,3.184-1.849,1.294-3.013,3.342-4.622,4.936a12.216,12.216,0,0,1-7.829,3.489,2.648,2.648,0,0,1-1.317-.18,2.907,2.907,0,0,1-1-.984,21.97,21.97,0,0,1-3.457-5.939C376.475,459.424,383.579,459.092,389.014,457.534Z" transform="translate(-244.682 -263.957)"/>
  <path id="Pfad_98" data-name="Pfad 98" class="cls-9" d="M491.3,456.342c-.624-3.725-.707-7.788-3.009-10.783a11.341,11.341,0,0,0-8.282-3.979,2.19,2.19,0,0,0-2.893,2.551,21.32,21.32,0,0,0,5.019,12.885,22.665,22.665,0,0,1,3.291,4.16c.7,1.363.961,2.921,1.613,4.307.85,1.807,2.311,3.235,3.429,4.9a14.092,14.092,0,0,1,2.357,8.056c1.22-1.992,1.072-4.483,1.188-6.817.153-3.286,2.454-5.084.961-7.765S491.837,459.6,491.3,456.342Z" transform="translate(-297.724 -261.749)"/>
  <path id="Pfad_99" data-name="Pfad 99" class="cls-4" d="M512.454,457.357c-1.169,3.05-1.77,6.313-3.147,9.276a5.176,5.176,0,0,1-1.793,2.311c-1.479.924-3.434.351-4.9-.568s-2.773-2.186-4.377-2.8a16.675,16.675,0,0,1-13.523,14.327c4.16,3.822,8.541,8.07,9.479,13.634a8.178,8.178,0,0,0,.781,2.99c.878,1.41,2.731,1.872,4.4,1.849,4.229-.032,8.107-2.265,11.637-4.622a10.856,10.856,0,0,0,3.194-2.81,11.648,11.648,0,0,0,1.437-4.118q3.064-14.563,6.124-29.14c.555-2.639.462-7.825-3.633-7.3C515.347,450.794,513.314,455.125,512.454,457.357Z" transform="translate(-301.823 -266.475)"/>
  <path id="Pfad_100" data-name="Pfad 100" class="cls-10" d="M514.454,457.357c-1.169,3.05-1.77,6.313-3.147,9.276a5.176,5.176,0,0,1-1.793,2.311c-1.479.924-3.434.351-4.9-.568s-2.773-2.186-4.377-2.8a16.675,16.675,0,0,1-13.523,14.327c4.16,3.822,8.541,8.07,9.479,13.634a8.178,8.178,0,0,0,.781,2.99c.878,1.41,2.731,1.872,4.4,1.849,4.229-.032,8.107-2.265,11.638-4.622a10.858,10.858,0,0,0,3.193-2.81,11.648,11.648,0,0,0,1.438-4.118q3.064-14.563,6.124-29.14c.555-2.639.462-7.825-3.633-7.3C517.348,450.794,515.314,455.125,514.454,457.357Z" transform="translate(-302.899 -266.475)"/>
  <path id="Pfad_101" data-name="Pfad 101" class="cls-10" d="M385.806,486.764c-.166.846-1,1.359-1.761,1.765-1.465.79-3.06,1.608-4.71,1.387a6.961,6.961,0,0,1-4.113-2.736,10.547,10.547,0,0,1-1.387-2.015c-1.668-3.3-1.849-17.318,5.047-12.742,2.847,1.895,1.243,5.13,1.6,7.917a8.1,8.1,0,0,0,1.89,4.483C382.58,485.063,385.7,487.309,385.806,486.764Z" transform="translate(-241.673 -277.856)"/>
  <ellipse id="Ellipse_23" data-name="Ellipse 23" class="cls-8" cx="20.564" cy="9.927" rx="20.564" ry="9.927" transform="translate(182.239 104.352)"/>
  <path id="Pfad_102" data-name="Pfad 102" class="cls-4" d="M505.513,302.582c-11.129,0-20.183-4.16-20.548-9.382a5.241,5.241,0,0,0-.924,2.912c0,5.361,9.206,9.706,20.567,9.706s20.567-4.344,20.567-9.706v-.324C522.516,299.726,514.724,302.582,505.513,302.582Z" transform="translate(-301.463 -181.955)"/>
  <ellipse id="Ellipse_24" data-name="Ellipse 24" class="cls-8" cx="51.055" cy="46.092" rx="51.055" ry="46.092" transform="translate(242.513 97.261)"/>
  <path id="Pfad_103" data-name="Pfad 103" class="cls-4" d="M664.839,389.978c-25.748,0-47.026-17.405-50.377-39.978a42.805,42.805,0,0,0-.462,6.239c0,25.526,22.762,46.217,50.839,46.217s50.839-20.692,50.839-46.217a42.839,42.839,0,0,0-.462-6.239C711.865,372.573,690.587,389.978,664.839,389.978Z" transform="translate(-371.359 -212.503)"/>
  <ellipse id="Ellipse_25" data-name="Ellipse 25" class="cls-8" cx="24.464" cy="32.973" rx="24.464" ry="32.973" transform="translate(268.04 112.152)"/>
  <ellipse id="Ellipse_26" data-name="Ellipse 26" class="cls-4" cx="24.464" cy="32.973" rx="24.464" ry="32.973" transform="translate(268.04 112.152)"/>
  <path id="Pfad_104" data-name="Pfad 104" class="cls-12" d="M691.176,380.81c-.924,2.283-2.773,4.71-5.546,4.885,3.7,3.036,7.441,6.105,11.859,8.319a24.775,24.775,0,0,0,14.679,2.718,29.386,29.386,0,0,0,9.789-3.822c5.13-2.9,10.168-6.715,11.467-11.882a83.819,83.819,0,0,1-11.554-.217,15.862,15.862,0,0,1-5.759-1.3,8.98,8.98,0,0,1-4.423-5.407,18.8,18.8,0,0,1-.55-6.738c.069-1.317.12-2.773-.892-3.781s-2.685-1.142-4.206-1.174a57.807,57.807,0,0,0-9.146.541,31.432,31.432,0,0,0-4.71.855c-2.006.61-1.816.374-1.331,2.052C692.359,370.993,693.279,375.615,691.176,380.81Z" transform="translate(-409.883 -219.169)"/>
  <path id="Pfad_105" data-name="Pfad 105" class="cls-4" d="M691.176,380.81c-.924,2.283-2.773,4.71-5.546,4.885,3.7,3.036,7.441,6.105,11.859,8.319a24.775,24.775,0,0,0,14.679,2.718,29.386,29.386,0,0,0,9.789-3.822c5.13-2.9,10.168-6.715,11.467-11.882a83.819,83.819,0,0,1-11.554-.217,15.862,15.862,0,0,1-5.759-1.3,8.98,8.98,0,0,1-4.423-5.407,18.8,18.8,0,0,1-.55-6.738c.069-1.317.12-2.773-.892-3.781s-2.685-1.142-4.206-1.174a57.807,57.807,0,0,0-9.146.541,31.432,31.432,0,0,0-4.71.855c-2.006.61-1.816.374-1.331,2.052C692.359,370.993,693.279,375.615,691.176,380.81Z" transform="translate(-409.883 -219.169)"/>
  <circle id="Ellipse_27" data-name="Ellipse 27" class="cls-12" cx="21.722" cy="21.722" r="21.722" transform="translate(270.141 113.464)"/>
  <path id="Pfad_106" data-name="Pfad 106" class="cls-13" d="M652.829,398.594a20.437,20.437,0,0,0-4.77-4.594c-3.1-1.9-6.933-2.02-10.561-2.08-3.933-.069-8.208-.032-11.319,2.376a17.948,17.948,0,0,0-3.462,4.035L609.542,417.28a2.765,2.765,0,0,0,0,4.173l14.494,18.1a8.6,8.6,0,0,1,1.96,3.411,7.335,7.335,0,0,1-.508,3.91c-1.752,4.987-5.084,9.706-4.779,14.961.217,3.429,2.01,6.581,4.206,9.244,5.038,6.068,12.289,10.015,19.874,12.169s15.547,2.625,23.437,2.676c14.873.1,30.5-1.525,42.788-9.914l-9.655-9.1c-1.909-1.8-3.91-3.744-4.571-6.286a13.905,13.905,0,0,1-.032-5.264,46.865,46.865,0,0,1,1.812-9.479c2.879-8.5,10.279-14.549,15.215-22.041a5.262,5.262,0,0,0,1.151-3.11,5.566,5.566,0,0,0-1.1-2.588,74.178,74.178,0,0,1-6.23-10.806c-1.22-2.847-2.047-5.874-3.559-8.578s-3.91-5.135-6.933-5.7c-3.891-.73-7.686,1.705-11.637,1.872-2.893.125-5.911-.961-8.615.069-3.207,1.225-4.622,4.839-6.419,7.774-1.326,2.186-5.283,8.167-8.384,6.7-1.687-.8-3.235-3.7-4.446-5.116Z" transform="translate(-368.453 -235.04)"/>
  <path id="Pfad_107" data-name="Pfad 107" class="cls-14" d="M732.976,437.611a3.725,3.725,0,0,0-2.413-.434,1.89,1.89,0,0,0-1.53,1.728l-1.336-.079a1.494,1.494,0,0,0-.462.023.745.745,0,0,0,.314,1.456,4.455,4.455,0,0,0-1.705,1.2,2.389,2.389,0,0,0,.647,3.3,2.588,2.588,0,0,0,3.355-.684,1.216,1.216,0,0,0,.647,1.428c2.5,1.354,3.781-.485,4.122-2.616C735,440.6,735.5,438.859,732.976,437.611Z" transform="translate(-431.296 -259.364)"/>
  <path id="Pfad_108" data-name="Pfad 108" class="cls-15" d="M732.976,437.611a3.725,3.725,0,0,0-2.413-.434,1.89,1.89,0,0,0-1.53,1.728l-1.336-.079a1.494,1.494,0,0,0-.462.023.745.745,0,0,0,.314,1.456,4.455,4.455,0,0,0-1.705,1.2,2.389,2.389,0,0,0,.647,3.3,2.588,2.588,0,0,0,3.355-.684,1.216,1.216,0,0,0,.647,1.428c2.5,1.354,3.781-.485,4.122-2.616C735,440.6,735.5,438.859,732.976,437.611Z" transform="translate(-431.296 -259.364)"/>
  <path id="Pfad_109" data-name="Pfad 109" class="cls-14" d="M747.776,434.214a3.7,3.7,0,0,0-2.413-.43,1.876,1.876,0,0,0-1.525,1.724l-1.336-.079a1.527,1.527,0,0,0-.462.023.767.767,0,0,0-.522.883.758.758,0,0,0,.864.55,4.487,4.487,0,0,0-1.705,1.2,2.394,2.394,0,0,0,.647,3.3,2.593,2.593,0,0,0,3.36-.679,1.211,1.211,0,0,0,.642,1.423c2.51,1.359,3.781-.462,4.127-2.611C749.809,437.2,750.318,435.462,747.776,434.214Z" transform="translate(-439.274 -257.539)"/>
  <path id="Pfad_110" data-name="Pfad 110" class="cls-14" d="M759.813,435.935a3.7,3.7,0,0,0-2.408-.43,1.876,1.876,0,0,0-1.53,1.724l-1.336-.079a1.488,1.488,0,0,0-.462.023.767.767,0,0,0-.522.883.758.758,0,0,0,.864.55,4.418,4.418,0,0,0-1.705,1.2,2.389,2.389,0,0,0,.647,3.3,2.584,2.584,0,0,0,3.355-.679,1.211,1.211,0,0,0,.647,1.424c2.5,1.359,3.776-.485,4.123-2.611C761.847,438.943,762.337,437.182,759.813,435.935Z" transform="translate(-445.748 -258.464)"/>
  <path id="Pfad_111" data-name="Pfad 111" class="cls-15" d="M759.813,435.935a3.7,3.7,0,0,0-2.408-.43,1.876,1.876,0,0,0-1.53,1.724l-1.336-.079a1.488,1.488,0,0,0-.462.023.767.767,0,0,0-.522.883.758.758,0,0,0,.864.55,4.418,4.418,0,0,0-1.705,1.2,2.389,2.389,0,0,0,.647,3.3,2.584,2.584,0,0,0,3.355-.679,1.211,1.211,0,0,0,.647,1.424c2.5,1.359,3.776-.485,4.123-2.611C761.847,438.943,762.337,437.182,759.813,435.935Z" transform="translate(-445.748 -258.464)"/>
  <path id="Pfad_112" data-name="Pfad 112" class="cls-11" d="M750.134,442.11v49.647a1.2,1.2,0,0,1-1.193,1.192H710.193A1.2,1.2,0,0,1,709,491.757V442.11a1.192,1.192,0,0,1,1.668-1.1q1.479.638,2.953,1.179,2.08.762,4.16,1.326t4.16.924c1.387.24,2.773.425,4.16.536s2.773.157,4.16.129,2.773-.106,4.16-.259,2.773-.379,4.16-.67,2.773-.633,4.16-1.054c1.077-.328,2.158-.693,3.235-1.1.832-.31,1.659-.647,2.491-1.007a1.192,1.192,0,0,1,1.668,1.091Z" transform="translate(-422.452 -261.4)"/>
  <path id="Pfad_113" data-name="Pfad 113" class="cls-16" d="M723.16,445.006v49.453H719V443.68Q721.08,444.443,723.16,445.006Z" transform="translate(-427.83 -262.887)"/>
  <path id="Pfad_114" data-name="Pfad 114" class="cls-16" d="M741.16,449.055v47.974H737V448.5A37.7,37.7,0,0,0,741.16,449.055Z" transform="translate(-437.511 -265.479)"/>
  <path id="Pfad_115" data-name="Pfad 115" class="cls-16" d="M759.16,449.42v48.1H755V449.688Q757.08,449.651,759.16,449.42Z" transform="translate(-447.192 -265.974)"/>
  <path id="Pfad_116" data-name="Pfad 116" class="cls-16" d="M777.159,445.69v49.827H773V446.758Q775.08,446.323,777.159,445.69Z" transform="translate(-456.873 -263.968)"/>
  <path id="Pfad_117" data-name="Pfad 117" class="cls-4" d="M793.16,442.11v49.647a1.2,1.2,0,0,1-1.193,1.192H789V442.022c.832-.31,1.659-.647,2.491-1.007a1.192,1.192,0,0,1,1.669,1.1Z" transform="translate(-465.478 -261.4)"/>
  <path id="Pfad_118" data-name="Pfad 118" class="cls-14" d="M723.683,432.495a3.7,3.7,0,0,0-2.408-.43,1.876,1.876,0,0,0-1.53,1.724l-1.336-.079a1.489,1.489,0,0,0-.462.023.767.767,0,0,0-.522.883.758.758,0,0,0,.864.55,4.418,4.418,0,0,0-1.706,1.2,2.39,2.39,0,0,0,.647,3.3,2.588,2.588,0,0,0,3.355-.679,1.211,1.211,0,0,0,.647,1.423c2.5,1.354,3.776-.485,4.122-2.611C725.717,435.48,726.216,433.742,723.683,432.495Z" transform="translate(-426.316 -256.614)"/>
  <path id="Pfad_119" data-name="Pfad 119" class="cls-14" d="M738.683,415.494a3.7,3.7,0,0,0-2.408-.43,1.876,1.876,0,0,0-1.53,1.724l-1.336-.079a1.488,1.488,0,0,0-.462.023.767.767,0,0,0-.522.883.758.758,0,0,0,.864.55,4.419,4.419,0,0,0-1.705,1.2,2.39,2.39,0,0,0,.647,3.3,2.588,2.588,0,0,0,3.355-.679,1.211,1.211,0,0,0,.647,1.423c2.505,1.354,3.776-.485,4.123-2.611C740.717,418.48,741.216,416.742,738.683,415.494Z" transform="translate(-434.383 -247.471)"/>
  <path id="Pfad_120" data-name="Pfad 120" class="cls-14" d="M748.178,429.333a3.7,3.7,0,0,0,.892-2.283,1.877,1.877,0,0,0-1.387-1.849l.337-1.294a1.385,1.385,0,0,0,.069-.462.735.735,0,0,0-1.47.055,4.421,4.421,0,0,0-.846-1.9,2.394,2.394,0,0,0-3.365,0,2.588,2.588,0,0,0,0,3.425,1.216,1.216,0,0,0-1.525.36c-1.816,2.191-.259,3.8,1.761,4.552C744.855,430.747,746.464,431.579,748.178,429.333Z" transform="translate(-439.169 -250.638)"/>
  <path id="Pfad_121" data-name="Pfad 121" class="cls-14" d="M761.179,429.333a3.7,3.7,0,0,0,.892-2.283,1.877,1.877,0,0,0-1.387-1.849l.337-1.294a1.387,1.387,0,0,0,.069-.462.735.735,0,0,0-1.47.055,4.423,4.423,0,0,0-.846-1.9,2.394,2.394,0,0,0-3.365,0,2.588,2.588,0,0,0,0,3.425,1.215,1.215,0,0,0-1.525.361c-1.816,2.191-.259,3.8,1.761,4.552C757.855,430.747,759.464,431.579,761.179,429.333Z" transform="translate(-446.161 -250.638)"/>
  <path id="Pfad_122" data-name="Pfad 122" class="cls-14" d="M769.033,438.9a3.7,3.7,0,0,0,.462-2.408,1.881,1.881,0,0,0-1.71-1.548l.1-1.331a1.527,1.527,0,0,0,0-.462.735.735,0,1,0-1.433.328,4.5,4.5,0,0,0-1.183-1.719,2.394,2.394,0,0,0-3.309.61,2.588,2.588,0,0,0,.647,3.365,1.216,1.216,0,0,0-1.433.633c-1.387,2.491.462,3.785,2.57,4.16C766.029,440.89,767.766,441.413,769.033,438.9Z" transform="translate(-450.253 -256.252)"/>
  <path id="Pfad_123" data-name="Pfad 123" class="cls-14" d="M729.033,422.9a3.7,3.7,0,0,0,.462-2.408,1.881,1.881,0,0,0-1.71-1.548l.1-1.331a1.52,1.52,0,0,0,0-.462.735.735,0,0,0-1.433.328,4.5,4.5,0,0,0-1.183-1.719,2.394,2.394,0,0,0-3.309.61,2.588,2.588,0,0,0,.647,3.365,1.216,1.216,0,0,0-1.433.633c-1.386,2.491.462,3.785,2.57,4.16C726.028,424.891,727.766,425.413,729.033,422.9Z" transform="translate(-428.74 -247.647)"/>
  <path id="Pfad_124" data-name="Pfad 124" class="cls-14" d="M733.976,425.611a3.726,3.726,0,0,0-2.413-.434,1.89,1.89,0,0,0-1.53,1.729l-1.336-.079a1.494,1.494,0,0,0-.462.023.745.745,0,0,0,.314,1.456,4.455,4.455,0,0,0-1.705,1.2,2.39,2.39,0,0,0,.647,3.3,2.588,2.588,0,0,0,3.355-.684,1.216,1.216,0,0,0,.647,1.428c2.5,1.354,3.781-.485,4.123-2.616C736,428.6,736.5,426.859,733.976,425.611Z" transform="translate(-431.834 -252.911)"/>
  <path id="Pfad_125" data-name="Pfad 125" class="cls-15" d="M733.976,425.611a3.726,3.726,0,0,0-2.413-.434,1.89,1.89,0,0,0-1.53,1.729l-1.336-.079a1.494,1.494,0,0,0-.462.023.745.745,0,0,0,.314,1.456,4.455,4.455,0,0,0-1.705,1.2,2.39,2.39,0,0,0,.647,3.3,2.588,2.588,0,0,0,3.355-.684,1.216,1.216,0,0,0,.647,1.428c2.5,1.354,3.781-.485,4.123-2.616C736,428.6,736.5,426.859,733.976,425.611Z" transform="translate(-431.834 -252.911)"/>
  <path id="Pfad_126" data-name="Pfad 126" class="cls-14" d="M777.025,429.054a3.7,3.7,0,0,0-2.412-.43,1.881,1.881,0,0,0-1.53,1.724l-1.331-.079a1.517,1.517,0,0,0-.462.023.767.767,0,0,0-.522.883.758.758,0,0,0,.864.55,4.488,4.488,0,0,0-1.705,1.2,2.394,2.394,0,0,0,.647,3.3,2.588,2.588,0,0,0,3.355-.679,1.211,1.211,0,0,0,.647,1.423c2.505,1.354,3.781-.485,4.123-2.616C779.054,432.039,779.553,430.3,777.025,429.054Z" transform="translate(-455.006 -254.763)"/>
  <path id="Pfad_127" data-name="Pfad 127" class="cls-15" d="M777.025,429.054a3.7,3.7,0,0,0-2.412-.43,1.881,1.881,0,0,0-1.53,1.724l-1.331-.079a1.517,1.517,0,0,0-.462.023.767.767,0,0,0-.522.883.758.758,0,0,0,.864.55,4.488,4.488,0,0,0-1.705,1.2,2.394,2.394,0,0,0,.647,3.3,2.588,2.588,0,0,0,3.355-.679,1.211,1.211,0,0,0,.647,1.423c2.505,1.354,3.781-.485,4.123-2.616C779.054,432.039,779.553,430.3,777.025,429.054Z" transform="translate(-455.006 -254.763)"/>
  <path id="Pfad_128" data-name="Pfad 128" class="cls-14" d="M751.025,412.054a3.7,3.7,0,0,0-2.412-.43,1.881,1.881,0,0,0-1.53,1.724l-1.331-.079a1.515,1.515,0,0,0-.462.023.767.767,0,0,0-.522.883.758.758,0,0,0,.864.55,4.488,4.488,0,0,0-1.705,1.2,2.394,2.394,0,0,0,.647,3.3,2.588,2.588,0,0,0,3.356-.679,1.21,1.21,0,0,0,.647,1.423c2.5,1.354,3.78-.485,4.122-2.616C753.054,415.039,753.554,413.3,751.025,412.054Z" transform="translate(-441.022 -245.62)"/>
  <path id="Pfad_129" data-name="Pfad 129" class="cls-15" d="M751.025,412.054a3.7,3.7,0,0,0-2.412-.43,1.881,1.881,0,0,0-1.53,1.724l-1.331-.079a1.515,1.515,0,0,0-.462.023.767.767,0,0,0-.522.883.758.758,0,0,0,.864.55,4.488,4.488,0,0,0-1.705,1.2,2.394,2.394,0,0,0,.647,3.3,2.588,2.588,0,0,0,3.356-.679,1.21,1.21,0,0,0,.647,1.423c2.5,1.354,3.78-.485,4.122-2.616C753.054,415.039,753.554,413.3,751.025,412.054Z" transform="translate(-441.022 -245.62)"/>
  <path id="Pfad_130" data-name="Pfad 130" class="cls-14" d="M731.025,406.054a3.7,3.7,0,0,0-2.413-.43,1.881,1.881,0,0,0-1.53,1.724l-1.331-.079a1.517,1.517,0,0,0-.462.023.767.767,0,0,0-.522.883.758.758,0,0,0,.864.55,4.488,4.488,0,0,0-1.705,1.2,2.394,2.394,0,0,0,.647,3.3,2.589,2.589,0,0,0,3.356-.679,1.211,1.211,0,0,0,.647,1.423c2.505,1.354,3.781-.485,4.123-2.616C733.054,409.039,733.553,407.3,731.025,406.054Z" transform="translate(-430.266 -242.393)"/>
  <path id="Pfad_131" data-name="Pfad 131" class="cls-15" d="M731.025,406.054a3.7,3.7,0,0,0-2.413-.43,1.881,1.881,0,0,0-1.53,1.724l-1.331-.079a1.517,1.517,0,0,0-.462.023.767.767,0,0,0-.522.883.758.758,0,0,0,.864.55,4.488,4.488,0,0,0-1.705,1.2,2.394,2.394,0,0,0,.647,3.3,2.589,2.589,0,0,0,3.356-.679,1.211,1.211,0,0,0,.647,1.423c2.505,1.354,3.781-.485,4.123-2.616C733.054,409.039,733.553,407.3,731.025,406.054Z" transform="translate(-430.266 -242.393)"/>
  <path id="Pfad_132" data-name="Pfad 132" class="cls-14" d="M753.025,402.054a3.7,3.7,0,0,0-2.412-.43,1.881,1.881,0,0,0-1.53,1.724l-1.331-.079a1.516,1.516,0,0,0-.462.023.767.767,0,0,0-.522.883.758.758,0,0,0,.864.55,4.488,4.488,0,0,0-1.706,1.2,2.394,2.394,0,0,0,.647,3.3,2.588,2.588,0,0,0,3.356-.679,1.211,1.211,0,0,0,.647,1.423c2.5,1.354,3.78-.485,4.122-2.616C755.054,405.039,755.554,403.3,753.025,402.054Z" transform="translate(-442.098 -240.242)"/>
  <path id="Pfad_133" data-name="Pfad 133" class="cls-15" d="M753.025,402.054a3.7,3.7,0,0,0-2.412-.43,1.881,1.881,0,0,0-1.53,1.724l-1.331-.079a1.516,1.516,0,0,0-.462.023.767.767,0,0,0-.522.883.758.758,0,0,0,.864.55,4.488,4.488,0,0,0-1.706,1.2,2.394,2.394,0,0,0,.647,3.3,2.588,2.588,0,0,0,3.356-.679,1.211,1.211,0,0,0,.647,1.423c2.5,1.354,3.78-.485,4.122-2.616C755.054,405.039,755.554,403.3,753.025,402.054Z" transform="translate(-442.098 -240.242)"/>
  <path id="Pfad_134" data-name="Pfad 134" class="cls-14" d="M761.025,408.054a3.7,3.7,0,0,0-2.412-.43,1.881,1.881,0,0,0-1.53,1.724l-1.331-.079a1.516,1.516,0,0,0-.462.023.767.767,0,0,0-.522.883.758.758,0,0,0,.864.55,4.487,4.487,0,0,0-1.706,1.2,2.394,2.394,0,0,0,.647,3.3,2.588,2.588,0,0,0,3.355-.679,1.211,1.211,0,0,0,.647,1.423c2.5,1.354,3.781-.485,4.123-2.616C763.054,411.039,763.553,409.3,761.025,408.054Z" transform="translate(-446.401 -243.469)"/>
  <path id="Pfad_135" data-name="Pfad 135" class="cls-15" d="M761.025,408.054a3.7,3.7,0,0,0-2.412-.43,1.881,1.881,0,0,0-1.53,1.724l-1.331-.079a1.516,1.516,0,0,0-.462.023.767.767,0,0,0-.522.883.758.758,0,0,0,.864.55,4.487,4.487,0,0,0-1.706,1.2,2.394,2.394,0,0,0,.647,3.3,2.588,2.588,0,0,0,3.355-.679,1.211,1.211,0,0,0,.647,1.423c2.5,1.354,3.781-.485,4.123-2.616C763.054,411.039,763.553,409.3,761.025,408.054Z" transform="translate(-446.401 -243.469)"/>
  <path id="Pfad_136" data-name="Pfad 136" class="cls-14" d="M712.025,429.054a3.7,3.7,0,0,0-2.412-.43,1.881,1.881,0,0,0-1.53,1.724l-1.331-.079a1.517,1.517,0,0,0-.462.023.767.767,0,0,0-.522.883.758.758,0,0,0,.864.55,4.489,4.489,0,0,0-1.705,1.2,2.394,2.394,0,0,0,.647,3.3,2.588,2.588,0,0,0,3.355-.679,1.211,1.211,0,0,0,.647,1.423c2.5,1.354,3.781-.485,4.123-2.616C714.054,432.039,714.553,430.3,712.025,429.054Z" transform="translate(-420.047 -254.763)"/>
  <path id="Pfad_137" data-name="Pfad 137" class="cls-15" d="M712.025,429.054a3.7,3.7,0,0,0-2.412-.43,1.881,1.881,0,0,0-1.53,1.724l-1.331-.079a1.517,1.517,0,0,0-.462.023.767.767,0,0,0-.522.883.758.758,0,0,0,.864.55,4.489,4.489,0,0,0-1.705,1.2,2.394,2.394,0,0,0,.647,3.3,2.588,2.588,0,0,0,3.355-.679,1.211,1.211,0,0,0,.647,1.423c2.5,1.354,3.781-.485,4.123-2.616C714.054,432.039,714.553,430.3,712.025,429.054Z" transform="translate(-420.047 -254.763)"/>
  <path id="Pfad_138" data-name="Pfad 138" class="cls-14" d="M770.025,415.054a3.7,3.7,0,0,0-2.412-.43,1.881,1.881,0,0,0-1.53,1.724l-1.331-.079a1.52,1.52,0,0,0-.462.023.767.767,0,0,0-.522.883.758.758,0,0,0,.864.55,4.486,4.486,0,0,0-1.705,1.2,2.394,2.394,0,0,0,.647,3.3,2.588,2.588,0,0,0,3.355-.679,1.211,1.211,0,0,0,.647,1.423c2.505,1.354,3.781-.485,4.123-2.616C772.054,418.04,772.553,416.3,770.025,415.054Z" transform="translate(-451.241 -247.234)"/>
  <path id="Pfad_139" data-name="Pfad 139" class="cls-15" d="M770.025,415.054a3.7,3.7,0,0,0-2.412-.43,1.881,1.881,0,0,0-1.53,1.724l-1.331-.079a1.52,1.52,0,0,0-.462.023.767.767,0,0,0-.522.883.758.758,0,0,0,.864.55,4.486,4.486,0,0,0-1.705,1.2,2.394,2.394,0,0,0,.647,3.3,2.588,2.588,0,0,0,3.355-.679,1.211,1.211,0,0,0,.647,1.423c2.505,1.354,3.781-.485,4.123-2.616C772.054,418.04,772.553,416.3,770.025,415.054Z" transform="translate(-451.241 -247.234)"/>
  <path id="Pfad_140" data-name="Pfad 140" class="cls-14" d="M789.025,425.054a3.7,3.7,0,0,0-2.412-.43,1.881,1.881,0,0,0-1.53,1.724l-1.331-.079a1.519,1.519,0,0,0-.462.023.767.767,0,0,0-.522.883.758.758,0,0,0,.864.55,4.488,4.488,0,0,0-1.705,1.2,2.394,2.394,0,0,0,.647,3.3,2.588,2.588,0,0,0,3.355-.679,1.211,1.211,0,0,0,.647,1.424c2.505,1.354,3.781-.485,4.123-2.616C791.054,428.039,791.553,426.3,789.025,425.054Z" transform="translate(-461.46 -252.612)"/>
  <path id="Pfad_141" data-name="Pfad 141" class="cls-15" d="M789.025,425.054a3.7,3.7,0,0,0-2.412-.43,1.881,1.881,0,0,0-1.53,1.724l-1.331-.079a1.519,1.519,0,0,0-.462.023.767.767,0,0,0-.522.883.758.758,0,0,0,.864.55,4.488,4.488,0,0,0-1.705,1.2,2.394,2.394,0,0,0,.647,3.3,2.588,2.588,0,0,0,3.355-.679,1.211,1.211,0,0,0,.647,1.424c2.505,1.354,3.781-.485,4.123-2.616C791.054,428.039,791.553,426.3,789.025,425.054Z" transform="translate(-461.46 -252.612)"/>
  <path id="Pfad_142" data-name="Pfad 142" class="cls-14" d="M773.025,403.054a3.7,3.7,0,0,0-2.412-.43,1.881,1.881,0,0,0-1.53,1.724l-1.331-.079a1.516,1.516,0,0,0-.462.023.767.767,0,0,0-.522.883.758.758,0,0,0,.864.55,4.488,4.488,0,0,0-1.705,1.2,2.394,2.394,0,0,0,.647,3.3,2.588,2.588,0,0,0,3.355-.679,1.211,1.211,0,0,0,.647,1.424c2.5,1.354,3.781-.485,4.123-2.616C775.054,406.04,775.554,404.3,773.025,403.054Z" transform="translate(-452.854 -240.78)"/>
  <path id="Pfad_143" data-name="Pfad 143" class="cls-15" d="M773.025,403.054a3.7,3.7,0,0,0-2.412-.43,1.881,1.881,0,0,0-1.53,1.724l-1.331-.079a1.516,1.516,0,0,0-.462.023.767.767,0,0,0-.522.883.758.758,0,0,0,.864.55,4.488,4.488,0,0,0-1.705,1.2,2.394,2.394,0,0,0,.647,3.3,2.588,2.588,0,0,0,3.355-.679,1.211,1.211,0,0,0,.647,1.424c2.5,1.354,3.781-.485,4.123-2.616C775.054,406.04,775.554,404.3,773.025,403.054Z" transform="translate(-452.854 -240.78)"/>
  <path id="Pfad_144" data-name="Pfad 144" class="cls-14" d="M786.033,418.9a3.7,3.7,0,0,0,.462-2.408,1.881,1.881,0,0,0-1.71-1.548l.1-1.331a1.528,1.528,0,0,0,0-.462.735.735,0,1,0-1.433.328,4.5,4.5,0,0,0-1.183-1.719,2.394,2.394,0,0,0-3.309.61,2.588,2.588,0,0,0,.647,3.365,1.216,1.216,0,0,0-1.433.633c-1.386,2.491.462,3.785,2.57,4.16C783.029,420.891,784.766,421.413,786.033,418.9Z" transform="translate(-459.396 -245.496)"/>
  <path id="Pfad_145" data-name="Pfad 145" class="cls-14" d="M786.033,402.9a3.7,3.7,0,0,0,.462-2.408,1.881,1.881,0,0,0-1.71-1.548l.1-1.331a1.528,1.528,0,0,0,0-.462.735.735,0,1,0-1.433.328,4.5,4.5,0,0,0-1.183-1.719,2.394,2.394,0,0,0-3.309.61,2.588,2.588,0,0,0,.647,3.365,1.216,1.216,0,0,0-1.433.633c-1.386,2.491.462,3.785,2.57,4.16C783.029,404.891,784.766,405.413,786.033,402.9Z" transform="translate(-459.396 -236.89)"/>
  <path id="Pfad_146" data-name="Pfad 146" class="cls-14" d="M769.033,423.9a3.7,3.7,0,0,0,.462-2.408,1.881,1.881,0,0,0-1.71-1.548l.1-1.331a1.528,1.528,0,0,0,0-.462.735.735,0,1,0-1.433.328,4.5,4.5,0,0,0-1.183-1.719,2.394,2.394,0,0,0-3.309.61,2.588,2.588,0,0,0,.647,3.365,1.216,1.216,0,0,0-1.433.633c-1.387,2.491.462,3.785,2.57,4.16C766.029,425.89,767.766,426.413,769.033,423.9Z" transform="translate(-450.253 -248.185)"/>
  <path id="Pfad_147" data-name="Pfad 147" class="cls-14" d="M788.033,441.9a3.7,3.7,0,0,0,.462-2.408,1.881,1.881,0,0,0-1.71-1.548l.1-1.331a1.528,1.528,0,0,0,0-.462.735.735,0,0,0-1.433.328,4.5,4.5,0,0,0-1.183-1.719,2.394,2.394,0,0,0-3.309.61,2.588,2.588,0,0,0,.647,3.365,1.216,1.216,0,0,0-1.433.633c-1.386,2.491.462,3.785,2.57,4.16C785.029,443.89,786.766,444.413,788.033,441.9Z" transform="translate(-460.471 -257.865)"/>
  <path id="Pfad_148" data-name="Pfad 148" class="cls-14" d="M752.033,448.9a3.7,3.7,0,0,0,.462-2.408,1.881,1.881,0,0,0-1.71-1.548l.1-1.331a1.524,1.524,0,0,0,0-.462.735.735,0,0,0-1.433.328,4.494,4.494,0,0,0-1.183-1.719,2.394,2.394,0,0,0-3.309.61,2.588,2.588,0,0,0,.647,3.365,1.216,1.216,0,0,0-1.433.633c-1.387,2.491.462,3.785,2.57,4.16C749.028,450.89,750.766,451.413,752.033,448.9Z" transform="translate(-441.11 -261.63)"/>
  <path id="Pfad_149" data-name="Pfad 149" class="cls-14" d="M744.033,407.9a3.7,3.7,0,0,0,.462-2.408,1.881,1.881,0,0,0-1.71-1.548l.1-1.331a1.52,1.52,0,0,0,0-.462.735.735,0,1,0-1.433.328,4.5,4.5,0,0,0-1.183-1.719,2.394,2.394,0,0,0-3.309.61,2.588,2.588,0,0,0,.647,3.365,1.216,1.216,0,0,0-1.433.633c-1.386,2.491.462,3.785,2.57,4.16C741.028,409.891,742.766,410.413,744.033,407.9Z" transform="translate(-436.807 -239.579)"/>
  <path id="Pfad_150" data-name="Pfad 150" class="cls-14" d="M765.033,402.9a3.7,3.7,0,0,0,.462-2.408,1.881,1.881,0,0,0-1.71-1.548l.1-1.331a1.528,1.528,0,0,0,0-.462.735.735,0,1,0-1.433.328,4.5,4.5,0,0,0-1.183-1.719,2.394,2.394,0,0,0-3.309.61,2.588,2.588,0,0,0,.647,3.365,1.215,1.215,0,0,0-1.433.633c-1.387,2.491.462,3.785,2.57,4.16C762.029,404.891,763.766,405.413,765.033,402.9Z" transform="translate(-448.102 -236.89)"/>
  <path id="Pfad_151" data-name="Pfad 151" class="cls-14" d="M723.033,421.9a3.7,3.7,0,0,0,.462-2.408,1.881,1.881,0,0,0-1.71-1.548l.1-1.331a1.536,1.536,0,0,0,0-.462.735.735,0,0,0-1.433.328,4.5,4.5,0,0,0-1.183-1.719,2.394,2.394,0,0,0-3.309.61,2.588,2.588,0,0,0,.647,3.365,1.215,1.215,0,0,0-1.433.633c-1.387,2.491.462,3.785,2.57,4.16C720.029,423.891,721.766,424.413,723.033,421.9Z" transform="translate(-425.513 -247.109)"/>
  <path id="Pfad_152" data-name="Pfad 152" class="cls-12" d="M690.955,475.3c2.4-.194,4.774-.809,7.187-.776a23.064,23.064,0,0,1,9.068,2.486,7.151,7.151,0,0,1,2.283,1.424,4.821,4.821,0,0,1,1.1,4.03,10.434,10.434,0,0,1-1.655,3.965,7.585,7.585,0,0,1-3.346,3.235,8.034,8.034,0,0,1-2.547.439,28.637,28.637,0,0,1-10.741-1.16c-1.761-.6-3.429-1.442-5.153-2.154-5.5-2.274-11.439-3.17-17.276-4.317a1.776,1.776,0,0,1-.823-.319c-1.215-1.049,1.424-4.83,2.043-5.888,1.045-1.8,1.992-1.992,4.109-2.043C680.491,474.086,685.654,475.625,690.955,475.3Z" transform="translate(-400.797 -279.308)"/>
  <path id="Pfad_153" data-name="Pfad 153" class="cls-12" d="M785.894,498.859c-1.673-.823-3.175-1.96-4.834-2.815a16.3,16.3,0,0,0-6.734-1.789,5.75,5.75,0,0,0-4.28,1.183c-1.576,1.5-1.387,4.044-.869,6.156.786,3.166,2.366,6.517,5.4,7.714a12.291,12.291,0,0,0,3.7.633c5.625.388,11.48.739,16.694-1.387a1.692,1.692,0,0,0,.924-.707,1.747,1.747,0,0,0-.231-1.484c-.832-1.673-2.149-5.181-3.758-6.225C790.409,499.136,787.761,499.774,785.894,498.859Z" transform="translate(-454.617 -290.081)"/>
  <path id="Pfad_154" data-name="Pfad 154" class="cls-4" d="M810.511,448.3a78.615,78.615,0,0,1,7.552,15.543,12.852,12.852,0,0,1,.924,4.2,13.168,13.168,0,0,1-1.146,4.673,125.233,125.233,0,0,1-6.5,14.161,7.924,7.924,0,0,1-3.05,3.6,8.934,8.934,0,0,1-5.195.462,100.367,100.367,0,0,1-13.1-2.32c2.713.088,5.163-1.946,6.415-4.16a17.28,17.28,0,0,0,1.738-7.219,10.961,10.961,0,0,0-.166-4,4.345,4.345,0,0,0-2.69-2.981c-.125-1.206,1.026-2.218,2.214-2.773a14.639,14.639,0,0,0,3.5-1.7,4.833,4.833,0,0,0,1.16-4.987,37.627,37.627,0,0,0-2.2-4.95c-1.012-2.311,4.21-4.742,4.418-7.238.046-.564-.351.462,0,0s2.533,1.142,3.027.924C810.664,448.135,808.713,445.445,810.511,448.3Z" transform="translate(-466.016 -264.693)"/>
  <path id="Pfad_155" data-name="Pfad 155" class="cls-13" d="M812.7,446.283a78.882,78.882,0,0,1,7.556,15.543,12.723,12.723,0,0,1,.924,4.2,13.258,13.258,0,0,1-1.142,4.673,126.087,126.087,0,0,1-6.5,14.161,7.924,7.924,0,0,1-3.051,3.6,8.937,8.937,0,0,1-5.195.462,100.091,100.091,0,0,1-13.1-2.32c2.708.088,5.162-1.946,6.41-4.16a17.359,17.359,0,0,0,1.742-7.219,11.061,11.061,0,0,0-.166-4,4.363,4.363,0,0,0-2.69-2.981c-.13-1.206,1.026-2.218,2.214-2.773a14.646,14.646,0,0,0,3.5-1.7,4.841,4.841,0,0,0,1.155-4.987,37.626,37.626,0,0,0-2.2-4.95,15.35,15.35,0,0,1-1.229-7.358,3.107,3.107,0,0,1,.49-1.622,3.17,3.17,0,0,1,1.289-.924C805.967,442.544,810.9,443.427,812.7,446.283Z" transform="translate(-467.194 -262.675)"/>
  <path id="Pfad_156" data-name="Pfad 156" class="cls-4" d="M612.043,437.627c-3,2.773-6.1,5.7-7.556,9.525a27.045,27.045,0,0,0-1.317,6.549c-.434,3.78-.827,7.829.924,11.2,1.941,3.7,6.008,5.68,9.826,7.358a27.257,27.257,0,0,0,4.09,1.534,28.73,28.73,0,0,0,5.592.684l19.268,1.072a13.245,13.245,0,0,1-3.781-10.052c.31-3.175,1.849-6.087,3.4-8.865a8.112,8.112,0,0,1,3.2-3.647,62.176,62.176,0,0,0-19.134-1.2,1.348,1.348,0,0,1-1.206-.291,1.156,1.156,0,0,1-.185-.726c0-2.87,2.145-5.255,3.032-7.982,1.419-4.372-3.411-1.973-7.755-3.475S612.93,433.116,612.043,437.627Z" transform="translate(-365.335 -258.604)"/>
  <path id="Pfad_157" data-name="Pfad 157" class="cls-13" d="M609.043,432.35c-3,2.773-6.1,5.7-7.557,9.525a27.057,27.057,0,0,0-1.317,6.549c-.435,3.781-.827,7.829.924,11.2,1.941,3.7,6.008,5.68,9.826,7.358a27.292,27.292,0,0,0,4.09,1.534,28.734,28.734,0,0,0,5.592.684l19.268,1.072a13.245,13.245,0,0,1-3.781-10.052c.31-3.175,1.849-6.087,3.4-8.865a8.111,8.111,0,0,1,3.2-3.647,62.178,62.178,0,0,0-19.134-1.2,1.348,1.348,0,0,1-1.206-.291,1.156,1.156,0,0,1-.185-.726c0-2.87,2.144-5.255,3.032-7.982,1.419-4.372-1.049-9.706-5.4-11.217S609.93,427.839,609.043,432.35Z" transform="translate(-363.721 -253.327)"/>
  <ellipse id="Ellipse_28" data-name="Ellipse 28" class="cls-8" cx="23.4" cy="9.573" rx="23.4" ry="9.573" transform="translate(270.168 110.025)"/>
  <path id="Pfad_158" data-name="Pfad 158" class="cls-4" d="M696.34,314.626c-11.171,0-20.507-3.268-22.8-7.626a4.44,4.44,0,0,0-.541,2.08c0,5.361,10.45,9.706,23.34,9.706s23.34-4.344,23.34-9.706a4.44,4.44,0,0,0-.541-2.08C716.846,311.358,707.51,314.626,696.34,314.626Z" transform="translate(-403.09 -189.377)"/>
  <path id="Pfad_159" data-name="Pfad 159" class="cls-14" d="M783.025,325.054a3.7,3.7,0,0,0-2.412-.43,1.881,1.881,0,0,0-1.53,1.724l-1.331-.079a1.518,1.518,0,0,0-.462.023.767.767,0,0,0-.522.883.758.758,0,0,0,.864.55,4.487,4.487,0,0,0-1.706,1.2,2.394,2.394,0,0,0,.647,3.3,2.588,2.588,0,0,0,3.355-.679,1.211,1.211,0,0,0,.647,1.423c2.5,1.354,3.781-.485,4.123-2.616C785.054,328.04,785.554,326.3,783.025,325.054Z" transform="translate(-458.233 -198.83)"/>
  <path id="Pfad_160" data-name="Pfad 160" class="cls-15" d="M783.025,325.054a3.7,3.7,0,0,0-2.412-.43,1.881,1.881,0,0,0-1.53,1.724l-1.331-.079a1.518,1.518,0,0,0-.462.023.767.767,0,0,0-.522.883.758.758,0,0,0,.864.55,4.487,4.487,0,0,0-1.706,1.2,2.394,2.394,0,0,0,.647,3.3,2.588,2.588,0,0,0,3.355-.679,1.211,1.211,0,0,0,.647,1.423c2.5,1.354,3.781-.485,4.123-2.616C785.054,328.04,785.554,326.3,783.025,325.054Z" transform="translate(-458.233 -198.83)"/>
  <path id="Pfad_161" data-name="Pfad 161" class="cls-14" d="M831.026,401.054a3.7,3.7,0,0,0-2.413-.43,1.881,1.881,0,0,0-1.53,1.724l-1.331-.079a1.516,1.516,0,0,0-.462.023.767.767,0,0,0-.522.883.758.758,0,0,0,.864.55,4.488,4.488,0,0,0-1.706,1.2,2.394,2.394,0,0,0,.647,3.3,2.588,2.588,0,0,0,3.355-.679,1.211,1.211,0,0,0,.647,1.423c2.505,1.354,3.781-.485,4.123-2.616C833.054,404.04,833.554,402.3,831.026,401.054Z" transform="translate(-484.048 -239.704)"/>
  <path id="Pfad_162" data-name="Pfad 162" class="cls-15" d="M831.026,401.054a3.7,3.7,0,0,0-2.413-.43,1.881,1.881,0,0,0-1.53,1.724l-1.331-.079a1.516,1.516,0,0,0-.462.023.767.767,0,0,0-.522.883.758.758,0,0,0,.864.55,4.488,4.488,0,0,0-1.706,1.2,2.394,2.394,0,0,0,.647,3.3,2.588,2.588,0,0,0,3.355-.679,1.211,1.211,0,0,0,.647,1.423c2.505,1.354,3.781-.485,4.123-2.616C833.054,404.04,833.554,402.3,831.026,401.054Z" transform="translate(-484.048 -239.704)"/>
  <path id="Pfad_163" data-name="Pfad 163" class="cls-14" d="M887.025,482.054a3.7,3.7,0,0,0-2.412-.43,1.881,1.881,0,0,0-1.53,1.724l-1.331-.079a1.514,1.514,0,0,0-.462.023.767.767,0,0,0-.522.883.758.758,0,0,0,.864.55,4.487,4.487,0,0,0-1.705,1.2,2.394,2.394,0,0,0,.647,3.3,2.588,2.588,0,0,0,3.355-.679,1.211,1.211,0,0,0,.647,1.423c2.5,1.354,3.781-.485,4.122-2.616C889.054,485.04,889.553,483.3,887.025,482.054Z" transform="translate(-514.167 -283.268)"/>
  <path id="Pfad_164" data-name="Pfad 164" class="cls-15" d="M887.025,482.054a3.7,3.7,0,0,0-2.412-.43,1.881,1.881,0,0,0-1.53,1.724l-1.331-.079a1.514,1.514,0,0,0-.462.023.767.767,0,0,0-.522.883.758.758,0,0,0,.864.55,4.487,4.487,0,0,0-1.705,1.2,2.394,2.394,0,0,0,.647,3.3,2.588,2.588,0,0,0,3.355-.679,1.211,1.211,0,0,0,.647,1.423c2.5,1.354,3.781-.485,4.122-2.616C889.054,485.04,889.553,483.3,887.025,482.054Z" transform="translate(-514.167 -283.268)"/>
  <path id="Pfad_165" data-name="Pfad 165" class="cls-14" d="M800.032,294.9a3.7,3.7,0,0,0,.462-2.408,1.881,1.881,0,0,0-1.71-1.548l.1-1.331a1.528,1.528,0,0,0,0-.462.735.735,0,1,0-1.433.328,4.5,4.5,0,0,0-1.183-1.719,2.394,2.394,0,0,0-3.309.61,2.588,2.588,0,0,0,.647,3.365,1.215,1.215,0,0,0-1.433.633c-1.387,2.491.462,3.785,2.57,4.16C797.028,296.89,798.766,297.413,800.032,294.9Z" transform="translate(-466.925 -178.805)"/>
  <path id="Pfad_166" data-name="Pfad 166" class="cls-14" d="M794.033,259.9a3.7,3.7,0,0,0,.462-2.408,1.881,1.881,0,0,0-1.71-1.548l.1-1.331a1.524,1.524,0,0,0,0-.462.735.735,0,1,0-1.433.328,4.5,4.5,0,0,0-1.183-1.719,2.394,2.394,0,0,0-3.309.61,2.588,2.588,0,0,0,.647,3.365,1.215,1.215,0,0,0-1.433.633c-1.386,2.491.462,3.785,2.57,4.16C791.028,261.89,792.766,262.413,794.033,259.9Z" transform="translate(-463.698 -159.981)"/>
  <path id="Pfad_167" data-name="Pfad 167" class="cls-14" d="M645.025,556.054a3.7,3.7,0,0,0-2.412-.43,1.881,1.881,0,0,0-1.53,1.724l-1.331-.079a1.52,1.52,0,0,0-.462,0,.767.767,0,0,0-.522.883.758.758,0,0,0,.864.55,4.487,4.487,0,0,0-1.705,1.2,2.394,2.394,0,0,0,.647,3.3,2.588,2.588,0,0,0,3.355-.679,1.211,1.211,0,0,0,.647,1.423c2.505,1.354,3.781-.462,4.123-2.616C647.054,559.039,647.553,557.3,645.025,556.054Z" transform="translate(-384.013 -323.067)"/>
  <path id="Pfad_168" data-name="Pfad 168" class="cls-15" d="M645.025,556.054a3.7,3.7,0,0,0-2.412-.43,1.881,1.881,0,0,0-1.53,1.724l-1.331-.079a1.52,1.52,0,0,0-.462,0,.767.767,0,0,0-.522.883.758.758,0,0,0,.864.55,4.487,4.487,0,0,0-1.705,1.2,2.394,2.394,0,0,0,.647,3.3,2.588,2.588,0,0,0,3.355-.679,1.211,1.211,0,0,0,.647,1.423c2.505,1.354,3.781-.462,4.123-2.616C647.054,559.039,647.553,557.3,645.025,556.054Z" transform="translate(-384.013 -323.067)"/>
  <path id="Pfad_169" data-name="Pfad 169" class="cls-14" d="M608.033,545.9a3.7,3.7,0,0,0,.462-2.408,1.881,1.881,0,0,0-1.71-1.548l.1-1.331a1.532,1.532,0,0,0,0-.462.735.735,0,1,0-1.433.328,4.5,4.5,0,0,0-1.183-1.719,2.394,2.394,0,0,0-3.309.61,2.588,2.588,0,0,0,.647,3.365,1.215,1.215,0,0,0-1.433.633c-1.386,2.491.462,3.785,2.57,4.159C605.029,547.89,606.766,548.413,608.033,545.9Z" transform="translate(-363.663 -313.799)"/>
  <path id="Pfad_170" data-name="Pfad 170" class="cls-14" d="M656.033,490.9a3.7,3.7,0,0,0,.462-2.408,1.881,1.881,0,0,0-1.71-1.548l.1-1.331a1.524,1.524,0,0,0,0-.462.735.735,0,1,0-1.433.328,4.5,4.5,0,0,0-1.183-1.719,2.394,2.394,0,0,0-3.309.61,2.588,2.588,0,0,0,.647,3.365,1.216,1.216,0,0,0-1.433.633c-1.386,2.491.462,3.785,2.57,4.16C653.028,492.891,654.766,493.413,656.033,490.9Z" transform="translate(-389.478 -284.219)"/>
  <path id="Pfad_171" data-name="Pfad 171" class="cls-2" d="M426.6,504.627c-4.5-1.151-9.188-2.311-13.736-1.387a58.237,58.237,0,0,0-5.907,1.849,33.789,33.789,0,0,1-29-4.331c-4.714-3.258-9.613-8.009-15.2-6.72-1.5.351-2.893,1.137-4.428,1.308-2.879.328-5.546-1.539-8.4-1.978-4.917-.753-9.387,2.694-13.167,5.93l-19.934,17.059c-1.511,1.294-3.175,3-2.773,4.945.615,2.852,4.982,3.235,6.105,5.939.813,1.936-.532,4.192-2.311,5.3s-3.933,1.387-5.93,2.057a18.441,18.441,0,0,0-12.146,13.5,27.3,27.3,0,0,1-1.114,4.936,38.439,38.439,0,0,1-2.912,4.677c-4.1,6.886-1.41,16.024-4.525,23.409-1.65,3.919-4.954,7.709-3.91,11.827.952,3.734,5.051,5.643,8.781,6.632.439,2.542-.462,4.335-2.311,6.161,15.506,6.374,32.149,12.881,48.6,9.623,5.643-1.114,11.138-3.374,16.888-3.281,4.081.065,8.116,1.322,12.188,1.035,8.592-.605,16.481-7.949,24.8-5.745-2.51.171-3.439,3.841-1.96,5.879s4.2,2.69,6.706,2.93,5.158.259,7.33,1.534c-1.645,3.425-7.538,4.622-6.97,8.389a5.516,5.516,0,0,0,2.4,3.235c11.208,8.583,26.644,7.76,40.671,9.244,10.343,1.081,20.484,3.61,30.795,4.959,16.472,2.149,33.17,1.271,49.753.383,3.009-.162,6.383-.495,8.319-2.805,2.57-3.078,1.142-7.64.818-11.633-1.257-15.626,15.834-26.381,20.622-41.309,1.849-5.828,1.77-12.091,1.437-18.205-.744-13.791-2.9-28.34-11.693-38.989-7.237-8.781-18.057-13.727-28.83-17.35-6.859-2.311-14.045-4.21-21.26-3.531-12.109,1.142-24.343,9.41-35.523,4.622-2.958-1.266-5.477-3.36-8.287-4.922C443.208,505.62,434.829,506.73,426.6,504.627Z" transform="translate(-195.553 -289.554)"/>
  <g id="Gruppe_27" data-name="Gruppe 27" class="cls-17" transform="translate(91.602 216.173)">
    <path id="Pfad_172" data-name="Pfad 172" d="M489.173,678.809c-10.311-1.35-20.433-3.864-30.795-4.959-14.041-1.47-29.477-.647-40.671-9.243a5.409,5.409,0,0,1-2.4-3.235c-.568-3.757,5.324-4.964,6.97-8.389-2.172-1.276-4.82-1.289-7.33-1.534s-5.227-.892-6.706-2.93-.55-5.708,1.96-5.879c-8.319-2.2-16.213,5.139-24.8,5.745-4.072.286-8.107-.971-12.187-1.035-5.749-.092-11.245,2.167-16.888,3.281-16.449,3.235-33.087-3.235-48.6-9.623,1.826-1.849,2.736-3.619,2.311-6.161-3.72-.989-7.82-2.9-8.781-6.632-1.044-4.118,2.26-7.908,3.91-11.827,3.115-7.395.421-16.523,4.525-23.409.924-1.581,2.209-2.977,2.912-4.677a28.092,28.092,0,0,0,1.114-4.936,16.267,16.267,0,0,1,.6-2.135c-.776.213-1.562.407-2.311.656a18.441,18.441,0,0,0-12.146,13.5,27.3,27.3,0,0,1-1.114,4.936,38.446,38.446,0,0,1-2.912,4.677c-4.1,6.886-1.41,16.023-4.525,23.409-1.65,3.919-4.954,7.709-3.91,11.827.952,3.734,5.052,5.643,8.781,6.632.439,2.542-.462,4.335-2.311,6.161,15.511,6.373,32.149,12.881,48.6,9.622,5.643-1.114,11.138-3.374,16.888-3.281,4.081.065,8.116,1.322,12.188,1.035,8.592-.605,16.481-7.949,24.8-5.745-2.51.171-3.439,3.841-1.96,5.879s4.2,2.69,6.706,2.93,5.158.259,7.33,1.534c-1.645,3.425-7.538,4.622-6.969,8.389a5.517,5.517,0,0,0,2.4,3.235c11.208,8.583,26.644,7.76,40.671,9.243,10.343,1.082,20.484,3.61,30.795,4.959,16.472,2.149,33.17,1.271,49.753.383,3.009-.162,6.383-.494,8.319-2.805,2.01-2.413,1.571-5.731,1.132-8.98C519.381,680.209,504.18,680.768,489.173,678.809Z" transform="translate(-287.197 -553.037)"/>
    <path id="Pfad_173" data-name="Pfad 173" d="M350.773,540.709a17.828,17.828,0,0,1,6.3-3.623c2-.647,4.16-.957,5.93-2.057s3.129-3.36,2.311-5.3c-1.123-2.685-5.491-3.087-6.105-5.939a4.132,4.132,0,0,1,1.322-3.563L348.1,530.86c-1.511,1.294-3.175,3-2.773,4.945C345.87,538.245,349.133,538.9,350.773,540.709Z" transform="translate(-318.429 -520.23)"/>
  </g>
  <path id="Pfad_174" data-name="Pfad 174" class="cls-14" d="M438.006,535.9a3.7,3.7,0,0,0,.462-2.408,1.881,1.881,0,0,0-1.71-1.548l.1-1.331a1.526,1.526,0,0,0-.023-.462.735.735,0,0,0-1.433.328,4.5,4.5,0,0,0-1.183-1.719,2.394,2.394,0,0,0-3.309.61,2.588,2.588,0,0,0,.647,3.365,1.215,1.215,0,0,0-1.433.633c-1.387,2.491.462,3.785,2.57,4.16C435,537.891,436.739,538.413,438.006,535.9Z" transform="translate(-272.205 -308.421)"/>
  <path id="Pfad_175" data-name="Pfad 175" class="cls-14" d="M584.033,729.9a3.7,3.7,0,0,0,.462-2.408,1.881,1.881,0,0,0-1.71-1.548l.1-1.331a1.528,1.528,0,0,0,0-.462.735.735,0,1,0-1.433.328,4.5,4.5,0,0,0-1.183-1.719,2.394,2.394,0,0,0-3.309.61,2.588,2.588,0,0,0,.647,3.365,1.216,1.216,0,0,0-1.433.633c-1.386,2.491.462,3.785,2.57,4.16C581.029,731.891,582.766,732.413,584.033,729.9Z" transform="translate(-350.755 -412.759)"/>
  <path id="Pfad_176" data-name="Pfad 176" class="cls-14" d="M684.033,538.9a3.7,3.7,0,0,0,.462-2.408,1.881,1.881,0,0,0-1.71-1.548l.1-1.331a1.524,1.524,0,0,0,0-.462.735.735,0,1,0-1.433.328,4.5,4.5,0,0,0-1.183-1.719,2.394,2.394,0,0,0-3.309.61,2.588,2.588,0,0,0,.647,3.365,1.216,1.216,0,0,0-1.433.633c-1.386,2.491.462,3.785,2.57,4.16C681.029,540.891,682.766,541.413,684.033,538.9Z" transform="translate(-404.538 -310.035)"/>
  <path id="Pfad_177" data-name="Pfad 177" class="cls-14" d="M704.889,534.319a3.7,3.7,0,0,0,1.784-1.678,1.877,1.877,0,0,0-.462-2.255l.855-1.026a1.505,1.505,0,0,0,.268-.4.736.736,0,1,0-1.354-.578,4.486,4.486,0,0,0,.051-2.085,2.394,2.394,0,0,0-3.041-1.446,2.584,2.584,0,0,0-1.447,3.1,1.22,1.22,0,0,0-1.53-.333c-2.579,1.206-1.849,3.323-.351,4.867C701.279,534.176,702.379,535.613,704.889,534.319Z" transform="translate(-416.7 -306.472)"/>
  <path id="Pfad_178" data-name="Pfad 178" class="cls-14" d="M487.025,550.054a3.7,3.7,0,0,0-2.412-.43,1.881,1.881,0,0,0-1.53,1.724l-1.331-.079a1.516,1.516,0,0,0-.462,0,.767.767,0,0,0-.522.883.758.758,0,0,0,.864.55,4.488,4.488,0,0,0-1.705,1.2,2.394,2.394,0,0,0,.647,3.3,2.588,2.588,0,0,0,3.355-.679,1.211,1.211,0,0,0,.647,1.423c2.5,1.354,3.781-.462,4.123-2.616C489.054,553.04,489.554,551.3,487.025,550.054Z" transform="translate(-299.036 -319.84)"/>
  <path id="Pfad_179" data-name="Pfad 179" class="cls-15" d="M487.025,550.054a3.7,3.7,0,0,0-2.412-.43,1.881,1.881,0,0,0-1.53,1.724l-1.331-.079a1.516,1.516,0,0,0-.462,0,.767.767,0,0,0-.522.883.758.758,0,0,0,.864.55,4.488,4.488,0,0,0-1.705,1.2,2.394,2.394,0,0,0,.647,3.3,2.588,2.588,0,0,0,3.355-.679,1.211,1.211,0,0,0,.647,1.423c2.5,1.354,3.781-.462,4.123-2.616C489.054,553.04,489.554,551.3,487.025,550.054Z" transform="translate(-299.036 -319.84)"/>
  <path id="Pfad_180" data-name="Pfad 180" class="cls-14" d="M574.355,618.592a3.747,3.747,0,0,0-.4-2.417,1.876,1.876,0,0,0-2.14-.864l-.37-1.285a1.556,1.556,0,0,0-.185-.462.736.736,0,1,0-1.234.8,4.465,4.465,0,0,0-1.7-1.211,2.4,2.4,0,0,0-2.9,1.715,2.588,2.588,0,0,0,1.765,2.935,1.216,1.216,0,0,0-1.128,1.086c-.462,2.815,1.719,3.4,3.841,3.013C572.22,621.485,574.022,621.365,574.355,618.592Z" transform="translate(-345.214 -353.997)"/>
  <path id="Pfad_181" data-name="Pfad 181" class="cls-15" d="M574.355,618.592a3.747,3.747,0,0,0-.4-2.417,1.876,1.876,0,0,0-2.14-.864l-.37-1.285a1.556,1.556,0,0,0-.185-.462.736.736,0,1,0-1.234.8,4.465,4.465,0,0,0-1.7-1.211,2.4,2.4,0,0,0-2.9,1.715,2.588,2.588,0,0,0,1.765,2.935,1.216,1.216,0,0,0-1.128,1.086c-.462,2.815,1.719,3.4,3.841,3.013C572.22,621.485,574.022,621.365,574.355,618.592Z" transform="translate(-345.214 -353.997)"/>
  <path id="Pfad_182" data-name="Pfad 182" class="cls-14" d="M694.355,527.592a3.749,3.749,0,0,0-.4-2.417,1.876,1.876,0,0,0-2.14-.864l-.37-1.285a1.561,1.561,0,0,0-.185-.462.736.736,0,0,0-1.234.8,4.465,4.465,0,0,0-1.7-1.211,2.4,2.4,0,0,0-2.9,1.715,2.588,2.588,0,0,0,1.766,2.935,1.216,1.216,0,0,0-1.128,1.086c-.462,2.815,1.719,3.4,3.841,3.013C692.219,530.485,694.022,530.365,694.355,527.592Z" transform="translate(-409.753 -305.055)"/>
  <path id="Pfad_183" data-name="Pfad 183" class="cls-15" d="M694.355,527.592a3.749,3.749,0,0,0-.4-2.417,1.876,1.876,0,0,0-2.14-.864l-.37-1.285a1.561,1.561,0,0,0-.185-.462.736.736,0,0,0-1.234.8,4.465,4.465,0,0,0-1.7-1.211,2.4,2.4,0,0,0-2.9,1.715,2.588,2.588,0,0,0,1.766,2.935,1.216,1.216,0,0,0-1.128,1.086c-.462,2.815,1.719,3.4,3.841,3.013C692.219,530.485,694.022,530.365,694.355,527.592Z" transform="translate(-409.753 -305.055)"/>
</svg>
