<svg xmlns="http://www.w3.org/2000/svg" width="689.5" height="366.767" viewBox="0 0 689.5 366.767">
  <defs>
    <style>
      .cls-1 {
        fill: #f2f2f2;
      }

      .cls-2 {
        fill: #cfcfcf;
      }

      .cls-3 {
        fill: #3f3d56;
      }

      .cls-4 {
        opacity: 0.1;
      }

      .cls-5 {
        fill: #00a5a5;
      }

      .cls-6, .cls-9 {
        fill: none;
        stroke-miterlimit: 10;
      }

      .cls-6 {
        stroke: #00a5a5;
        stroke-width: 6px;
      }

      .cls-7 {
        fill: #fbbebe;
      }

      .cls-8 {
        fill: #565171;
      }

      .cls-9 {
        stroke: #3f3d56;
        stroke-width: 4px;
      }
    </style>
  </defs>
  <g id="illustration" transform="translate(-0.011 -0.035)">
    <path id="Pfad_476" data-name="Pfad 476" class="cls-1" d="M435.267,509.737a23.4,23.4,0,0,1,2.867-3.807,5.494,5.494,0,0,1-.444.331,7.332,7.332,0,0,0-1.986,1.251,4.133,4.133,0,0,0-.715,1.688l-1.689,6.555c.331-.417.662-.828,1-1.238a11.587,11.587,0,0,1,.967-4.781Z" transform="translate(-198.26 -285.489)"/>
    <path id="Pfad_477" data-name="Pfad 477" class="cls-1" d="M674.8,514.079a7.5,7.5,0,0,1-.662,2.139,29.886,29.886,0,0,1-1.1,8.211,24.873,24.873,0,0,0-.7,3.437c-1.563,10.687-3.072,21.851-.4,32.207a3.881,3.881,0,0,1,1.013-1.655c1.761-2.165,2.457-4.993,2.98-7.734,2.748-14.435,1.986-29.174,1.324-43.92a4.893,4.893,0,0,0-1.444-1.093,13.418,13.418,0,0,1-.046,1.934A64.043,64.043,0,0,1,674.8,514.079Z" transform="translate(-278.39 -285.401)"/>
    <path id="Pfad_478" data-name="Pfad 478" class="cls-1" d="M534.612,508.713a6.761,6.761,0,0,0-.516-2.45,7.829,7.829,0,0,0-1.285-1.775l-1.43-1.629c-.728,17.3-2.278,34.637.94,51.568.523,2.741,1.218,5.569,2.98,7.734a3.88,3.88,0,0,1,1.013,1.655c2.649-10.336,1.159-21.52-.4-32.207a24.881,24.881,0,0,0-.7-3.437,32.835,32.835,0,0,1-.788-13.342A31.162,31.162,0,0,0,534.612,508.713Z" transform="translate(-231.053 -284.452)"/>
    <path id="Pfad_479" data-name="Pfad 479" class="cls-1" d="M549.16,454.688a45.284,45.284,0,0,1,4.178,10.449l.457,1.549c-.219-5.238-.324-10.469-.364-15.706-1.033.92-2.072,1.821-3.119,2.721Z" transform="translate(-237.404 -266.924)"/>
    <path id="Pfad_480" data-name="Pfad 480" class="cls-1" d="M563.2,684.868a35.432,35.432,0,0,0-.841-10.939c-.583-2.265-1.483-4.483-1.563-6.827a20.977,20.977,0,0,1,.569-4.635c2.721-13.839,3.893-28.4-.225-41.887-1.106-3.615-2.569-7.112-3.695-10.72a26.131,26.131,0,0,1-1.867,3.913,4.052,4.052,0,0,0-2.258-2.649,13.418,13.418,0,0,1-.046,1.933,64.062,64.062,0,0,1-.92,6.449,6.576,6.576,0,0,1-.814,2.364,5.5,5.5,0,0,1-2.132,1.761c.384.867.768,1.742,1.145,2.609l-2.761.848c1.814,3.973.3,8.5-.662,12.726-3.463,14.693-.344,30.386-1.986,45.238Z" transform="translate(-236.046 -320.602)"/>
    <path id="Pfad_481" data-name="Pfad 481" class="cls-1" d="M556.267,403.737a23.4,23.4,0,0,1,2.867-3.807,5.5,5.5,0,0,1-.444.331,7.33,7.33,0,0,0-1.986,1.251,4.131,4.131,0,0,0-.715,1.688l-1.688,6.555c.331-.417.662-.828,1-1.238A11.586,11.586,0,0,1,556.267,403.737Z" transform="translate(-239.14 -249.677)"/>
    <path id="Pfad_482" data-name="Pfad 482" class="cls-1" d="M655.614,402.713a6.759,6.759,0,0,0-.516-2.45,7.825,7.825,0,0,0-1.285-1.775l-1.43-1.629c-.715,17.03-2.225,34.114.808,50.8.536-1.8,1.079-3.6,1.616-5.41a55.165,55.165,0,0,1,3.185-8.661c-.311-2.649-.7-5.344-1.079-7.946a24.88,24.88,0,0,0-.7-3.437,32.835,32.835,0,0,1-.788-13.342A31.156,31.156,0,0,0,655.614,402.713Z" transform="translate(-271.935 -248.64)"/>
    <path id="Pfad_483" data-name="Pfad 483" class="cls-1" d="M613.015,602.28l-2.265,79.756,5.959-.066a249.147,249.147,0,0,1-1.43-29.234,40.836,40.836,0,0,0-.49-8.489c-.417-1.94-1.146-3.8-1.543-5.741a34.381,34.381,0,0,1-.444-7.052Z" transform="translate(-258.212 -318.041)"/>
    <path id="Pfad_484" data-name="Pfad 484" class="cls-1" d="M536.516,600.755c.093-.219.185-.437.271-.662.311-.808.589-1.622.848-2.443a.66.66,0,0,0-.053.093c-.523.861-1.093,1.688-1.682,2.5C536.112,600.411,536.317,600.577,536.516,600.755Z" transform="translate(-232.924 -316.477)"/>
    <path id="Pfad_485" data-name="Pfad 485" class="cls-1" d="M262.612,464.713a6.761,6.761,0,0,0-.516-2.45,7.827,7.827,0,0,0-1.285-1.775l-1.43-1.629c-.728,17.3-2.278,34.637.94,51.568.523,2.741,1.218,5.569,2.98,7.734a3.879,3.879,0,0,1,1.013,1.655c2.649-10.336,1.159-21.52-.4-32.207a24.888,24.888,0,0,0-.662-3.437,32.836,32.836,0,0,1-.788-13.342A31.158,31.158,0,0,0,262.612,464.713Z" transform="translate(-139.157 -269.586)"/>
    <path id="Pfad_486" data-name="Pfad 486" class="cls-1" d="M264.516,556.755c.093-.219.185-.437.271-.662.311-.808.589-1.622.848-2.443a.663.663,0,0,0-.053.093c-.523.861-1.093,1.688-1.682,2.5C264.112,556.411,264.317,556.577,264.516,556.755Z" transform="translate(-141.028 -301.611)"/>
    <path id="Pfad_487" data-name="Pfad 487" class="cls-1" d="M220.569,664.28q-.583,20.758-1.179,41.51l2.841-.033c-.424-1.761-1.053-3.47-1.417-5.251a34.379,34.379,0,0,1-.444-7.052Z" transform="translate(-125.99 -338.988)"/>
    <path id="Pfad_488" data-name="Pfad 488" class="cls-1" d="M278.075,713.977a5.5,5.5,0,0,1-2.132-1.775,6.575,6.575,0,0,1-.814-2.417,64.061,64.061,0,0,1-.92-6.449,13.432,13.432,0,0,1-.046-1.934,4.052,4.052,0,0,0-2.258,2.649A30.963,30.963,0,0,1,268.183,693c-.2.662-.4,1.391-.662,2.079-1.377,4.1-3.377,8.065-3.774,12.376a24.547,24.547,0,0,0,.662,7.727l13.15-.146A6.234,6.234,0,0,0,278.075,713.977Z" transform="translate(-140.954 -348.691)"/>
    <path id="Pfad_489" data-name="Pfad 489" class="cls-1" d="M298.48,691.66c.258.821.536,1.635.848,2.443.086.219.179.437.271.662.2-.179.4-.344.616-.51-.589-.808-1.159-1.635-1.682-2.5A.665.665,0,0,0,298.48,691.66Z" transform="translate(-152.711 -348.238)"/>
    <path id="Pfad_490" data-name="Pfad 490" class="cls-1" d="M427.567,691.087a82.191,82.191,0,0,1-1.9-11.991l-3.152-29.135c-.033-.252-.06-.51-.086-.761-.04.126-.073.252-.113.377a20.929,20.929,0,0,1-3.973,6.264c-1.583,1.934-3.562,3.933-5.887,3.364a6.323,6.323,0,0,1-2.523-1.556l-5.3-4.575c-1.046-.9-2.086-1.8-3.119-2.721-.046,6.39-.192,12.773-.523,19.156a13.821,13.821,0,0,1-1.225,5.887,67.487,67.487,0,0,1,3.218,18.765c.046,1.728,0,3.456-.053,5.185l15.521-.172h.093l11.674-.126A80.711,80.711,0,0,1,427.567,691.087Z" transform="translate(-186.932 -333.893)"/>
    <path id="Pfad_491" data-name="Pfad 491" class="cls-1" d="M400.194,608.518c.331.411.662.821,1,1.238l-1.688-6.555a4.132,4.132,0,0,0-.715-1.688,7.329,7.329,0,0,0-1.986-1.251,5.506,5.506,0,0,1-.444-.331,23.4,23.4,0,0,1,2.867,3.807A11.588,11.588,0,0,1,400.194,608.518Z" transform="translate(-185.78 -317.247)"/>
    <path id="Pfad_492" data-name="Pfad 492" class="cls-1" d="M430.745,564.949c.417,4.6.662,9.217.894,13.832s.47,9.111.7,13.667a67.536,67.536,0,0,1,2.45-10.4,13.821,13.821,0,0,1-1.225-5.886c-.331-6.383-.477-12.766-.523-19.156-1.013.907-2.039,1.794-3.072,2.649A37.235,37.235,0,0,1,430.745,564.949Z" transform="translate(-197.135 -302.747)"/>
    <path id="Pfad_493" data-name="Pfad 493" class="cls-1" d="M297.339,625.56c-1.563,10.687-3.072,21.851-.4,32.207a3.881,3.881,0,0,1,1.013-1.655c1.761-2.165,2.457-4.992,2.98-7.734,3.218-16.931,1.669-34.273.94-51.568l-1.41,1.629a7.826,7.826,0,0,0-1.324,1.808,6.76,6.76,0,0,0-.536,2.483,31.161,31.161,0,0,0,.205,6.085,32.836,32.836,0,0,1-.768,13.283A24.894,24.894,0,0,0,297.339,625.56Z" transform="translate(-151.695 -316.193)"/>
    <path id="Pfad_494" data-name="Pfad 494" class="cls-1" d="M658.819,693.28l5.191-.053c-2.768-15.945,1.225-33.061-2.536-49a49.722,49.722,0,0,1-1.51-7.608c-1.324,3.516-2.841,6.986-3.185,10.714-.6,6.443,2.43,12.614,3.556,18.99,1.549,8.787-.55,17.746-1.483,26.618C658.839,693.062,658.833,693.154,658.819,693.28Z" transform="translate(-273.737 -329.643)"/>
    <path id="Pfad_495" data-name="Pfad 495" class="cls-1" d="M919.753,672.625c-6.012-17.918,0-37.888-4.35-56.283-1-4.224-2.51-8.787-.662-12.727l-2.761-.848c.377-.867.762-1.741,1.146-2.609a6.852,6.852,0,0,1-1.483-1.02l-2.026,18.679a82.177,82.177,0,0,1-1.9,11.992c-1.146,4.4-3.006,8.608-4.337,12.945-3.556,11.627-3.165,24.049-1.251,36.12l19.864-.212C921.262,676.644,920.435,674.651,919.753,672.625Z" transform="translate(-356.168 -316.98)"/>
    <path id="Pfad_496" data-name="Pfad 496" class="cls-1" d="M914.42,441.387l.053-.185.238-.775a8.281,8.281,0,0,0-1.867-1.165,5.5,5.5,0,0,1-.444-.331C913.056,439.764,913.791,440.539,914.42,441.387Z" transform="translate(-360.125 -262.853)"/>
    <path id="Pfad_497" data-name="Pfad 497" class="cls-1" d="M814.48,530.66c.258.821.536,1.635.848,2.443.086.219.179.437.271.662.2-.179.4-.344.616-.51-.589-.808-1.159-1.635-1.682-2.5A.671.671,0,0,0,814.48,530.66Z" transform="translate(-327.043 -293.844)"/>
    <path id="Pfad_498" data-name="Pfad 498" class="cls-1" d="M934.927,534.166c2.033-10.674,2.165-21.507,1.8-32.386a4.245,4.245,0,0,1-3.622,1.04l-.113-.033a28.3,28.3,0,0,1-.96,5.125,24.883,24.883,0,0,0-.7,3.437c-1.563,10.687-3.072,21.851-.4,32.207a3.881,3.881,0,0,1,1.013-1.655C933.709,539.734,934.4,536.907,934.927,534.166Z" transform="translate(-365.894 -284.087)"/>
    <path id="Pfad_499" data-name="Pfad 499" class="cls-1" d="M492.955,718.686q0-5.2.066-10.416-.152,5.2-.291,10.416Z" transform="translate(-218.339 -353.85)"/>
    <path id="Pfad_500" data-name="Pfad 500" class="cls-2" d="M765.587,250.619q-.662-3.741-1.569-7.356c-6.423-25.969-21.46-46.695-49-57.911q-3.543-1.443-7.363-2.649a125.205,125.205,0,0,0-17.719-4.238C632.171,168.8,583.6,173.4,539.808,182.113c-2.47.483-4.92.993-7.363,1.51-61.381,12.971-113.651,33.068-169.424,31.313-2.443-.073-4.9-.192-7.356-.351-24.314-1.616-49.4-7.568-76.26-20.229-31.75-14.958-64.036-9.932-93.164,7.88-16.441,10.038-31.876,24.155-45.642,41.053l-.046.053q-2.913,3.576-5.721,7.284C90.037,310.14,65.167,399.132,85.568,468.095q1.1,3.728,2.384,7.363a133.355,133.355,0,0,0,26.685,45.6,57.2,57.2,0,0,0,25.883,16.388c1.708.53,3.45.96,5.211,1.324a70.1,70.1,0,0,0-2.523-24.738c-1.324-4.357-3.192-8.542-4.337-12.945a82.189,82.189,0,0,1-1.9-11.991l-3.152-29.135a129.28,129.28,0,0,1-1.146-18.044,67.485,67.485,0,0,1,3.218-18.765,13.821,13.821,0,0,1-1.225-5.887c-.331-6.383-.477-12.766-.523-19.156-1.033.92-2.073,1.821-3.119,2.721l-5.33,4.6a6.323,6.323,0,0,1-2.523,1.556c-2.324.569-4.383-1.5-5.886-3.364a22.124,22.124,0,0,1-3.973-6.264,19.633,19.633,0,0,1-.722-6.727c.053-2.907.2-5.807.351-8.707l1.251-24.261c.238-4.635.477-9.23.894-13.832.3-3.311.722-6.674,2.423-9.5,3.2-5.3,10.058-7.145,16.289-6.694a2.337,2.337,0,0,1-.06-1.986,3.542,3.542,0,0,1,1.6-1.324l9.21-4.973a5.1,5.1,0,0,1,2.159-.761,2.543,2.543,0,0,1,1.179.245l1.781-1.245a4.494,4.494,0,0,1,1.324-.722,3.125,3.125,0,0,1,1.808.086,7.283,7.283,0,0,0,.761-2.874,10.237,10.237,0,0,0-.781-3.615,17.454,17.454,0,0,1-6.919-13.72c-1.986-1.112-4.542-1.735-5.35-4.079-.55-1.6.106-3.357-.119-5.019a4.085,4.085,0,0,1-.98-1.549c-.569-1.649.172-3.49-.132-5.211a7.643,7.643,0,0,1-.47-2.814,4.139,4.139,0,0,1,1.046-1.768l6.509-7.707a17.01,17.01,0,0,1,4.893-4.45c4.728-2.43,10.389,0,15.7,0,1.781,0,3.622-.278,5.3.3a10.932,10.932,0,0,1,3.271,2.079l7.284,5.959c2.45,1.986,5.092,4.35,5.33,7.5a7.045,7.045,0,0,1-.411,2.814,7.284,7.284,0,0,1,1.5,3.748c.166,2.185-.894,4.277-2.112,6.1a32.213,32.213,0,0,1-6.621,7.178,17.487,17.487,0,0,1-4.191,8.436,54.878,54.878,0,0,0,1.88,6.814.89.89,0,0,1,.046.119,3.311,3.311,0,0,1,1.722.6,9.323,9.323,0,0,1,1.43,1.324,2.079,2.079,0,0,1,.967-.808,4,4,0,0,1,3.039.49,31.209,31.209,0,0,1,8.27,4.86,10.6,10.6,0,0,1,2.159,2.735,13.627,13.627,0,0,1,9.5,2.2c5.006,3.43,7.065,9.694,8.807,15.508q1.947,6.529,3.9,13.044c1.708,5.708,3.43,11.482,3.827,17.428.364,5.41-.377,10.826-1.119,16.2-1.026,7.436,1.391,15.587,1.424,23.089,0,1.927,0,3.88-.046,5.827a13.667,13.667,0,0,1,9.038-1.914,10.594,10.594,0,0,1,2.159-2.735,31.569,31.569,0,0,1,8.27-4.86,4,4,0,0,1,3.039-.49,2.079,2.079,0,0,1,.967.808,9.326,9.326,0,0,1,1.43-1.324,3.311,3.311,0,0,1,1.722-.6.887.887,0,0,1,.046-.119,54.882,54.882,0,0,0,1.881-6.814,17.487,17.487,0,0,1-4.191-8.436,32.214,32.214,0,0,1-6.621-7.178c-1.218-1.821-2.278-3.913-2.112-6.1a7.284,7.284,0,0,1,1.5-3.748,7.045,7.045,0,0,1-.411-2.814c.238-3.152,2.88-5.509,5.33-7.5l7.284-5.959a10.932,10.932,0,0,1,3.271-2.079c1.682-.576,3.523-.3,5.3-.3,5.3,0,10.972-2.417,15.7,0a16.841,16.841,0,0,1,4.893,4.45l6.595,7.714a4.138,4.138,0,0,1,1.046,1.768,7.781,7.781,0,0,1-.47,2.814c-.3,1.722.437,3.562-.132,5.211a4.085,4.085,0,0,1-.98,1.549c-.225,1.662.43,3.423-.119,5.019-.808,2.344-3.35,2.966-5.35,4.079a17.454,17.454,0,0,1-6.919,13.72,10.237,10.237,0,0,0-.781,3.615,7.284,7.284,0,0,0,.761,2.874,3.125,3.125,0,0,1,1.808-.086,4.5,4.5,0,0,1,1.324.722l1.781,1.245a2.543,2.543,0,0,1,1.179-.245,5.1,5.1,0,0,1,2.159.762l9.191,4.92a5.843,5.843,0,0,1,1.126.748c.073-1.781.152-3.569.245-5.35l1.251-24.261c.238-4.635.477-9.23.894-13.832.3-3.311.722-6.674,2.423-9.5,3.2-5.3,10.058-7.145,16.289-6.694a2.337,2.337,0,0,1-.06-1.986,3.543,3.543,0,0,1,1.6-1.324l9.184-4.966a5.1,5.1,0,0,1,2.159-.761,2.543,2.543,0,0,1,1.179.245l1.781-1.245a4.5,4.5,0,0,1,1.324-.722,3.125,3.125,0,0,1,1.808.086,7.284,7.284,0,0,0,.761-2.874,10.237,10.237,0,0,0-.781-3.615,17.454,17.454,0,0,1-6.919-13.72c-1.986-1.112-4.542-1.735-5.35-4.079-.55-1.6.106-3.357-.119-5.019a4.086,4.086,0,0,1-.98-1.549c-.569-1.649.172-3.49-.132-5.211a16.739,16.739,0,0,1-.5-2.278,19.2,19.2,0,0,0-1.655,4.3c-.934,3.754-.768,7.688-1.324,11.508-.2,1.324-.576,2.741-1.7,3.443-.867.536-1.986.5-2.92.887a4.967,4.967,0,0,0-2.649,4.059,39.312,39.312,0,0,0,.046,5.072c0,4.43-2.126,9.012-5.992,11.17-5.092,2.841-11.415.96-16.918-.973a14.931,14.931,0,0,0,6.317-4.383l-6.059-1.205a38.839,38.839,0,0,0,9.667-6.376,8.217,8.217,0,0,0,2.463-3.231c.662-1.854.046-3.973.662-5.833,1.026-3.178,4.926-4.39,6.913-7.072,1.741-2.344,1.8-5.489,1.794-8.409l-.033-11.111c0-3.2.205-6.88,2.755-8.82,2.841-2.172,6.866-.934,10.442-.96,3.768,0,7.356-1.563,11.1-1.986,3.536-.411,9.436,2.073,9.336,4.873a40.643,40.643,0,0,0,5.959.622c1.781,0,3.622-.278,5.3.3a10.932,10.932,0,0,1,3.271,2.079l7.284,5.959c2.45,1.986,5.092,4.35,5.3,7.5a7.045,7.045,0,0,1-.411,2.814,7.284,7.284,0,0,1,1.5,3.748c.166,2.185-.894,4.277-2.112,6.1A32.214,32.214,0,0,1,360.6,329a17.487,17.487,0,0,1-4.191,8.436,54.881,54.881,0,0,0,1.88,6.814.891.891,0,0,1,.046.119,3.311,3.311,0,0,1,1.722.6,9.324,9.324,0,0,1,1.43,1.324,2.079,2.079,0,0,1,.967-.808,4,4,0,0,1,3.039.49,36.419,36.419,0,0,1,7.284,4.046v-.4c.053-2.907.2-5.807.351-8.707l1.251-24.261c.238-4.635.477-9.23.894-13.832.3-3.311.722-6.674,2.423-9.5,3.2-5.3,10.058-7.145,16.289-6.694a2.337,2.337,0,0,1-.06-1.986,3.543,3.543,0,0,1,1.6-1.324l9.244-5.006a5.1,5.1,0,0,1,2.159-.761,2.543,2.543,0,0,1,1.179.245l1.781-1.245a4.5,4.5,0,0,1,1.324-.722,3.126,3.126,0,0,1,1.808.086,7.284,7.284,0,0,0,.762-2.874,10.237,10.237,0,0,0-.781-3.615,17.454,17.454,0,0,1-6.919-13.72c-1.986-1.112-4.542-1.735-5.35-4.079-.55-1.6.106-3.357-.119-5.019a4.085,4.085,0,0,1-.98-1.549c-.569-1.649.172-3.49-.132-5.211a7.642,7.642,0,0,1-.47-2.814,4.138,4.138,0,0,1,1.046-1.768l6.509-7.707a17.009,17.009,0,0,1,4.893-4.45c4.728-2.43,10.389,0,15.7,0,1.781,0,3.622-.278,5.3.3a10.932,10.932,0,0,1,3.271,2.079l7.284,5.959c2.45,1.986,5.092,4.35,5.3,7.5a7.047,7.047,0,0,1-.411,2.814,7.284,7.284,0,0,1,1.5,3.748c.166,2.185-.894,4.277-2.112,6.1a32.211,32.211,0,0,1-6.621,7.178,17.487,17.487,0,0,1-4.191,8.436,54.888,54.888,0,0,0,1.881,6.814.887.887,0,0,1,.046.119,3.311,3.311,0,0,1,1.722.6,9.323,9.323,0,0,1,1.43,1.324,2.079,2.079,0,0,1,.967-.808,4,4,0,0,1,3.039.49,31.208,31.208,0,0,1,8.27,4.86,10.594,10.594,0,0,1,2.159,2.735,13.627,13.627,0,0,1,9.5,2.2c5.006,3.43,7.065,9.694,8.807,15.507q1.947,6.529,3.9,13.044c1.708,5.708,3.43,11.482,3.827,17.428a74.985,74.985,0,0,1-.98,15.143c.166-.172.331-.338.516-.5a31.57,31.57,0,0,1,8.27-4.86,4,4,0,0,1,3.039-.49,2.079,2.079,0,0,1,.967.808,9.319,9.319,0,0,1,1.43-1.324,3.311,3.311,0,0,1,1.722-.6.883.883,0,0,1,.046-.119,54.887,54.887,0,0,0,1.88-6.814,17.487,17.487,0,0,1-4.191-8.436,32.214,32.214,0,0,1-6.622-7.178c-1.218-1.821-2.278-3.913-2.112-6.1a7.283,7.283,0,0,1,1.5-3.748,7.046,7.046,0,0,1-.411-2.814c.238-3.152,2.88-5.509,5.3-7.5l7.284-5.959a10.931,10.931,0,0,1,3.271-2.079c1.682-.576,3.523-.3,5.3-.3a40.649,40.649,0,0,0,5.959-.622c-.1-2.8,5.8-5.3,9.336-4.873,3.741.43,7.337,1.986,11.1,1.986,3.576,0,7.6-1.212,10.442.96,2.549,1.94,2.761,5.622,2.755,8.82l-.033,11.111c0,2.92.053,6.065,1.794,8.409,1.894,2.556,5.516,3.774,6.741,6.622,1.5-3.847,3.523-7.416,6.873-9.714a13.627,13.627,0,0,1,9.5-2.2,10.594,10.594,0,0,1,2.159-2.735,31.57,31.57,0,0,1,8.27-4.86,4,4,0,0,1,3.039-.49,2.079,2.079,0,0,1,.967.808,9.324,9.324,0,0,1,1.43-1.324,3.311,3.311,0,0,1,1.722-.6.887.887,0,0,1,.046-.119,54.886,54.886,0,0,0,1.88-6.814,17.487,17.487,0,0,1-4.191-8.436,32.214,32.214,0,0,1-6.621-7.178c-1.218-1.821-2.278-3.913-2.112-6.1a7.284,7.284,0,0,1,1.5-3.748,7.045,7.045,0,0,1-.411-2.814c.238-3.152,2.88-5.509,5.3-7.5l7.284-5.959a10.931,10.931,0,0,1,3.271-2.079c1.682-.576,3.523-.3,5.3-.3a40.644,40.644,0,0,0,5.959-.622c-.1-2.8,5.8-5.3,9.336-4.873,3.741.43,7.337,1.986,11.1,1.986,3.576,0,7.6-1.212,10.442.96,2.549,1.94,2.761,5.622,2.754,8.82l-.033,11.111c0,2.92.053,6.065,1.794,8.409,1.986,2.682,5.887,3.893,6.913,7.072.6,1.874,0,3.973.662,5.834a8.218,8.218,0,0,0,2.635,3.284,38.368,38.368,0,0,0,4.734,3.655,7.885,7.885,0,0,1,1.251-2.437,7.045,7.045,0,0,1-.411-2.814c.238-3.152,2.88-5.509,5.3-7.5l7.284-5.959a10.932,10.932,0,0,1,3.271-2.079c1.682-.576,3.523-.3,5.3-.3,5.3,0,10.972-2.417,15.7,0a16.841,16.841,0,0,1,4.893,4.45l6.509,7.707A4.139,4.139,0,0,1,708,287.375a7.781,7.781,0,0,1-.47,2.814c-.3,1.722.437,3.562-.132,5.211a4.085,4.085,0,0,1-.98,1.549c-.225,1.662.43,3.423-.119,5.019-.808,2.344-3.35,2.966-5.35,4.079a17.454,17.454,0,0,1-6.919,13.72,10.234,10.234,0,0,0-.781,3.615,7.284,7.284,0,0,0,.761,2.874,3.125,3.125,0,0,1,1.808-.086,4.5,4.5,0,0,1,1.324.722l1.781,1.245a2.544,2.544,0,0,1,1.179-.245,5.1,5.1,0,0,1,2.159.761l9.191,4.92a3.542,3.542,0,0,1,1.6,1.324,2.337,2.337,0,0,1-.06,1.987c6.231-.45,13.091,1.4,16.289,6.694,1.7,2.827,2.125,6.218,2.424,9.5.417,4.6.662,9.217.894,13.832l1.251,24.261c.152,2.9.3,5.8.351,8.707a19.632,19.632,0,0,1-.722,6.727,20.928,20.928,0,0,1-3.973,6.264c-1.583,1.934-3.562,3.933-5.887,3.364a6.323,6.323,0,0,1-2.523-1.556l-5.33-4.575c-1.046-.9-2.086-1.8-3.119-2.721-.046,6.39-.192,12.773-.523,19.156a13.822,13.822,0,0,1-1.225,5.887,67.486,67.486,0,0,1,3.218,18.765,118.762,118.762,0,0,1-.874,15.56c.556-1.185,1.112-2.37,1.675-3.582C743.7,401.688,776.883,313.079,765.587,250.619Z" transform="translate(-78.34 -173.03)"/>
    <path id="Pfad_501" data-name="Pfad 501" class="cls-1" d="M163.028,465.2l-1.688,6.555c.331-.417.662-.828,1-1.238a11.587,11.587,0,0,1,.94-4.781,23.4,23.4,0,0,1,2.867-3.807,5.521,5.521,0,0,1-.444.331,7.331,7.331,0,0,0-1.986,1.251,4.131,4.131,0,0,0-.689,1.689Z" transform="translate(-106.378 -270.624)"/>
    <path id="Pfad_502" data-name="Pfad 502" class="cls-1" d="M775.194,507.518c.331.411.662.821,1,1.238l-1.688-6.555a4.131,4.131,0,0,0-.715-1.688,7.326,7.326,0,0,0-1.986-1.251,5.5,5.5,0,0,1-.444-.331,23.4,23.4,0,0,1,2.867,3.807,11.588,11.588,0,0,1,.967,4.781Z" transform="translate(-312.474 -283.124)"/>
    <path id="Pfad_503" data-name="Pfad 503" class="cls-1" d="M933.6,570.759c.2-.179.4-.344.616-.51-.589-.808-1.159-1.635-1.682-2.5a.648.648,0,0,0-.053-.093c.258.821.536,1.635.848,2.443C933.414,570.322,933.486,570.534,933.6,570.759Z" transform="translate(-366.909 -306.345)"/>
    <path id="Pfad_504" data-name="Pfad 504" class="cls-1" d="M673.48,590.66c.258.821.536,1.636.848,2.443.086.219.179.437.271.662.2-.179.4-.344.616-.51-.589-.808-1.159-1.635-1.682-2.5A.671.671,0,0,0,673.48,590.66Z" transform="translate(-279.405 -314.115)"/>
    <path id="Pfad_505" data-name="Pfad 505" class="cls-1" d="M755.771,387.606a17.454,17.454,0,0,1-6.919,13.72,10.239,10.239,0,0,0-.781,3.615,7.285,7.285,0,0,0,.761,2.874,3.126,3.126,0,0,1,1.808-.086,4.5,4.5,0,0,1,1.324.722l1.781,1.245a2.543,2.543,0,0,1,1.179-.245,5.1,5.1,0,0,1,2.159.761l9.191,4.92a3.542,3.542,0,0,1,1.6,1.324,2.337,2.337,0,0,1-.06,1.986,24.161,24.161,0,0,1,5.9.285,98.328,98.328,0,0,1,2.748-10.945,13.647,13.647,0,0,1-3.377-9.085,38.163,38.163,0,0,0,.046-5.072,4.976,4.976,0,0,0-2.649-4.059c-.947-.391-2.053-.351-2.92-.887-1.119-.7-1.5-2.132-1.7-3.443-.576-3.821-.411-7.754-1.324-11.508a19.2,19.2,0,0,0-1.655-4.3,16.721,16.721,0,0,1-.5,2.278c-.3,1.722.437,3.562-.132,5.211a4.085,4.085,0,0,1-.98,1.549c-.225,1.662.43,3.423-.119,5.019C760.313,385.871,757.77,386.494,755.771,387.606Z" transform="translate(-304.606 -239.372)"/>
    <path id="Pfad_506" data-name="Pfad 506" class="cls-1" d="M813.339,464.56c-1.563,10.687-3.072,21.851-.4,32.207a3.881,3.881,0,0,1,1.013-1.655c1.761-2.165,2.457-4.993,2.98-7.734,3.218-16.931,1.669-34.273.94-51.568l-1.41,1.629a7.828,7.828,0,0,0-1.324,1.808,6.76,6.76,0,0,0-.536,2.483,31.156,31.156,0,0,0,.205,6.085,32.835,32.835,0,0,1-.768,13.283A24.885,24.885,0,0,0,813.339,464.56Z" transform="translate(-326.027 -261.799)"/>
    <path id="Pfad_507" data-name="Pfad 507" class="cls-1" d="M787.576,557.926a4.059,4.059,0,0,1-3.384.867,6.323,6.323,0,0,1-2.523-1.556l-5.3-4.575c-1.046-.9-2.086-1.8-3.119-2.721-.046,6.39-.192,12.773-.523,19.156a13.82,13.82,0,0,1-1.225,5.886,67.484,67.484,0,0,1,3.218,18.765,133.792,133.792,0,0,1-1.145,18.044q-1.569,14.567-3.152,29.134a82.183,82.183,0,0,1-1.9,11.992c-.914,3.516-2.284,6.893-3.476,10.323l6.76-.073,8.608-.093h1.059l14.567-.159a.086.086,0,0,0,0-.04c1.126-6.376,4.158-12.581,3.556-18.99-.4-4.311-2.4-8.277-3.774-12.376-6.012-17.918,0-37.888-4.35-56.283-1-4.224-2.51-8.787-.662-12.727l-2.761-.848c.377-.867.761-1.741,1.146-2.609A6.823,6.823,0,0,1,787.576,557.926Z" transform="translate(-310.343 -300.358)"/>
    <path id="Pfad_508" data-name="Pfad 508" class="cls-1" d="M718.83,701.28q.04,6.714.086,13.428h.291Z" transform="translate(-294.727 -351.489)"/>
    <path id="Pfad_509" data-name="Pfad 509" class="cls-1" d="M977.83,678.28q.066,10.131.132,20.262l.437-.252Q978.108,688.292,977.83,678.28Z" transform="translate(-382.231 -343.718)"/>
    <path id="Pfad_510" data-name="Pfad 510" class="cls-1" d="M953.019,362.13l-1.119.225a14.565,14.565,0,0,0,2.079,1.987A11.075,11.075,0,0,1,953.019,362.13Z" transform="translate(-373.47 -236.906)"/>
    <path id="Pfad_511" data-name="Pfad 511" class="cls-1" d="M858.659,641.28l.2,29.174a34.4,34.4,0,0,1-.444,7.052c-.4,1.94-1.126,3.8-1.543,5.741a39.1,39.1,0,0,0-.49,8.489v1.715l3.754-.04Q859.4,667.349,858.659,641.28Z" transform="translate(-341.193 -331.217)"/>
    <path id="Pfad_512" data-name="Pfad 512" class="cls-1" d="M1034.194,484.518c.331.411.662.821,1,1.238l-1.689-6.555a4.13,4.13,0,0,0-.715-1.688,7.327,7.327,0,0,0-1.986-1.252q-.23-.154-.444-.331a23.4,23.4,0,0,1,2.867,3.807A11.588,11.588,0,0,1,1034.194,484.518Z" transform="translate(-399.978 -275.354)"/>
    <path id="Pfad_513" data-name="Pfad 513" class="cls-1" d="M896.771,327.606a17.454,17.454,0,0,1-6.919,13.72,10.236,10.236,0,0,0-.781,3.615,7.283,7.283,0,0,0,.761,2.874,3.125,3.125,0,0,1,1.808-.086,4.5,4.5,0,0,1,1.324.722l1.781,1.245a2.543,2.543,0,0,1,1.179-.245,5.1,5.1,0,0,1,2.159.761l9.191,4.92a3.543,3.543,0,0,1,1.6,1.324,2.338,2.338,0,0,1-.06,1.986c6.231-.45,13.091,1.4,16.289,6.694,1.7,2.827,2.125,6.218,2.423,9.5.053.609.1,1.212.146,1.814a34.776,34.776,0,0,1,7.661-4.344,4,4,0,0,1,3.039-.49,2.079,2.079,0,0,1,.967.808,9.319,9.319,0,0,1,1.43-1.324,3.31,3.31,0,0,1,1.722-.6.877.877,0,0,1,.046-.119,54.9,54.9,0,0,0,1.881-6.814,17.487,17.487,0,0,1-4.191-8.436,32.357,32.357,0,0,1-5.39-5.5c-4.946,1.6-10.323,2.715-14.759.238-3.867-2.159-5.959-6.741-5.959-11.17a38.173,38.173,0,0,0,.046-5.072,4.976,4.976,0,0,0-2.649-4.059c-.947-.391-2.053-.351-2.92-.887-1.119-.7-1.5-2.132-1.7-3.443-.576-3.821-.411-7.754-1.324-11.508a19.2,19.2,0,0,0-1.655-4.3,16.745,16.745,0,0,1-.5,2.278c-.3,1.722.437,3.562-.132,5.211a4.085,4.085,0,0,1-.98,1.549c-.225,1.662.43,3.423-.119,5.019C901.313,325.871,898.77,326.494,896.771,327.606Z" transform="translate(-352.243 -219.101)"/>
    <path id="Pfad_514" data-name="Pfad 514" class="cls-3" d="M247,346H612.11a12.5,12.5,0,0,1,12.5,12.5v43.92H234.5V358.515A12.5,12.5,0,0,1,247,346Z" transform="translate(-79.222 -116.885)"/>
    <path id="Pfad_515" data-name="Pfad 515" class="cls-4" d="M247,346H612.11a12.5,12.5,0,0,1,12.5,12.5v43.92H234.5V358.515A12.5,12.5,0,0,1,247,346Z" transform="translate(-79.222 -116.885)"/>
    <path id="Pfad_516" data-name="Pfad 516" class="cls-3" d="M585.728,423.32v81.894L570,505.387l-1.112.013-13.991.152h-.43l-9.806.106-17.838.2-58.587.636-8.217.086-16.136.179-.742.007-13.773.152-38.113.411-8.959.1-27.9.3V423.32Z" transform="translate(-119.731 -143.008)"/>
    <path id="Pfad_517" data-name="Pfad 517" class="cls-4" d="M585.728,423.32v81.894L570,505.387l-1.112.013-13.991.152h-.43l-9.806.106-17.838.2-58.587.636-8.217.086-16.136.179-.742.007-13.773.152-38.113.411-8.959.1-27.9.3V423.32Z" transform="translate(-119.731 -143.008)"/>
    <path id="Pfad_518" data-name="Pfad 518" class="cls-3" d="M234.5,422.71H624.611v9.634a12.932,12.932,0,0,1-12.932,12.932H248.226A13.726,13.726,0,0,1,234.5,431.55Z" transform="translate(-79.222 -142.802)"/>
    <ellipse id="Ellipse_85" data-name="Ellipse 85" class="cls-5" cx="27.81" cy="6.045" rx="27.81" ry="6.045" transform="translate(245.548 279.1)"/>
    <path id="Pfad_519" data-name="Pfad 519" class="cls-6" d="M487.439,553.648l-.55-28.784c-.119-6.436.113-13.733,4.9-18.044,3.026-2.721,7.568-3.893,9.469-7.489,1.033-1.986,1.053-4.284,1.046-6.5q0-19.6-.073-39.186" transform="translate(-216.358 -267.826)"/>
    <rect id="Rechteck_163" data-name="Rechteck 163" class="cls-5" width="12.899" height="24.989" rx="6.449" transform="translate(278.596 173.514)"/>
    <path id="Pfad_520" data-name="Pfad 520" class="cls-7" d="M608.548,490.737c-4.238-4.946-8.76-9.634-13.283-14.322l-9.171-9.515-8.33-8.641-40.08-41.57c-4.873-5.059-9.985-10.276-16.554-12.753s-15.07-1.371-19.05,4.423a8.363,8.363,0,0,0-1.53,6.363,10.683,10.683,0,0,0,3.635,5.4c7.813,7.138,18.355,10.3,27.684,15.3a32.808,32.808,0,0,1,8.489,6.079,42.246,42.246,0,0,1,5.3,7.529l23.433,39.1a54.352,54.352,0,0,0,4.953,7.284c1.5,1.761,3.211,3.311,4.794,5.013,3.741,3.973,6.681,8.681,10.277,12.813,5,5.761,11.177,10.356,17.3,14.9a8.1,8.1,0,0,0,4.2,1.986c2.059.106,3.841-1.324,5.383-2.695,2.51-2.218,7.608-5.4,8.985-8.489,1.212-2.735-.927-5.5-2.218-7.906a115.709,115.709,0,0,0-14.223-20.295Z" transform="translate(-220.942 -250.611)"/>
    <path id="Pfad_521" data-name="Pfad 521" class="cls-3" d="M643.415,712.26l-58.587.662-8.217.086-16.137.179h-.742l-13.773.152a70.809,70.809,0,0,1,4.661-11.587,44.873,44.873,0,0,1,4.231-6.622c2.953.265,5.9.5,8.853.742q10.263.8,20.527,1.463c17.322,1.139,34.61,2.119,51.992,3.668a5.752,5.752,0,0,1,3.311,1.006,5.369,5.369,0,0,1,1.212,1.841,37.519,37.519,0,0,1,2.669,8.409Z" transform="translate(-236.323 -349.411)"/>
    <path id="Pfad_522" data-name="Pfad 522" class="cls-7" d="M629.78,458.588c15.1-4.807,22.328-7.515,35.756-15.971-2.933.49,1.324-3.059-1.609-3.463s-5.887-1.854-7.383-4.423a14.762,14.762,0,0,1-1.516-5.549L653.6,418.7c.172,1.245-27.34,1.4-27.539,9.158-.106,4.052,2.774,8.681,3.523,12.693a52.555,52.555,0,0,1,.2,18.037Z" transform="translate(-263.383 -256.018)"/>
    <path id="Pfad_523" data-name="Pfad 523" class="cls-4" d="M629.78,458.588c15.1-4.807,22.328-7.515,35.756-15.971-2.933.49,1.324-3.059-1.609-3.463s-5.887-1.854-7.383-4.423a14.762,14.762,0,0,1-1.516-5.549L653.6,418.7c.172,1.245-27.34,1.4-27.539,9.158-.106,4.052,2.774,8.681,3.523,12.693a52.555,52.555,0,0,1,.2,18.037Z" transform="translate(-263.383 -256.018)"/>
    <path id="Pfad_524" data-name="Pfad 524" class="cls-8" d="M664.845,562.151c0,1.748,0,3.49-.086,5.231-.331,7.482-1.523,14.938-2.258,22.4-1.245,12.581-1.192,25.162-.96,37.776l-17.838.192-58.587.662-8.217.086-16.137.179c-.152-.358-.318-.709-.5-1.046a.126.126,0,0,0,0-.046c-2.132-4.138-6.006-7.019-9.33-10.316a23.837,23.837,0,0,1-4.125-5.105c7.284-12.541,13.978-25.6,18.772-39.3.662-1.821,1.232-3.662,1.986-5.463a28.1,28.1,0,0,1,1.689-3.589,46.755,46.755,0,0,0,3.509-6.085,20.275,20.275,0,0,0,1.02-6.019q.04-.616.06-1.232.119-2.649.1-5.238v-.4q0-3.145-.225-6.277c-.324-4.695-.947-9.409-.371-14.077,1.086-8.793,6.277-16.4,9.985-24.5.358-.768.7-1.53,1.02-2.3.5-1.192.953-2.41,1.391-3.635,2.5-7.058,4.344-14.514,8.913-20.255.384-.49.808-.973,1.238-1.443,1.92-2.053,4.264-3.847,5.4-6.416s1.463-5.833-1.265-6.489q1.914-1.364,3.642-2.556c8.919-6.131,14.633-8.985,26.486-11.594.258-.06.517-.106.775-.152a5.3,5.3,0,0,1,2.284,0,6.676,6.676,0,0,1,2.159,1.152c7.171,5.032,13.905,8.912,16.885,17.15,1.04,2.867,4.337,7.476,4.834,10.482,1.179,7.1,4.244,13.514,6.323,20.149a38.4,38.4,0,0,1,2.046,12.2c-.159,11.621-2.417,23.175-2.086,34.783q.06,1.887.192,3.768v.4c.119,1.748.285,3.5.444,5.238C664.388,554.351,664.8,558.231,664.845,562.151Z" transform="translate(-236.61 -264.908)"/>
    <path id="Pfad_525" data-name="Pfad 525" class="cls-7" d="M617.365,572.694v.252c-.152,2.443-.3,4.893-.516,7.343,0,.424-.073.854-.113,1.291-.093.927-.185,1.861-.3,2.788a1.223,1.223,0,0,1-.046.4c-.212,1.755-.47,3.5-.8,5.238s-.742,3.562-1.238,5.3c-1.132,3.927-2.7,7.721-3.973,11.607-.424,1.324-.821,2.649-1.152,3.973-.556,2.251-.927,4.536-1.583,6.754a53.764,53.764,0,0,1-3.43,8.138l-12.925,26.559q-3.516,7.217-7.032,14.428c-.192.4-.391.808-.589,1.218l-16.137.179h-.742c.086-.358.166-.7.245-1.053q1.874-8.124,3.741-16.242t3.668-16q1.324-5.853,2.695-11.7,1.47-6.436,2.96-12.885c.258-1.119.516-2.231.768-3.351,1.218-5.224,2.476-10.442,3.973-15.587.126-.444.265-.894.391-1.324.543-1.761,1.106-3.509,1.715-5.238.04-.139.086-.278.132-.4a108.828,108.828,0,0,1,5.178-12.462c.04-.1.086-.179.132-.278h0c.55-1.112,1.132-2.212,1.728-3.311,1.324-2.39,2.45-5.694,5.41-6.171,2.649-.424,6.549,1.059,9.681,2.145h0c.854.3,1.635.556,2.331.748,1.986.55,4.158,1.258,5.191,3.039A7.889,7.889,0,0,1,617.365,572.694Z" transform="translate(-243.36 -304.459)"/>
    <path id="Pfad_526" data-name="Pfad 526" class="cls-4" d="M614.622,492.7c-3.311,3.37-5.224,7.893-6.668,12.409a89.562,89.562,0,0,0-3.258,40.5c.225,1.463.576,3.079,1.8,3.92,1.377.947,3.37.444,4.635-.7a10.889,10.889,0,0,0,2.49-4.317c1.079,2.563,2.218,5.2,4.238,7.118,4.191,3.973,10.912,3.761,15.753,6.919A393.665,393.665,0,0,0,651.239,516.4a23.426,23.426,0,0,0,1.622-6.84,15.962,15.962,0,0,0-1.185-6.171,24.355,24.355,0,0,0-15.892-14.236C629,487.185,619.84,487.43,614.622,492.7Z" transform="translate(-255.833 -279.438)"/>
    <path id="Pfad_527" data-name="Pfad 527" class="cls-8" d="M613.429,490.269c-3.311,3.37-5.224,7.9-6.674,12.409A89.482,89.482,0,0,0,603.5,543.2c.219,1.463.576,3.079,1.794,3.913,1.377.953,3.37.444,4.6-.662a10.93,10.93,0,0,0,2.49-4.317c1.086,2.563,2.218,5.2,4.238,7.125,4.191,3.973,10.912,3.761,15.759,6.913a393.844,393.844,0,0,0,17.62-42.159,22.974,22.974,0,0,0,1.622-6.833A15.891,15.891,0,0,0,650.443,501a24.372,24.372,0,0,0-15.892-14.236C627.784,484.76,618.627,485,613.429,490.269Z" transform="translate(-255.428 -278.621)"/>
    <circle id="Ellipse_86" data-name="Ellipse 86" class="cls-7" cx="28.208" cy="28.208" r="28.208" transform="translate(343.083 123.542)"/>
    <path id="Pfad_528" data-name="Pfad 528" class="cls-3" d="M596.041,365.763a11.872,11.872,0,0,1,6.933-3.867c-.238,2.867,2.192,5.3,4.807,6.516s5.555,1.6,8.131,2.867c4.6,2.265,8.085,7.251,13.2,7.436,1.774.06,3.973-.331,4.979,1.112a4.244,4.244,0,0,1,.583,2.126l.49,5.35c1.417.828,3.145-.139,4.741-.51a6.429,6.429,0,0,1,7.284,8.965A13.038,13.038,0,0,0,661.8,380.191a11.617,11.617,0,0,1-.51-3.311c.205-2.556,2.649-4.244,4.052-6.39,1.94-2.98,1.794-6.939.5-10.25s-3.589-6.112-5.847-8.853l-8.019-9.747c-3.7-4.489-8.1-9.35-13.905-9.647-4.112-.205-7.979,1.986-12.078,2.37-5.959.563-12.217-2.649-17.752-.4-3.973,1.609-6.33,5.562-8.436,9.27-1.761,3.092-3.542,6.244-4.277,9.72-1.2,5.655.5,11.554-.152,17.3Z" transform="translate(-252.919 -226.72)"/>
    <path id="Pfad_529" data-name="Pfad 529" class="cls-9" d="M105.22,633.5c1.324-.867,2.649-1.682,3.913-2.476.6-.371,1.185-.755,1.768-1.159a54.514,54.514,0,0,0,7.9-6.5c.172-.159.344-.338.516-.51l.119-.119A15.1,15.1,0,0,0,122.6,618.5c1.046-2.331,1.02-4.979.953-7.529q-.219-8.111-.662-16.223c-.113-2.086-.245-4.172-.384-6.257-.066-1.006-.139-1.986-.212-3.006" transform="translate(-87.418 -312.369)"/>
    <path id="Pfad_530" data-name="Pfad 530" class="cls-5" d="M136.041,580.216a9.27,9.27,0,0,0-4.635-7.615l-2.079,4.119.066-4.986a9.27,9.27,0,1,0,6.621,8.482Z" transform="translate(-91.561 -307.591)"/>
    <path id="Pfad_531" data-name="Pfad 531" class="cls-5" d="M116.045,665.34l-4.357,3.542q-3.046-4.635-5.668-9.5a7.506,7.506,0,0,1,.874-.086,9.27,9.27,0,0,1,9.151,6.045Z" transform="translate(-87.688 -337.3)"/>
    <path id="Pfad_532" data-name="Pfad 532" class="cls-5" d="M119.723,673.33a9.27,9.27,0,0,1-1.033,4.238,8.337,8.337,0,0,1-.556.94l-.6-.834c-.775-1.093-1.536-2.192-2.278-3.311Z" transform="translate(-90.81 -342.046)"/>
    <path id="Pfad_533" data-name="Pfad 533" class="cls-5" d="M108.554,643.025a9.27,9.27,0,0,1-2.947-18.2l-.053,3.827,2.106-4.165h0a9.27,9.27,0,0,1,9.714,8.853,9.164,9.164,0,0,1-.4,3.172,9.3,9.3,0,0,1-8.423,6.516Z" transform="translate(-85.236 -325.539)"/>
    <path id="Pfad_534" data-name="Pfad 534" class="cls-5" d="M142.71,620.353a9.27,9.27,0,1,1,4.112-17.388l-1.642,4.5,3.377-3.238a9.27,9.27,0,0,1,3,6.416,9.084,9.084,0,0,1-.232,2.556A9.27,9.27,0,0,1,142.71,620.353Z" transform="translate(-96.833 -317.886)"/>
    <path id="Pfad_535" data-name="Pfad 535" class="cls-4" d="M134.827,585.294c-2.145.238-4.231.907-6.383,1.04s-4.516-.384-5.88-2.059a29.334,29.334,0,0,1-1.715-3.019,6.622,6.622,0,0,0-2.344-2.2,9.27,9.27,0,1,0,17.375,6.165C135.529,585.234,135.178,585.254,134.827,585.294Z" transform="translate(-91.598 -310.193)"/>
    <path id="Pfad_536" data-name="Pfad 536" class="cls-4" d="M142.65,623.053a9.27,9.27,0,0,1-8.84-13.243,6.8,6.8,0,0,1,1.867,1.874,31.154,31.154,0,0,0,1.841,3.072c1.45,1.7,3.92,2.258,6.165,2.152s4.41-.735,6.621-.94c.311,0,.622-.053.94-.06A9.27,9.27,0,0,1,142.65,623.053Z" transform="translate(-96.773 -320.585)"/>
    <path id="Pfad_537" data-name="Pfad 537" class="cls-4" d="M108.581,645.814a9.27,9.27,0,0,1-8.913-13.084,7.49,7.49,0,0,1,1.986,1.887c.722,1.02,1.172,2.192,1.986,3.132,1.569,1.748,4.2,2.364,6.575,2.3s4.522-.616,6.807-.788a9.3,9.3,0,0,1-8.442,6.549Z" transform="translate(-85.263 -328.329)"/>
    <path id="Pfad_538" data-name="Pfad 538" class="cls-5" d="M119.892,679.73a8.344,8.344,0,0,1-.556.94l-.6-.834Z" transform="translate(-91.985 -344.208)"/>
  </g>
</svg>
