<svg xmlns="http://www.w3.org/2000/svg" xmlns:xlink="http://www.w3.org/1999/xlink" width="548.806" height="458.176" viewBox="0 0 548.806 458.176">
  <defs>
    <linearGradient id="linear-gradient" x1="0.5" y1="1" x2="0.5" gradientUnits="objectBoundingBox">
      <stop offset="0" stop-color="gray" stop-opacity="0.251"/>
      <stop offset="0.54" stop-color="gray" stop-opacity="0.122"/>
      <stop offset="1" stop-color="gray" stop-opacity="0.102"/>
    </linearGradient>
  </defs>
  <g id="Gruppe_30" data-name="Gruppe 30" transform="translate(0 0.003)">
    <path id="Pfad_184" data-name="Pfad 184" d="M304.56,49.3c16.048-14.284,41.237-17.212,64.168-16.075,72.019,3.582,137.027,38.347,193.262,77.677,20.36,14.235,40.4,29.579,53.614,49.186,26.92,39.913,18.921,95.2-18.481,128.083-12.729,11.185-28.156,19.778-43.995,27.365-28.161,13.515-58.548,24.365-90.511,27.469-22.788,2.2-45.863.412-68.525-2.659-63.305-8.6-125.435-27.59-177.533-60.069-22.843-14.245-44.374-31.958-53.79-54.993s-3.39-52.263,19.937-65.926c9.647-5.642,21.184-8.191,32.474-10.587,16.624-3.522,33.512-6.994,48.511-14.152,15.5-7.395,33.842-21.7,30.765-38.067C291.183,79.014,288.535,63.587,304.56,49.3Z" transform="translate(-126.654 -33.01)" fill="#00a5a5" opacity="0.1"/>
    <path id="Pfad_185" data-name="Pfad 185" d="M785.47,653.594s13.768-24.387,34.5-31.414a42.434,42.434,0,0,0,21.492-16.075A71.151,71.151,0,0,0,847.8,594.7" transform="translate(-409.17 -286.119)" fill="none" stroke="#535461" stroke-miterlimit="10" stroke-width="2"/>
    <path id="Pfad_186" data-name="Pfad 186" d="M911.7,578.092c-2.362,2.3-13.367,4.664-13.367,4.664s2.7-10.927,5.06-13.218a5.962,5.962,0,0,1,8.307,8.554Z" transform="translate(-460.027 -274.021)" fill="#00a5a5"/>
    <path id="Pfad_187" data-name="Pfad 187" d="M900.065,612.792c-3.23.643-13.735-3.346-13.735-3.346s8.208-7.691,11.433-8.351a5.962,5.962,0,1,1,2.324,11.7Z" transform="translate(-454.619 -288.948)" fill="#00a5a5"/>
    <path id="Pfad_188" data-name="Pfad 188" d="M861.725,651.962c-3.115-1.1-10.185-9.834-10.185-9.834s10.988-2.505,14.086-1.428a5.961,5.961,0,1,1-3.9,11.262Z" transform="translate(-438.942 -306.726)" fill="#00a5a5"/>
    <path id="Pfad_189" data-name="Pfad 189" d="M822.636,674.174c-3.247-.549-11.7-7.971-11.7-7.971s10.389-4.329,13.636-3.791a5.961,5.961,0,1,1-1.939,11.762Z" transform="translate(-420.647 -316.61)" fill="#00a5a5"/>
    <path id="Pfad_190" data-name="Pfad 190" d="M869.59,595.965c0,3.3,5.955,12.839,5.955,12.839s5.966-9.543,5.966-12.834a5.961,5.961,0,0,0-11.922,0Z" transform="translate(-447.076 -284.005)" fill="#00a5a5"/>
    <path id="Pfad_191" data-name="Pfad 191" d="M825.435,621.3c.989,3.142,9.526,10.471,9.526,10.471s2.835-10.894,1.851-14.037a5.962,5.962,0,0,0-11.378,3.565Z" transform="translate(-427.055 -294.613)" fill="#00a5a5"/>
    <path id="Pfad_192" data-name="Pfad 192" d="M786.5,654.008c.44,3.263,7.62,11.933,7.62,11.933s4.637-10.257,4.2-13.52a5.962,5.962,0,1,0-11.817,1.588Z" transform="translate(-409.608 -309.799)" fill="#00a5a5"/>
    <path id="Pfad_193" data-name="Pfad 193" d="M911.7,578.092c-2.362,2.3-13.367,4.664-13.367,4.664s2.7-10.927,5.06-13.218a5.962,5.962,0,0,1,8.307,8.554Z" transform="translate(-460.027 -274.021)" opacity="0.25"/>
    <path id="Pfad_194" data-name="Pfad 194" d="M900.065,612.792c-3.23.643-13.735-3.346-13.735-3.346s8.208-7.691,11.433-8.351a5.962,5.962,0,1,1,2.324,11.7Z" transform="translate(-454.619 -288.948)" opacity="0.25"/>
    <path id="Pfad_195" data-name="Pfad 195" d="M861.725,651.962c-3.115-1.1-10.185-9.834-10.185-9.834s10.988-2.505,14.086-1.428a5.961,5.961,0,1,1-3.9,11.262Z" transform="translate(-438.942 -306.726)" opacity="0.25"/>
    <path id="Pfad_196" data-name="Pfad 196" d="M822.636,674.174c-3.247-.549-11.7-7.971-11.7-7.971s10.389-4.329,13.636-3.791a5.961,5.961,0,1,1-1.939,11.762Z" transform="translate(-420.647 -316.61)" opacity="0.25"/>
    <path id="Pfad_197" data-name="Pfad 197" d="M869.59,595.965c0,3.3,5.955,12.839,5.955,12.839s5.966-9.543,5.966-12.834a5.961,5.961,0,0,0-11.922,0Z" transform="translate(-447.076 -284.005)" opacity="0.25"/>
    <path id="Pfad_198" data-name="Pfad 198" d="M825.435,621.3c.989,3.142,9.526,10.471,9.526,10.471s2.835-10.894,1.851-14.037a5.962,5.962,0,0,0-11.378,3.565Z" transform="translate(-427.055 -294.613)" opacity="0.25"/>
    <path id="Pfad_199" data-name="Pfad 199" d="M786.5,654.008c.44,3.263,7.62,11.933,7.62,11.933s4.637-10.257,4.2-13.52a5.962,5.962,0,1,0-11.817,1.588Z" transform="translate(-409.608 -309.799)" opacity="0.25"/>
    <path id="Pfad_200" data-name="Pfad 200" d="M786.91,636.111s2.7-27.876,18.811-42.7A42.435,42.435,0,0,0,818.851,570a70.957,70.957,0,0,0,1.176-13" transform="translate(-409.819 -269.13)" fill="none" stroke="#535461" stroke-miterlimit="10" stroke-width="2"/>
    <path id="Pfad_201" data-name="Pfad 201" d="M856.16,533.088c-1.231,3.055-10.328,9.68-10.328,9.68s-1.956-11.087-.725-14.136a5.961,5.961,0,1,1,11.054,4.456Z" transform="translate(-435.86 -254.602)" fill="#00a5a5"/>
    <path id="Pfad_202" data-name="Pfad 202" d="M858.362,568.52c-2.692,1.9-13.932,2.511-13.932,2.511s4.4-10.367,7.071-12.262a5.962,5.962,0,0,1,6.862,9.752Z" transform="translate(-435.739 -269.438)" fill="#00a5a5"/>
    <path id="Pfad_203" data-name="Pfad 203" d="M836.955,619.966c-3.3.275-13.295-4.868-13.295-4.868s9.015-6.735,12.273-7.016a5.963,5.963,0,1,1,1,11.883Z" transform="translate(-426.379 -292.139)" fill="#00a5a5"/>
    <path id="Pfad_204" data-name="Pfad 204" d="M810.931,655.954c-3.187.824-13.921-2.549-13.921-2.549s7.741-8.169,10.927-8.993a5.96,5.96,0,1,1,2.994,11.538Z" transform="translate(-414.37 -308.433)" fill="#00a5a5"/>
    <path id="Pfad_205" data-name="Pfad 205" d="M822.45,567.68c1.329,3.011,10.647,9.339,10.647,9.339s1.588-11.141.253-14.152a5.96,5.96,0,1,0-10.9,4.824Z" transform="translate(-425.603 -270.175)" fill="#00a5a5"/>
    <path id="Pfad_206" data-name="Pfad 206" d="M792.353,608.734c2.17,2.472,12.949,5.714,12.949,5.714s-1.818-11.108-3.994-13.581a5.96,5.96,0,1,0-8.956,7.868Z" transform="translate(-411.603 -287.984)" fill="#00a5a5"/>
    <path id="Pfad_207" data-name="Pfad 207" d="M770,654.42c1.725,2.807,11.8,7.818,11.8,7.818s.082-11.251-1.648-14.059A5.961,5.961,0,0,0,770,654.42Z" transform="translate(-401.799 -308.937)" fill="#00a5a5"/>
    <ellipse id="Ellipse_29" data-name="Ellipse 29" cx="65.311" cy="10.949" rx="65.311" ry="10.949" transform="translate(140.252 436.274)" fill="#00a5a5" opacity="0.1"/>
    <ellipse id="Ellipse_30" data-name="Ellipse 30" cx="65.311" cy="10.949" rx="65.311" ry="10.949" transform="translate(268.802 352.224)" fill="#00a5a5" opacity="0.1"/>
    <path id="Pfad_208" data-name="Pfad 208" d="M607.835,397.76l-.06,2.137-3.714,131.039H597.82L600.88,399.9l.06-2.467Z" transform="translate(-269.388 -179.09)" fill="#b77b7f"/>
    <path id="Pfad_209" data-name="Pfad 209" d="M617.972,594.971l-4.675-.011-69.464-.148-3.7-.005,1.972-6.076h75.375Z" transform="translate(-243.392 -265.293)" fill="#dda2a6"/>
    <path id="Pfad_210" data-name="Pfad 210" d="M610.345,397.76l-.06,2.137H603.39l.06-2.467Z" transform="translate(-271.898 -179.09)" opacity="0.1"/>
    <rect id="Rechteck_82" data-name="Rechteck 82" width="11.575" height="4.357" transform="translate(329.503 215.466)" fill="#b77b7f"/>
    <path id="Pfad_211" data-name="Pfad 211" d="M544.448,588.73l-.615,6.082-3.7-.005,1.972-6.076Z" transform="translate(-243.392 -265.293)" opacity="0.1"/>
    <path id="Pfad_212" data-name="Pfad 212" d="M547.552,392.05l-.192,1.89L531.95,545.921l-7.06-.335L541.13,393.94l.181-1.725Z" transform="translate(-236.524 -176.666)" fill="#dda2a6"/>
    <path id="Pfad_213" data-name="Pfad 213" d="M677.467,594.971l-4.675-.011-.632-6.23h4.813Z" transform="translate(-302.887 -265.293)" opacity="0.1"/>
    <path id="Pfad_214" data-name="Pfad 214" d="M676.682,545.586l-7.065.335-15.4-151.981-.192-1.89,6.236.165.181,1.725Z" transform="translate(-294.713 -176.666)" fill="#dda2a6"/>
    <rect id="Rechteck_83" data-name="Rechteck 83" width="155.673" height="149.267" transform="translate(256.342 65.54)" fill="#fff"/>
    <path id="Pfad_215" data-name="Pfad 215" d="M709.348,58.842V94.887h-6.071V58.842a3.038,3.038,0,1,1,6.071,0Z" transform="translate(-372.132 -43.225)" fill="#dda2a6"/>
    <rect id="Rechteck_84" data-name="Rechteck 84" width="6.076" height="3.28" transform="translate(331.141 48.383)" opacity="0.1"/>
    <path id="Pfad_216" data-name="Pfad 216" d="M709.806,124.348v11.9H699v-11.9a1.472,1.472,0,0,1,1.478-1.478h7.862a1.478,1.478,0,0,1,1.467,1.478Z" transform="translate(-370.205 -73.504)" fill="#dda2a6"/>
    <circle id="Ellipse_31" data-name="Ellipse 31" cx="2.296" cy="2.296" r="2.296" transform="translate(331.882 54.624)" opacity="0.1"/>
    <circle id="Ellipse_32" data-name="Ellipse 32" cx="2.296" cy="2.296" r="2.296" transform="translate(331.882 54.129)" fill="#b77b7f"/>
    <rect id="Rechteck_85" data-name="Rechteck 85" width="10.839" height="1.478" transform="translate(328.762 61.271)" opacity="0.1"/>
    <rect id="Rechteck_86" data-name="Rechteck 86" width="19.706" height="3.285" transform="translate(324.328 63.243)" opacity="0.1"/>
    <rect id="Rechteck_87" data-name="Rechteck 87" width="19.706" height="3.285" transform="translate(324.328 62.255)" fill="#dda2a6"/>
    <path id="Pfad_217" data-name="Pfad 217" d="M532.791,384h82.765a3.571,3.571,0,0,1,3.571,3.571v.78H529.22v-.78A3.571,3.571,0,0,1,532.791,384Z" transform="translate(-238.476 -173.039)" opacity="0.1"/>
    <path id="Pfad_218" data-name="Pfad 218" d="M554.631,392.215l6.241-.165-.192,1.89h-6.23Z" transform="translate(-249.845 -176.666)" opacity="0.1"/>
    <rect id="Rechteck_88" data-name="Rechteck 88" width="11.575" height="1.807" transform="translate(329.503 215.466)" opacity="0.1"/>
    <path id="Pfad_219" data-name="Pfad 219" d="M660.437,393.94h-6.225l-.192-1.89,6.236.165Z" transform="translate(-294.713 -176.666)" opacity="0.1"/>
    <path id="Pfad_220" data-name="Pfad 220" d="M532.791,385.77h82.765a3.571,3.571,0,0,1,3.571,3.571v.78H529.22v-.78a3.571,3.571,0,0,1,3.571-3.571Z" transform="translate(-238.476 -173.836)" fill="#dda2a6"/>
    <path id="Pfad_221" data-name="Pfad 221" d="M505.04,238.017c-1.247-.659-14.833-10.922-14.833-10.922l-21.926-13.9s-.115-.33-.324-.9c6.016-6.829,4.7-16.74-1.417-23.706-7.417-8.45-40.929-26.64-51.027-11.081-1.412,2.2-1.461,4.692-1.829,7.109a29.526,29.526,0,0,1-8,15.712c-3.362,3.555-7.774,6.829-9.708,10.85a.652.652,0,0,0-.055-.154,10.087,10.087,0,0,0-1.005,2.747c-.961,4.906,2.335,9.609,4.087,14.383a26.094,26.094,0,0,1,1.275,4.988c.044-.341.082-.676.121-1.016a31.9,31.9,0,0,1,.434,7.34c-12.169,2.478-12.174,23.294-12.174,23.294s-1.5,8.274-1.247,11.257.247,9.433.247,10.988-1.5,11.251-1.648,12.416a.285.285,0,0,1,0,.049c-.22,1.275-2.5,7.417,3.011,8.79.385.1.791.181,1.214.258.236,4.972.665,15.383.286,17.7,0,0,2.005,13.987,3.67,17.542a40.34,40.34,0,0,0,3.681,5.944,6.55,6.55,0,0,1-.846,2.412c-.852,1.225-.412,2.23,1.011,2.664-.049.423-.1.9-.165,1.439-.61,5.395-1.522,16.119.027,21.552,2.126,7.45,2.252,9.933,2.252,9.933a7.243,7.243,0,0,0,.879,3.472c.879,1.242,2.5,12.79,2.5,14.652s4.252,18.619,3,22.591-.247,9.559-.247,9.559-.753,9.807-1.648,11.916-1.253,36.122.121,44.934S407,508.967,407,508.967s-.874,8.07-.126,9.186S409,525.976,408,526.344s-1.5,3.1-1.5,3.1a27.678,27.678,0,0,0,1.709,2.324,9.356,9.356,0,0,1-1.126-.478c.4.549.989,1.329,1.72,2.2l-.687,8.927a1.494,1.494,0,0,0,1.1,1.566,12.565,12.565,0,0,0,12.427-3.494c6.252-6.329,8.378-5.461,9.5-9.307.121-.412.225-.819.313-1.2a4.055,4.055,0,0,0-5.752-4.516,29.092,29.092,0,0,0,.412-7.538c-.626-3.6-.5-13.031-.5-13.031l-.874-45.187s1.621-8.939,3.5-12.411,1.648-15.641,1.648-15.641l2.126-39.973,2-19.487s2-6.7,4.5.747c0,0-1.373,15.015-.747,18.619s1.5,21.1.874,24.948S435.273,441.464,437,446.8s3.648,11.8,3.263,13.916-1.648,47.912-1.648,47.912,3.379,8.79.879,11.669-.126,14.284-.126,14.284.3.214.819.511l-.071.95-.786,10.268a1.505,1.505,0,0,0,1.1,1.571,12.559,12.559,0,0,0,12.427-3.494c6.252-6.334,8.378-5.461,9.5-9.312.121-.412.225-.813.319-1.2a4.063,4.063,0,0,0-6.549-4.01l-.148.126a5.169,5.169,0,0,1-.489.368,2.368,2.368,0,0,1-.247.159c.626-2.835,1.538-7.691,1.1-9.966-.626-3.351.621-13.526.621-13.526s3.626-12.169,3.752-17.031l1-38.726s-.121-15.767.379-19.613,4.5-37.116,8.5-47.049c3.071-7.6,4.444-27.008,3.631-36.847-.044-.483-.088-.95-.143-1.384a14.508,14.508,0,0,0,5.395-9.642s-4.5-8.6-8.84-12.246-5.269-9.905-5.115-12.57a6.527,6.527,0,0,0-1.5-4.466s-2-6.455-3.335-7.115a1.044,1.044,0,0,1-.291-.22c-.906-.972-.209-3.752-.209-3.752v-.088c.159-.643,1.1-4.807.819-5.873-.335-1.154.165-6.62.165-6.62s3.17-9.433,2.67-16.883,6.5-6.785,6.5-6.785l21.629-.225h2.461a17.326,17.326,0,0,0,2.368-2.45c4.12-.489,12.454-2.044,13.388-6.593C511.462,244.807,506.292,238.682,505.04,238.017ZM404.832,306.888l.148-3.785c.511.439.852.72.852.72a5.922,5.922,0,0,1,.038,3.033,3.236,3.236,0,0,1-1.873,2.1,2.281,2.281,0,0,0-.3.159l-.209-2.137Zm78.452-66.475c-.917-.412-4-.33-5.593-.33a12.441,12.441,0,0,1-4.164-1.324c-.549-1.071-3.587-1.709-6.29-2.071-2.055-5.065-4.944-10-5.335-15.284a4.057,4.057,0,0,0-.027-.577l.313.549s12.592,8.032,14.009,10.438c1.1,1.835,6.389,5.933,8.84,7.768a2.522,2.522,0,0,1-1.346.9.741.741,0,0,1-.407-.071Z" transform="translate(-228.87 -95.382)" fill="url(#linear-gradient)"/>
    <path id="Pfad_222" data-name="Pfad 222" d="M506.9,827.212c-.093.385-.192.786-.313,1.192-1.1,3.846-3.2,2.956-9.34,9.235a12.3,12.3,0,0,1-12.235,3.472,1.483,1.483,0,0,1-1.1-1.56l.775-10.185.368-4.9s9.8,2.747,14.789-.742a5.922,5.922,0,0,0,.483-.368,1.505,1.505,0,0,0,.11-.11,4.005,4.005,0,0,1,6.461,3.967Z" transform="translate(-273.282 -388.691)" fill="#67647e"/>
    <path id="Pfad_223" data-name="Pfad 223" d="M450.9,820.212c-.093.385-.192.786-.313,1.192-1.1,3.846-3.2,2.956-9.34,9.235a12.3,12.3,0,0,1-12.235,3.472,1.483,1.483,0,0,1-1.1-1.56l.775-10.186.368-4.9s9.8,2.747,14.789-.742a5.912,5.912,0,0,0,.483-.368,1.516,1.516,0,0,0,.11-.11,4,4,0,0,1,6.461,3.967Z" transform="translate(-248.048 -385.536)" fill="#67647e"/>
    <path id="Pfad_224" data-name="Pfad 224" d="M439.938,826.838l.4,5.3c-5.626,5.62-12.323-2.747-14.284-5.494C431.209,829.3,439.938,826.838,439.938,826.838Z" transform="translate(-247.209 -390.635)" opacity="0.1"/>
    <path id="Pfad_225" data-name="Pfad 225" d="M499.7,828.194l.736-.489c-5.137,7.812-12.768,4.208-15.147,2.807l.368-4.9s9.8,2.747,14.789-.742C500.057,826.782,499.7,828.194,499.7,828.194Z" transform="translate(-273.904 -389.837)" opacity="0.1"/>
    <path id="Pfad_226" data-name="Pfad 226" d="M480.558,526.725c-3.945,9.85-7.884,42.852-8.378,46.7s-.368,19.459-.368,19.459l-.989,38.4c-.126,4.807-3.7,16.877-3.7,16.877s-1.231,10.1-.615,13.421-1.6,12.086-1.6,12.086l.736-.494c-6.159,9.34-15.888,2.34-15.888,2.34s-2.34-11.328.126-14.163-.863-11.576-.863-11.576,1.231-45.445,1.6-47.538-1.478-8.5-3.2-13.795.989-26.233,1.6-30.051-.247-21.184-.863-24.755.736-18.476.736-18.476c-2.461-7.389-4.434-.736-4.434-.736l-1.972,19.333-2.093,39.66s.247,12.086-1.6,15.52-3.45,12.312-3.45,12.312l.863,44.835s-.121,9.339.494,12.927-1.357,12.812-1.357,12.812c-6.895,16.245-17.97-1.368-17.97-1.368s.494-2.708,1.478-3.077-.368-7.021-1.1-8.131.121-9.114.121-9.114-.863-7.263-2.2-16.009-.983-42.489-.121-44.582,1.6-11.823,1.6-11.823-.983-5.543.247-9.488-2.956-20.563-2.956-22.415-1.6-13.3-2.461-14.531a7.266,7.266,0,0,1-.863-3.45s-.121-2.461-2.2-9.85c-1.527-5.395-.626-16.031-.027-21.388.214-1.983.4-3.247.4-3.247s70.634-11.455,73.452-8.867c.659.61,1.1,2.7,1.357,5.686C484.953,499.921,483.568,519.2,480.558,526.725Z" transform="translate(-239.115 -236.279)" fill="#444053"/>
    <path id="Pfad_227" data-name="Pfad 227" d="M491.34,662.328c.33,0,8.131.659,10.988.082S491.34,662.328,491.34,662.328Z" transform="translate(-276.63 -316.504)" opacity="0.1"/>
    <path id="Pfad_228" data-name="Pfad 228" d="M492.39,670.859s10.773,1.89,11.323.906S492.39,670.859,492.39,670.859Z" transform="translate(-277.103 -320.436)" opacity="0.1"/>
    <path id="Pfad_229" data-name="Pfad 229" d="M432.46,667.27s5.582.247,8.62,1.648S432.46,667.27,432.46,667.27Z" transform="translate(-250.098 -318.82)" opacity="0.1"/>
    <path id="Pfad_230" data-name="Pfad 230" d="M395.54,415.765s.9,17.157.412,20.2c0,0,1.967,13.877,3.609,17.4a50.3,50.3,0,0,0,5.175,7.966l4.846-34.062L408.429,415.6Z" transform="translate(-233.461 -205.413)" fill="#efb7b9"/>
    <circle id="Ellipse_33" data-name="Ellipse 33" cx="18.965" cy="18.965" r="18.965" transform="translate(194.02 94.256)" fill="#efb7b9"/>
    <path id="Pfad_231" data-name="Pfad 231" d="M460.1,254.69s-5.911,11.581-11.823,17,35.468,11.576,36.452,11.576-7.389-24.629-5.911-27.6S460.1,254.69,460.1,254.69Z" transform="translate(-256.964 -132.608)" fill="#efb7b9"/>
    <path id="Pfad_232" data-name="Pfad 232" d="M484.724,490.164a12.325,12.325,0,0,1-3.044,1.7c-7.548,2.956-15.762,7.06-21.344,5.422s-17.4,0-17.4,0-23.816-1.972-28.568-.824a9.311,9.311,0,0,1-4.944.126c.214-1.983.4-3.247.4-3.247s70.717-11.455,73.535-8.867C484.026,485.088,484.455,487.181,484.724,490.164Z" transform="translate(-239.716 -236.279)" opacity="0.1"/>
    <path id="Pfad_233" data-name="Pfad 233" d="M482.495,387.133s-.654,8.213-8.213,11.169-15.762,7.06-21.344,5.422-17.4,0-17.4,0-23.816-1.972-28.568-.824-7.23-.324-5.752-2.461,1.319-9.2,1.319-12.152-1.648-14.943-.17-17.08,2.791-10.345,5.747-11.663a3.219,3.219,0,0,0,1.846-2.082,5.956,5.956,0,0,0-.039-3.005s-.5-.412-1.187-1.022c-1.742-1.555-4.686-4.439-3.741-5.384,1.313-1.318,0-9.856,0-9.856s-3.121-6.565-1.967-9.026S393,313.73,393,313.73s0-22.327,13.465-23.316c0,0,9.526.33,10.674-3.939s8.7-6.735,8.7-6.735l17.245,3.78s15.267,3.3,18.064,1.313,4.944,2.626,4.944,2.626,9.521.494,10.5,2.467-3.115,21.179-3.115,21.179-6.9-.654-6.406,6.735-2.659,16.751-2.659,16.751-.494,5.417-.165,6.565c.308,1.06-.648,5.192-.8,5.829v.082s-.687,2.747.2,3.725a1.1,1.1,0,0,0,.286.22c1.319.654,3.3,7.06,3.3,7.06a6.5,6.5,0,0,1,1.478,4.434c-.159,2.632.824,8.867,5.093,12.482S482.495,387.133,482.495,387.133Z" transform="translate(-232.316 -144.192)" fill="#a36468"/>
    <path id="Pfad_234" data-name="Pfad 234" d="M406.567,375.912v.7l-.3,7.691s-10.1.819-15.6-.549-3.186-7.472-2.967-8.735a.2.2,0,0,0,0-.049c.159-1.154,1.648-10.757,1.648-12.317s0-7.966-.247-10.922,1.209-11.191,1.209-11.191l1.066-1.308,11.57,4.434Z" transform="translate(-229.628 -171)" fill="#a36468"/>
    <path id="Pfad_235" data-name="Pfad 235" d="M406.517,405.993l-.3,7.691s-10.1.819-15.6-.549-3.186-7.472-2.967-8.735Z" transform="translate(-229.605 -200.366)" opacity="0.1"/>
    <path id="Pfad_236" data-name="Pfad 236" d="M422.855,412.622a5.954,5.954,0,0,0-.038-3.005s-.5-.412-1.187-1.022c8.7-1.214,43.138-5.939,54.735-6.455v.082s-.687,2.747.2,3.725Z" transform="translate(-245.218 -199.348)" opacity="0.1"/>
    <path id="Pfad_237" data-name="Pfad 237" d="M518.839,432s2.137,12.086-5.829,16.339C513,448.361,517.526,442.367,518.839,432Z" transform="translate(-286.395 -212.803)" opacity="0.1"/>
    <path id="Pfad_238" data-name="Pfad 238" d="M428.72,460.967s19.228-3.3,22.992-.736S428.72,460.967,428.72,460.967Z" transform="translate(-248.413 -225.086)" opacity="0.1"/>
    <path id="Pfad_239" data-name="Pfad 239" d="M510.237,326.22s-2.956,12.152-.742,14.943S510.237,326.22,510.237,326.22Z" transform="translate(-284.44 -165.137)" opacity="0.1"/>
    <path id="Pfad_240" data-name="Pfad 240" d="M410.109,308.14s2.708,4.516,1.066,9.2S410.109,308.14,410.109,308.14Z" transform="translate(-239.982 -156.99)" opacity="0.1"/>
    <path id="Pfad_241" data-name="Pfad 241" d="M400,380.18s3.45,2.049,2.3,5.252S400,380.18,400,380.18Z" transform="translate(-235.471 -189.452)" opacity="0.1"/>
    <path id="Pfad_242" data-name="Pfad 242" d="M399.43,363.14s3.2,1.725,3.609,4.269S399.43,363.14,399.43,363.14Z" transform="translate(-235.214 -181.774)" opacity="0.1"/>
    <path id="Pfad_243" data-name="Pfad 243" d="M485.81,539.658s20.118,2.055,24.14-2.708C509.95,536.977,491.8,540.565,485.81,539.658Z" transform="translate(-274.138 -260.096)" opacity="0.1"/>
    <path id="Pfad_244" data-name="Pfad 244" d="M422.59,539.79s21.6,5.093,25.865,1.066C448.455,540.856,429.9,542.251,422.59,539.79Z" transform="translate(-245.65 -261.375)" opacity="0.1"/>
    <path id="Pfad_245" data-name="Pfad 245" d="M488.65,554s9.032,0,13.218.247S488.65,554,488.65,554Z" transform="translate(-275.418 -267.779)" opacity="0.1"/>
    <path id="Pfad_246" data-name="Pfad 246" d="M425.28,561s4.434,5.01,9.444,4.109S425.28,561,425.28,561Z" transform="translate(-246.862 -270.933)" opacity="0.1"/>
    <path id="Pfad_247" data-name="Pfad 247" d="M424.548,182.7c-1.39,2.159-1.439,4.659-1.8,7.054a29.4,29.4,0,0,1-7.878,15.591c-3.939,4.186-9.34,7.983-10.361,13.1-.967,4.857,2.313,9.532,4.032,14.284,4.532,12.466-1.8,25.541-3.642,38.407-.511,3.555.1,8.1,4.483,9.279,1.368.374,2.934.324,4.164.917,1.648.791,2.154,2.434,2.456,3.912a59.783,59.783,0,0,1,1.132,16.086c-.2,3.022-.418,6.5,2.439,8.576a14.427,14.427,0,0,0,4.73,1.89c4.5,1.214,10.317,2.2,13.35-.654,1.275-1.192,1.753-2.873,3.34-3.818,2.379-1.412,5.752-.456,8.746-.308a15.883,15.883,0,0,0,14.218-7.642c2.423-4.346,2.2-9.34,1.319-14.026s-2.45-9.34-2.56-14.1a8.186,8.186,0,0,1,1.055-4.785c1.829-2.829,6.087-4.115,9-6.34,5.455-4.175,5.439-11.015,3.456-16.74s-5.543-11.213-5.983-17.13a6.521,6.521,0,0,1,.808-4.137,16.79,16.79,0,0,1,3.3-3.1c7.961-6.724,7.021-17.767.439-25.327C467.5,185.314,434.492,167.267,424.548,182.7Z" transform="translate(-237.423 -97.744)" fill="#e3787d"/>
    <g id="Gruppe_29" data-name="Gruppe 29" transform="translate(166.662 104.37)" opacity="0.1">
      <path id="Pfad_248" data-name="Pfad 248" d="M409.347,270.128a31.281,31.281,0,0,0-1.258-14.806c-.868-2.384-2.126-4.752-3.044-7.142a10.309,10.309,0,0,0-.989,2.747c-.967,4.857,2.313,9.532,4.032,14.284A25.972,25.972,0,0,1,409.347,270.128Z" transform="translate(-403.882 -234.341)"/>
      <path id="Pfad_249" data-name="Pfad 249" d="M417.007,366.295a60,60,0,0,0-1.126-16.086c-.308-1.478-.813-3.115-2.461-3.906-1.231-.593-2.8-.549-4.164-.917a5.675,5.675,0,0,1-3.846-3.175c-.253,1.253-.472,2.5-.654,3.752-.511,3.554.1,8.1,4.483,9.279,1.368.368,2.934.319,4.164.912,1.648.791,2.154,2.434,2.461,3.912a60.885,60.885,0,0,1,1.055,7.428C416.958,367.086,416.98,366.69,417.007,366.295Z" transform="translate(-404.207 -276.713)"/>
      <path id="Pfad_250" data-name="Pfad 250" d="M473.924,379.5a15.865,15.865,0,0,1-14.224,7.642c-2.994-.154-6.367-1.1-8.741.308-1.588.939-2.071,2.626-3.346,3.818-3.033,2.829-8.851,1.868-13.35.654a14.6,14.6,0,0,1-4.73-1.89,5.934,5.934,0,0,1-2.335-3.791c.033,1.687,0,3.379-.1,5.065-.2,3.022-.418,6.5,2.439,8.581a14.588,14.588,0,0,0,4.73,1.884c4.5,1.214,10.317,2.2,13.35-.654,1.275-1.192,1.758-2.873,3.346-3.846,2.373-1.412,5.747-.456,8.741-.308a15.9,15.9,0,0,0,14.224-7.642c2.329-4.2,2.225-8.944,1.412-13.476A14.762,14.762,0,0,1,473.924,379.5Z" transform="translate(-414.295 -291.871)"/>
      <path id="Pfad_251" data-name="Pfad 251" d="M527.944,230.291a15.5,15.5,0,0,0-3.3,3.1,6.521,6.521,0,0,0-.808,4.137,22.012,22.012,0,0,0,1.132,5.274,21.939,21.939,0,0,1,2.994-2.659c5.384-4.543,6.691-11.065,4.944-17.152A15.679,15.679,0,0,1,527.944,230.291Z" transform="translate(-457.91 -222.99)"/>
      <path id="Pfad_252" data-name="Pfad 252" d="M520.2,306.647c-2.906,2.225-7.169,3.516-8.993,6.345a8.159,8.159,0,0,0-1.06,4.78,33,33,0,0,0,.7,5.714,5.29,5.29,0,0,1,.357-.643c1.824-2.829,6.087-4.115,8.993-6.34,4.983-3.813,5.4-9.845,3.928-15.223A11.406,11.406,0,0,1,520.2,306.647Z" transform="translate(-451.764 -258.269)"/>
    </g>
    <path id="Pfad_253" data-name="Pfad 253" d="M550.9,279.045s14.207-.736,15.438-6.73-3.846-12.086-5.087-12.729-14.636-10.839-14.636-10.839l-21.591-13.79s-10.345-29.667-12.636-18.311,6.653,26.436,6.653,26.436,12.394,7.966,13.789,10.345,9.938,8.62,9.938,8.62Z" transform="translate(-285.947 -114.594)" fill="#efb7b9"/>
    <path id="Pfad_254" data-name="Pfad 254" d="M568.9,307.234c-3.362,8.543-7.719,11.911-7.719,11.911h-2.423l-21.3.22L535,312.657l3.45-14.537,2.132.088a12.3,12.3,0,0,0,4.1,1.313c1.555,0,4.6-.082,5.494.324a.676.676,0,0,0,.4.06c.808-.082,1.648-1.291,1.648-1.291S572.265,298.7,568.9,307.234Z" transform="translate(-296.304 -152.475)" fill="#a36468"/>
    <path id="Pfad_255" data-name="Pfad 255" d="M581.654,307.622c-3.362,8.543-7.719,11.911-7.719,11.911h-2.423c1.264-3.384,3.928-10.328,4.944-11.933.994-1.516-7.928-5.291-13.147-7.329.808-.082,1.648-1.291,1.648-1.291S585.022,299.084,581.654,307.622Z" transform="translate(-309.061 -152.862)" opacity="0.1"/>
    <ellipse id="Ellipse_34" data-name="Ellipse 34" cx="24.272" cy="4.747" rx="24.272" ry="4.747" transform="translate(25.623 414.508)" fill="#00a5a5" opacity="0.1"/>
    <ellipse id="Ellipse_35" data-name="Ellipse 35" cx="17.679" cy="3.456" rx="17.679" ry="3.456" transform="translate(436.814 384.49)" fill="#00a5a5" opacity="0.1"/>
    <ellipse id="Ellipse_36" data-name="Ellipse 36" cx="17.679" cy="3.456" rx="17.679" ry="3.456" transform="translate(513.448 398.493)" fill="#00a5a5" opacity="0.1"/>
    <ellipse id="Ellipse_37" data-name="Ellipse 37" cx="17.679" cy="3.456" rx="17.679" ry="3.456" transform="translate(394.787 427.336)" fill="#00a5a5" opacity="0.1"/>
    <path id="Pfad_256" data-name="Pfad 256" d="M224.126,556.31s3.978,5.2-1.835,13.048-10.6,14.471-8.653,19.366c0,0,8.763-14.575,15.9-14.778S231.977,565.078,224.126,556.31Z" transform="translate(-151.295 -268.819)" fill="#00a5a5"/>
    <path id="Pfad_257" data-name="Pfad 257" d="M224.307,556.31a6.476,6.476,0,0,1,.813,1.648c6.961,8.18,10.669,15.811,3.978,16-6.23.176-13.707,11.323-15.5,14.136a5.191,5.191,0,0,0,.214.643s8.763-14.575,15.9-14.778S232.158,565.078,224.307,556.31Z" transform="translate(-151.476 -268.819)" opacity="0.1"/>
    <path id="Pfad_258" data-name="Pfad 258" d="M245.787,567.4c0,1.83-.2,3.3-.456,3.3s-.461-1.483-.461-3.3.258-.967.511-.967S245.787,565.552,245.787,567.4Z" transform="translate(-165.567 -273.288)" fill="#ffd037"/>
    <path id="Pfad_259" data-name="Pfad 259" d="M248.589,571.316c-1.6.874-3.005,1.406-3.126,1.181s1.1-1.1,2.686-1.989.972-.236,1.1,0S250.193,570.437,248.589,571.316Z" transform="translate(-165.83 -275.013)" fill="#ffd037"/>
    <path id="Pfad_260" data-name="Pfad 260" d="M187.545,556.31s-3.978,5.2,1.835,13.048,10.6,14.471,8.669,19.366c0,0-8.79-14.575-15.932-14.778S179.694,565.078,187.545,556.31Z" transform="translate(-135.705 -268.819)" fill="#00a5a5"/>
    <path id="Pfad_261" data-name="Pfad 261" d="M187.541,556.31a6.476,6.476,0,0,0-.813,1.648c-6.961,8.18-10.669,15.811-3.978,16,6.23.176,13.735,11.323,15.5,14.136a6.264,6.264,0,0,1-.209.643s-8.79-14.575-15.932-14.778S179.691,565.078,187.541,556.31Z" transform="translate(-135.702 -268.819)" opacity="0.1"/>
    <path id="Pfad_262" data-name="Pfad 262" d="M181.43,567.4c0,1.83.2,3.3.456,3.3s.461-1.483.461-3.3-.258-.967-.511-.967S181.43,565.552,181.43,567.4Z" transform="translate(-136.979 -273.288)" fill="#ffd037"/>
    <path id="Pfad_263" data-name="Pfad 263" d="M176.006,571.316c1.61.874,3.005,1.406,3.131,1.181s-1.1-1.1-2.692-1.989-.972-.236-1.1,0S174.4,570.437,176.006,571.316Z" transform="translate(-134.094 -275.013)" fill="#ffd037"/>
    <ellipse id="Ellipse_38" data-name="Ellipse 38" cx="41.561" cy="6.378" rx="41.561" ry="6.378" transform="translate(20.772 346.912)" fill="#00a5a5" opacity="0.1"/>
    <path id="Pfad_264" data-name="Pfad 264" d="M217.846,600.564l-.2,1.648-.28,2.291-.115.956-.28,2.3-.121.956-.28,2.291L213.4,637.065c-.286,2.329-4.087,4.142-8.68,4.142H188.223c-4.593,0-8.389-1.813-8.675-4.142L176.367,611l-.28-2.291-.115-.956-.286-2.3-.115-.956-.28-2.291-.2-1.648c-.159-1.319,1.9-2.428,4.494-2.428h33.8C215.951,598.136,218.011,599.245,217.846,600.564Z" transform="translate(-134.12 -287.664)" fill="#65617d"/>
    <path id="Pfad_265" data-name="Pfad 265" d="M117.269,572.5l-.275,2.3H75.165l-.275-2.3Z" transform="translate(-33.747 -257.98)" fill="#9d9cb5"/>
    <path id="Pfad_266" data-name="Pfad 266" d="M117.2,578.42l-.275,2.291H75.89l-.28-2.291Z" transform="translate(-34.071 -260.647)" fill="#9d9cb5"/>
    <path id="Pfad_267" data-name="Pfad 267" d="M117.127,584.33l-.28,2.291H76.61l-.28-2.291Z" transform="translate(-34.396 -263.311)" fill="#9d9cb5"/>
    <circle id="Ellipse_39" data-name="Ellipse 39" cx="17.306" cy="17.306" r="17.306" transform="translate(81.578 51.102)" fill="#00a5a5" opacity="0.1"/>
    <circle id="Ellipse_40" data-name="Ellipse 40" cx="10.713" cy="10.713" r="10.713" transform="translate(51.911 16.491)" fill="#00a5a5" opacity="0.1"/>
    <circle id="Ellipse_41" data-name="Ellipse 41" cx="6.593" cy="6.593" r="6.593" transform="translate(0 44.509)" fill="#00a5a5" opacity="0.1"/>
  </g>
</svg>
