<svg xmlns="http://www.w3.org/2000/svg" width="660.269" height="561.446" viewBox="0 0 660.269 561.446">
  <g id="Gruppe_47" data-name="Gruppe 47" transform="translate(0.009)">
    <ellipse id="Ellipse_44" data-name="Ellipse 44" cx="214.216" cy="41.76" rx="214.216" ry="41.76" transform="translate(6.169 477.925)" fill="#3f3d56"/>
    <path id="Pfad_270" data-name="Pfad 270" d="M222.022,723.335s-39.719-10.68-47.212-9.891,11.353-36.625,23.9-32.063,29.286,16.565,38.853-.387,14.933-26.077,26.587-25.165,27.794-7.293,39.441,0,19.828,16.287,35.914,15.9,31.336-36.881,43.864-22.28,27.554,27.956,39.332,23.1,25.219,2.444,35.976,10.657,29.588,4.563,36.757-1.825S508,670.431,523.231,671.328s63.654,11.863,81.588,25.52-23.309,31.026-43.036,31.026-23.309,5.475-40.345,13.688-44.854-4.562-64.551,9.126-44.854-7.3-78.881,0-26.9,17.331-46.625,10.053-12.551-10.053-41.242-11.863-60.065,4.563-62.757-7.3-20.6-14.6-31.367-18.251S222.022,723.335,222.022,723.335Z" transform="translate(-173.11 -213.703)" fill="#3f3d56"/>
    <path id="Pfad_271" data-name="Pfad 271" d="M870.805,592.776l1.547-.99.456-.294a15.119,15.119,0,0,1-1.547-29.464l-.077,6.233,3.426-6.782h0a15.127,15.127,0,0,1,15.815,14.408v.858a18.018,18.018,0,0,0,2.985-4.408c1.454-3.24,1.477-6.9,1.369-11.353-.232-8.816-.611-17.7-1.106-26.564A15.111,15.111,0,0,1,880.24,520.1a13.368,13.368,0,0,1,0-1.369v-.34a8.237,8.237,0,0,1,.139-1.307,2.006,2.006,0,0,1,0-.209c.054-.363.132-.719.217-1.075a1.836,1.836,0,0,1,.1-.394c.108-.387.224-.774.364-1.145.046-.124.093-.24.147-.363.108-.279.224-.549.348-.82.062-.139.124-.286.193-.425l.054-.108h0a15.135,15.135,0,0,1,17.787-7.672l-.1,8.112,3.387-6.7a15.1,15.1,0,0,1,7.548,12.373,14.836,14.836,0,0,1-.332,3.905h0a1.59,1.59,0,0,1-.085.317c-.023.108-.1.4-.155.6s-.147.5-.232.773-.124.371-.193.557-.224.526-.34.773c-.07.147-.131.3-.2.456-.193.387-.4.773-.627,1.144-.077.131-.17.255-.247.379-.163.247-.325.5-.5.773a3,3,0,0,1-.34.433c-.116.139-.333.417-.51.619s-.255.278-.386.418-.371.387-.572.572l-.395.371-.688.572-.356.279c-.364.263-.727.51-1.114.773l-.217.124a10.854,10.854,0,0,1-.982.534l-.433.193c-.271.124-.549.247-.835.348l-.495.178c-.278.1-.557.185-.843.263l-.51.131c-.309.077-.626.139-.943.193h-.062q.309,5.615.557,11.221A15.111,15.111,0,0,1,919.371,539l-2.668,7.331,5.5-5.282a15.073,15.073,0,0,1,4.887,10.44,14.855,14.855,0,0,1-.387,4.169,15.119,15.119,0,0,1-27.84,4.122v1.137c.1,3.929.224,8.816-1.732,13.147a26.709,26.709,0,0,1-5.568,7.517c-1.376,1.4-2.8,2.753-4.253,4.068a15.2,15.2,0,0,1-5.468,4.539q-3.6,2.769-7.439,5.189l-1.338.975c-1.438.9-2.915,1.81-4.362,2.761l.773-.062a15.126,15.126,0,0,1,14.886,9.844l-9.45,7.734,10.4-2.413a15.15,15.15,0,0,1-21.654,13.627c.24.286.472.58.7.874l1.376,1.717c6.187,7.8,7.865,15.188,4.818,20.826l-3.7-2c2.962-5.491-1.493-12.513-4.416-16.24-.441-.565-.9-1.129-1.353-1.694-3.929-4.88-8.383-10.417-8.275-17.207C852.887,603.873,862.824,597.718,870.805,592.776Z" transform="translate(-327.172 -181.575)" fill="#4dbf8e"/>
    <path id="Pfad_272" data-name="Pfad 272" d="M754.7,566.541l-2.374-1.485c-.232-.139-.456-.286-.681-.433a22.651,22.651,0,0,0,2.32-44.127l.116,9.334-5.127-10.154h-.062a22.651,22.651,0,0,0-23.68,21.576v1.284a27.059,27.059,0,0,1-4.478-6.612c-2.173-4.841-2.212-10.324-2.042-17.014.341-13.209.913-26.518,1.655-39.781A22.636,22.636,0,0,0,740.451,457.7v-2.567c-.046-.657-.108-1.307-.209-1.949a.654.654,0,0,0-.054-.317c-.093-.541-.209-1.075-.34-1.609-.047-.2-.093-.394-.147-.6-.163-.58-.333-1.145-.541-1.709-.062-.186-.139-.363-.217-.549-.162-.418-.333-.82-.518-1.222-.1-.217-.193-.425-.294-.634a1.575,1.575,0,0,1-.077-.162h0a22.636,22.636,0,0,0-19.14-12.373,22.9,22.9,0,0,0-7.455.9l.147,12.149-5.065-10.053a22.512,22.512,0,0,0-10.827,24.407h0a2.223,2.223,0,0,0,.124.472c.07.3.147.6.224.889s.232.773.356,1.121.186.557.294.828c.147.4.325.773.5,1.183.1.232.193.464.3.688.286.58.6,1.152.936,1.709.116.2.248.387.371.572a11.394,11.394,0,0,0,.773,1.114c.163.224.34.433.51.65s.5.626.773.928l.573.626q.417.441.858.858l.6.549c.333.294.68.58,1.036.851.178.139.348.286.534.425a19.929,19.929,0,0,0,1.655,1.114c.108.07.224.124.332.185.479.279.967.549,1.461.773l.658.294c.41.186.82.363,1.245.518.248.1.495.186.774.271.417.139.843.271,1.268.387l.773.2c.472.108.943.2,1.415.286h.093q-.48,8.4-.835,16.8a22.636,22.636,0,0,0-31.436-9.821l4.006,10.966-8.236-7.9a22.528,22.528,0,0,0-7.316,15.637,22.243,22.243,0,0,0,.572,6.241,22.636,22.636,0,0,0,41.644,6.187c0,.572,0,1.144-.054,1.709-.147,5.885-.34,13.2,2.591,19.736,1.987,4.431,5.189,8.019,8.344,11.244q3.093,3.155,6.373,6.094a22.665,22.665,0,0,0,8.174,6.805q5.414,4.138,11.152,7.734l2.4,1.485c2.15,1.338,4.362,2.715,6.527,4.137-.379,0-.773-.077-1.144-.093a22.644,22.644,0,0,0-22.3,14.74l14.145,11.515-15.567-3.6a22.675,22.675,0,0,0,32.48,20.4c-.356.433-.7.866-1.052,1.307-.7.866-1.392,1.724-2.065,2.575-9.211,11.67-11.77,22.736-7.215,31.181l5.552-2.993c-4.439-8.221,2.235-18.738,6.612-24.275.657-.843,1.338-1.686,2.026-2.536,5.885-7.308,12.551-15.6,12.373-25.76C781.523,583.168,766.652,573.973,754.7,566.541Z" transform="translate(-285.805 -165.648)" fill="#4dbf8e"/>
    <path id="Pfad_273" data-name="Pfad 273" d="M621.421,741.552s-26.765-7.084-31.808-6.566,7.648-24.237,16.1-21.221,19.736,10.966,26.177-.255,10.053-17.261,17.918-16.658,18.723-4.833,26.572,0,13.356,10.78,24.2,10.525,21.1-24.415,29.557-14.755,18.56,18.514,26.495,15.3,17.014,1.616,24.244,7.053,19.929,3.024,24.747-1.206,8.46-7.246,18.73-6.643,42.882,7.85,54.962,16.913-15.707,20.532-28.993,20.532-15.706,3.627-27.183,9.064-30.2-3.024-43.485,6.04-30.2-4.834-53.152,0-18.12,11.476-31.413,6.643-8.453-6.643-27.778-7.849-40.469,3.016-42.286-4.833-13.92-9.667-21.135-12.08S621.421,741.552,621.421,741.552Z" transform="translate(-267.256 -223.753)" fill="#3f3d56"/>
    <path id="Pfad_274" data-name="Pfad 274" d="M685.389,547.623l-10.363,31.761-.449,1.384-17.346,53.175-29.7,20.068L483.33,593.373,497,538.11l.727-2.908,7.316-29.58.016-.07L549.443,500Z" transform="translate(-109.553 -113.33)" fill="#f8ce6d"/>
    <path id="Pfad_275" data-name="Pfad 275" d="M691.751,547.623l-28.157,86.32-29.7,20.068,27.26-94.2L511.4,505.622l.016-.07L555.805,500Z" transform="translate(-115.915 -113.33)" opacity="0.1"/>
    <path id="Pfad_276" data-name="Pfad 276" d="M552.54,513.767l-2.39-1.454,23.958-2.513,102.638,36.285-2.892,1.516L572.6,511.9Z" transform="translate(-124.698 -115.551)" opacity="0.1"/>
    <path id="Pfad_277" data-name="Pfad 277" d="M679.031,589.7l-29.975,14.1L501.727,545.52,501,548.428l147.461,57.444,30.121-14.786" transform="translate(-113.558 -123.647)" opacity="0.1"/>
    <ellipse id="Ellipse_45" data-name="Ellipse 45" cx="5.158" cy="5.568" rx="5.158" ry="5.568" transform="translate(393.797 414.78) rotate(-72.75)" fill="#3f3d56"/>
    <ellipse id="Ellipse_46" data-name="Ellipse 46" cx="5.158" cy="5.568" rx="5.158" ry="5.568" transform="translate(523.649 465.058) rotate(-72.75)" fill="#3f3d56"/>
    <ellipse id="Ellipse_47" data-name="Ellipse 47" cx="5.158" cy="5.568" rx="5.158" ry="5.568" transform="translate(503.128 527.501) rotate(-72.75)" fill="#3f3d56"/>
    <ellipse id="Ellipse_48" data-name="Ellipse 48" cx="5.158" cy="5.568" rx="5.158" ry="5.568" transform="translate(377.91 475.11) rotate(-72.75)" fill="#3f3d56"/>
    <path id="Pfad_278" data-name="Pfad 278" d="M703.915,596.865c-.309,1.005-2.792,0-5.947-.99s-5.614-2.072-5.305-3.093,3.279-1.547,6.434-.565S704.232,595.86,703.915,596.865Z" transform="translate(-290.867 -201.394)" fill="#3f3d56"/>
    <ellipse id="Ellipse_49" data-name="Ellipse 49" cx="1.902" cy="5.429" rx="1.902" ry="5.429" transform="translate(417.999 390.444) rotate(-72.75)" fill="#3f3d56"/>
    <path id="Pfad_279" data-name="Pfad 279" d="M790.213,628.55c-.309,1.006-3.41.078-6.419-.858s-5.352-1.98-5.042-2.985,3.163-1.547,6.187-.642S790.538,627.53,790.213,628.55Z" transform="translate(-310.38 -208.626)" fill="#3f3d56"/>
    <path id="Pfad_280" data-name="Pfad 280" d="M872.965,658.207c-.348,1.129-3.643.147-6.836-.843s-5.676-2.127-5.329-3.256,3.4-1.817,6.6-.827S873.321,657.078,872.965,658.207Z" transform="translate(-328.976 -215.244)" fill="#3f3d56"/>
    <path id="Pfad_281" data-name="Pfad 281" d="M897.225,654.707c-.355,1.129-3.642.147-6.836-.843s-5.684-2.127-5.328-3.256,3.4-1.818,6.6-.828S897.573,653.578,897.225,654.707Z" transform="translate(-334.474 -214.451)" fill="#3f3d56"/>
    <path id="Pfad_282" data-name="Pfad 282" d="M909.811,647.722c-.355,1.129-3.093.325-5.707-.495s-4.64-1.81-4.323-2.939,2.954-1.965,5.592-1.145S910.159,646.593,909.811,647.722Z" transform="translate(-337.811 -212.98)" fill="#3f3d56"/>
    <path id="Pfad_283" data-name="Pfad 283" d="M829.624,618.634c-.279.9-3.094.07-5.769-.773s-4.818-1.786-4.532-2.684,2.838-1.415,5.545-.58S829.894,617.729,829.624,618.634Z" transform="translate(-319.576 -206.489)" fill="#3f3d56"/>
    <ellipse id="Ellipse_50" data-name="Ellipse 50" cx="1.902" cy="4.686" rx="1.902" ry="4.686" transform="translate(440.321 389.981) rotate(-72.75)" fill="#3f3d56"/>
    <path id="Pfad_284" data-name="Pfad 284" d="M781.757,663.39a4.888,4.888,0,0,0-2.243-5.692,4.972,4.972,0,0,0,1.013-1.8,24.429,24.429,0,0,1-8.239-12.047,12.754,12.754,0,0,1-10.54,1.063,4.887,4.887,0,0,0-3.122,3.189,1.4,1.4,0,0,1-.077.31l-.17.085a4.888,4.888,0,1,0-4.725,8.3,4.382,4.382,0,0,0,.773.17l.062,1.794,23.4,9.566-.155-1.546A4.9,4.9,0,0,0,781.757,663.39Z" transform="translate(-303.919 -213.112)" opacity="0.1"/>
    <path id="Pfad_285" data-name="Pfad 285" d="M774.571,684.529A4.9,4.9,0,0,1,769,687.074a4.781,4.781,0,0,1-.518,2,4.888,4.888,0,0,1-6.566,2.173,4.98,4.98,0,0,1-1.8-1.547,4.888,4.888,0,0,1-9.125-3.163,4.96,4.96,0,0,1-1.547-.479,4.887,4.887,0,0,1-2.173-6.558l.155-.286-.062-.178a4.832,4.832,0,0,1-2.034-.518,4.911,4.911,0,0,1,4.439-8.762,5.176,5.176,0,0,1,.657.394l1.284-1.245,23.54,9.412-1.183,1.005A4.887,4.887,0,0,1,774.571,684.529Z" transform="translate(-302.201 -218.893)" opacity="0.1"/>
    <path id="Pfad_286" data-name="Pfad 286" d="M763.611,654.511l-5.684,18.421a5.537,5.537,0,0,0,3.349,6.828h0a5.53,5.53,0,0,0,7.208-3.542l5.684-18.429a5.521,5.521,0,0,0-3.929-6.96h0A5.522,5.522,0,0,0,763.611,654.511Z" transform="translate(-305.609 -214.758)" opacity="0.1"/>
    <path id="Pfad_287" data-name="Pfad 287" d="M764.092,656.068l-5.158,16.519a4.949,4.949,0,0,0,3.009,6.117h0a4.957,4.957,0,0,0,6.457-3.178L773.527,659a4.965,4.965,0,0,0-3.526-6.28h0A4.965,4.965,0,0,0,764.092,656.068Z" transform="translate(-305.843 -215.193)" fill="#3f3d56"/>
    <path id="Pfad_288" data-name="Pfad 288" d="M669.061,752.483s-26.765-7.084-31.808-6.558,7.648-24.245,16.1-21.221,19.736,10.958,26.177-.263,10.054-17.253,17.918-16.65,18.723-4.833,26.572,0,13.356,10.773,24.2,10.518,21.1-24.415,29.565-14.748,18.56,18.506,26.495,15.3,17.013,1.616,24.237,7.053,19.937,3.016,24.747-1.207,8.453-7.254,18.723-6.651,42.882,7.857,54.961,16.913-15.7,20.54-28.992,20.54-15.7,3.619-27.175,9.056-30.207-3.016-43.493,6.04-30.2-4.826-53.152,0-18.119,11.477-31.405,6.651-8.461-6.651-27.786-7.857-40.469,3.024-42.278-4.833-13.882-9.659-21.136-12.08S669.061,752.483,669.061,752.483Z" transform="translate(-278.054 -226.232)" fill="#3f3d56"/>
    <path id="Pfad_289" data-name="Pfad 289" d="M969.589,713.669c2.32-4.261-.309-9.489-3.31-13.286s-6.666-7.733-6.589-12.6c.116-6.96,7.5-11.067,13.4-14.763a64.954,64.954,0,0,0,12.033-9.675,17.488,17.488,0,0,0,3.7-4.949c1.222-2.722,1.191-5.815,1.114-8.793q-.379-14.894-1.477-29.766" transform="translate(-351.397 -207.773)" fill="none" stroke="#3f3d56" stroke-miterlimit="10" stroke-width="4"/>
    <path id="Pfad_290" data-name="Pfad 290" d="M1005.059,616.107a10.827,10.827,0,0,0-5.413-8.894l-2.428,4.81.077-5.823a10.968,10.968,0,0,0-3.58-.433,10.827,10.827,0,1,0,11.353,10.34Z" transform="translate(-356.777 -204.581)" fill="#57b793"/>
    <path id="Pfad_291" data-name="Pfad 291" d="M980.377,709.5a10.827,10.827,0,1,1,.526-8.739l-6.782,5.545,7.463-1.724A10.834,10.834,0,0,1,980.377,709.5Z" transform="translate(-351.451 -224.516)" fill="#57b793"/>
    <path id="Pfad_292" data-name="Pfad 292" d="M976.046,680.521a10.827,10.827,0,0,1-3.433-21.29l-.054,4.47,2.451-4.864h0a10.827,10.827,0,0,1,11.368,10.332,10.713,10.713,0,0,1-.464,3.7A10.827,10.827,0,0,1,976.046,680.521Z" transform="translate(-352.48 -216.609)" fill="#57b793"/>
    <path id="Pfad_293" data-name="Pfad 293" d="M1010.22,657.866a10.827,10.827,0,1,1,4.8-20.316l-1.918,5.259,3.944-3.789a10.827,10.827,0,0,1,3.5,7.494,10.647,10.647,0,0,1-.271,2.993A10.826,10.826,0,0,1,1010.22,657.866Z" transform="translate(-360.306 -211.485)" fill="#57b793"/>
    <path id="Pfad_294" data-name="Pfad 294" d="M1003.612,620.74c-2.506.271-4.942,1.052-7.455,1.206s-5.274-.441-6.859-2.4a32.354,32.354,0,0,1-2.011-3.534,7.737,7.737,0,0,0-2.738-2.575,10.827,10.827,0,1,0,20.292,7.208Q1004.231,620.671,1003.612,620.74Z" transform="translate(-356.792 -206.322)" opacity="0.1"/>
    <path id="Pfad_295" data-name="Pfad 295" d="M1010.183,659.677a10.865,10.865,0,0,1-10.324-15.467,8.022,8.022,0,0,1,2.2,2.158,34.3,34.3,0,0,0,2.158,3.588c1.686,1.987,4.571,2.637,7.192,2.521s5.151-.866,7.733-1.106c.364,0,.773-.054,1.1-.062a10.827,10.827,0,0,1-10.053,8.368Z" transform="translate(-360.269 -213.296)" opacity="0.1"/>
    <path id="Pfad_296" data-name="Pfad 296" d="M976.111,682.4a10.827,10.827,0,0,1-10.394-15.281,8.751,8.751,0,0,1,2.32,2.2c.843,1.191,1.369,2.567,2.32,3.666,1.833,2.034,4.911,2.753,7.687,2.691s5.274-.719,7.942-.928A10.827,10.827,0,0,1,976.111,682.4Z" transform="translate(-352.545 -218.49)" opacity="0.1"/>
    <path id="Pfad_297" data-name="Pfad 297" d="M980.294,711.535a10.837,10.837,0,1,1-19.782-8.855,10.822,10.822,0,0,1,2.374,2.126,47.2,47.2,0,0,0,2.908,3.867c2.22,2.181,5.8,3.094,8.994,3.163a46.321,46.321,0,0,0,5.506-.3Z" transform="translate(-351.369 -226.549)" opacity="0.1"/>
    <path id="Pfad_298" data-name="Pfad 298" d="M951.32,733.464s8.569-.263,11.152-2.1,13.147-4.029,13.819-1.083,12.869,14.693,3.2,14.74-22.473-1.5-25.048-3.093S951.32,733.464,951.32,733.464Z" transform="translate(-349.5 -232.478)" fill="#656380"/>
    <path id="Pfad_299" data-name="Pfad 299" d="M979.693,745.346c-9.675.077-22.474-1.547-25.048-3.093-1.964-1.2-2.746-5.483-3.008-7.463h-.286s.541,6.914,3.093,8.507,15.374,3.147,25.049,3.093c2.792,0,3.751-1.013,3.7-2.482C982.786,744.774,981.75,745.323,979.693,745.346Z" transform="translate(-349.507 -233.827)" opacity="0.2"/>
    <path id="Pfad_300" data-name="Pfad 300" d="M374,257.252a3.488,3.488,0,0,1,.24-1.655c.626-1.114,2.266-.812,3.5-.495,4.98,1.253,10.224.116,15.343.41s10.9,2.854,11.925,7.88a37.315,37.315,0,0,0,9.458-9.721c1.423-2.127,2.66-4.563,2.467-7.115-.278-3.681-3.364-6.434-6.225-8.77l-8.507-6.96a12.772,12.772,0,0,0-3.82-2.428c-1.964-.673-4.114-.356-6.187-.356-6.187,0-12.814-2.815-18.336,0-2.32,1.183-4.037,3.209-5.707,5.189l-7.61,9.009a4.741,4.741,0,0,0-1.214,2.065c-.217,1.1.348,2.181.541,3.287.363,2.011-.51,4.153.162,6.086,1.106,3.209,5,3.666,7.378,5.5.889.688,2.281,3.008,3.333,2.985C372.627,262.14,373.942,258.73,374,257.252Z" transform="translate(-215.308 -118.685)" fill="#3f3d56"/>
    <path id="Pfad_301" data-name="Pfad 301" d="M377.061,290.6c-.085,2.506-1.547,4.733-2.954,6.813-1.879,2.768-3.867,5.645-6.836,7.192a65.688,65.688,0,0,0,48.55,5.12c2.606-.773,5.684-2.382,5.529-5.1-3.093-.843-6.295-1.717-8.924-3.581a19.478,19.478,0,0,1-6.55-9.28,104.286,104.286,0,0,1-2.954-11.159,2.1,2.1,0,0,0-.479-1.036,2.135,2.135,0,0,0-1.469-.387l-10.3-.186c-4.23,0-8.824-.1-12.752,1.694C373.031,282.936,377.2,286.439,377.061,290.6Z" transform="translate(-217.12 -130.518)" fill="#ffc0c6"/>
    <path id="Pfad_302" data-name="Pfad 302" d="M377.061,290.6c-.085,2.506-1.547,4.733-2.954,6.813-1.879,2.768-3.867,5.645-6.836,7.192a65.688,65.688,0,0,0,48.55,5.12c2.606-.773,5.684-2.382,5.529-5.1-3.093-.843-6.295-1.717-8.924-3.581a19.478,19.478,0,0,1-6.55-9.28,104.286,104.286,0,0,1-2.954-11.159,2.1,2.1,0,0,0-.479-1.036,2.135,2.135,0,0,0-1.469-.387l-10.3-.186c-4.23,0-8.824-.1-12.752,1.694C373.031,282.936,377.2,286.439,377.061,290.6Z" transform="translate(-217.12 -130.518)" opacity="0.1"/>
    <path id="Pfad_303" data-name="Pfad 303" d="M364.3,747.086c-2.537,3.867-5.854,7.138-8.638,10.827s-5.112,7.989-5.143,12.605a2,2,0,0,0,.534,1.624,2.088,2.088,0,0,0,1.059.333l10.749,1.377a18.032,18.032,0,0,0,4.949.17,17.557,17.557,0,0,0,5.073-1.848,7,7,0,0,0,3.047-2.32c.518-.851.657-1.895,1.152-2.761,1.492-2.622,5.251-2.506,8.236-2.049.858-7.973-1.346-15.923-3.534-23.641a2.42,2.42,0,0,0-2-2.073c-2.575-.843-8.8-4.145-10.966-2.6C367.235,737.875,365.58,745.036,364.3,747.086Z" transform="translate(-213.319 -234.175)" fill="#575a88"/>
    <path id="Pfad_304" data-name="Pfad 304" d="M432.962,762.5c2.065-.967,4.269-2.212,6.5-1.7,3.14.7,4.54,4.416,7.208,6.187a12.849,12.849,0,0,0,5.622,1.686,131.065,131.065,0,0,0,18.174,1.075c1.941,0,4.385-.464,4.857-2.32s-1.315-3.333-2.9-4.3a85.082,85.082,0,0,0-10.734-5.576,21.523,21.523,0,0,1-5.12-2.722c-2.653-2.142-3.944-5.5-5.127-8.692-.951-2.568-1.825-8.112-3.774-10.054-2.134-2.1-5-.7-7.679-.116-4.161.912-9.033,1.547-11.708,5.282C424.363,746.717,421.354,767.875,432.962,762.5Z" transform="translate(-230.156 -233.868)" fill="#575a88"/>
    <path id="Pfad_305" data-name="Pfad 305" d="M354.151,450.711a78.839,78.839,0,0,0-5.769,27.484,156.355,156.355,0,0,0,1.338,21.074q1.833,17.013,3.681,34.027a95.987,95.987,0,0,0,2.22,14.005c1.338,5.143,3.511,10.053,5.065,15.111,4.81,15.761,3.441,32.759.263,48.93a24.46,24.46,0,0,0-.665,5.413c.093,2.73,1.145,5.328,1.825,7.973,4.16,16.124-5.413,34.027.835,49.494a2.453,2.453,0,0,0,.982,1.353,2.49,2.49,0,0,0,1.949-.085,26.346,26.346,0,0,0,5.1-2.413,31.1,31.1,0,0,0,12.636,9.149c3.666-.9,4.354-5.359,5.553-8.94a61.079,61.079,0,0,0,2.227-7.788,61.988,61.988,0,0,0,.812-9.806l3.171-111.632-.232,34.066a40.212,40.212,0,0,0,.518,8.244c.464,2.266,1.315,4.439,1.8,6.7a45.627,45.627,0,0,1,.572,9.914,291.39,291.39,0,0,0,5.375,58.635c1.237,6.326,2.722,12.714,5.885,18.321a2.018,2.018,0,0,0,1.152,1.129c.673.147,1.292-.387,1.8-.859a19.712,19.712,0,0,1,22.636-2.459c-.681-3.279,2.444-7.092.209-9.582a22.855,22.855,0,0,0-2.32-1.694c-1.423-1.214-1.763-3.256-1.964-5.12a118.572,118.572,0,0,1,0-24.956c1.09-10.37,3.542-20.826,1.732-31.088-1.315-7.447-4.857-14.693-4.153-22.187.464-5.027,2.8-9.659,4.408-14.446,7.022-20.927,0-44.251,5.081-65.734,1.168-4.934,2.931-10.27.812-14.871l3.225-.982-6.7-15.289c-1.423-3.256-2.908-6.6-5.413-9.11-4.207-4.184-10.494-5.305-16.364-6.187l-47.746-7.447C361.459,448.376,355.752,446.783,354.151,450.711Z" transform="translate(-212.833 -168.859)" fill="#3c354c"/>
    <circle id="Ellipse_51" data-name="Ellipse 51" cx="20.439" cy="20.439" r="20.439" transform="translate(150.939 119.095)" fill="#ffc0c6"/>
    <path id="Pfad_306" data-name="Pfad 306" d="M374.409,298.147a4.748,4.748,0,0,0-3.294-.58,5.629,5.629,0,0,0-1.547.843l-9.667,6.775a14.943,14.943,0,0,0-3.658,3.2c-1.655,2.25-1.918,5.243-1.7,8.027.479,6.28,3.016,12.2,4.392,18.344s1.377,13.147-2.583,18.065a9.578,9.578,0,0,0-1.686,2.39,6.96,6.96,0,0,0-.317,2.32,63.259,63.259,0,0,0,.186,8.816c.433,3.782,1.547,7.455,2.15,11.206,1.059,6.388.773,12.938,1.593,19.334a3.093,3.093,0,0,0,3.093,3.356,91.094,91.094,0,0,0,14.438.951c5.591,0,11.175-.309,16.758-.6l25.412-1.338a2.506,2.506,0,0,0,2.823-2.591c2.227-10.688,4.47-21.568,3.418-32.426-.681-7.014-2.722-13.812-4.64-20.586-1.547-5.491-3.031-11.252-1.871-16.843.773-3.689,2.653-7.1,3.14-10.827a12.768,12.768,0,0,0-3.5-10.749c-2.846-2.73-7-3.766-9.837-6.5a22.37,22.37,0,0,0-2.537-2.459,3.171,3.171,0,0,0-3.333-.387,4.293,4.293,0,0,0-1.268,1.415c-2.475,3.758-6.187,9.953-11.407,8.978C383.325,305.261,379.381,300.544,374.409,298.147Z" transform="translate(-214.174 -134.276)" fill="#00a5a5"/>
    <path id="Pfad_307" data-name="Pfad 307" d="M445.6,475.607c-1.81,1.353-3.155,3.758-2.32,5.854a11.807,11.807,0,0,0,7.239-1.005c1.446-.7,3.248-1.694,4.5-.673a3.811,3.811,0,0,1,.92,1.392,47.022,47.022,0,0,0,4.9,8.143,8.3,8.3,0,0,0,3.65-2.637,7.631,7.631,0,0,0,.951-2.823,75,75,0,0,0,1.075-7.525c.162-1.833.193-3.867-1.059-5.228C460.08,465.307,450.058,472.275,445.6,475.607Z" transform="translate(-234.29 -173.556)" fill="#ffc0c6"/>
    <path id="Pfad_308" data-name="Pfad 308" d="M372.346,247.337a3.462,3.462,0,0,1,.24-1.647c.626-1.114,2.266-.773,3.5-.5,4.98,1.261,10.224.124,15.343.417s10.9,2.854,11.925,7.88a37.439,37.439,0,0,0,9.466-9.721c1.423-2.127,2.66-4.563,2.467-7.115-.279-3.681-3.364-6.434-6.225-8.77l-8.507-6.96a12.746,12.746,0,0,0-3.82-2.421c-1.964-.673-4.114-.356-6.187-.356-6.187,0-12.814-2.815-18.336,0-2.32,1.191-4.037,3.217-5.715,5.2l-7.6,9.009a4.8,4.8,0,0,0-1.222,2.057c-.216,1.1.348,2.189.549,3.287.356,2.011-.51,4.161.155,6.094,1.106,3.209,5,3.658,7.385,5.5.889.688,2.274,3.008,3.333,2.977C370.977,252.232,372.292,248.822,372.346,247.337Z" transform="translate(-214.934 -116.441)" fill="#3f3d56"/>
    <path id="Pfad_309" data-name="Pfad 309" d="M441.852,309.746a15.854,15.854,0,0,1,12.559,2.32c5.846,4.006,8.252,11.322,10.285,18.112l4.555,15.227c2,6.674,4.006,13.41,4.47,20.362.425,6.318-.441,12.644-1.307,18.916-1.2,8.685,1.624,18.2,1.663,26.966,0,10.053-.062,20.718-5.181,29.387a4.9,4.9,0,0,0-3.093-3.3,14.42,14.42,0,0,0-4.6-.773l-13.611-.874a41.961,41.961,0,0,0,2.985-6.133c5.22-13.41,3.217-28.4,1.137-42.626a29.374,29.374,0,0,0-.773-4.022,38.341,38.341,0,0,1-.92-15.583,36.344,36.344,0,0,0,.24-7.1,7.935,7.935,0,0,0-.626-2.908,9.141,9.141,0,0,0-1.5-2.073l-2.753-3.093c-.224-9.357-1.694-18.784-3.148-28.034A62.953,62.953,0,0,1,441.852,309.746Z" transform="translate(-233.965 -137.391)" fill="#00a5a5"/>
    <path id="Pfad_310" data-name="Pfad 310" d="M394.288,348.29a65.687,65.687,0,0,1-24.623-41.706c-.448-2.931-1.616-6.759-4.578-6.659a5.839,5.839,0,0,0-2.521.882l-10.734,5.754a4.044,4.044,0,0,0-1.871,1.547c-.7,1.377.294,2.962,1.152,4.246,5.777,8.739,6.187,19.836,6.419,30.307.07,3.093.093,6.349-1.4,9.056-1.214,2.188-3.325,3.8-4.439,6.047-1.044,2.111-1.09,4.555-1.121,6.914-.217,16.828-.433,33.679.449,50.491.131,2.537.332,5.2,1.686,7.347,1.261,1.987,3.341,3.271,5.352,4.485l16.279,9.837c3.093,1.879,6.31,3.789,9.891,4.393s7.671-.418,9.729-3.41c1-1.454,1.438-3.225,2.4-4.7s2.792-2.676,4.424-2.018a5.023,5.023,0,0,1,2.32,2.8,21.2,21.2,0,0,0,3.813,6.017,7.418,7.418,0,0,0,6.473,2.32c2.011-.441,3.581-1.964,5.027-3.418,4.47-4.478,8.986-9.017,12.273-14.438a3.481,3.481,0,0,0,.7-2.189,4.407,4.407,0,0,0-1.2-2.011c-2.057-2.521-2.869-5.823-3.48-9.025-6.117-32.171,2.521-65.61-2.235-98.013-.541-3.712-1.732-7.123-4.516-9.636s-6.249-4.114-9.659-5.676c-1.121-.51-2.4-1.036-3.55-.572-1.895.773-1.9,3.38-1.763,5.414a70.931,70.931,0,0,1-.619,12.474l-1.663,15.3a29.577,29.577,0,0,1-1.3,6.883A27.716,27.716,0,0,1,394.288,348.29Z" transform="translate(-213.143 -134.616)" fill="#575a88"/>
    <path id="Pfad_311" data-name="Pfad 311" d="M268.913,179.082s-5.9,4.795-12.868-7.78-40.616-42.8-40.616-42.8-4.354-3.983,12.188-10.618S266.747,87,266.747,87s37.693,33.509,41.381,50.1-4.385,19.411-18.243,28.227S268.913,179.082,268.913,179.082Z" transform="translate(-182.586 -87)" fill="#3f3d56"/>
    <path id="Pfad_312" data-name="Pfad 312" d="M396.551,362.524,301.43,191.1l8.074-2.807,93.512,170.684a3.7,3.7,0,0,1-1.547,5.058h0A3.689,3.689,0,0,1,396.551,362.524Z" transform="translate(-202.197 -109.958)" fill="#656380"/>
    <path id="Pfad_313" data-name="Pfad 313" d="M372.047,345.935c2.49-5.328-.062-11.476-1.763-17.106a57.8,57.8,0,0,1-2.405-13.765,10.052,10.052,0,0,1,.479-4.354,3.867,3.867,0,0,1,3.31-2.529,15.877,15.877,0,0,1,2.482,11.306,38.077,38.077,0,0,1,4.377-.858,8.19,8.19,0,0,1,8.9,5.653c2.452,7.857,3.287,16.24-.131,23.587a44.864,44.864,0,0,1-3.782,6.225l-7.455,10.889a3.263,3.263,0,0,1-2.034,1.678c-.9.132-1.833-.681-2.49-1.431-2.266-2.56-6.287-6.287-5.846-9.814S370.562,349.067,372.047,345.935Z" transform="translate(-216.754 -137.132)" fill="#ffc0c6"/>
    <path id="Pfad_314" data-name="Pfad 314" d="M344.021,314.476c-7.571-.858-16.24,1.191-20.2,7.733-1.987,3.3-2.482,7.262-2.83,11.1-.487,5.375-.773,10.765-1.044,16.147l-1.462,28.335c-.178,3.387-.348,6.782-.41,10.169a22.917,22.917,0,0,0,.843,7.857,24.479,24.479,0,0,0,4.64,7.324c1.848,2.258,4.161,4.586,6.875,3.928a7.471,7.471,0,0,0,2.946-1.817l6.187-5.352c4.207-3.611,8.46-7.277,11.662-11.809,1.547-2.181,2.815-4.539,4.377-6.7,4.594-6.372,11.662-11.206,14.083-18.676-2.32-.124-5.692-.889-6.759-2.947-.565-1.09-.642-2.39-1.268-3.434-.951-1.593-3.093-2.459-3.41-4.284a104.189,104.189,0,0,0-16.024,16.681l1.972-7.664a4.873,4.873,0,0,1,.874-1.987,8.754,8.754,0,0,1,2.32-1.462c2.4-1.454,3.318-4.462,3.8-7.231A50.6,50.6,0,0,0,344.021,314.476Z" transform="translate(-205.958 -138.517)" fill="#00a5a5"/>
  </g>
</svg>
