<?xml version="1.0" standalone="no"?>
<!DOCTYPE svg PUBLIC "-//W3C//DTD SVG 20010904//EN"
 "http://www.w3.org/TR/2001/REC-SVG-20010904/DTD/svg10.dtd">
<svg version="1.0" xmlns="http://www.w3.org/2000/svg"
 width="1024.000000pt" height="1024.000000pt" viewBox="0 0 1024.000000 1024.000000"
 preserveAspectRatio="xMidYMid meet">
<metadata>
Created by potrace 1.11, written by Peter Selinger 2001-2013
</metadata>
<g transform="translate(0.000000,1024.000000) scale(0.100000,-0.100000)"
fill="#000000" stroke="none">
<path d="M6805 8312 c-27 -2 -222 -27 -285 -37 -63 -9 -99 -14 -145 -20 -27
-4 -106 -15 -175 -25 -69 -10 -147 -21 -175 -25 -55 -7 -106 -14 -145 -20 -14
-3 -50 -7 -80 -10 -30 -4 -62 -8 -70 -10 -8 -2 -37 -7 -65 -10 -27 -4 -90 -13
-140 -20 -49 -8 -115 -17 -145 -20 -30 -3 -62 -8 -70 -10 -8 -2 -39 -7 -69
-10 -30 -4 -63 -8 -74 -11 -10 -2 -45 -6 -76 -9 -31 -4 -63 -8 -71 -10 -8 -2
-33 -6 -55 -9 -22 -3 -107 -15 -190 -27 -82 -11 -161 -22 -175 -24 -89 -12
-127 -18 -144 -21 -10 -2 -44 -6 -75 -9 -31 -4 -63 -8 -71 -10 -8 -2 -33 -6
-55 -9 -185 -25 -400 -56 -435 -62 -14 -2 -52 -7 -85 -10 -33 -3 -62 -7 -65
-9 -3 -2 -29 -6 -59 -10 -30 -4 -61 -8 -70 -10 -9 -2 -44 -6 -76 -10 -33 -4
-69 -9 -79 -11 -11 -2 -56 -8 -100 -14 -45 -6 -92 -13 -106 -15 -46 -7 -115
-17 -140 -20 -14 -2 -47 -7 -75 -10 -27 -3 -61 -8 -75 -10 -14 -2 -45 -7 -70
-10 -25 -3 -56 -8 -70 -10 -14 -3 -45 -7 -70 -10 -25 -3 -56 -7 -70 -10 -24
-3 -88 -13 -140 -20 -14 -2 -45 -7 -70 -10 -25 -3 -57 -8 -71 -10 -14 -3 -43
-7 -65 -10 -79 -10 -270 -36 -294 -40 -14 -3 -61 -10 -105 -15 -82 -12 -131
-18 -175 -25 -14 -2 -61 -9 -106 -15 -44 -6 -90 -12 -102 -15 -11 -2 -47 -6
-78 -10 -32 -3 -60 -8 -63 -9 -3 -2 -35 -7 -71 -11 -36 -4 -74 -9 -85 -11 -11
-2 -38 -6 -60 -9 -40 -4 -95 -12 -150 -20 -16 -3 -48 -7 -70 -11 -22 -3 -48
-10 -57 -15 -10 -5 -18 -7 -18 -4 0 3 -17 -4 -37 -15 -21 -11 -41 -20 -46 -20
-4 0 -31 -17 -60 -39 -176 -129 -273 -286 -322 -521 -19 -89 -19 67 -1 -2025
3 -302 8 -867 11 -1255 11 -1258 10 -1209 41 -1320 39 -137 127 -247 242 -302
82 -39 204 -49 292 -24 30 9 62 18 70 20 9 2 56 17 105 32 50 15 92 28 95 29
29 7 104 30 140 42 25 8 52 16 60 18 8 2 361 108 785 235 424 127 851 255 950
285 193 57 768 230 900 270 93 28 488 146 590 176 39 12 90 28 115 36 25 8 52
16 60 18 8 3 38 10 66 18 l50 14 2 -305 c2 -342 10 -400 64 -483 35 -53 93
-99 147 -117 96 -33 28 -54 1904 574 964 322 1759 587 1767 589 79 20 688 233
731 256 97 52 209 170 263 277 55 108 58 138 61 616 2 243 6 811 10 1264 5
730 4 829 -9 877 -32 110 -125 193 -239 215 -78 14 -104 11 -367 -45 -113 -24
-216 -46 -230 -49 -81 -15 -340 -69 -370 -76 -19 -5 -51 -12 -70 -15 -19 -3
-51 -10 -70 -15 -19 -5 -48 -11 -65 -14 -16 -3 -41 -7 -55 -10 -14 -3 -72 -15
-130 -27 -117 -24 -115 -23 -150 -32 -21 -5 -381 -80 -445 -93 -11 -2 -29 -6
-40 -8 -11 -2 -78 -16 -150 -31 -71 -14 -138 -28 -147 -31 -16 -5 -17 45 -15
723 1 671 -1 733 -17 788 -45 153 -164 275 -317 324 -42 14 -152 27 -194 23z"/>
</g>
</svg>
